<?xml version="1.0" standalone="no"?>
<!DOCTYPE svg PUBLIC "-//W3C//DTD SVG 1.1//EN" "http://www.w3.org/Graphics/SVG/1.1/DTD/svg11.dtd" >
<svg xmlns="http://www.w3.org/2000/svg" xmlns:xlink="http://www.w3.org/1999/xlink" version="1.1">
<metadata>
Created by FontForge 20170731 at Thu Feb 10 18:09:50 2005
 By Aleksey,,,
Font software Copyright 1994 Adobe Systems Incorporated. Typeface designs Copyright 1994 The Monotype Corporation. All rights reserved.
</metadata>
<defs>
<font id="BaskervilleMTStd-Italic" horiz-adv-x="302" >
  <font-face 
    font-family="Baskerville MT Std"
    font-weight="400"
    font-style="italic"
    font-stretch="normal"
    units-per-em="1000"
    panose-1="2 2 6 3 5 4 5 9 3 4"
    ascent="682"
    descent="-318"
    x-height="414"
    cap-height="662"
    bbox="-207 -253 1083 914"
    underline-thickness="50"
    underline-position="-200"
    slope="-17"
    unicode-range="U+0020-FB04"
  />
<missing-glyph horiz-adv-x="500" 
d="M12 0v665h475v-665h-475zM88 618l162 -243l161 243h-323zM60 575v-484l40 61l80 120l41 61zM440 575l-162 -242l162 -243v485zM411 48l-161 242l-162 -242h323z" />
    <glyph glyph-name="f_f" unicode="ff" horiz-adv-x="448" 
d="M65 377l5 23h99q6 24 10 37.5t15.5 45.5t22 53t29.5 49.5t39.5 45.5t49.5 29t61 12q50 0 80 -42q19 15 30 22t28.5 13.5t36.5 6.5q38 0 62.5 -17.5t24.5 -36.5q0 -11 -7.5 -19t-19.5 -8q-10 0 -18.5 6.5t-11.5 11.5t-10 18q-12 22 -35 22q-16 0 -29 -7t-24 -24
t-18.5 -30.5t-15.5 -41t-11.5 -41t-11.5 -44.5l-15 -61h80l-5 -23h-81l-81 -322q-12 -49 -21 -78t-28 -69.5t-45 -72.5q-58 -72 -138 -72q-56 0 -98 39q-19 -17 -49 -28t-58 -11q-42 0 -65.5 21t-23.5 47q0 18 9.5 28.5t22.5 10.5q10 0 21 -8.5t11 -23.5q0 -2 -2.5 -13
t-2.5 -12q0 -13 12.5 -21.5t28.5 -8.5q62 0 104 83q24 46 49 143l92 368h-98zM226 400h145q20 78 35.5 118t39.5 77q-14 6 -27 32q-13 22 -38 22q-23 0 -42.5 -12t-33 -30.5t-26 -47t-21.5 -55t-19 -60.5q-3 -9 -4 -14zM365 377h-144l-75 -302q-39 -158 -86 -225
q7 -10 14 -39q8 -28 44 -28q23 0 43.5 12t36.5 36.5t28.5 47.5t24 60t17.5 58.5t15 56.5z" />
    <glyph glyph-name="fi" unicode="fi" horiz-adv-x="396" 
d="M38 378l5 22h76l11 41q30 113 84 170q58 60 130 60q37 0 61.5 -15.5t24.5 -38.5q0 -9 -6.5 -17t-18.5 -8q-4 0 -7.5 1t-6 2.5t-5.5 4.5l-4.5 4.5t-5 6t-4.5 5.5q-9 11 -13.5 16t-14.5 10t-23 5q-41 0 -70 -46t-62 -165l-10 -36h150q33 0 66 11l-87 -318q-11 -44 -11 -52
q0 -19 14 -19q30 0 68 71h20q-51 -107 -114 -107q-19 0 -34 15t-15 39q0 15 11 54l80 284h-155l-94 -363q-12 -45 -21 -75.5t-26 -67t-36 -58.5t-48 -37.5t-64 -15.5q-41 0 -65 21.5t-24 46.5q0 13 8.5 23.5t21.5 10.5q10 0 19.5 -8t9.5 -22q0 -9 -2.5 -18.5t-2.5 -12.5
q0 -8 9 -14.5t26 -6.5q44 0 71 40t55 151l103 406h-74z" />
    <glyph glyph-name="fl" unicode="fl" horiz-adv-x="406" 
d="M469 671l-157 -569q-12 -48 -12 -60q0 -20 13 -20q31 0 68 71h20q-51 -107 -114 -107q-16 0 -32 13t-16 41q0 19 12 62l78 276h-158l-94 -363q-11 -45 -21.5 -77t-27.5 -67.5t-36 -58t-47.5 -37t-62.5 -14.5q-41 0 -65 21.5t-24 46.5q0 13 8.5 23.5t21.5 10.5
q12 0 20.5 -9t8.5 -21q0 -7 -2.5 -16t-2.5 -12q0 -9 8.5 -16.5t26.5 -7.5q48 0 75 46.5t57 167.5l97 383h-74l5 22h76l11 41q6 22 12.5 42t25 57.5t40 63.5t58 46.5t78.5 20.5q23 0 47 -8q50 0 79 8zM335 400l54 196q-6 3 -14.5 16.5t-21.5 24t-33 10.5q-42 0 -71 -47
t-61 -164l-10 -36h157z" />
    <glyph glyph-name="f_f_i" unicode="ffi" horiz-adv-x="656" 
d="M87 377l5 23h85l9 33q7 27 15.5 51.5t27.5 61t42 62.5t59 45t78 19t63.5 -16t23.5 -37q55 53 111 53q38 0 62.5 -16.5t24.5 -38.5q0 -27 -27 -27q-13 0 -19.5 6.5t-19.5 28.5q-12 24 -38 24q-43 0 -72.5 -54t-55.5 -153l-11 -42h129q36 0 83 7l-81 -300q-15 -56 -15 -65
t5.5 -13t11.5 -4q17 0 40 27t28 40h22q-11 -21 -24.5 -41t-41 -42.5t-54.5 -22.5q-25 0 -36 16t-11 36q0 11 17 73l73 266h-153l-83 -323q-14 -53 -24 -87t-28.5 -77t-38.5 -67.5t-50.5 -42t-68.5 -17.5q-67 0 -97 60q-52 -60 -127 -60q-40 0 -65 19.5t-25 44.5q0 15 8.5 26
t24.5 11q14 0 22.5 -10.5t8.5 -22.5l-1 -19q0 -29 32 -29q25 0 45.5 13.5t35 36t27 55t22 67.5t20.5 77q1 6 2 9l87 336h-83zM236 400h155l8 31q28 110 77 165q-25 -3 -39 16q-10 14 -14.5 19t-15 11.5t-22.5 6.5q-20 0 -37 -9t-30.5 -27.5t-24 -37t-20.5 -46.5t-15.5 -47
t-12.5 -47zM385 377h-156l-87 -332q-22 -85 -32 -113t-29 -66q32 -4 35 -40q3 -43 42 -43q18 0 34 9t29.5 30.5t22.5 38.5t20 54t16 54.5t16 59.5z" />
    <glyph glyph-name="f_f_l" unicode="ffl" horiz-adv-x="667" 
d="M725 671h6l-151 -564q-15 -56 -15 -65q0 -17 16 -17q12 0 29 16.5t26 29.5t14 21h21q-6 -13 -16 -28.5t-26 -34.5t-36.5 -31t-41.5 -12q-25 0 -35.5 16t-10.5 36q0 15 16 73l73 266h-152l-83 -323q-14 -53 -24 -87t-28.5 -77t-39 -67.5t-51 -42t-68.5 -17.5q-66 0 -96 60
q-54 -60 -128 -60q-39 0 -64.5 19.5t-25.5 44.5q0 15 9 26t24 11t23 -10.5t8 -22.5l-1 -19q1 -29 32 -29q58 0 95 78q20 42 57 180l87 336h-82l5 23h84l9 32q8 28 16.5 52.5t27.5 61t41.5 62.5t58.5 45t78 19q43 0 64 -16t23 -37q55 53 111 53q34 0 59 -14q38 1 62 13z
M234 400h155l8 30q30 113 77 167q-25 -3 -39 16q-10 14 -14.5 19t-14.5 11t-23 6q-29 0 -52.5 -19.5t-40.5 -57t-26.5 -66t-20.5 -71.5zM383 377h-156l-87 -332q-23 -88 -32.5 -115.5t-28.5 -63.5q32 -4 35 -40q3 -43 43 -43q18 0 33.5 9t29 30.5t22.5 38.5t20 54t16 54.5
t16 59.5zM600 400l53 192q-8 4 -12.5 9t-14.5 24l-2 3q-3 3 -4.5 5.5t-5 5.5t-7 5t-9 3.5t-11.5 1.5q-41 0 -71.5 -52.5t-56.5 -154.5l-11 -42h152z" />
    <glyph glyph-name=".notdef" horiz-adv-x="500" 
d="M12 0v665h475v-665h-475zM88 618l162 -243l161 243h-323zM60 575v-484l40 61l80 120l41 61zM440 575l-162 -242l162 -243v485zM411 48l-161 242l-162 -242h323z" />
    <glyph glyph-name=".null" horiz-adv-x="0" 
 />
    <glyph glyph-name="nonmarkingreturn" horiz-adv-x="333" 
 />
    <glyph glyph-name="space" unicode=" " horiz-adv-x="250" 
 />
    <glyph glyph-name="exclam" unicode="!" horiz-adv-x="240" 
d="M34 38q0 22 15 37t37 15t37 -15t15 -37t-15.5 -37t-36.5 -15t-36.5 15.5t-15.5 36.5zM143 193h-22l94 376q9 37 14 53t18 31.5t31 15.5q14 0 23.5 -10t9.5 -26q0 -18 -20 -69z" />
    <glyph glyph-name="quotedbl" unicode="&#x22;" horiz-adv-x="417" 
d="M357 389l18 174q3 23 5 34t9 33t22.5 33t37.5 11q38 0 38 -35q0 -19 -32 -87l-77 -163h-21zM156 389l18 174q3 23 5 34t9 33t22.5 33t37.5 11q38 0 38 -35q0 -19 -32 -87l-77 -163h-21z" />
    <glyph glyph-name="numbersign" unicode="#" horiz-adv-x="667" 
d="M92 468h160l44 201h50l-44 -201h216l43 201h50l-43 -201h101v-50h-110l-40 -190h150v-50h-160l-42 -201h-50l42 201h-216l-41 -201h-50l41 201h-101v50h111l40 190h-151v50zM509 418h-216l-40 -190h216z" />
    <glyph glyph-name="dollar" unicode="$" horiz-adv-x="500" 
d="M163 30l91 306q-69 65 -69 139q0 67 47 115t115 56l8 28h27l-8 -26q37 0 73 -13l12 39h28l-16 -50q34 -18 51 -40t17 -40q0 -24 -26 -24q-22 0 -50 46l-5 7q-1 2 -1 3h-2l-77 -264q79 -79 79 -153q0 -57 -41.5 -108.5t-134.5 -66.5l-27 -90h-27l26 87q-39 0 -75 8
l-29 -95h-26l30 102q-45 17 -67 42.5t-22 41.5q0 11 7 19t18 8q17 0 28 -11.5t26 -36.5q15 -24 20 -29zM276 410l65 217q-53 -12 -79 -48t-26 -77q0 -44 40 -92zM358 333l79 269q-31 27 -68 27l-72 -239q1 -1 2.5 -3.5t5.5 -5.5q27 -23 50 -46q2 -2 3 -2zM259 1l77 259
q-20 21 -60 57l-91 -304q26 -16 74 -12zM356 238l-69 -234q59 10 89 46.5t30 78.5q0 53 -50 109z" />
    <glyph glyph-name="percent" unicode="%" horiz-adv-x="875" 
d="M595 100q0 99 55 166.5t110 67.5q37 0 61.5 -32t24.5 -87q0 -79 -50 -153.5t-111 -74.5q-42 0 -66 32t-24 81zM645 56q0 -50 35 -50q32 0 60 54t42 113t14 92q0 50 -33 50q-41 0 -79.5 -97t-38.5 -162zM141 439q0 99 55 166.5t110 67.5q37 0 61.5 -32t24.5 -87
q0 -79 -50 -153.5t-111 -74.5q-42 0 -66 32t-24 81zM191 395q0 -50 35 -50q32 0 60 54t42 113t14 92q0 50 -33 50q-41 0 -79.5 -97t-38.5 -162zM238 0h-36l553 662h35z" />
    <glyph glyph-name="ampersand" unicode="&#x26;" horiz-adv-x="854" 
d="M251 411q-23 46 -23 87q0 58 52 117t134 59q53 0 85.5 -29t32.5 -66q0 -26 -15.5 -53t-35.5 -27q-9 0 -9 9q0 5 6.5 22t6.5 30q0 34 -25.5 51t-57.5 17q-64 0 -105.5 -49.5t-41.5 -103.5q0 -64 70 -72q32 -4 32 -33q0 -11 -7 -19t-20 -8q-9 0 -15.5 3t-16.5 11l-9 8
q-25 19 -47 19q-31 0 -58.5 -30.5t-27.5 -72.5q0 -35 19 -73.5t53.5 -73t90.5 -57t122 -22.5q118 0 196.5 58.5t78.5 134.5q0 51 -38.5 90.5t-109.5 39.5q-56 0 -99 -30t-43 -76q0 -29 15 -45.5t33 -16.5q13 0 16 8.5t3 26.5q0 21 10.5 35t29.5 14q17 0 30 -12t13 -34
q0 -30 -21 -50.5t-55 -20.5q-39 0 -68 27.5t-29 69.5q0 74 61 116.5t172 42.5q35 0 63.5 2.5t60 10.5t53 21.5t35.5 37.5t14 57q0 35 -20.5 62.5t-63.5 27.5q-36 0 -36 -20q0 -5 10 -25q9 -17 9 -26q0 -18 -13.5 -31.5t-34.5 -13.5q-27 0 -38 16.5t-11 35.5q0 30 29.5 58
t85.5 28q57 0 88.5 -40t31.5 -89q0 -77 -58.5 -125.5t-174.5 -43.5q34 -22 57 -60t23 -85q0 -88 -86.5 -165.5t-231.5 -77.5q-72 0 -130.5 17t-95 43.5t-60.5 61t-34 67t-10 64.5q0 59 38.5 111t114.5 59z" />
    <glyph glyph-name="quotesingle" unicode="'" horiz-adv-x="219" 
d="M163 389l18 174q3 23 5 34t9 33t22.5 33t37.5 11q38 0 38 -35q0 -18 -28 -78l-81 -172h-21z" />
    <glyph glyph-name="parenleft" unicode="(" 
d="M187 -230l-13 -9q-67 130 -67 300q0 108 26.5 205t73 171.5t101.5 131.5t119 99l10 -12q-72 -59 -127 -134.5t-85 -143.5t-48.5 -142.5t-24 -125.5t-5.5 -98q0 -65 12.5 -134t27.5 -108z" />
    <glyph glyph-name="parenright" unicode=")" 
d="M176 660l13 9q67 -130 67 -300q0 -108 -26.5 -205t-73 -171.5t-101.5 -131.5t-119 -99l-10 12q72 59 127 134.5t85 143.5t48.5 142.5t24 125.5t5.5 98q0 65 -12.5 134t-27.5 108z" />
    <glyph glyph-name="asterisk" unicode="*" horiz-adv-x="458" 
d="M374 428l25 -14q59 -33 59 -66q0 -18 -11 -26.5t-23 -8.5q-34 0 -66 65q-28 58 -42 76q-8 -42 -8 -70q0 -14 2 -39q3 -33 -11.5 -49.5t-32.5 -16.5q-15 0 -25.5 11t-10.5 29q0 9 3.5 19.5t7 16t11 15.5t9.5 12q28 41 42 74q-39 -11 -87 -44q-29 -20 -49 -20
q-16 0 -30 9.5t-14 26.5q0 19 16 32t45 13q6 0 33 -3.5t49 -3.5t35 3q-35 32 -74 52q-16 9 -24.5 14t-19.5 19t-11 29q0 16 11 25.5t25 9.5t26.5 -10t18.5 -20.5t13 -26.5t8 -18q3 -6 9.5 -17.5t15 -26.5t11.5 -20q6 40 6 69q0 63 2 70q11 38 41 38q14 0 25.5 -12.5
t11.5 -28.5q0 -21 -29 -60q-28 -38 -44 -80q33 10 76 37q45 28 67 28q18 0 29.5 -10.5t11.5 -24.5q0 -17 -14.5 -31t-42.5 -14q-2 0 -26.5 2.5t-47.5 2.5q-26 0 -50 -4q9 -9 21 -17t19 -12t8 -4z" />
    <glyph glyph-name="plus" unicode="+" horiz-adv-x="667" 
d="M116 346h238v238h52v-238h238v-52h-238v-238h-52v238h-238v52z" />
    <glyph glyph-name="comma" unicode="," horiz-adv-x="240" 
d="M0 -178v19q76 8 115 52t39 75q0 22 -19 22q-2 0 -11 -1t-10 -1q-7 0 -16 2.5t-19.5 14.5t-10.5 31q0 28 16 41t36 13q33 0 49.5 -26.5t16.5 -62.5q0 -65 -50.5 -119t-135.5 -60z" />
    <glyph glyph-name="hyphen" unicode="-" horiz-adv-x="333" 
d="M74 220h240l-23 -40h-239z" />
    <glyph glyph-name="period" unicode="." horiz-adv-x="240" 
d="M68 38q0 22 15 37t37 15t37 -15t15 -37t-15.5 -37t-36.5 -15t-36.5 15.5t-15.5 36.5z" />
    <glyph glyph-name="slash" unicode="/" horiz-adv-x="521" 
d="M448 674h59l-341 -690h-59z" />
    <glyph glyph-name="zero" unicode="0" horiz-adv-x="500" 
d="M104 180q0 113 43 225t112 182.5t139 70.5q53 0 83.5 -56t30.5 -136q0 -27 -3 -64t-27.5 -121.5t-67.5 -151.5q-38 -59 -94 -101.5t-98 -42.5q-57 0 -87.5 58t-30.5 137zM162 103q0 -98 57 -98q49 0 105.5 93t93 220.5t36.5 226.5q0 93 -55 93t-112.5 -99.5t-91 -224.5
t-33.5 -211z" />
    <glyph glyph-name="one" unicode="1" horiz-adv-x="500" 
d="M413 658h27l-177 -586q-9 -33 -1.5 -41.5t42.5 -8.5h34l-7 -22h-242l7 22h51q21 0 29 8.5t19 43.5l128 420q14 47 14 57q0 34 -62 34h-30l7 22q117 0 161 51z" />
    <glyph glyph-name="two" unicode="2" horiz-adv-x="500" 
d="M397 57l-28 -92h-15q1 25 -10 30t-51 5h-246q0 24 5.5 34t22.5 26q12 11 141 135q44 43 63 62.5t54.5 60t52 68.5t30.5 66t14 74q0 42 -28 75t-78 33q-45 0 -77 -27t-32 -66q0 -27 19 -55q3 -5 7 -8t5.5 -4.5t1.5 -4.5q0 -7 -20.5 -22.5t-30.5 -15.5q-15 0 -26 24t-11 52
q0 56 48.5 103.5t132.5 47.5t121.5 -42.5t37.5 -96.5q0 -65 -35.5 -118t-116.5 -126q-21 -18 -111.5 -97.5t-133.5 -120.5h294z" />
    <glyph glyph-name="three" unicode="3" horiz-adv-x="500" 
d="M294 364q54 1 92 -32.5t38 -100.5q0 -93 -75 -169.5t-179 -76.5q-52 0 -97.5 21.5t-45.5 55.5q0 16 9 25t22 9q4 0 8.5 -1.5t7.5 -3t6.5 -5l5.5 -5.5t5 -6.5t4.5 -6t4.5 -6.5l2 -5q29 -50 73 -50q47 0 84 30t57 73.5t30.5 83t10.5 65.5q0 36 -17.5 61.5t-51.5 25.5
q-28 0 -73 -34q-21 -16 -29 -16q-14 0 -14 13q0 9 6 13.5t35 20.5q4 2 40 21.5t50 27.5t43.5 29.5t43 38t25.5 42t12 51.5q0 83 -102 83q-50 0 -76 -29t-26 -63q0 -20 9 -34q6 -12 6 -13q0 -7 -15.5 -19t-23.5 -12q-10 0 -20.5 18t-10.5 43q0 56 48 93.5t127 37.5
q72 0 111.5 -30t39.5 -74q0 -20 -6 -38t-20 -34t-25.5 -28t-35 -26.5t-36.5 -22t-40.5 -22t-36.5 -19.5z" />
    <glyph glyph-name="four" unicode="4" horiz-adv-x="500" 
d="M309 222h-215l9 32l375 404h32l-123 -404h32q23 0 31.5 5t22.5 31h21l-21 -68h-96l-43 -144q-9 -30 -9 -36q0 -14 11.5 -17t37.5 -3h19l-7 -22h-210l6 22h34q19 0 28.5 7.5t17.5 35.5zM134 254h185l93 302z" />
    <glyph glyph-name="five" unicode="5" horiz-adv-x="500" 
d="M190 333h-22l109 309h258q-18 -43 -29.5 -52t-37.5 -9h-190l-67 -192q45 48 107 48q56 0 98 -45.5t42 -122.5q0 -110 -78.5 -197t-192.5 -87q-66 0 -100.5 29.5t-34.5 58.5q0 12 8 21.5t23 9.5q14 0 25 -9.5t15.5 -19t11.5 -26.5q9 -24 23.5 -33t39.5 -9q52 0 98.5 52.5
t71 121.5t24.5 128q0 20 -4 40.5t-24 43t-54 22.5q-68 0 -120 -82z" />
    <glyph glyph-name="six" unicode="6" horiz-adv-x="500" 
d="M553 554q-13 0 -20.5 7t-19.5 27q-16 26 -29.5 37t-36.5 11q-43 0 -86 -37.5t-73 -89t-48.5 -92t-23.5 -59.5q45 58 117 58q67 0 110 -51.5t43 -131.5q0 -103 -67 -175.5t-151 -72.5q-63 0 -112 52.5t-49 160.5q0 101 47.5 207.5t130.5 179.5t173 73q35 0 61.5 -9.5
t39 -23t18.5 -24t6 -17.5q0 -12 -8 -21t-22 -9zM159 128q0 -60 31.5 -90.5t71.5 -30.5q42 0 76 36.5t52 88t27 96t9 70.5q0 30 -10.5 50.5t-26.5 29.5t-30 12.5t-27 3.5q-86 0 -136 -105q-37 -78 -37 -161z" />
    <glyph glyph-name="seven" unicode="7" horiz-adv-x="500" 
d="M190 518h-22l54 155h21q-3 -19 3 -24q7 -7 33 -7h259v-12l-289 -529q-43 -79 -59 -97.5t-35 -18.5q-32 0 -32 27q0 9 23 47l341 522h-210q-39 0 -54 -9.5t-27 -38.5z" />
    <glyph glyph-name="eight" unicode="8" horiz-adv-x="500" 
d="M353 333q43 -13 73.5 -51t30.5 -93q0 -44 -22.5 -89t-74 -80t-118.5 -35q-75 0 -120.5 48t-45.5 109q0 12 3 28.5t15.5 45.5t33.5 53t61.5 45.5t94.5 27.5q-12 5 -24 13t-27 22.5t-24.5 39t-9.5 54.5q0 68 54.5 127.5t138.5 59.5q62 0 98.5 -41t36.5 -94
q0 -64 -42 -120.5t-132 -69.5zM262 428q0 -38 17.5 -60t51.5 -22t61.5 28t42 67t22 71.5t7.5 50.5q0 24 -8.5 40t-21.5 22.5t-22 8.5t-17 2q-35 0 -62.5 -28t-42 -66.5t-21.5 -69t-7 -44.5zM140 91q0 -36 25 -60t72 -24q42 0 74.5 26t49 65t24.5 74.5t8 63.5q0 88 -100 88
q-48 0 -85 -45.5t-52.5 -97t-15.5 -90.5z" />
    <glyph glyph-name="nine" unicode="9" horiz-adv-x="500" 
d="M396 286q-56 -56 -115 -56q-66 0 -106 53.5t-40 129.5q0 103 65.5 174t146.5 71q26 0 51.5 -9.5t50 -31t39.5 -63t15 -98.5q0 -62 -22.5 -141t-62 -153.5t-102.5 -125.5t-133 -51q-55 0 -81 23.5t-26 47.5q0 17 10.5 26.5t23.5 9.5q12 0 21.5 -9t12.5 -16t8 -20
q13 -40 48 -40q56 0 111 92q47 78 85 187zM195 345q0 -37 22 -65t67 -28q51 0 91 44t58 102.5t18 115.5t-27 89.5t-68 32.5t-74.5 -35.5t-51 -86t-26.5 -95.5t-9 -74z" />
    <glyph glyph-name="colon" unicode=":" horiz-adv-x="240" 
d="M147 362q0 22 15 37t37 15t37 -15t15 -37t-15.5 -37t-36.5 -15t-36.5 15.5t-15.5 36.5zM68 38q0 22 15 37t37 15t37 -15t15 -37t-15.5 -37t-36.5 -15t-36.5 15.5t-15.5 36.5z" />
    <glyph glyph-name="semicolon" unicode=";" horiz-adv-x="240" 
d="M147 362q0 22 15 37t37 15t37 -15t15 -37t-15.5 -37t-36.5 -15t-36.5 15.5t-15.5 36.5zM0 -178v19q76 8 115 52t39 75q0 22 -19 22q-2 0 -11 -1t-10 -1q-7 0 -16 2.5t-19.5 14.5t-10.5 31q0 28 16 41t36 13q33 0 49.5 -26.5t16.5 -62.5q0 -65 -50.5 -119t-135.5 -60z" />
    <glyph glyph-name="less" unicode="&#x3c;" horiz-adv-x="667" 
d="M644 76l-527 223v47l527 222v-57l-457 -189l457 -189v-57z" />
    <glyph glyph-name="equal" unicode="=" horiz-adv-x="667" 
d="M116 460h528v-52h-528v52zM116 232h528v-52h-528v52z" />
    <glyph glyph-name="greater" unicode="&#x3e;" horiz-adv-x="667" 
d="M117 568l527 -223v-47l-527 -222v57l456 188l-456 189v58z" />
    <glyph glyph-name="question" unicode="?" horiz-adv-x="344" 
d="M155 191h-22l54 180h15q4 -39 31 -39q41 0 70.5 78.5t29.5 149.5q0 27 -8.5 46t-21 26.5t-21 10t-15.5 2.5q-25 0 -44 -29q-15 -22 -33 -22q-24 0 -24 23q0 19 26 35.5t62 16.5q55 0 96 -47.5t41 -117.5q0 -76 -43 -136t-107 -60q-20 0 -47 12zM54 38q0 22 15 37t37 15
t37 -15t15 -37t-15.5 -37t-36.5 -15t-36.5 15.5t-15.5 36.5z" />
    <glyph glyph-name="at" unicode="@" horiz-adv-x="917" 
d="M688 447l-83 -286q-20 -71 -20 -94q0 -12 8.5 -25t28.5 -13q72 0 139.5 95t67.5 223q0 130 -88 215.5t-229 85.5q-94 0 -174 -40.5t-132.5 -106.5t-82 -149t-29.5 -169q0 -174 107.5 -282t274.5 -108q76 0 145 23.5t137.5 86.5t109.5 160h28q-31 -97 -99.5 -166.5
t-151.5 -101.5t-172 -32q-182 0 -304 122t-122 311q0 204 136 341t326 137q86 0 154 -28.5t110 -76t63.5 -106.5t21.5 -124q0 -79 -29.5 -156t-93 -133t-146.5 -56q-75 0 -75 68q0 26 10 74q-22 -27 -39 -45.5t-44 -44t-55 -39t-55 -13.5q-43 0 -66 36t-23 78
q0 73 43.5 154.5t107 134.5t118.5 53q68 0 83 -68h2l15 54zM516 428q-42 0 -89.5 -57t-77.5 -129t-30 -119q0 -28 16 -49t41 -21q68 0 148 121q21 32 37 89t16 92q0 32 -16.5 52.5t-44.5 20.5z" />
    <glyph glyph-name="A" unicode="A" horiz-adv-x="573" 
d="M400 251h-189l-73 -113q-30 -48 -30 -65q0 -13 5 -22.5t11 -14.5t19.5 -8t22.5 -4t28 -2l-7 -22h-232l7 22q35 3 65 22.5t43 35.5t30 42l369 552h34l-23 -550q-3 -37 -0.5 -59t19.5 -31.5t59 -11.5l-7 -22h-260l7 22q35 2 53 6t28 21.5t12 33.5t4 61zM226 273h175l13 286
z" />
    <glyph glyph-name="B" unicode="B" horiz-adv-x="594" 
d="M308 0h-312l7 22h28q61 0 82 68l141 463q11 34 11 52q0 35 -63 35h-13l6 22h238q102 0 149 -44t47 -99q0 -74 -61 -116.5t-147 -53.5q76 -14 116 -55.5t40 -97.5q0 -57 -28 -98t-72.5 -61t-86 -28.5t-82.5 -8.5zM351 339h-75l-69 -225q-11 -35 -11 -48q0 -44 97 -44
q52 0 91.5 19t61 50.5t31.5 66t10 71.5q0 110 -136 110zM368 640l-85 -279h70q95 0 141.5 51.5t46.5 121.5q0 47 -28 76.5t-92 29.5h-53z" />
    <glyph glyph-name="C" unicode="C" horiz-adv-x="604" 
d="M564 206h22l-67 -214h-21q0 47 -4 66q-70 -70 -164 -70q-105 0 -168 76t-63 176q0 97 48 197t135 168.5t185 68.5q117 0 163 -104q24 41 33 76h21l-43 -192h-21q10 81 -28 140.5t-114 59.5q-63 0 -115 -39t-83 -95t-52.5 -121.5t-30 -115t-8.5 -78.5q0 -85 40.5 -140
t109.5 -55q133 0 225 196z" />
    <glyph glyph-name="D" unicode="D" horiz-adv-x="677" 
d="M180 662h76q31 0 79 3q31 2 73 2q72 0 127.5 -21t86 -52t49.5 -72.5t24.5 -75t5.5 -67.5q0 -25 -5.5 -56.5t-21 -81.5t-55.5 -100.5t-98 -86.5q-41 -25 -88.5 -37.5t-83 -14.5t-101.5 -2h-266l6 22h28q72 0 91 62l138 454q16 53 16 67q0 35 -63 35h-25zM365 644
l-160 -526q-12 -36 -12 -50q0 -46 101 -46q168 0 253 153q32 58 48 122t16 110q0 109 -53.5 173.5t-140.5 64.5q-41 0 -52 -1z" />
    <glyph glyph-name="E" unicode="E" horiz-adv-x="615" 
d="M592 168h22l-51 -168h-555l7 22h14q49 0 67 21t35 79l127 418q16 54 16 65q0 35 -63 35h-19l6 22h473l2 -149h-21q-19 73 -49.5 100t-88.5 27h-137l-86 -284h48q68 0 104.5 21.5t64.5 86.5h23l-79 -259h-23q6 28 6 49q0 49 -17.5 64.5t-78.5 15.5h-55l-62 -205
q-15 -50 -15 -60q0 -16 8 -26t24 -14t31 -5.5t39 -1.5h40q100 0 153.5 33.5t89.5 112.5z" />
    <glyph glyph-name="F" unicode="F" horiz-adv-x="542" 
d="M656 662l3 -149h-21q-11 44 -25 71t-32 38.5t-31.5 14.5t-35.5 3h-149l-82 -286h52q67 0 108.5 21.5t64.5 87.5h23l-76 -267h-24q9 33 9 58q0 22 -6 37.5t-14.5 23.5t-25.5 12t-30 4.5t-38 0.5h-50l-53 -188q-18 -63 -18 -75q0 -20 16 -31.5t29 -13.5t24 -2h16l-7 -22
h-275l7 22q26 0 43 4t27.5 9.5t19 21t12.5 26.5t12 39l124 432q10 34 10 50q0 36 -63 36h-14l6 22h464z" />
    <glyph glyph-name="G" unicode="G" horiz-adv-x="635" 
d="M674 275l-7 -21q-40 0 -51.5 -12t-27.5 -64l-45 -148q-6 5 -13 12t-10 9.5t-7 5t-7 3.5t-7 1t-11.5 -5t-19.5 -14t-21 -15q-63 -39 -135 -39q-96 0 -160.5 68t-64.5 190q0 71 27.5 146t75 138t120 103.5t153.5 40.5q116 0 172 -86l32 61h20l-40 -199h-20q5 97 -22 138
q-8 12 -19.5 23.5t-42.5 26t-69 14.5q-56 0 -104 -27.5t-79.5 -72.5t-56 -96.5t-37.5 -104.5t-19.5 -92t-6.5 -63q0 -93 40 -138q44 -48 115 -48q121 0 163 136l7 22q11 35 11 50q0 35 -63 35h-18l6 22h242z" />
    <glyph glyph-name="H" unicode="H" horiz-adv-x="750" 
d="M592 332h-316l-71 -234q-11 -36 3 -56t63 -20l-7 -22h-254l7 22q43 0 65 17.5t34 55.5l137 454q14 45 14 60q0 31 -72 31l7 22h250l-7 -22q-52 0 -69.5 -19t-39.5 -91l-52 -171h316l66 217q10 32 -1.5 48t-61.5 16l7 22h238l-6 -22q-44 0 -62.5 -19.5t-39.5 -87.5
l-129 -427q-15 -38 -0.5 -61t67.5 -23l-7 -22h-260l6 22q55 0 74 20.5t37 79.5z" />
    <glyph glyph-name="I" unicode="I" horiz-adv-x="344" 
d="M300 22l-7 -22h-279l7 22h15q27 0 46 8.5t29.5 26t13 24.5t7.5 23l134 441q14 46 14 60q0 35 -63 35h-17l7 22h260l-7 -22q-21 0 -34.5 -1t-24.5 -8.5t-16 -10.5t-13 -22t-10 -26.5t-12 -38.5l-120 -396q-17 -57 -17 -68q0 -20 16 -31.5t28.5 -13.5t23.5 -2h19z" />
    <glyph glyph-name="J" unicode="J" horiz-adv-x="472" 
d="M325 330h-121l7 22h122q23 64 61 143t61 107q-84 -27 -149 -27q-31 0 -70 4.5t-47 4.5q-31 0 -51 -11t-38 -38h-22q11 58 52.5 96.5t90.5 38.5q36 0 89 -32q3 -2 8 -5q48 -25 71 -26q14 0 25.5 2t20 6.5t13 7.5t12 9.5t9.5 8.5l10.5 10.5t15.5 13t15 4.5q18 0 18 -16
q0 -2 -0.5 -4.5t-1.5 -5t-1.5 -4t-2.5 -4t-3.5 -4.5t-4.5 -5l-5 -5l-6.5 -6.5l-6.5 -6.5q-10 -10 -24.5 -32t-18.5 -33q-23 -63 -51 -191h84l-7 -22h-82q-2 -8 -12 -54q-15 -72 -26 -119t-28.5 -106.5t-34.5 -97t-42.5 -77t-55 -61.5t-69.5 -36.5t-87 -14.5q-76 0 -114 34.5
t-38 72.5q0 22 11.5 35t27.5 13t27.5 -12.5t11.5 -33.5q0 -3 -1 -16t-1 -15q0 -24 21.5 -40t55.5 -16q72 0 116 73.5t88 229.5q31 110 78 241z" />
    <glyph glyph-name="K" unicode="K" horiz-adv-x="583" 
d="M554 61h24q-9 -17 -17 -28.5t-32.5 -25.5t-58.5 -14q-31 0 -52.5 11t-30.5 28t-12 29.5t-3 22.5q0 24 14 88q9 43 9 70q0 44 -21 63t-48 19q-36 0 -53 -26.5t-36 -90.5l-28 -92q-10 -35 -10 -47q0 -46 76 -46l-7 -22h-259l7 22q27 0 45.5 6.5t29.5 22t16.5 27.5t12.5 36
l132 433q14 44 14 58q0 35 -63 35h-19l7 22h258l-7 -22q-52 0 -69.5 -21t-37.5 -88l-58 -190q126 140 180 191q152 142 228 142q24 0 42 -13.5t18 -37.5q0 -18 -11.5 -28t-25.5 -10q-25 0 -31 27q-2 9 -4.5 13.5t-8.5 8.5t-16 4q-40 0 -128 -75q-77 -67 -223 -228
q26 11 48 11q59 0 93.5 -46t34.5 -123q0 -12 -3.5 -53.5t-3.5 -43.5q0 -46 39 -46q27 0 49 27z" />
    <glyph glyph-name="L" unicode="L" horiz-adv-x="542" 
d="M559 166h21l-55 -166h-524l7 22h15q73 0 91 62l136 451q18 59 18 70q0 35 -63 35h-14l7 22h271l-7 -22h-18q-28 0 -44 -4t-28 -20.5t-17.5 -31.5t-17.5 -54l-124 -409q-13 -45 -13 -54q0 -8 2 -15t7 -11.5t9.5 -8t12.5 -5.5t13.5 -3t15 -1.5t14 -0.5h14h12.5h49
q129 0 201 128q2 3 5 9z" />
    <glyph glyph-name="M" unicode="M" horiz-adv-x="875" 
d="M423 102l383 560h165l-6 -22q-62 0 -77.5 -15.5t-32.5 -85.5l-102 -412q-11 -44 -11 -56q0 -16 9 -26.5t22.5 -15t22.5 -6t17 -1.5h15l-7 -22h-277l7 22q61 0 79.5 20.5t34.5 83.5l118 468l-406 -594h-24l-65 544l-142 -376q-24 -64 -24 -84q0 -21 7.5 -34.5t22.5 -19
t25 -6.5t29 -2l-7 -22h-222l7 22q31 1 51 9.5t38 35.5t28.5 50.5t33.5 83.5l126 325q21 55 21 73q0 25 -16.5 33t-46.5 8h-26l6 22h155z" />
    <glyph glyph-name="N" unicode="N" horiz-adv-x="642" 
d="M512 -6h-23l-184 563l-59 -243q-16 -66 -26.5 -104.5t-25 -86.5t-28 -73.5t-31.5 -50.5t-39 -35.5t-47 -10.5q-36 0 -60 20.5t-24 51.5q0 26 11 38t27 12q14 0 25 -10t11 -27q0 -10 -9 -29q-5 -11 -5 -16q0 -18 27 -18q54 0 89 72q32 64 60 178l74 300q16 63 16 73
q0 42 -85 42h-9l6 22h153l170 -519l40 171q53 229 86 291q36 66 87 66q27 0 41 -13t14 -31q0 -17 -11.5 -27t-26.5 -10q-8 0 -15 4.5t-8.5 6.5t-9.5 12q-11 14 -20 14q-22 0 -46 -65t-71 -260z" />
    <glyph glyph-name="O" unicode="O" horiz-adv-x="656" 
d="M107 253q0 90 47.5 187t131.5 165.5t175 68.5t151.5 -71t60.5 -190q0 -102 -49 -201t-129.5 -161.5t-165.5 -62.5q-40 0 -77 14t-70.5 43.5t-54 83t-20.5 124.5zM194 204q0 -194 133 -194q63 0 116 54t83.5 131t47.5 152t17 127q0 88 -36.5 133t-94.5 45
q-61 0 -113.5 -50.5t-84.5 -123t-50 -146.5t-18 -128z" />
    <glyph glyph-name="P" unicode="P" horiz-adv-x="542" 
d="M272 322l-57 -192q-15 -48 -15 -61q0 -20 16 -31.5t28.5 -13.5t23.5 -2h16l-7 -22h-263l6 22q74 0 92 62l137 453q17 58 17 68q0 35 -63 35h-23l7 22h184q52 0 76 -1t54.5 -8t55.5 -21q40 -23 58.5 -57.5t18.5 -69.5q0 -44 -25.5 -85.5t-70.5 -63.5q-69 -34 -218 -34h-48
zM369 640l-90 -296h29q40 0 63 1.5t57 12.5t57 33q59 55 59 132q0 50 -30 85q-13 15 -34 22.5t-37.5 8.5t-50.5 1h-23z" />
    <glyph glyph-name="Q" unicode="Q" horiz-adv-x="656" 
d="M387 -4l-125 -51q87 4 214 -43q65 -24 92.5 -33.5t63.5 -17t71 -7.5q97 0 148 71h29q-64 -157 -202 -157q-13 0 -26 1.5t-26 5.5t-23.5 7t-23.5 9.5t-20.5 10.5t-19.5 11.5t-17 10.5t-16 10.5t-13 8.5q-6 4 -29.5 19.5t-33.5 22t-33.5 19t-40.5 18t-41.5 10.5t-49.5 5
q-43 0 -89 -37q-19 -15 -30 -15q-18 0 -18 16q0 3 1 6.5t3.5 6t4.5 5t7 5t8.5 4.5t10.5 5t12 5t14.5 5.5t15.5 6.5q9 4 34.5 14.5t47 19.5t34.5 14q-100 4 -157 76t-57 184q0 96 49 194.5t132.5 165t173.5 66.5t150.5 -71t60.5 -190q0 -139 -85.5 -263t-200.5 -154zM194 204
q0 -194 133 -194q63 0 116 54t83.5 131t47.5 152t17 127q0 88 -36.5 133t-94.5 45q-61 0 -113.5 -50.5t-84.5 -123t-50 -146.5t-18 -128z" />
    <glyph glyph-name="R" unicode="R" horiz-adv-x="625" 
d="M621 55l11 -23q-54 -41 -111 -41q-32 0 -55 12t-34 26.5t-17 38t-6.5 36t-0.5 31.5q0 116 -16 146q-11 21 -33 29t-63 8h-24l-59 -191q-15 -48 -15 -58q0 -15 8.5 -25.5t21 -14.5t22 -5.5t16.5 -1.5h14l-7 -22h-268l7 22q45 0 67.5 14.5t34.5 52.5l139 455q15 49 15 61
q0 35 -72 35l7 22h173q78 0 112.5 -4.5t69.5 -23.5q77 -42 77 -126q0 -104 -103 -151q-59 -26 -157 -29q36 -14 61 -34t38 -37.5t20.5 -44t9 -41t2.5 -40.5q1 -25 2 -35t4 -27t8 -23.5t14.5 -12t23.5 -5.5q26 0 63 27zM370 640l-92 -300q92 -3 155 21q114 44 114 160
q0 85 -74 109q-40 13 -103 10z" />
    <glyph glyph-name="S" unicode="S" horiz-adv-x="469" 
d="M72 222h20q3 -107 51 -158t110 -51q48 0 88 33.5t40 90.5q0 31 -13.5 59t-26.5 42.5t-37 37.5q-33 31 -48.5 47t-36 43t-29 54.5t-8.5 59.5q0 75 54.5 134.5t125.5 59.5q83 0 125 -84q17 27 30 72h20l-26 -194h-22q-1 57 -15 96.5t-36 57t-40.5 24t-37.5 6.5
q-48 0 -80.5 -38t-32.5 -91q0 -23 5.5 -41.5t22.5 -39.5t30 -33.5t44 -41.5q33 -30 52 -51t35.5 -58t16.5 -78q0 -90 -63 -141t-132 -51q-89 0 -153 87q-23 -30 -33 -67h-24z" />
    <glyph glyph-name="T" unicode="T" horiz-adv-x="656" 
d="M535 620l-147 -483q-17 -58 -17 -68q0 -20 16.5 -31.5t29 -13.5t23.5 -2h17l-7 -22h-283l7 22h15q48 0 69 22t39 82l152 500q-105 7 -137 7q-123 0 -123 -41q0 -6 5 -21q5 -20 5 -21q0 -13 -9.5 -22.5t-25.5 -9.5q-20 0 -30 15t-10 32q0 39 44 68q43 29 156 29
q32 0 212 -11q162 -12 176 -12q36 0 46.5 7t15.5 26q5 17 20 17q23 0 23 -26q0 -53 -113 -53q-14 0 -169 10z" />
    <glyph glyph-name="U" unicode="U" horiz-adv-x="708" 
d="M625 662h211l-7 -22q-46 -1 -72.5 -23t-40.5 -72l-13 -45l-91 -298q-6 -21 -10.5 -33t-15.5 -37.5t-23 -42t-32.5 -37.5t-44.5 -33.5t-58.5 -21.5t-74.5 -9q-108 0 -167.5 41t-59.5 120q0 31 14 75l95 313q17 58 17 68q0 35 -63 35h-15l7 22h270l-7 -22h-14
q-49 0 -68.5 -20t-40.5 -90l-93 -309q-19 -65 -19 -87q0 -57 43 -89.5t106 -32.5q47 0 84.5 13.5t61 33t43.5 51.5t30.5 59t21.5 65l89 294q14 48 14 60q0 20 -17.5 32.5t-66.5 19.5z" />
    <glyph glyph-name="V" unicode="V" horiz-adv-x="594" 
d="M254 -16h-39l30 515q1 17 2 38.5t2 34.5t1 15q0 32 -18.5 42.5t-69.5 10.5l3 22h266l-3 -22q-34 0 -54 -5.5t-29 -20t-11.5 -26t-3.5 -36.5l-23 -452l275 413q39 57 39 79q0 20 -15 31t-29 13.5t-38 3.5l6 22h215l-7 -22q-43 -3 -72.5 -32.5t-75.5 -98.5z" />
    <glyph glyph-name="W" unicode="W" horiz-adv-x="927" 
d="M600 -16h-30l13 548l-362 -548h-29l29 570l1 34q1 27 -13.5 39t-58.5 13l6 22h237l-7 -22q-54 -2 -66 -16.5t-15 -74.5l-24 -438l364 551h24l-14 -553l259 407q33 52 33 72q0 19 -12.5 31t-24.5 15t-33 6l6 22h200l-7 -22q-18 -1 -30 -5t-37 -25.5t-51 -62.5z" />
    <glyph glyph-name="X" unicode="X" horiz-adv-x="646" 
d="M431 366l75 -264q10 -35 16 -47.5t26 -22t60 -10.5l-5 -22h-259l6 22q16 0 25 0.5t23.5 4t21.5 12t7 21.5t-15 62l-50 177l-156 -154q-47 -47 -47 -77q0 -41 77 -46l-7 -22h-233l7 22q39 5 76.5 33.5t106.5 97.5l170 171l-70 251q-12 44 -25 54.5t-62 10.5l3 22h240
l-2 -22q-15 0 -24 -0.5t-22.5 -4t-20 -11.5t-6.5 -21q0 -10 8 -40l49 -173l141 140q45 45 45 69q0 35 -66 41l6 22h207l-7 -22q-34 -2 -60 -21.5t-97 -90.5z" />
    <glyph glyph-name="Y" unicode="Y" horiz-adv-x="552" 
d="M135 464h-22q15 39 35.5 81t58.5 85.5t74 43.5q32 0 55.5 -39.5t23.5 -116.5q0 -100 -30 -232q10 24 26.5 58.5t50 96.5t67 110.5t75 85.5t75.5 37q29 0 47.5 -16t18.5 -41q0 -15 -9 -26.5t-23 -11.5q-10 0 -20 7t-10 25q0 34 -23 34q-25 0 -66.5 -44t-83.5 -115
q-95 -161 -125 -260l-34 -113q-10 -37 -10 -43q0 -15 8 -25.5t21 -15t22 -6t17 -1.5h29l-7 -22h-307l7 22h30q50 0 71.5 24t34.5 74l41 153q10 37 20.5 116t10.5 126q0 116 -34 116q-26 0 -63.5 -61.5t-51.5 -105.5z" />
    <glyph glyph-name="Z" unicode="Z" horiz-adv-x="594" 
d="M618 -67h22q-13 -81 -53 -123.5t-97 -42.5q-52 0 -88 34t-77 112q-16 31 -23 43.5t-24.5 39t-31 38.5t-34 23t-41.5 11q-73 0 -95 -61q-13 -33 -31 -33q-10 0 -14.5 7.5t-4.5 12.5q0 21 42 72q59 73 190 177q97 77 148.5 119t118 103t102.5 105q-48 -12 -74 -12
q-50 0 -117 16q-42 11 -86 11q-49 0 -74.5 -20.5t-33.5 -43.5h-24q31 79 81 116t95 37q23 0 47.5 -9t40.5 -18.5t49 -30.5q44 -28 68 -28q21 0 35 13t18 30q10 43 31 43q19 0 19 -22q0 -15 -21.5 -47.5t-39 -53.5t-29.5 -34q-53 -58 -110.5 -107.5t-227.5 -185.5
q-14 -9 -76.5 -62.5t-93.5 -88.5q50 22 87 22q34 0 62.5 -11t55 -36.5t42 -45t43.5 -57.5q14 -19 23.5 -30t27.5 -28.5t40 -26t46 -8.5t41 7.5t26 22t12.5 25t7.5 26.5z" />
    <glyph glyph-name="bracketleft" unicode="[" horiz-adv-x="333" 
d="M237 -193l-6 -19h-191l241 853h194l-6 -19h-159l-231 -815h158z" />
    <glyph glyph-name="backslash" unicode="\" horiz-adv-x="521" 
d="M166 674l341 -690h-59l-341 690h59z" />
    <glyph glyph-name="bracketright" unicode="]" horiz-adv-x="333" 
d="M144 622l6 19h192l-241 -853h-194l6 19h159l230 815h-158z" />
    <glyph glyph-name="asciicircum" unicode="^" horiz-adv-x="427" 
d="M276 662l209 -350h-56l-163 273l-162 -273h-56l209 350h19z" />
    <glyph glyph-name="underscore" unicode="_" horiz-adv-x="500" 
d="M506 -125h-513v50h513v-50z" />
    <glyph glyph-name="grave" unicode="`" horiz-adv-x="333" 
d="M303 476l-109 93q-40 34 -40 52q0 13 9.5 21t20.5 8q16 0 28.5 -13t30.5 -43l70 -110z" />
    <glyph glyph-name="a" unicode="a" horiz-adv-x="417" 
d="M358 406h59l-87 -286q-19 -60 -19 -75q0 -20 18 -20t39 23t38 54h21q-23 -49 -57.5 -82.5t-62.5 -33.5q-26 0 -37 18.5t-11 40.5q0 21 12 59q-20 -38 -62 -78t-82 -40q-33 0 -58 28t-25 80q0 74 42 150.5t99 123t101 46.5q50 0 60 -52zM102 79q0 -65 40 -65q25 0 61 32
t61 81q28 56 47.5 121t19.5 91q0 22 -11 35.5t-30 13.5q-41 0 -86.5 -60t-73.5 -132.5t-28 -116.5z" />
    <glyph glyph-name="b" unicode="b" horiz-adv-x="417" 
d="M79 161l120 396q15 50 15 55q0 10 -6 15t-12.5 6t-20.5 1h-16l6 20q77 1 118 18h9l-108 -356q68 98 126 98q42 0 65.5 -34t23.5 -80q0 -116 -80 -215t-168 -99q-40 0 -65.5 25t-25.5 63q0 23 19 87zM112 53q0 -45 41 -45q48 0 94 61.5t71 134t25 119.5q0 65 -43 65
q-29 0 -70 -45t-70 -119q-48 -122 -48 -171z" />
    <glyph glyph-name="c" unicode="c" horiz-adv-x="320" 
d="M270 139h20q-27 -77 -70.5 -115t-86.5 -38q-37 0 -62 28.5t-25 84.5q0 76 38.5 151t92 119.5t97.5 44.5q28 0 44.5 -17.5t16.5 -39.5q0 -18 -8.5 -26.5t-18.5 -8.5q-11 0 -20.5 9t-9.5 26q0 33 -22 33q-50 0 -101 -119t-51 -195q0 -29 15 -45.5t34 -16.5q34 0 67 38.5
t50 86.5z" />
    <glyph glyph-name="d" unicode="d" horiz-adv-x="417" 
d="M393 89h24q-24 -42 -56.5 -72.5t-60.5 -30.5q-61 0 -51 87q-1 -1 -10.5 -11.5t-14.5 -16t-16 -16t-19.5 -17t-20 -13t-23 -10t-23.5 -3.5q-41 0 -60.5 32t-19.5 73q0 74 38 150.5t93 124.5t105 48q42 0 62 -41l59 197q11 40 11 42q0 11 -6 15.5t-14.5 5.5t-32.5 1l6 20
q66 0 117 19l9 -1l-172 -564q-13 -46 -13 -63q0 -24 18 -24q13 0 34 21t37 47zM98 68q0 -56 38 -56q33 0 72.5 45.5t69.5 118.5q17 42 32.5 97t15.5 69q0 19 -12.5 32.5t-31.5 13.5q-41 0 -86 -62.5t-71.5 -137.5t-26.5 -120z" />
    <glyph glyph-name="e" unicode="e" 
d="M264 125h24q-27 -63 -69 -101t-90 -38q-35 0 -62.5 26t-27.5 79q0 74 38.5 151t92 124.5t97.5 47.5q23 0 36.5 -13t16.5 -25t3 -24q0 -105 -211 -194q-15 -43 -15 -81q0 -18 5 -31t11 -18.5t14.5 -9t12 -4t7.5 -0.5q67 0 117 111zM119 183q56 25 110 75.5t54 92.5
q0 37 -31 37q-27 0 -66.5 -53t-66.5 -152z" />
    <glyph glyph-name="f" unicode="f" horiz-adv-x="250" 
d="M317 400l-7 -22h-85l-76 -285q-8 -32 -14 -52.5t-19 -58.5t-25.5 -63.5t-32.5 -57t-42 -50.5t-51.5 -32t-62.5 -13q-38 0 -73 18t-35 49q0 16 10 26t24 10q16 0 26 -11t10 -25q0 -3 -1.5 -10t-1.5 -11q0 -8 9 -16t31 -8q62 0 103 71t87 242l74 277h-96l7 22h96
q10 40 19 70.5t28 71t41 66.5t56.5 45t76.5 19q38 0 62.5 -17t24.5 -39q0 -8 -5.5 -17t-18.5 -9q-8 0 -14.5 3.5t-10 7t-9.5 12.5t-8 11q-19 24 -38 24q-79 0 -120 -159l-24 -89h85z" />
    <glyph glyph-name="g" unicode="g" horiz-adv-x="354" 
d="M149 -61l-38 9q-93 22 -93 72q0 27 28 55.5t91 41.5q-63 35 -63 113q0 64 48 123.5t118 59.5q39 0 68 -26q37 27 55 27q15 0 27.5 -9.5t12.5 -25.5q0 -9 -6.5 -16.5t-16.5 -7.5t-21 12q-2 2 -4.5 5.5t-3.5 5t-3 3t-3.5 2t-4.5 0.5q-8 0 -17 -13q19 -32 19 -76
q0 -74 -43.5 -127t-126.5 -64q-106 -13 -106 -57q0 -12 9 -20t19.5 -11t34.5 -9l101 -24q94 -23 94 -95q0 -48 -48 -86.5t-148 -38.5q-89 0 -137.5 28.5t-48.5 72.5q0 28 22.5 51.5t42.5 23.5q17 0 17 -13q0 -5 -16 -23.5t-16 -37.5q0 -30 33 -55t99 -25q80 0 112 25.5
t32 55.5q0 21 -20 37t-40.5 22t-58.5 15zM126 186q0 -31 17 -45.5t38 -14.5q29 0 52 27t34.5 63.5t17 66t5.5 43.5q0 67 -47 67q-32 0 -60.5 -40t-42.5 -87.5t-14 -79.5z" />
    <glyph glyph-name="h" unicode="h" horiz-adv-x="417" 
d="M78 -7h-58l171 563q15 47 15 56q0 10 -6 15t-12.5 6t-20.5 1h-16l6 20q70 0 119 18h8l-111 -368q86 110 161 110q65 0 65 -56q0 -21 -14 -60l-68 -196q-15 -41 -15 -54q0 -26 19 -26q22 0 44 25.5t34 49.5h24q-25 -50 -59.5 -80.5t-64.5 -30.5q-22 0 -38.5 16t-16.5 45
q0 31 19 81l50 136q29 74 29 97q0 25 -28 25q-45 0 -102 -69t-94 -191z" />
    <glyph glyph-name="i" unicode="i" horiz-adv-x="240" 
d="M227 107h24q-25 -49 -60 -85t-71 -36q-20 0 -39 14.5t-19 50.5q0 19 17 70l66 178q20 54 20 64q0 19 -18 19q-17 0 -42.5 -27t-40.5 -56h-23q32 61 66 88t60 27q24 0 38 -16t14 -41q0 -24 -26 -95l-47 -127q-26 -69 -26 -86q0 -11 5 -17.5t9 -8t8 -1.5q19 0 43.5 26
t41.5 59zM191 629q0 17 12.5 30t30.5 13t30.5 -13t12.5 -30q0 -18 -13 -30.5t-30 -12.5t-30 12.5t-13 30.5z" />
    <glyph glyph-name="j" unicode="j" horiz-adv-x="204" 
d="M54 284h-22q16 49 49.5 89.5t66.5 40.5q22 0 37.5 -18.5t15.5 -46.5q0 -22 -20 -102l-61 -225q-11 -40 -18.5 -64t-26 -66t-38.5 -66.5t-54 -44t-74 -19.5q-38 0 -69.5 19.5t-31.5 49.5q0 14 8 23t21 9q16 0 23 -10.5t12 -30.5q9 -38 43 -38q28 0 48.5 13.5t39 54
t27 67.5t29.5 101q2 7 3 10l66 237q21 79 21 93q0 22 -16 22q-35 0 -79 -98zM178 629q0 17 12.5 30t30.5 13t30.5 -13t12.5 -30q0 -18 -13 -30.5t-30 -12.5t-30 12.5t-13 30.5z" />
    <glyph glyph-name="k" unicode="k" horiz-adv-x="385" 
d="M376 112h21q-30 -126 -109 -126q-62 0 -62 79q0 15 4 59t4 60q0 47 -37 47q-32 0 -47.5 -24t-35.5 -89l-38 -125h-58l177 581q9 27 9 38q0 10 -5.5 15t-12 6t-20.5 1h-18l6 20q74 0 118 18h11l-136 -444q11 12 34.5 36.5t36.5 38t34 34t35 31.5t31.5 23t32.5 17.5t29 5.5
q17 0 30.5 -8.5t13.5 -23.5q0 -12 -9 -20.5t-20 -8.5q-6 0 -24 9q-14 8 -25 8q-42 0 -156 -124q10 2 16 2q28 0 46.5 -18t25.5 -47t9.5 -50t2.5 -43q0 -34 5 -49t21 -15t33.5 23.5t26.5 62.5z" />
    <glyph glyph-name="l" unicode="l" horiz-adv-x="240" 
d="M228 117h22q-20 -51 -52.5 -91t-75.5 -40q-28 0 -43.5 18.5t-15.5 44.5q0 30 14 77l129 419q17 51 17 67q0 10 -6 15t-12.5 6t-21.5 1h-18l6 20q73 0 120 18h11l-167 -550q-18 -58 -18 -77q0 -31 23 -31q20 0 45 28.5t43 74.5z" />
    <glyph glyph-name="m" unicode="m" horiz-adv-x="635" 
d="M617 92h21q-21 -44 -54 -75t-66 -31q-20 0 -37 14.5t-17 44.5q0 20 11 55l65 188q16 46 16 59q0 31 -28 31q-44 0 -95 -66q-63 -82 -109 -234l-26 -85h-58l79 262q21 71 21 92q0 29 -23 29q-45 0 -112 -101q-43 -65 -96 -234l-15 -48h-58l91 300q14 51 14 64q0 16 -9 16
q-6 0 -16 -5.5t-27 -25t-33 -49.5h-22q25 52 58.5 83t59.5 31q15 0 28 -11.5t13 -35.5q0 -30 -31 -125q36 72 83.5 122.5t87.5 50.5q25 0 40.5 -16.5t15.5 -49.5q0 -16 -8 -51.5t-16 -55.5q34 69 80 121t96 52q27 0 47 -18.5t20 -51.5q0 -30 -14 -68l-59 -173
q-16 -51 -16 -59q0 -22 18 -22q14 0 36 20t44 56z" />
    <glyph glyph-name="n" unicode="n" horiz-adv-x="427" 
d="M403 92h25q-55 -106 -122 -106q-10 0 -20.5 3t-22 16.5t-11.5 34.5q0 19 23 87l52 148q21 61 21 79q0 30 -29 30q-41 0 -98 -86q-59 -90 -101 -227l-24 -78h-60l89 288q21 67 21 77q0 16 -13 16q-14 0 -33 -20.5t-35 -50.5h-23q61 111 116 111q38 0 38 -47
q0 -29 -32 -132q90 179 171 179q27 0 47 -17.5t20 -52.5q0 -22 -20 -82l-59 -176q-14 -42 -14 -50t5.5 -14t12.5 -6q30 0 76 76z" />
    <glyph glyph-name="o" unicode="o" horiz-adv-x="365" 
d="M49 128q0 105 63.5 195.5t141.5 90.5q41 0 70.5 -35t29.5 -104q0 -67 -25.5 -133t-73.5 -111t-104 -45q-29 0 -49.5 13.5t-30.5 30t-15.5 40.5t-6 35t-0.5 23zM101 72q0 -23 13 -43.5t39 -20.5q36 0 67 42t47.5 99.5t25.5 105t9 68.5q0 35 -15 52t-36 17
q-45 0 -81.5 -65.5t-52.5 -137t-16 -117.5z" />
    <glyph glyph-name="p" unicode="p" horiz-adv-x="417" 
d="M55 201h-22l92 148q23 37 33 55t24 49t25 69l7 23h58q-23 -86 -75 -229q64 98 127 98q37 0 62 -32.5t25 -85.5q0 -106 -70 -207.5t-156 -101.5q-55 0 -67 51l-63 -206q-10 -27 -2 -38.5t46 -11.5h20l-6 -20h-204l6 20h20q29 0 41 9t20 37l115 378q36 118 68 198
q-9 -24 -124 -203zM165 191l-20 -65q-13 -47 -13 -62q0 -21 12 -39t38 -18q38 0 73 40.5t55.5 96t32.5 105.5t12 77q0 62 -40 62q-38 0 -81 -50q-18 -20 -32.5 -49.5t-20 -45.5t-16.5 -52z" />
    <glyph glyph-name="q" unicode="q" horiz-adv-x="417" 
d="M367 408h58l-170 -561q-8 -25 -10 -37.5t6 -19t18.5 -7.5t37.5 -1l-7 -20h-196l6 20h23q30 0 38 7q10 9 17 31l76 250q-55 -84 -122 -84q-36 0 -63 29.5t-27 91.5q0 73 40 146.5t94.5 117t99.5 43.5q28 0 45 -16.5t21 -40.5zM300 188l28 96q9 32 9 49q0 24 -13 41.5
t-36 17.5q-43 0 -86 -59.5t-68.5 -134t-25.5 -127.5q0 -25 11.5 -44t31.5 -19q44 0 84.5 49.5t64.5 130.5z" />
    <glyph glyph-name="r" unicode="r" horiz-adv-x="292" 
d="M62 282h-21q19 50 48.5 91t64.5 41q41 0 41 -68q0 -29 -23 -128l13.5 31.5t16.5 37.5t17 36t20 36t20.5 27.5t23.5 21t24 6.5q17 0 27.5 -11t10.5 -26t-8.5 -24t-20.5 -9q-11 0 -22 11t-16 11q-24 0 -72.5 -113t-79.5 -210l-16 -50h-58l66 220q34 115 34 138q0 29 -15 29
q-18 0 -39 -31t-36 -67z" />
    <glyph glyph-name="s" unicode="s" horiz-adv-x="313" 
d="M261 108q0 -46 -35 -84t-103 -38q-52 0 -76 23t-24 47q0 11 6.5 22t20.5 11q26 0 26 -28q0 -5 -2 -14t-2 -11q0 -14 15.5 -22t34.5 -8q41 0 64 24.5t23 54.5q0 28 -16 58l-48 90q-18 35 -18 67q0 48 37.5 80t84.5 32q35 0 59.5 -17.5t24.5 -37.5q0 -11 -6 -19t-16 -8
q-16 0 -23 29q-8 33 -43 33q-27 0 -48 -15.5t-21 -40.5q0 -31 26 -77l36 -64q23 -42 23 -87z" />
    <glyph glyph-name="t" unicode="t" horiz-adv-x="240" 
d="M291 400l-7 -22h-73l-88 -290q-9 -29 -9 -45q0 -11 6 -18t14 -7q22 0 49 36t48 82h22q-23 -54 -60 -102t-79 -48q-24 0 -39 17t-15 45q0 27 11 60l82 270h-67l6 22h67l45 148h59l-45 -148h73z" />
    <glyph glyph-name="u" unicode="u" horiz-adv-x="427" 
d="M407 101h20q-5 -15 -11.5 -29t-20.5 -36.5t-35 -36t-45 -13.5q-48 0 -48 53q0 24 27 125q-10 -23 -25 -49.5t-37.5 -57.5t-51 -51t-56.5 -20q-30 0 -48 18t-18 49q0 29 22 92l56 161q18 54 18 57q0 17 -13 17q-31 0 -68 -83h-23q20 53 51.5 85t62.5 32q16 0 31 -11
t15 -37q0 -16 -18 -69l-61 -181q-19 -55 -19 -68q0 -32 29 -32q38 0 86 73q67 101 128 290l9 28h58l-85 -280q-21 -73 -21 -83q0 -24 20 -24q36 0 71 81z" />
    <glyph glyph-name="v" unicode="v" horiz-adv-x="354" 
d="M77 338h-20q25 76 63 76q20 0 43 -36q7 -14 19 -14t18 20q10 30 24 30q11 0 11 -11q0 -7 -5 -18.5t-14 -28t-10 -18.5q-26 -50 -39.5 -78t-31.5 -81t-18 -91q0 -37 15.5 -54.5t32.5 -17.5q40 0 79.5 45t62.5 106t23 111q0 33 -14 67q-9 23 -9 35q0 13 7 23.5t19 10.5
q13 0 23 -16.5t10 -47.5q0 -48 -14.5 -108.5t-40.5 -118.5t-70 -97.5t-96 -39.5q-37 0 -61.5 23t-24.5 67q0 47 28 105t63.5 110t39.5 61q-19 -13 -36 -13q-15 0 -29 12q-14 11 -22 11q-15 0 -26 -24z" />
    <glyph glyph-name="w" unicode="w" horiz-adv-x="625" 
d="M74 339h-21q5 24 15 42q15 30 36 30q18 0 40 -24t35 -24q12 0 19 20q1 2 2.5 8.5t3 9t3.5 6.5t5.5 5.5t8.5 1.5q16 0 16 -14q0 -7 -27 -53q-100 -170 -100 -270q0 -21 10.5 -40t35.5 -19q37 0 82.5 36t60.5 56q-2 14 -2 26q0 57 16.5 121t46.5 110.5t63 46.5q37 0 37 -55
q0 -82 -101 -213q3 -55 22 -92.5t53 -37.5q38 0 77.5 44.5t63.5 103.5t24 104q0 28 -16 62q-14 29 -14 51q0 14 8 23.5t18 9.5q5 0 11 -2.5t15.5 -23t9.5 -57.5q0 -50 -15.5 -108.5t-43 -112t-71.5 -89t-93 -35.5q-27 0 -48 13t-32.5 33t-16 31.5t-6.5 19.5
q-94 -97 -174 -97q-45 0 -63.5 27.5t-18.5 59.5q0 52 35.5 117.5t101.5 157.5q-17 -12 -41 -12q-18 0 -36 18q-9 8 -15 8q-12 0 -20 -23zM354 173q16 20 32 45.5t34 68t18 75.5q0 30 -18 30q-16 0 -32 -26.5t-26.5 -78.5t-7.5 -114z" />
    <glyph glyph-name="x" unicode="x" horiz-adv-x="406" 
d="M107 294h-21q15 42 41 81t52 39q13 0 22.5 -11t14 -24.5t12.5 -44.5l21 -80l78 98q18 23 28 34t22.5 19.5t23.5 8.5q22 0 22 -27q0 -39 -19 -84h-21q17 55 17 73q0 12 -8 12q-9 0 -45 -46l-91 -113l29 -119q9 -34 15 -51.5t9 -21t8 -3.5q9 0 21.5 22t21.5 54h21
q-16 -56 -39 -90t-48 -34q-14 0 -23.5 7t-17 24.5t-11.5 29.5t-11 40l-21 83l-88 -115q-31 -40 -46 -54.5t-30 -14.5q-24 0 -24 31q0 30 26 80h20q-23 -51 -23 -71q0 -14 8 -14q12 0 44 43l107 141l-32 130q-13 38 -19 40q-17 0 -46 -72z" />
    <glyph glyph-name="y" unicode="y" horiz-adv-x="365" 
d="M68 281h-20q3 37 12 63.5t19 39.5t22.5 20.5t18.5 8.5t12 1q27 0 54 -39q25 -36 25 -140q0 -121 -28 -219q48 54 94 133.5t46 140.5q0 31 -16 55q-15 20 -15 37q0 13 7 22.5t19 9.5q19 0 29.5 -22t10.5 -57q0 -64 -34.5 -140.5t-83.5 -140.5t-104.5 -122t-95 -92.5
t-56.5 -44.5q-65 -39 -120 -39q-28 0 -45 9.5t-17 26.5q0 15 13.5 23.5t27.5 8.5q12 0 35 -7q29 -9 51 -9q28 0 60 18.5t89 76.5q38 38 54 102q24 99 24 225q0 68 -12 105t-31 37q-37 0 -45 -91z" />
    <glyph glyph-name="z" unicode="z" horiz-adv-x="427" 
d="M158 312h-18q6 19 12.5 33.5t18.5 32t31 27t43 9.5q38 0 72 -28q2 -1 6.5 -5t7 -5.5t7 -4.5t8 -4.5t9 -2.5t11.5 -1q27 0 36 29q7 22 21 22q13 0 13 -13q0 -31 -128 -141l-128 -108q-84 -71 -111 -114q25 14 49 14q46 0 129 -62q55 -41 90 -41q57 0 61 63h17
q1 -60 -28.5 -94.5t-72.5 -34.5q-27 0 -49 12.5t-35.5 27t-38.5 47.5q-17 22 -26 32t-23 19t-30 9q-29 0 -48 -19q-7 -7 -10.5 -15.5t-6.5 -12.5t-11 -4t-8 15q0 65 204 233q98 79 142 119q-17 -5 -33 -5q-19 0 -60.5 3.5t-45.5 3.5q-28 0 -44 -5t-20.5 -11t-12.5 -20z" />
    <glyph glyph-name="braceleft" unicode="{" horiz-adv-x="479" 
d="M149 203v19q54 10 82.5 39.5t28.5 64.5q0 26 -12 74q-11 46 -11 79q0 65 49 123.5t136 69.5v-19q-52 -9 -83 -39.5t-31 -78.5q0 -20 9 -74q11 -49 11 -83q0 -18 -5.5 -37t-19 -43t-43 -46.5t-71.5 -37.5q44 -18 74.5 -42t43 -48.5t17 -42t4.5 -33.5q0 -28 -11 -83
q-8 -43 -8 -73q0 -93 113 -121v-17q-84 11 -134 67.5t-50 123.5q0 33 11 77q12 72 12 75q0 7 -0.5 13.5t-6.5 22t-17 27.5t-33.5 24.5t-54.5 18.5z" />
    <glyph glyph-name="bar" unicode="|" horiz-adv-x="510" 
d="M268 674h54v-920h-54v920z" />
    <glyph glyph-name="braceright" unicode="}" horiz-adv-x="479" 
d="M422 222v-19q-54 -10 -82.5 -39.5t-28.5 -64.5q0 -26 12 -74q11 -46 11 -79q0 -65 -49 -123.5t-136 -69.5v19q52 9 83 39.5t31 78.5q0 20 -9 74q-11 50 -11 83q0 18 5.5 37t19 43t43 46.5t71.5 37.5q-44 18 -74.5 42t-43 48.5t-17 42t-4.5 33.5q0 28 11 83q8 43 8 73
q0 93 -113 121v17q84 -11 134 -67.5t50 -123.5q0 -33 -11 -77q-12 -72 -12 -75q0 -7 0.5 -13.5t6.5 -22t17 -27.5t33.5 -24.5t54.5 -18.5z" />
    <glyph glyph-name="asciitilde" unicode="~" horiz-adv-x="667" 
d="M619 392h23q-1 -66 -36.5 -103t-85.5 -37q-27 0 -57 9.5t-125 49.5q-76 31 -106 31q-72 0 -90 -89h-23q2 39 14.5 68t27 42t33.5 20.5t27 8.5t15 1q47 0 186 -59q74 -32 107 -32q31 0 58 20t32 70z" />
    <glyph glyph-name="uni00A0" unicode="&#xa0;" horiz-adv-x="250" 
 />
    <glyph glyph-name="exclamdown" unicode="&#xa1;" horiz-adv-x="240" 
d="M248 389q0 -22 -15 -37t-37 -15t-37 15t-15 37t15.5 37t36.5 15t36.5 -15.5t15.5 -36.5zM139 234h22l-94 -376q-9 -37 -14 -53t-18 -31.5t-31 -15.5q-14 0 -23.5 10t-9.5 26q0 18 20 69z" />
    <glyph glyph-name="cent" unicode="&#xa2;" horiz-adv-x="448" 
d="M307 410l61 197h21l-59 -193q29 1 47 -16.5t18 -40.5q0 -18 -9 -26.5t-19 -8.5q-26 0 -29 35q-1 10 -1.5 14t-4 9.5t-10.5 8.5l-113 -373q34 -3 68.5 35.5t52.5 87.5h19q-24 -68 -63.5 -107.5t-85.5 -44.5l-53 -173h-21l53 173q-32 6 -53 33.5t-21 78.5q0 102 65 195.5
t137 115.5zM190 22l110 364q-53 -26 -94.5 -136.5t-41.5 -173.5q0 -37 26 -54z" />
    <glyph glyph-name="sterling" unicode="&#xa3;" horiz-adv-x="792" 
d="M243 101l81 138q78 132 159 230q154 189 303 189q42 0 75 -16t33 -43q0 -17 -11 -29.5t-26 -12.5q-12 0 -17.5 7.5t-11.5 27.5q-13 42 -68 42q-117 0 -234 -199q-131 -223 -214 -334h181l-15 -22h-183q-42 -55 -129 -155q29 13 61 13q17 0 32 -3.5t27 -10t21.5 -13.5
t17.5 -16t12 -15l9 -13.5t6 -8.5q13 -16 21.5 -25t24 -17t34.5 -8q48 0 89.5 36t41.5 74q0 13 -4 26.5t-4 17.5q0 21 14 31t26 10q26 0 26 -34q0 -69 -80 -138t-162 -69q-42 0 -70 20.5t-55 61.5q-43 63 -79 63q-26 0 -41 -18q-6 -7 -24 -29.5t-29.5 -35.5t-28 -30
t-30.5 -25t-26 -8q-20 0 -20 17q0 30 59 74t92 61q45 69 77 124l25 43h-157l15 22h156z" />
    <glyph glyph-name="currency" unicode="&#xa4;" horiz-adv-x="512" 
d="M469 174l-30 -31l-66 65q-54 -41 -118 -41q-63 0 -117 41l-67 -65l-30 31l67 64q-40 58 -40 116q0 63 40 116l-67 65l30 31l67 -65q58 41 117 41q61 0 117 -41l67 65l30 -31l-66 -65q41 -56 41 -116q0 -57 -41 -116zM401 355q0 62 -44.5 103t-100.5 41q-61 0 -103 -42.5
t-42 -101.5t42.5 -102.5t101.5 -43.5q60 0 103 43t43 103z" />
    <glyph glyph-name="yen" unicode="&#xa5;" horiz-adv-x="500" 
d="M287 185h203l-8 -29h-203q-20 -70 -20 -87q0 -15 7.5 -25.5t18.5 -14.5t19.5 -5.5t15.5 -1.5h26l-6 -22h-276l6 22h27q34 0 57.5 18t37.5 76l10 40h-177l8 29h176l16 72h-176l8 29h174l8 38q19 91 19 192q0 115 -32 115q-23 0 -56 -61t-47 -106h-20q8 24 21 54t33.5 68
t46.5 63t51 25q29 0 50 -40t21 -115q0 -63 -25 -228q40 111 110 232q87 151 152 151q25 0 42 -16t17 -41q0 -14 -8 -26t-20 -12q-9 0 -15 3.5t-8.5 13t-3 12.5t-1.5 13q0 24 -20 24q-31 0 -94 -94q-33 -50 -72 -127.5t-62 -137.5h197l-8 -29h-199z" />
    <glyph glyph-name="brokenbar" unicode="&#xa6;" horiz-adv-x="510" 
d="M268 122h54v-368h-54v368zM268 674h54v-368h-54v368z" />
    <glyph glyph-name="section" unicode="&#xa7;" horiz-adv-x="417" 
d="M233 350q-53 68 -53 139q0 70 44.5 120t120.5 50q56 0 94.5 -31.5t38.5 -68.5q0 -17 -9 -28.5t-24 -11.5q-35 0 -39 56q-3 33 -26 49t-49 16q-50 0 -80 -34.5t-30 -76.5q0 -32 14 -63t28 -48t38 -41q92 -92 92 -174q0 -62 -37 -96.5t-87 -34.5q-18 0 -50 10
q26 -24 44 -62.5t18 -75.5q0 -27 -9.5 -55.5t-28.5 -55.5t-53.5 -44.5t-78.5 -17.5q-67 0 -106.5 38.5t-39.5 78.5q0 15 8.5 28t25.5 13q35 0 42 -55q5 -38 28.5 -60.5t56.5 -22.5q52 0 82 36t30 79q0 36 -19 70.5t-68 90.5q-25 29 -39 47.5t-27.5 51t-13.5 65.5q0 57 36 91
t85 34q19 0 41 -6zM115 266q0 -65 55.5 -120t98.5 -55q36 0 55 21t19 52q0 50 -47 112t-102 62q-35 0 -57 -22t-22 -50z" />
    <glyph glyph-name="dieresis" unicode="&#xa8;" horiz-adv-x="333" 
d="M145 561q0 17 12 29t29 12t29.5 -12t12.5 -29t-12.5 -29t-29.5 -12t-29 12t-12 29zM316 561q0 17 12 29t29 12t29 -12t12 -29t-12 -29t-29 -12t-29 12t-12 29z" />
    <glyph glyph-name="copyright" unicode="&#xa9;" horiz-adv-x="760" 
d="M598 551l10 -137h-19q-5 14 -8 23t-15 28.5t-26.5 31.5t-40.5 22t-58 10q-71 0 -114 -50t-43 -140q0 -12 0.5 -23t4 -33t9 -39t17.5 -38t28.5 -35t43 -23.5t59.5 -9.5q95 0 152 79l18 -10q-68 -99 -187 -99q-99 0 -162.5 64.5t-63.5 152.5q0 92 67.5 159t176.5 67
q31 0 69 -11q35 -11 39 -11q15 0 24 22h19zM427 674q143 0 244.5 -101t101.5 -245q0 -143 -101.5 -244.5t-244.5 -101.5t-244.5 101.5t-101.5 244.5q0 144 101.5 245t244.5 101zM427 644q-130 0 -223 -92t-93 -224q0 -131 92.5 -223.5t223.5 -92.5t223.5 92.5t92.5 223.5
q0 132 -93 224t-223 92z" />
    <glyph glyph-name="ordfeminine" unicode="&#xaa;" horiz-adv-x="271" 
d="M328 670h38l-59 -178q-10 -30 -10 -39q0 -13 12 -13q21 0 49 47h14q-14 -29 -36.5 -49t-41.5 -20q-30 0 -30 35q0 9 6 33q-47 -68 -93 -68q-21 0 -37.5 16.5t-16.5 47.5q0 67 55.5 129.5t102.5 62.5q34 0 39 -32zM162 474q0 -39 25 -39q16 0 41 20t46 62q14 28 25 63.5
t11 49.5q0 13 -7.5 21t-18.5 8q-40 0 -81 -72.5t-41 -112.5z" />
    <glyph glyph-name="guillemotleft" unicode="&#xab;" horiz-adv-x="333" 
d="M105 33h-23l-84 182l178 177h29l-131 -188zM308 33h-22l-85 182l178 177h29l-131 -188z" />
    <glyph glyph-name="logicalnot" unicode="&#xac;" horiz-adv-x="667" 
d="M116 460h528v-280h-52v228h-476v52z" />
    <glyph glyph-name="uni00AD" unicode="&#xad;" horiz-adv-x="333" 
d="M74 220h240l-23 -40h-239z" />
    <glyph glyph-name="registered" unicode="&#xae;" horiz-adv-x="760" 
d="M235 541h189q67 0 106 -30.5t39 -78.5q0 -81 -109 -109l103 -145q14 -19 25.5 -29t17.5 -11.5t16 -2.5v-17h-90l-144 198h-37v-129q0 -21 2 -30t15 -15.5t41 -6.5v-17h-179v17q19 0 29.5 3t15 13t5.5 19.5t1 31.5v256q0 29 -2 40t-11.5 18.5t-32.5 7.5v17zM351 512v-175
h15q48 0 86 20t38 69q0 39 -27 66t-71 27q-20 0 -41 -7zM427 674q143 0 244.5 -101t101.5 -245q0 -143 -101.5 -244.5t-244.5 -101.5t-244.5 101.5t-101.5 244.5q0 144 101.5 245t244.5 101zM427 644q-130 0 -223 -92t-93 -224q0 -131 92.5 -223.5t223.5 -92.5t223.5 92.5
t92.5 223.5q0 132 -93 224t-223 92z" />
    <glyph glyph-name="macron" unicode="&#xaf;" horiz-adv-x="333" 
d="M180 580h278l-11 -45h-278z" />
    <glyph glyph-name="degree" unicode="&#xb0;" horiz-adv-x="396" 
d="M262 656q65 0 111 -46t46 -111t-46 -111t-111 -46t-111 46t-46 111t46 111t111 46zM262 607q-45 0 -76.5 -31.5t-31.5 -76.5t31.5 -76.5t76.5 -31.5t76.5 31.5t31.5 76.5t-31.5 76.5t-76.5 31.5z" />
    <glyph glyph-name="plusminus" unicode="&#xb1;" horiz-adv-x="667" 
d="M116 52h528v-52h-528v52zM116 427h238v238h52v-238h238v-52h-238v-238h-52v238h-238v52z" />
    <glyph glyph-name="two.superior" unicode="&#xb2;" 
d="M303 352l-18 -53h-20q0 12 -3.5 15t-18.5 3h-158v8.5t0.5 6t2 5.5t2.5 4t4.5 5t6.5 5.5t9.5 7.5t12.5 10l37 30q89 73 119.5 111t30.5 78q0 20 -14 36t-42 16q-24 0 -41.5 -12.5t-17.5 -31.5q0 -12 9 -25q1 -2 4 -4.5t5 -4.5t2 -3q0 -4 -14 -13t-22 -9q-14 0 -21 13.5
t-7 28.5q0 29 30.5 54t82.5 25q51 0 75 -21.5t24 -51.5q0 -31 -23 -63t-88 -79q-39 -28 -120 -91h171z" />
    <glyph glyph-name="three.superior" unicode="&#xb3;" 
d="M248 509q71 -11 71 -71q0 -49 -46.5 -89t-110.5 -40q-33 0 -61.5 12t-28.5 30q0 21 24 21q17 0 31 -20q1 -1 3 -4t2.5 -4.5t2.5 -4t3 -3.5l3 -3t3.5 -2.5t4 -1.5t5 -1.5t5.5 -1t7 -0.5q46 0 73.5 44.5t27.5 81.5q0 15 -8 28t-26 13q-12 0 -35 -13q-3 -2 -7 -4.5t-6 -4
t-5.5 -2.5t-7.5 -1q-14 0 -14 10q0 5 7.5 9.5t33.5 16.5q1 1 15 7t18 8t17 9t18.5 11.5t15 12t14 14.5t8 16.5t3.5 19.5q0 39 -54 39q-28 0 -41 -13.5t-13 -29.5q0 -8 4 -16q5 -8 5 -9q0 -2 -9 -9l-9 -7q-4 -3 -11 -3q-10 0 -17 10.5t-7 24.5q0 30 30.5 49.5t78.5 19.5
q45 0 70 -16t25 -40q0 -29 -28.5 -49.5t-83.5 -43.5z" />
    <glyph glyph-name="acute" unicode="&#xb4;" horiz-adv-x="333" 
d="M227 476l-10 8l69 110q13 21 20.5 30.5t18 17.5t20.5 8q11 0 20.5 -8t9.5 -21q0 -19 -39 -52z" />
    <glyph glyph-name="mu" unicode="&#xb5;" horiz-adv-x="500" 
d="M153 407h75l-64 -223q0 -1 -6.5 -22.5t-11 -40.5t-4.5 -29q0 -58 49 -58q39 0 85 45t82 166l48 162h74l-74 -255q-18 -59 -18 -77q0 -39 28 -39q34 0 67 69h18q-10 -42 -42.5 -79.5t-81.5 -37.5q-22 0 -43 16.5t-21 57.5q0 17 4 41q-38 -58 -80.5 -86.5t-77.5 -28.5
q-19 0 -33 4.5t-23.5 14.5t-13.5 16t-10 18q-21 -69 -26.5 -98t-12.5 -105q-7 -82 -52 -82q-16 0 -25 10.5t-10.5 17.5t-1.5 11q0 12 6 25.5t32 65.5q32 63 77 219z" />
    <glyph glyph-name="paragraph" unicode="&#xb6;" horiz-adv-x="521" 
d="M536 658v-19h-21q-32 0 -45 -14t-13 -56v-807h-36v868h-95v-868h-37v513l-15 1q-15 0 -24.5 0.5t-29 3.5t-33 6.5t-33 11t-33.5 17t-29 24.5t-24.5 33t-15.5 42.5t-6 53.5q0 84 58.5 137t169.5 53h262z" />
    <glyph glyph-name="periodcentered" unicode="&#xb7;" horiz-adv-x="290" 
d="M154 331q0 21 15 36.5t37 15.5t37 -15t15 -37q0 -21 -15.5 -36t-36.5 -15t-36.5 15t-15.5 36z" />
    <glyph glyph-name="cedilla" unicode="&#xb8;" horiz-adv-x="333" 
d="M4 -237l6 20q78 -5 115 18t37 51q0 42 -67 49l66 106h26l-39 -62q40 -6 59.5 -28t19.5 -48q0 -44 -44.5 -76t-136.5 -32q-24 0 -42 2z" />
    <glyph glyph-name="one.superior" unicode="&#xb9;" 
d="M303 658h26l-104 -296q-6 -17 -6 -22t23 -5h27l-6 -18h-155l6 18h21q24 0 28 4.5t12 27.5l71 203q9 27 9 31q0 14 -31 14h-23l5 17q72 0 97 26z" />
    <glyph glyph-name="ordmasculine" unicode="&#xba;" horiz-adv-x="240" 
d="M128 503q0 63 41.5 117t91.5 54q26 0 45.5 -21t19.5 -63q0 -68 -40.5 -120t-91.5 -52q-23 0 -38 10.5t-20 28t-6.5 27t-1.5 19.5zM162 470q0 -14 8 -26t26 -12q25 0 45 27t30.5 62.5t15.5 62.5t5 35q0 41 -33 41q-29 0 -52.5 -39t-34 -81.5t-10.5 -69.5z" />
    <glyph glyph-name="guillemotright" unicode="&#xbb;" horiz-adv-x="333" 
d="M273 392h23l84 -182l-178 -177h-29l131 188zM70 392h22l85 -182l-178 -177h-29l131 188z" />
    <glyph glyph-name="onequarter" unicode="&#xbc;" horiz-adv-x="875" 
d="M647 113h-128l8 20l223 209h29l-72 -207q19 0 24.5 2t13.5 14q2 2 2 3h23l-15 -41h-56l-24 -69q-6 -17 -6 -19q0 -6 3.5 -7t19.5 -1h18l-6 -17h-136l6 17q35 0 38 4q3 3 13 29zM242 0h-36l553 662h36zM560 135h94l47 130l-2 2zM366 658h26l-104 -296q-6 -17 -6 -22t23 -5
h27l-6 -18h-155l6 18h21q24 0 28 4.5t12 27.5l71 203q9 27 9 31q0 14 -31 14h-23l5 17q72 0 97 26z" />
    <glyph glyph-name="onehalf" unicode="&#xbd;" horiz-adv-x="875" 
d="M242 0h-36l553 662h36zM760 35l-18 -53h-20q0 13 -3 15q-3 3 -19 3h-158v8.5t0.5 6t2 5.5t2.5 4t4.5 5t6.5 5.5t9.5 7.5t12.5 10l37 30q89 73 119.5 111t30.5 78q0 20 -14 36t-42 16q-24 0 -41.5 -12.5t-17.5 -31.5q0 -11 9 -25q1 -2 4 -4.5t5 -4.5t2 -3q0 -4 -14 -13
t-22 -9q-14 0 -21 13.5t-7 28.5q0 29 30.5 54t82.5 25q51 0 75 -21.5t24 -51.5q0 -31 -23 -63t-88 -79q-39 -28 -120 -91h171zM366 658h26l-104 -296q-6 -17 -6 -22t23 -5h27l-6 -18h-155l6 18h21q24 0 28 4.5t12 27.5l71 203q9 27 9 31q0 14 -31 14h-23l5 17q72 0 97 26z
" />
    <glyph glyph-name="threequarters" unicode="&#xbe;" horiz-adv-x="875" 
d="M647 113h-128l8 20l223 209h29l-72 -207q19 0 24.5 2t13.5 14q2 2 2 3h23l-15 -41h-56l-24 -69q-6 -17 -6 -19q0 -6 3.5 -7t19.5 -1h18l-6 -17h-136l6 17q35 0 38 4q3 3 13 29zM242 0h-36l553 662h36zM560 135h94l47 130l-2 2zM323 509q71 -11 71 -71q0 -49 -46.5 -89
t-110.5 -40q-33 0 -61.5 12t-28.5 30q0 21 24 21q17 0 31 -20q1 -1 3 -4t2.5 -4.5t2.5 -4t3 -3.5l3 -3t3.5 -2.5t4 -1.5t5 -1.5t5.5 -1t7 -0.5q46 0 73.5 44.5t27.5 81.5q0 15 -8 28t-26 13q-12 0 -35 -13q-3 -2 -7 -4.5t-6 -4t-5.5 -2.5t-7.5 -1q-14 0 -14 10q0 5 7.5 9.5
t33.5 16.5q1 1 15 7t18 8t17 9t18.5 11.5t15 12t14 14.5t8 16.5t3.5 19.5q0 39 -54 39q-28 0 -41 -13.5t-13 -29.5q0 -8 4 -16q5 -8 5 -9q0 -2 -9 -9l-9 -7q-4 -3 -11 -3q-10 0 -17 10.5t-7 24.5q0 30 30.5 49.5t78.5 19.5q45 0 70 -16t25 -40q0 -29 -28.5 -49.5
t-83.5 -43.5z" />
    <glyph glyph-name="questiondown" unicode="&#xbf;" horiz-adv-x="344" 
d="M230 236h22l-54 -180h-15q-5 39 -31 39q-40 0 -70 -77.5t-30 -150.5q0 -27 8.5 -46t21 -26.5t21 -10t15.5 -2.5q25 0 44 29q15 22 33 22q24 0 24 -23q0 -20 -27 -36t-61 -16q-55 0 -96 47.5t-41 117.5q0 78 43.5 137t106.5 59q20 0 47 -12zM331 389q0 -22 -15 -37
t-37 -15t-37 15t-15 37t15.5 37t36.5 15t36.5 -15.5t15.5 -36.5z" />
    <glyph glyph-name="Agrave" unicode="&#xc0;" horiz-adv-x="573" 
d="M400 251h-189l-73 -113q-30 -48 -30 -65q0 -13 5 -22.5t11 -14.5t19.5 -8t22.5 -4t28 -2l-7 -22h-232l7 22q35 3 65 22.5t43 35.5t30 42l369 552h34l-23 -550q-3 -37 -0.5 -59t19.5 -31.5t59 -11.5l-7 -22h-260l7 22q35 2 53 6t28 21.5t12 33.5t4 61zM226 273h175l13 286
zM533 712l-109 93q-40 34 -40 52q0 13 9.5 21t20.5 8q16 0 28.5 -13t30.5 -43l70 -110z" />
    <glyph glyph-name="Aacute" unicode="&#xc1;" horiz-adv-x="573" 
d="M400 251h-189l-73 -113q-30 -48 -30 -65q0 -13 5 -22.5t11 -14.5t19.5 -8t22.5 -4t28 -2l-7 -22h-232l7 22q35 3 65 22.5t43 35.5t30 42l369 552h34l-23 -550q-3 -37 -0.5 -59t19.5 -31.5t59 -11.5l-7 -22h-260l7 22q35 2 53 6t28 21.5t12 33.5t4 61zM226 273h175l13 286
zM422 712l-10 8l69 110q13 21 20.5 30.5t18 17.5t20.5 8q11 0 20.5 -8t9.5 -21q0 -19 -39 -52z" />
    <glyph glyph-name="Acircumflex" unicode="&#xc2;" horiz-adv-x="573" 
d="M400 251h-189l-73 -113q-30 -48 -30 -65q0 -13 5 -22.5t11 -14.5t19.5 -8t22.5 -4t28 -2l-7 -22h-232l7 22q35 3 65 22.5t43 35.5t30 42l369 552h34l-23 -550q-3 -37 -0.5 -59t19.5 -31.5t59 -11.5l-7 -22h-260l7 22q35 2 53 6t28 21.5t12 33.5t4 61zM226 273h175l13 286
zM529 833l-153 -120h-19l183 191h48l8 -191h-10z" />
    <glyph glyph-name="Atilde" unicode="&#xc3;" horiz-adv-x="573" 
d="M400 251h-189l-73 -113q-30 -48 -30 -65q0 -13 5 -22.5t11 -14.5t19.5 -8t22.5 -4t28 -2l-7 -22h-232l7 22q35 3 65 22.5t43 35.5t30 42l369 552h34l-23 -550q-3 -37 -0.5 -59t19.5 -31.5t59 -11.5l-7 -22h-260l7 22q35 2 53 6t28 21.5t12 33.5t4 61zM226 273h175l13 286
zM349 736h-14q0 58 26.5 88t68.5 30q33 0 83 -38q2 -2 12.5 -10t16 -12t14 -8t15.5 -4q20 0 33.5 20.5t15.5 50.5h14q0 -53 -24.5 -85.5t-66.5 -32.5q-38 0 -83 37q-27 22 -37 28t-23 6q-20 0 -34 -19t-17 -51z" />
    <glyph glyph-name="Adieresis" unicode="&#xc4;" horiz-adv-x="573" 
d="M400 251h-189l-73 -113q-30 -48 -30 -65q0 -13 5 -22.5t11 -14.5t19.5 -8t22.5 -4t28 -2l-7 -22h-232l7 22q35 3 65 22.5t43 35.5t30 42l369 552h34l-23 -550q-3 -37 -0.5 -59t19.5 -31.5t59 -11.5l-7 -22h-260l7 22q35 2 53 6t28 21.5t12 33.5t4 61zM226 273h175l13 286
zM360 797q0 17 12 29t29 12t29.5 -12t12.5 -29t-12.5 -29t-29.5 -12t-29 12t-12 29zM531 797q0 17 12 29t29 12t29 -12t12 -29t-12 -29t-29 -12t-29 12t-12 29z" />
    <glyph glyph-name="Aring" unicode="&#xc5;" horiz-adv-x="573" 
d="M400 251h-189l-73 -113q-30 -48 -30 -65q0 -13 5 -22.5t11 -14.5t19.5 -8t22.5 -4t28 -2l-7 -22h-232l7 22q35 3 65 22.5t43 35.5t30 42l369 552h34l-23 -550q-3 -37 -0.5 -59t19.5 -31.5t59 -11.5l-7 -22h-260l7 22q35 2 53 6t28 21.5t12 33.5t4 61zM226 273h175l13 286
zM583 823q0 -38 -27 -65t-65 -27t-65 27t-27 65t27 64.5t65 26.5t65 -26.5t27 -64.5zM490 887q-26 0 -44 -19t-18 -45q0 -27 18.5 -45.5t45.5 -18.5q26 0 44.5 18.5t18.5 44.5q0 28 -19 46.5t-46 18.5z" />
    <glyph glyph-name="AE" unicode="&#xc6;" horiz-adv-x="927" 
d="M499 333h-164l-146 -190l-24 -32t-11.5 -19.5t-5.5 -21.5q0 -44 75 -48l-6 -22h-221l6 22q52 13 82 36.5t76 82.5l327 420q32 40 32 53q0 9 -3.5 14t-19 8.5t-46.5 3.5h-15l5 22h493l2 -149h-23q-15 46 -29.5 73.5t-32 38t-28.5 13t-33 2.5h-108l-87 -285h34
q60 0 95.5 19.5t65.5 89.5h22l-79 -261h-21q5 50 5 54q0 27 -5.5 43.5t-19 23t-25 8t-35.5 1.5h-44l-64 -208q-13 -45 -13 -54q0 -49 88 -49h37q156 0 215 143h21l-50 -165h-515l7 22q62 0 82 19.5t40 84.5zM352 355h154l87 285h-17z" />
    <glyph glyph-name="Ccedilla" unicode="&#xc7;" horiz-adv-x="604" 
d="M302 -10q-89 10 -146 82t-57 168q0 100 49.5 200t136 167t182.5 67q117 0 163 -104q24 41 33 76h21l-43 -192h-21q9 93 -32.5 146.5t-109.5 53.5q-63 0 -115 -39t-83 -95t-52.5 -121.5t-30 -115t-8.5 -78.5q0 -84 39.5 -139.5t110.5 -55.5q134 0 225 196h22l-67 -214h-21
q0 34 -4 66q-72 -70 -168 -70l-20 -47q37 -6 57 -27t20 -49q0 -113 -250 -105l6 22q182 0 182 64q0 34 -65 42z" />
    <glyph glyph-name="Egrave" unicode="&#xc8;" horiz-adv-x="615" 
d="M592 168h22l-51 -168h-555l7 22h14q49 0 67 21t35 79l127 418q16 54 16 65q0 35 -63 35h-19l6 22h473l2 -149h-21q-19 73 -49.5 100t-88.5 27h-137l-86 -284h48q68 0 104.5 21.5t64.5 86.5h23l-79 -259h-23q6 28 6 49q0 49 -17.5 64.5t-78.5 15.5h-55l-62 -205
q-15 -50 -15 -60q0 -16 8 -26t24 -14t31 -5.5t39 -1.5h40q100 0 153.5 33.5t89.5 112.5zM549 712l-109 93q-40 34 -40 52q0 13 9.5 21t20.5 8q16 0 28.5 -13t30.5 -43l70 -110z" />
    <glyph glyph-name="Eacute" unicode="&#xc9;" horiz-adv-x="615" 
d="M592 168h22l-51 -168h-555l7 22h14q49 0 67 21t35 79l127 418q16 54 16 65q0 35 -63 35h-19l6 22h473l2 -149h-21q-19 73 -49.5 100t-88.5 27h-137l-86 -284h48q68 0 104.5 21.5t64.5 86.5h23l-79 -259h-23q6 28 6 49q0 49 -17.5 64.5t-78.5 15.5h-55l-62 -205
q-15 -50 -15 -60q0 -16 8 -26t24 -14t31 -5.5t39 -1.5h40q100 0 153.5 33.5t89.5 112.5zM443 712l-10 8l69 110q13 21 20.5 30.5t18 17.5t20.5 8q11 0 20.5 -8t9.5 -21q0 -19 -39 -52z" />
    <glyph glyph-name="Ecircumflex" unicode="&#xca;" horiz-adv-x="615" 
d="M592 168h22l-51 -168h-555l7 22h14q49 0 67 21t35 79l127 418q16 54 16 65q0 35 -63 35h-19l6 22h473l2 -149h-21q-19 73 -49.5 100t-88.5 27h-137l-86 -284h48q68 0 104.5 21.5t64.5 86.5h23l-79 -259h-23q6 28 6 49q0 49 -17.5 64.5t-78.5 15.5h-55l-62 -205
q-15 -50 -15 -60q0 -16 8 -26t24 -14t31 -5.5t39 -1.5h40q100 0 153.5 33.5t89.5 112.5zM520 833l-153 -120h-19l183 191h48l8 -191h-10z" />
    <glyph glyph-name="Edieresis" unicode="&#xcb;" horiz-adv-x="615" 
d="M592 168h22l-51 -168h-555l7 22h14q49 0 67 21t35 79l127 418q16 54 16 65q0 35 -63 35h-19l6 22h473l2 -149h-21q-19 73 -49.5 100t-88.5 27h-137l-86 -284h48q68 0 104.5 21.5t64.5 86.5h23l-79 -259h-23q6 28 6 49q0 49 -17.5 64.5t-78.5 15.5h-55l-62 -205
q-15 -50 -15 -60q0 -16 8 -26t24 -14t31 -5.5t39 -1.5h40q100 0 153.5 33.5t89.5 112.5zM361 797q0 17 12 29t29 12t29.5 -12t12.5 -29t-12.5 -29t-29.5 -12t-29 12t-12 29zM532 797q0 17 12 29t29 12t29 -12t12 -29t-12 -29t-29 -12t-29 12t-12 29z" />
    <glyph glyph-name="Igrave" unicode="&#xcc;" horiz-adv-x="344" 
d="M300 22l-7 -22h-279l7 22h15q27 0 46 8.5t29.5 26t13 24.5t7.5 23l134 441q14 46 14 60q0 35 -63 35h-17l7 22h260l-7 -22q-21 0 -34.5 -1t-24.5 -8.5t-16 -10.5t-13 -22t-10 -26.5t-12 -38.5l-120 -396q-17 -57 -17 -68q0 -20 16 -31.5t28.5 -13.5t23.5 -2h19zM414 712
l-109 93q-40 34 -40 52q0 13 9.5 21t20.5 8q16 0 28.5 -13t30.5 -43l70 -110z" />
    <glyph glyph-name="Iacute" unicode="&#xcd;" horiz-adv-x="344" 
d="M300 22l-7 -22h-279l7 22h15q27 0 46 8.5t29.5 26t13 24.5t7.5 23l134 441q14 46 14 60q0 35 -63 35h-17l7 22h260l-7 -22q-21 0 -34.5 -1t-24.5 -8.5t-16 -10.5t-13 -22t-10 -26.5t-12 -38.5l-120 -396q-17 -57 -17 -68q0 -20 16 -31.5t28.5 -13.5t23.5 -2h19zM308 712
l-10 8l69 110q13 21 20.5 30.5t18 17.5t20.5 8q11 0 20.5 -8t9.5 -21q0 -19 -39 -52z" />
    <glyph glyph-name="Icircumflex" unicode="&#xce;" horiz-adv-x="344" 
d="M300 22l-7 -22h-279l7 22h15q27 0 46 8.5t29.5 26t13 24.5t7.5 23l134 441q14 46 14 60q0 35 -63 35h-17l7 22h260l-7 -22q-21 0 -34.5 -1t-24.5 -8.5t-16 -10.5t-13 -22t-10 -26.5t-12 -38.5l-120 -396q-17 -57 -17 -68q0 -20 16 -31.5t28.5 -13.5t23.5 -2h19zM395 833
l-153 -120h-19l183 191h48l8 -191h-10z" />
    <glyph glyph-name="Idieresis" unicode="&#xcf;" horiz-adv-x="344" 
d="M300 22l-7 -22h-279l7 22h15q27 0 46 8.5t29.5 26t13 24.5t7.5 23l134 441q14 46 14 60q0 35 -63 35h-17l7 22h260l-7 -22q-21 0 -34.5 -1t-24.5 -8.5t-16 -10.5t-13 -22t-10 -26.5t-12 -38.5l-120 -396q-17 -57 -17 -68q0 -20 16 -31.5t28.5 -13.5t23.5 -2h19zM241 797
q0 17 12 29t29 12t29.5 -12t12.5 -29t-12.5 -29t-29.5 -12t-29 12t-12 29zM412 797q0 17 12 29t29 12t29 -12t12 -29t-12 -29t-29 -12t-29 12t-12 29z" />
    <glyph glyph-name="Eth" unicode="&#xd0;" horiz-adv-x="677" 
d="M180 662h76q31 0 79 3q31 2 73 2q72 0 127.5 -21t86 -52t49.5 -72.5t24.5 -75t5.5 -67.5q0 -25 -5.5 -56.5t-21 -81.5t-55.5 -100.5t-98 -86.5q-41 -25 -88.5 -37.5t-83 -14.5t-101.5 -2h-266l6 22h28q72 0 91 62l72 236h-101l5 22h102l60 196q16 53 16 67q0 35 -63 35
h-25zM365 644l-92 -302h157l-7 -22h-156l-62 -202q-12 -36 -12 -50q0 -46 101 -46q168 0 253 153q32 58 48 122t16 110q0 109 -53.5 173.5t-140.5 64.5q-41 0 -52 -1z" />
    <glyph glyph-name="Ntilde" unicode="&#xd1;" horiz-adv-x="642" 
d="M512 -6h-23l-184 563l-59 -243q-16 -66 -26.5 -104.5t-25 -86.5t-28 -73.5t-31.5 -50.5t-39 -35.5t-47 -10.5q-36 0 -60 20.5t-24 51.5q0 26 11 38t27 12q14 0 25 -10t11 -27q0 -10 -9 -29q-5 -11 -5 -16q0 -18 27 -18q54 0 89 72q32 64 60 178l74 300q16 63 16 73
q0 42 -85 42h-9l6 22h153l170 -519l40 171q53 229 86 291q36 66 87 66q27 0 41 -13t14 -31q0 -17 -11.5 -27t-26.5 -10q-8 0 -15 4.5t-8.5 6.5t-9.5 12q-11 14 -20 14q-22 0 -46 -65t-71 -260zM379 736h-14q0 58 26.5 88t68.5 30q33 0 83 -38q2 -2 12.5 -10t16 -12t14 -8
t15.5 -4q20 0 33.5 20.5t15.5 50.5h14q0 -53 -24.5 -85.5t-66.5 -32.5q-38 0 -83 37q-27 22 -37 28t-23 6q-20 0 -34 -19t-17 -51z" />
    <glyph glyph-name="Ograve" unicode="&#xd2;" horiz-adv-x="656" 
d="M107 253q0 90 47.5 187t131.5 165.5t175 68.5t151.5 -71t60.5 -190q0 -102 -49 -201t-129.5 -161.5t-165.5 -62.5q-40 0 -77 14t-70.5 43.5t-54 83t-20.5 124.5zM194 204q0 -194 133 -194q63 0 116 54t83.5 131t47.5 152t17 127q0 88 -36.5 133t-94.5 45
q-61 0 -113.5 -50.5t-84.5 -123t-50 -146.5t-18 -128zM570 712l-109 93q-40 34 -40 52q0 13 9.5 21t20.5 8q16 0 28.5 -13t30.5 -43l70 -110z" />
    <glyph glyph-name="Oacute" unicode="&#xd3;" horiz-adv-x="656" 
d="M107 253q0 90 47.5 187t131.5 165.5t175 68.5t151.5 -71t60.5 -190q0 -102 -49 -201t-129.5 -161.5t-165.5 -62.5q-40 0 -77 14t-70.5 43.5t-54 83t-20.5 124.5zM194 204q0 -194 133 -194q63 0 116 54t83.5 131t47.5 152t17 127q0 88 -36.5 133t-94.5 45
q-61 0 -113.5 -50.5t-84.5 -123t-50 -146.5t-18 -128zM459 712l-10 8l69 110q13 21 20.5 30.5t18 17.5t20.5 8q11 0 20.5 -8t9.5 -21q0 -19 -39 -52z" />
    <glyph glyph-name="Ocircumflex" unicode="&#xd4;" horiz-adv-x="656" 
d="M107 253q0 90 47.5 187t131.5 165.5t175 68.5t151.5 -71t60.5 -190q0 -102 -49 -201t-129.5 -161.5t-165.5 -62.5q-40 0 -77 14t-70.5 43.5t-54 83t-20.5 124.5zM194 204q0 -194 133 -194q63 0 116 54t83.5 131t47.5 152t17 127q0 88 -36.5 133t-94.5 45
q-61 0 -113.5 -50.5t-84.5 -123t-50 -146.5t-18 -128zM531 833l-153 -120h-19l183 191h48l8 -191h-10z" />
    <glyph glyph-name="Otilde" unicode="&#xd5;" horiz-adv-x="656" 
d="M107 253q0 90 47.5 187t131.5 165.5t175 68.5t151.5 -71t60.5 -190q0 -102 -49 -201t-129.5 -161.5t-165.5 -62.5q-40 0 -77 14t-70.5 43.5t-54 83t-20.5 124.5zM194 204q0 -194 133 -194q63 0 116 54t83.5 131t47.5 152t17 127q0 88 -36.5 133t-94.5 45
q-61 0 -113.5 -50.5t-84.5 -123t-50 -146.5t-18 -128zM366 736h-14q0 58 26.5 88t68.5 30q33 0 83 -38q2 -2 12.5 -10t16 -12t14 -8t15.5 -4q20 0 33.5 20.5t15.5 50.5h14q0 -53 -24.5 -85.5t-66.5 -32.5q-38 0 -83 37q-27 22 -37 28t-23 6q-20 0 -34 -19t-17 -51z" />
    <glyph glyph-name="Odieresis" unicode="&#xd6;" horiz-adv-x="656" 
d="M107 253q0 90 47.5 187t131.5 165.5t175 68.5t151.5 -71t60.5 -190q0 -102 -49 -201t-129.5 -161.5t-165.5 -62.5q-40 0 -77 14t-70.5 43.5t-54 83t-20.5 124.5zM194 204q0 -194 133 -194q63 0 116 54t83.5 131t47.5 152t17 127q0 88 -36.5 133t-94.5 45
q-61 0 -113.5 -50.5t-84.5 -123t-50 -146.5t-18 -128zM377 797q0 17 12 29t29 12t29.5 -12t12.5 -29t-12.5 -29t-29.5 -12t-29 12t-12 29zM548 797q0 17 12 29t29 12t29 -12t12 -29t-12 -29t-29 -12t-29 12t-12 29z" />
    <glyph glyph-name="multiply" unicode="&#xd7;" horiz-adv-x="667" 
d="M140 525l37 38l204 -205l204 205l37 -38l-204 -204l202 -202l-37 -37l-202 202l-203 -202l-37 37l203 202z" />
    <glyph glyph-name="Oslash" unicode="&#xd8;" horiz-adv-x="656" 
d="M202 122l375 443q-33 87 -117 87q-61 0 -113.5 -50.5t-84.5 -123.5t-50 -146.5t-18 -127.5q0 -60 8 -82zM208 98q13 -42 45 -65t74 -23q53 0 98.5 38t75 94t51 121.5t30.5 120t9 90.5q0 42 -7 65zM158 71q-51 68 -51 182q0 90 47.5 187t131.5 165.5t175 68.5t150 -70
l57 67l16 -14l-59 -70q48 -65 48 -174q0 -102 -49 -201t-129.5 -161.5t-165.5 -62.5q-89 0 -157 67l-59 -69l-16 13z" />
    <glyph glyph-name="Ugrave" unicode="&#xd9;" horiz-adv-x="708" 
d="M625 662h211l-7 -22q-46 -1 -72.5 -23t-40.5 -72l-13 -45l-91 -298q-6 -21 -10.5 -33t-15.5 -37.5t-23 -42t-32.5 -37.5t-44.5 -33.5t-58.5 -21.5t-74.5 -9q-108 0 -167.5 41t-59.5 120q0 31 14 75l95 313q17 58 17 68q0 35 -63 35h-15l7 22h270l-7 -22h-14
q-49 0 -68.5 -20t-40.5 -90l-93 -309q-19 -65 -19 -87q0 -57 43 -89.5t106 -32.5q47 0 84.5 13.5t61 33t43.5 51.5t30.5 59t21.5 65l89 294q14 48 14 60q0 20 -17.5 32.5t-66.5 19.5zM596 712l-109 93q-40 34 -40 52q0 13 9.5 21t20.5 8q16 0 28.5 -13t30.5 -43l70 -110z
" />
    <glyph glyph-name="Uacute" unicode="&#xda;" horiz-adv-x="708" 
d="M625 662h211l-7 -22q-46 -1 -72.5 -23t-40.5 -72l-13 -45l-91 -298q-6 -21 -10.5 -33t-15.5 -37.5t-23 -42t-32.5 -37.5t-44.5 -33.5t-58.5 -21.5t-74.5 -9q-108 0 -167.5 41t-59.5 120q0 31 14 75l95 313q17 58 17 68q0 35 -63 35h-15l7 22h270l-7 -22h-14
q-49 0 -68.5 -20t-40.5 -90l-93 -309q-19 -65 -19 -87q0 -57 43 -89.5t106 -32.5q47 0 84.5 13.5t61 33t43.5 51.5t30.5 59t21.5 65l89 294q14 48 14 60q0 20 -17.5 32.5t-66.5 19.5zM490 712l-10 8l69 110q13 21 20.5 30.5t18 17.5t20.5 8q11 0 20.5 -8t9.5 -21
q0 -19 -39 -52z" />
    <glyph glyph-name="Ucircumflex" unicode="&#xdb;" horiz-adv-x="708" 
d="M625 662h211l-7 -22q-46 -1 -72.5 -23t-40.5 -72l-13 -45l-91 -298q-6 -21 -10.5 -33t-15.5 -37.5t-23 -42t-32.5 -37.5t-44.5 -33.5t-58.5 -21.5t-74.5 -9q-108 0 -167.5 41t-59.5 120q0 31 14 75l95 313q17 58 17 68q0 35 -63 35h-15l7 22h270l-7 -22h-14
q-49 0 -68.5 -20t-40.5 -90l-93 -309q-19 -65 -19 -87q0 -57 43 -89.5t106 -32.5q47 0 84.5 13.5t61 33t43.5 51.5t30.5 59t21.5 65l89 294q14 48 14 60q0 20 -17.5 32.5t-66.5 19.5zM567 833l-153 -120h-19l183 191h48l8 -191h-10z" />
    <glyph glyph-name="Udieresis" unicode="&#xdc;" horiz-adv-x="708" 
d="M625 662h211l-7 -22q-46 -1 -72.5 -23t-40.5 -72l-13 -45l-91 -298q-6 -21 -10.5 -33t-15.5 -37.5t-23 -42t-32.5 -37.5t-44.5 -33.5t-58.5 -21.5t-74.5 -9q-108 0 -167.5 41t-59.5 120q0 31 14 75l95 313q17 58 17 68q0 35 -63 35h-15l7 22h270l-7 -22h-14
q-49 0 -68.5 -20t-40.5 -90l-93 -309q-19 -65 -19 -87q0 -57 43 -89.5t106 -32.5q47 0 84.5 13.5t61 33t43.5 51.5t30.5 59t21.5 65l89 294q14 48 14 60q0 20 -17.5 32.5t-66.5 19.5zM408 797q0 17 12 29t29 12t29.5 -12t12.5 -29t-12.5 -29t-29.5 -12t-29 12t-12 29z
M579 797q0 17 12 29t29 12t29 -12t12 -29t-12 -29t-29 -12t-29 12t-12 29z" />
    <glyph glyph-name="Yacute" unicode="&#xdd;" horiz-adv-x="552" 
d="M135 464h-22q15 39 35.5 81t58.5 85.5t74 43.5q32 0 55.5 -39.5t23.5 -116.5q0 -100 -30 -232q10 24 26.5 58.5t50 96.5t67 110.5t75 85.5t75.5 37q29 0 47.5 -16t18.5 -41q0 -15 -9 -26.5t-23 -11.5q-10 0 -20 7t-10 25q0 34 -23 34q-25 0 -66.5 -44t-83.5 -115
q-95 -161 -125 -260l-34 -113q-10 -37 -10 -43q0 -15 8 -25.5t21 -15t22 -6t17 -1.5h29l-7 -22h-307l7 22h30q50 0 71.5 24t34.5 74l41 153q10 37 20.5 116t10.5 126q0 116 -34 116q-26 0 -63.5 -61.5t-51.5 -105.5zM407 712l-10 8l69 110q13 21 20.5 30.5t18 17.5t20.5 8
q11 0 20.5 -8t9.5 -21q0 -19 -39 -52z" />
    <glyph glyph-name="Thorn" unicode="&#xde;" horiz-adv-x="542" 
d="M460 662l-7 -22h-15q-69 0 -87 -59l-24 -80q64 1 105 -4.5t76 -25.5q77 -44 77 -127q0 -44 -25.5 -85.5t-70.5 -63.5q-69 -34 -218 -34h-47l-13 -44q-11 -36 -11 -48q0 -47 68 -47h16l-7 -22h-263l6 22q27 0 44 5.5t28.5 22t15.5 25.5t12 38l3 9l127 417q16 54 16 66
q0 35 -63 35h-23l7 22h273zM320 479l-90 -296h29q40 0 63 1.5t57 13t57 33.5q59 51 59 130q0 53 -30 86q-19 21 -46 26.5t-76 5.5h-23z" />
    <glyph glyph-name="germandbls" unicode="&#xdf;" horiz-adv-x="437" 
d="M248 354l5 22q72 0 109 43q23 27 36 77.5t13 82.5q0 66 -54 66q-25 0 -46.5 -13.5t-35 -32.5t-25.5 -47t-19 -51t-14 -50l-3 -12l-106 -402q-40 -152 -84.5 -213.5t-115.5 -61.5q-45 0 -69.5 23t-24.5 49q0 13 8 21t20 8q14 0 23 -9t9 -26q0 -4 -1.5 -12.5t-1.5 -13.5
q0 -18 36 -18q37 0 65 33.5t55 136.5l122 462q9 37 16.5 60.5t25.5 64.5t38 66t53.5 44.5t73.5 19.5q59 0 87.5 -39t28.5 -88q0 -64 -44 -114.5t-120 -66.5q106 -31 106 -135q0 -96 -61 -170.5t-137 -74.5q-30 0 -50.5 16.5t-20.5 40.5q0 30 24 30q26 0 29 -33q1 -10 2 -16
t7 -11t17 -5q38 0 68 48.5t43.5 105t13.5 98.5q0 49 -24 73t-77 24z" />
    <glyph glyph-name="agrave" unicode="&#xe0;" horiz-adv-x="417" 
d="M358 406h59l-87 -286q-19 -60 -19 -75q0 -20 18 -20t39 23t38 54h21q-23 -49 -57.5 -82.5t-62.5 -33.5q-26 0 -37 18.5t-11 40.5q0 21 12 59q-20 -38 -62 -78t-82 -40q-33 0 -58 28t-25 80q0 74 42 150.5t99 123t101 46.5q50 0 60 -52zM102 79q0 -65 40 -65q25 0 61 32
t61 81q28 56 47.5 121t19.5 91q0 22 -11 35.5t-30 13.5q-41 0 -86.5 -60t-73.5 -132.5t-28 -116.5zM375 468l-109 93q-40 34 -40 52q0 13 9.5 21t20.5 8q16 0 28.5 -13t30.5 -43l70 -110z" />
    <glyph glyph-name="aacute" unicode="&#xe1;" horiz-adv-x="417" 
d="M358 406h59l-87 -286q-19 -60 -19 -75q0 -20 18 -20t39 23t38 54h21q-23 -49 -57.5 -82.5t-62.5 -33.5q-26 0 -37 18.5t-11 40.5q0 21 12 59q-20 -38 -62 -78t-82 -40q-33 0 -58 28t-25 80q0 74 42 150.5t99 123t101 46.5q50 0 60 -52zM102 79q0 -65 40 -65q25 0 61 32
t61 81q28 56 47.5 121t19.5 91q0 22 -11 35.5t-30 13.5q-41 0 -86.5 -60t-73.5 -132.5t-28 -116.5zM269 468l-10 8l69 110q13 21 20.5 30.5t18 17.5t20.5 8q11 0 20.5 -8t9.5 -21q0 -19 -39 -52z" />
    <glyph glyph-name="acircumflex" unicode="&#xe2;" horiz-adv-x="417" 
d="M358 406h59l-87 -286q-19 -60 -19 -75q0 -20 18 -20t39 23t38 54h21q-23 -49 -57.5 -82.5t-62.5 -33.5q-26 0 -37 18.5t-11 40.5q0 21 12 59q-20 -38 -62 -78t-82 -40q-33 0 -58 28t-25 80q0 74 42 150.5t99 123t101 46.5q50 0 60 -52zM102 79q0 -65 40 -65q25 0 61 32
t61 81q28 56 47.5 121t19.5 91q0 22 -11 35.5t-30 13.5q-41 0 -86.5 -60t-73.5 -132.5t-28 -116.5zM341 589l-153 -120h-19l183 191h48l8 -191h-10z" />
    <glyph glyph-name="atilde" unicode="&#xe3;" horiz-adv-x="417" 
d="M358 406h59l-87 -286q-19 -60 -19 -75q0 -20 18 -20t39 23t38 54h21q-23 -49 -57.5 -82.5t-62.5 -33.5q-26 0 -37 18.5t-11 40.5q0 21 12 59q-20 -38 -62 -78t-82 -40q-33 0 -58 28t-25 80q0 74 42 150.5t99 123t101 46.5q50 0 60 -52zM102 79q0 -65 40 -65q25 0 61 32
t61 81q28 56 47.5 121t19.5 91q0 22 -11 35.5t-30 13.5q-41 0 -86.5 -60t-73.5 -132.5t-28 -116.5zM176 492h-14q0 58 26.5 88t68.5 30q33 0 83 -38q2 -2 12.5 -10t16 -12t14 -8t15.5 -4q20 0 33.5 20.5t15.5 50.5h14q0 -53 -24.5 -85.5t-66.5 -32.5q-38 0 -83 37
q-27 22 -37 28t-23 6q-20 0 -34 -19t-17 -51z" />
    <glyph glyph-name="adieresis" unicode="&#xe4;" horiz-adv-x="417" 
d="M358 406h59l-87 -286q-19 -60 -19 -75q0 -20 18 -20t39 23t38 54h21q-23 -49 -57.5 -82.5t-62.5 -33.5q-26 0 -37 18.5t-11 40.5q0 21 12 59q-20 -38 -62 -78t-82 -40q-33 0 -58 28t-25 80q0 74 42 150.5t99 123t101 46.5q50 0 60 -52zM102 79q0 -65 40 -65q25 0 61 32
t61 81q28 56 47.5 121t19.5 91q0 22 -11 35.5t-30 13.5q-41 0 -86.5 -60t-73.5 -132.5t-28 -116.5zM187 553q0 17 12 29t29 12t29.5 -12t12.5 -29t-12.5 -29t-29.5 -12t-29 12t-12 29zM358 553q0 17 12 29t29 12t29 -12t12 -29t-12 -29t-29 -12t-29 12t-12 29z" />
    <glyph glyph-name="aring" unicode="&#xe5;" horiz-adv-x="417" 
d="M358 406h59l-87 -286q-19 -60 -19 -75q0 -20 18 -20t39 23t38 54h21q-23 -49 -57.5 -82.5t-62.5 -33.5q-26 0 -37 18.5t-11 40.5q0 21 12 59q-20 -38 -62 -78t-82 -40q-33 0 -58 28t-25 80q0 74 42 150.5t99 123t101 46.5q50 0 60 -52zM102 79q0 -65 40 -65q25 0 61 32
t61 81q28 56 47.5 121t19.5 91q0 22 -11 35.5t-30 13.5q-41 0 -86.5 -60t-73.5 -132.5t-28 -116.5zM415 579q0 -38 -27 -65t-65 -27t-65 27t-27 65t27 64.5t65 26.5t65 -26.5t27 -64.5zM322 643q-26 0 -44 -19t-18 -45q0 -27 18.5 -45.5t45.5 -18.5q26 0 44.5 18.5
t18.5 44.5q0 28 -19 46.5t-46 18.5z" />
    <glyph glyph-name="ae" unicode="&#xe6;" horiz-adv-x="458" 
d="M421 123h20q-23 -56 -62.5 -96t-92.5 -40q-81 0 -81 87q-25 -48 -57.5 -68t-54.5 -20q-7 0 -14.5 2t-20.5 8t-21 23t-8 43q0 62 42.5 128t102.5 114t125.5 79t112.5 31q31 0 48.5 -19t17.5 -47q0 -51 -61 -104.5t-147 -79.5q-12 -35 -12 -81q0 -35 12.5 -53t31.5 -18
q30 0 64.5 32.5t54.5 78.5zM276 186q49 13 84 39.5t50.5 55.5t21.5 49t6 31q0 14 -8.5 23.5t-22.5 9.5q-34 0 -71.5 -61t-59.5 -147zM354 385q-65 -22 -119.5 -68t-84.5 -96.5t-46 -93t-16 -67.5q0 -42 28 -42q45 0 92 100q14 67 52 143t94 124z" />
    <glyph glyph-name="ccedilla" unicode="&#xe7;" horiz-adv-x="323" 
d="M111 -11q-65 18 -65 110q0 76 38.5 151t92 119.5t97.5 44.5q28 0 44.5 -17.5t16.5 -39.5q0 -18 -8.5 -26.5t-18.5 -8.5q-11 0 -20.5 9t-9.5 26q0 33 -22 33q-50 0 -101 -119t-51 -195q0 -29 15 -45.5t34 -16.5q34 0 67 38.5t50 86.5h20q-27 -77 -71 -115t-87 -38l-23 -33
q40 -3 57 -25t17 -45q0 -4 -0.5 -10t-6.5 -21t-15.5 -27.5t-31.5 -27t-51 -22.5q-39 -11 -101 -10l6 20q55 0 90 14t46 29.5t11 31.5q0 44 -78 44z" />
    <glyph glyph-name="egrave" unicode="&#xe8;" 
d="M264 125h24q-27 -63 -69 -101t-90 -38q-35 0 -62.5 26t-27.5 79q0 74 38.5 151t92 124.5t97.5 47.5q23 0 36.5 -13t16.5 -25t3 -24q0 -105 -211 -194q-15 -43 -15 -81q0 -18 5 -31t11 -18.5t14.5 -9t12 -4t7.5 -0.5q67 0 117 111zM119 183q56 25 110 75.5t54 92.5
q0 37 -31 37q-27 0 -66.5 -53t-66.5 -152zM318 468l-109 93q-40 34 -40 52q0 13 9.5 21t20.5 8q16 0 28.5 -13t30.5 -43l70 -110z" />
    <glyph glyph-name="eacute" unicode="&#xe9;" 
d="M264 125h24q-27 -63 -69 -101t-90 -38q-35 0 -62.5 26t-27.5 79q0 74 38.5 151t92 124.5t97.5 47.5q23 0 36.5 -13t16.5 -25t3 -24q0 -105 -211 -194q-15 -43 -15 -81q0 -18 5 -31t11 -18.5t14.5 -9t12 -4t7.5 -0.5q67 0 117 111zM119 183q56 25 110 75.5t54 92.5
q0 37 -31 37q-27 0 -66.5 -53t-66.5 -152zM212 468l-10 8l69 110q13 21 20.5 30.5t18 17.5t20.5 8q11 0 20.5 -8t9.5 -21q0 -19 -39 -52z" />
    <glyph glyph-name="ecircumflex" unicode="&#xea;" 
d="M264 125h24q-27 -63 -69 -101t-90 -38q-35 0 -62.5 26t-27.5 79q0 74 38.5 151t92 124.5t97.5 47.5q23 0 36.5 -13t16.5 -25t3 -24q0 -105 -211 -194q-15 -43 -15 -81q0 -18 5 -31t11 -18.5t14.5 -9t12 -4t7.5 -0.5q67 0 117 111zM119 183q56 25 110 75.5t54 92.5
q0 37 -31 37q-27 0 -66.5 -53t-66.5 -152zM294 589l-153 -120h-19l183 191h48l8 -191h-10z" />
    <glyph glyph-name="edieresis" unicode="&#xeb;" 
d="M264 125h24q-27 -63 -69 -101t-90 -38q-35 0 -62.5 26t-27.5 79q0 74 38.5 151t92 124.5t97.5 47.5q23 0 36.5 -13t16.5 -25t3 -24q0 -105 -211 -194q-15 -43 -15 -81q0 -18 5 -31t11 -18.5t14.5 -9t12 -4t7.5 -0.5q67 0 117 111zM119 183q56 25 110 75.5t54 92.5
q0 37 -31 37q-27 0 -66.5 -53t-66.5 -152zM140 553q0 17 12 29t29 12t29.5 -12t12.5 -29t-12.5 -29t-29.5 -12t-29 12t-12 29zM311 553q0 17 12 29t29 12t29 -12t12 -29t-12 -29t-29 -12t-29 12t-12 29z" />
    <glyph glyph-name="igrave" unicode="&#xec;" horiz-adv-x="240" 
d="M227 107h24q-25 -49 -60 -85t-71 -36q-20 0 -39 14.5t-19 50.5q0 19 17 70l66 178q20 54 20 64q0 19 -18 19q-17 0 -42.5 -27t-40.5 -56h-23q32 61 66 88t60 27q24 0 38 -16t14 -41q0 -24 -26 -95l-47 -127q-26 -69 -26 -86q0 -11 5 -17.5t9 -8t8 -1.5q19 0 43.5 26
t41.5 59zM267 468l-109 93q-40 34 -40 52q0 13 9.5 21t20.5 8q16 0 28.5 -13t30.5 -43l70 -110z" />
    <glyph glyph-name="iacute" unicode="&#xed;" horiz-adv-x="240" 
d="M227 107h24q-25 -49 -60 -85t-71 -36q-20 0 -39 14.5t-19 50.5q0 19 17 70l66 178q20 54 20 64q0 19 -18 19q-17 0 -42.5 -27t-40.5 -56h-23q32 61 66 88t60 27q24 0 38 -16t14 -41q0 -24 -26 -95l-47 -127q-26 -69 -26 -86q0 -11 5 -17.5t9 -8t8 -1.5q19 0 43.5 26
t41.5 59zM181 468l-10 8l69 110q13 21 20.5 30.5t18 17.5t20.5 8q11 0 20.5 -8t9.5 -21q0 -19 -39 -52z" />
    <glyph glyph-name="icircumflex" unicode="&#xee;" horiz-adv-x="240" 
d="M227 107h24q-25 -49 -60 -85t-71 -36q-20 0 -39 14.5t-19 50.5q0 19 17 70l66 178q20 54 20 64q0 19 -18 19q-17 0 -42.5 -27t-40.5 -56h-23q32 61 66 88t60 27q24 0 38 -16t14 -41q0 -24 -26 -95l-47 -127q-26 -69 -26 -86q0 -11 5 -17.5t9 -8t8 -1.5q19 0 43.5 26
t41.5 59zM253 589l-153 -120h-19l183 191h48l8 -191h-10z" />
    <glyph glyph-name="idieresis" unicode="&#xef;" horiz-adv-x="240" 
d="M227 107h24q-25 -49 -60 -85t-71 -36q-20 0 -39 14.5t-19 50.5q0 19 17 70l66 178q20 54 20 64q0 19 -18 19q-17 0 -42.5 -27t-40.5 -56h-23q32 61 66 88t60 27q24 0 38 -16t14 -41q0 -24 -26 -95l-47 -127q-26 -69 -26 -86q0 -11 5 -17.5t9 -8t8 -1.5q19 0 43.5 26
t41.5 59zM99 553q0 17 12 29t29 12t29.5 -12t12.5 -29t-12.5 -29t-29.5 -12t-29 12t-12 29zM270 553q0 17 12 29t29 12t29 -12t12 -29t-12 -29t-29 -12t-29 12t-12 29z" />
    <glyph glyph-name="eth" unicode="&#xf0;" horiz-adv-x="365" 
d="M303 580l72 30l9 -20l-70 -29q53 -122 53 -224q0 -82 -26 -161.5t-76.5 -134.5t-111.5 -55q-43 0 -73.5 34.5t-30.5 100.5q0 110 63.5 201.5t141.5 91.5q33 0 51 -22q-5 86 -29 154l-87 -36l-8 20l88 36q-25 57 -54 95l23 11q40 -45 65 -92zM101 72q0 -23 13 -43.5
t39 -20.5q36 0 67 42t47.5 99.5t25.5 105t9 68.5q0 35 -15 52t-36 17q-45 0 -81.5 -65.5t-52.5 -137t-16 -117.5z" />
    <glyph glyph-name="ntilde" unicode="&#xf1;" horiz-adv-x="427" 
d="M403 92h25q-55 -106 -122 -106q-10 0 -20.5 3t-22 16.5t-11.5 34.5q0 19 23 87l52 148q21 61 21 79q0 30 -29 30q-41 0 -98 -86q-59 -90 -101 -227l-24 -78h-60l89 288q21 67 21 77q0 16 -13 16q-14 0 -33 -20.5t-35 -50.5h-23q61 111 116 111q38 0 38 -47
q0 -29 -32 -132q90 179 171 179q27 0 47 -17.5t20 -52.5q0 -22 -20 -82l-59 -176q-14 -42 -14 -50t5.5 -14t12.5 -6q30 0 76 76zM181 492h-14q0 58 26.5 88t68.5 30q33 0 83 -38q2 -2 12.5 -10t16 -12t14 -8t15.5 -4q20 0 33.5 20.5t15.5 50.5h14q0 -53 -24.5 -85.5
t-66.5 -32.5q-38 0 -83 37q-27 22 -37 28t-23 6q-20 0 -34 -19t-17 -51z" />
    <glyph glyph-name="ograve" unicode="&#xf2;" horiz-adv-x="365" 
d="M49 128q0 105 63.5 195.5t141.5 90.5q41 0 70.5 -35t29.5 -104q0 -67 -25.5 -133t-73.5 -111t-104 -45q-29 0 -49.5 13.5t-30.5 30t-15.5 40.5t-6 35t-0.5 23zM101 72q0 -23 13 -43.5t39 -20.5q36 0 67 42t47.5 99.5t25.5 105t9 68.5q0 35 -15 52t-36 17
q-45 0 -81.5 -65.5t-52.5 -137t-16 -117.5zM329 468l-109 93q-40 34 -40 52q0 13 9.5 21t20.5 8q16 0 28.5 -13t30.5 -43l70 -110z" />
    <glyph glyph-name="oacute" unicode="&#xf3;" horiz-adv-x="365" 
d="M49 128q0 105 63.5 195.5t141.5 90.5q41 0 70.5 -35t29.5 -104q0 -67 -25.5 -133t-73.5 -111t-104 -45q-29 0 -49.5 13.5t-30.5 30t-15.5 40.5t-6 35t-0.5 23zM101 72q0 -23 13 -43.5t39 -20.5q36 0 67 42t47.5 99.5t25.5 105t9 68.5q0 35 -15 52t-36 17
q-45 0 -81.5 -65.5t-52.5 -137t-16 -117.5zM243 468l-10 8l69 110q13 21 20.5 30.5t18 17.5t20.5 8q11 0 20.5 -8t9.5 -21q0 -19 -39 -52z" />
    <glyph glyph-name="ocircumflex" unicode="&#xf4;" horiz-adv-x="365" 
d="M49 128q0 105 63.5 195.5t141.5 90.5q41 0 70.5 -35t29.5 -104q0 -67 -25.5 -133t-73.5 -111t-104 -45q-29 0 -49.5 13.5t-30.5 30t-15.5 40.5t-6 35t-0.5 23zM101 72q0 -23 13 -43.5t39 -20.5q36 0 67 42t47.5 99.5t25.5 105t9 68.5q0 35 -15 52t-36 17
q-45 0 -81.5 -65.5t-52.5 -137t-16 -117.5zM315 589l-153 -120h-19l183 191h48l8 -191h-10z" />
    <glyph glyph-name="otilde" unicode="&#xf5;" horiz-adv-x="365" 
d="M49 128q0 105 63.5 195.5t141.5 90.5q41 0 70.5 -35t29.5 -104q0 -67 -25.5 -133t-73.5 -111t-104 -45q-29 0 -49.5 13.5t-30.5 30t-15.5 40.5t-6 35t-0.5 23zM101 72q0 -23 13 -43.5t39 -20.5q36 0 67 42t47.5 99.5t25.5 105t9 68.5q0 35 -15 52t-36 17
q-45 0 -81.5 -65.5t-52.5 -137t-16 -117.5zM150 492h-14q0 58 26.5 88t68.5 30q33 0 83 -38q2 -2 12.5 -10t16 -12t14 -8t15.5 -4q20 0 33.5 20.5t15.5 50.5h14q0 -53 -24.5 -85.5t-66.5 -32.5q-38 0 -83 37q-27 22 -37 28t-23 6q-20 0 -34 -19t-17 -51z" />
    <glyph glyph-name="odieresis" unicode="&#xf6;" horiz-adv-x="365" 
d="M49 128q0 105 63.5 195.5t141.5 90.5q41 0 70.5 -35t29.5 -104q0 -67 -25.5 -133t-73.5 -111t-104 -45q-29 0 -49.5 13.5t-30.5 30t-15.5 40.5t-6 35t-0.5 23zM101 72q0 -23 13 -43.5t39 -20.5q36 0 67 42t47.5 99.5t25.5 105t9 68.5q0 35 -15 52t-36 17
q-45 0 -81.5 -65.5t-52.5 -137t-16 -117.5zM161 553q0 17 12 29t29 12t29.5 -12t12.5 -29t-12.5 -29t-29.5 -12t-29 12t-12 29zM332 553q0 17 12 29t29 12t29 -12t12 -29t-12 -29t-29 -12t-29 12t-12 29z" />
    <glyph glyph-name="divide" unicode="&#xf7;" horiz-adv-x="667" 
d="M379 151q-14 0 -24.5 -10.5t-10.5 -24.5t10.5 -24.5t24.5 -10.5t24.5 10.5t10.5 24.5t-10.5 24.5t-24.5 10.5zM380 559q-14 0 -24.5 -10.5t-10.5 -24.5t10.5 -24.5t24.5 -10.5t24.5 10.5t10.5 24.5t-10.5 24.5t-24.5 10.5zM116 346h528v-52h-528v52z" />
    <glyph glyph-name="oslash" unicode="&#xf8;" horiz-adv-x="365" 
d="M102 91l200 239q-1 29 -15 45.5t-36 16.5q-34 0 -64 -38t-47 -91t-27 -99.5t-11 -72.5zM74 24l-43 -48v34l32 38q-14 32 -14 80q0 104 64 195t141 91q29 0 50 -15.5t29 -32.5l46 54v-34l-36 -43q11 -27 11 -68q0 -105 -60 -197t-143 -92q-44 0 -77 38zM102 61
q9 -53 51 -53q36 0 66 40.5t46.5 97.5t24.5 94.5t10 54.5z" />
    <glyph glyph-name="ugrave" unicode="&#xf9;" horiz-adv-x="427" 
d="M407 101h20q-5 -15 -11.5 -29t-20.5 -36.5t-35 -36t-45 -13.5q-48 0 -48 53q0 24 27 125q-10 -23 -25 -49.5t-37.5 -57.5t-51 -51t-56.5 -20q-30 0 -48 18t-18 49q0 29 22 92l56 161q18 54 18 57q0 17 -13 17q-31 0 -68 -83h-23q20 53 51.5 85t62.5 32q16 0 31 -11
t15 -37q0 -16 -18 -69l-61 -181q-19 -55 -19 -68q0 -32 29 -32q38 0 86 73q67 101 128 290l9 28h58l-85 -280q-21 -73 -21 -83q0 -24 20 -24q36 0 71 81zM360 468l-109 93q-40 34 -40 52q0 13 9.5 21t20.5 8q16 0 28.5 -13t30.5 -43l70 -110z" />
    <glyph glyph-name="uacute" unicode="&#xfa;" horiz-adv-x="427" 
d="M407 101h20q-5 -15 -11.5 -29t-20.5 -36.5t-35 -36t-45 -13.5q-48 0 -48 53q0 24 27 125q-10 -23 -25 -49.5t-37.5 -57.5t-51 -51t-56.5 -20q-30 0 -48 18t-18 49q0 29 22 92l56 161q18 54 18 57q0 17 -13 17q-31 0 -68 -83h-23q20 53 51.5 85t62.5 32q16 0 31 -11
t15 -37q0 -16 -18 -69l-61 -181q-19 -55 -19 -68q0 -32 29 -32q38 0 86 73q67 101 128 290l9 28h58l-85 -280q-21 -73 -21 -83q0 -24 20 -24q36 0 71 81zM274 468l-10 8l69 110q13 21 20.5 30.5t18 17.5t20.5 8q11 0 20.5 -8t9.5 -21q0 -19 -39 -52z" />
    <glyph glyph-name="ucircumflex" unicode="&#xfb;" horiz-adv-x="427" 
d="M407 101h20q-5 -15 -11.5 -29t-20.5 -36.5t-35 -36t-45 -13.5q-48 0 -48 53q0 24 27 125q-10 -23 -25 -49.5t-37.5 -57.5t-51 -51t-56.5 -20q-30 0 -48 18t-18 49q0 29 22 92l56 161q18 54 18 57q0 17 -13 17q-31 0 -68 -83h-23q20 53 51.5 85t62.5 32q16 0 31 -11
t15 -37q0 -16 -18 -69l-61 -181q-19 -55 -19 -68q0 -32 29 -32q38 0 86 73q67 101 128 290l9 28h58l-85 -280q-21 -73 -21 -83q0 -24 20 -24q36 0 71 81zM346 589l-153 -120h-19l183 191h48l8 -191h-10z" />
    <glyph glyph-name="udieresis" unicode="&#xfc;" horiz-adv-x="427" 
d="M407 101h20q-5 -15 -11.5 -29t-20.5 -36.5t-35 -36t-45 -13.5q-48 0 -48 53q0 24 27 125q-10 -23 -25 -49.5t-37.5 -57.5t-51 -51t-56.5 -20q-30 0 -48 18t-18 49q0 29 22 92l56 161q18 54 18 57q0 17 -13 17q-31 0 -68 -83h-23q20 53 51.5 85t62.5 32q16 0 31 -11
t15 -37q0 -16 -18 -69l-61 -181q-19 -55 -19 -68q0 -32 29 -32q38 0 86 73q67 101 128 290l9 28h58l-85 -280q-21 -73 -21 -83q0 -24 20 -24q36 0 71 81zM192 553q0 17 12 29t29 12t29.5 -12t12.5 -29t-12.5 -29t-29.5 -12t-29 12t-12 29zM363 553q0 17 12 29t29 12t29 -12
t12 -29t-12 -29t-29 -12t-29 12t-12 29z" />
    <glyph glyph-name="yacute" unicode="&#xfd;" horiz-adv-x="365" 
d="M68 281h-20q3 37 12 63.5t19 39.5t22.5 20.5t18.5 8.5t12 1q27 0 54 -39q25 -36 25 -140q0 -121 -28 -219q48 54 94 133.5t46 140.5q0 31 -16 55q-15 20 -15 37q0 13 7 22.5t19 9.5q19 0 29.5 -22t10.5 -57q0 -64 -34.5 -140.5t-83.5 -140.5t-104.5 -122t-95 -92.5
t-56.5 -44.5q-65 -39 -120 -39q-28 0 -45 9.5t-17 26.5q0 15 13.5 23.5t27.5 8.5q12 0 35 -7q29 -9 51 -9q28 0 60 18.5t89 76.5q38 38 54 102q24 99 24 225q0 68 -12 105t-31 37q-37 0 -45 -91zM223 468l-10 8l69 110q13 21 20.5 30.5t18 17.5t20.5 8q11 0 20.5 -8t9.5 -21
q0 -19 -39 -52z" />
    <glyph glyph-name="thorn" unicode="&#xfe;" horiz-adv-x="417" 
d="M178 634l6 20q74 1 115 18h12l-107 -347q62 89 120 89q37 0 62 -33.5t25 -84.5q0 -106 -70 -208t-156 -102q-51 0 -68 50l-53 -176q-14 -45 -14 -58q0 -9 7.5 -14t15.5 -5.5t25 -0.5h22l-7 -20h-204l7 20q52 0 61 7t24 55l218 719q13 42 13 49q0 10 -5.5 15t-12 6
t-20.5 1h-16zM165 191l-20 -65q-13 -47 -13 -62q0 -24 13 -40t37 -16q40 0 75 42t55 98.5t31.5 105.5t11.5 72q0 62 -40 62q-38 0 -81 -50q-18 -20 -32.5 -49.5t-20 -45.5t-16.5 -52z" />
    <glyph glyph-name="ydieresis" unicode="&#xff;" horiz-adv-x="365" 
d="M68 281h-20q3 37 12 63.5t19 39.5t22.5 20.5t18.5 8.5t12 1q27 0 54 -39q25 -36 25 -140q0 -121 -28 -219q48 54 94 133.5t46 140.5q0 31 -16 55q-15 20 -15 37q0 13 7 22.5t19 9.5q19 0 29.5 -22t10.5 -57q0 -64 -34.5 -140.5t-83.5 -140.5t-104.5 -122t-95 -92.5
t-56.5 -44.5q-65 -39 -120 -39q-28 0 -45 9.5t-17 26.5q0 15 13.5 23.5t27.5 8.5q12 0 35 -7q29 -9 51 -9q28 0 60 18.5t89 76.5q38 38 54 102q24 99 24 225q0 68 -12 105t-31 37q-37 0 -45 -91zM141 553q0 17 12 29t29 12t29.5 -12t12.5 -29t-12.5 -29t-29.5 -12t-29 12
t-12 29zM312 553q0 17 12 29t29 12t29 -12t12 -29t-12 -29t-29 -12t-29 12t-12 29z" />
    <glyph glyph-name="dotlessi" unicode="&#x131;" horiz-adv-x="240" 
d="M227 107h24q-25 -49 -60 -85t-71 -36q-20 0 -39 14.5t-19 50.5q0 19 17 70l66 178q20 54 20 64q0 19 -18 19q-17 0 -42.5 -27t-40.5 -56h-23q32 61 66 88t60 27q24 0 38 -16t14 -41q0 -24 -26 -95l-47 -127q-26 -69 -26 -86q0 -11 5 -17.5t9 -8t8 -1.5q19 0 43.5 26
t41.5 59z" />
    <glyph glyph-name="Lslash" unicode="&#x141;" horiz-adv-x="542" 
d="M276 328l-63 -207q-13 -42 -13 -54q0 -8 2 -15t7 -11.5t9.5 -8t12.5 -5.5t13.5 -3t15 -1.5t14 -0.5h14h12.5h49q129 0 201 128q2 3 5 9l4 7h21l-55 -166h-524l7 22h15q73 0 91 62l52 175l-118 -71l11 36l119 73l72 238q18 61 18 70q0 35 -63 35h-14l7 22h271l-7 -22h-18
q-28 0 -44 -4.5t-28 -20.5t-18 -31.5t-17 -53.5l-49 -165l158 98l-11 -38z" />
    <glyph glyph-name="lslash" unicode="&#x142;" horiz-adv-x="240" 
d="M192 309l-57 -187q-18 -58 -18 -77q0 -31 23 -31q20 0 45 28.5t43 74.5h22q-20 -51 -52.5 -91t-75.5 -40q-28 0 -43.5 18.5t-15.5 44.5q0 30 14 77l37 125l-75 -50l12 41l78 54l77 249q17 51 17 67q0 10 -6 15t-12.5 6t-21.5 1h-18l6 20q73 0 120 18h11l-97 -320l101 72
l-12 -41z" />
    <glyph glyph-name="OE" unicode="&#x152;" horiz-adv-x="927" 
d="M709 640l-86 -281h82q48 0 75.5 27t52.5 85h22l-82 -263h-20q4 29 4 54q0 48 -17.5 61.5t-63.5 13.5h-60l-62 -205q-15 -53 -15 -61q0 -27 24.5 -38t74.5 -11h21q89 0 141.5 32t89.5 115h19l-53 -169h-381q-53 0 -89 -4q-48 -5 -54 -5q-43 0 -85.5 15t-79.5 44.5
t-60 81.5t-23 119q0 69 33.5 149.5t88.5 141.5q112 125 276 125q21 0 65 -2q66 -3 104 -3h320l2 -151h-18q-14 46 -30 74.5t-37.5 39.5t-36 13t-42.5 2h-8h-92zM475 160l107 352q13 41 13 64q0 71 -107 71q-134 0 -208 -116q-40 -63 -72 -156t-32 -167q0 -93 45 -145
t108 -52q29 0 52 10t37 22.5t26.5 36.5t17.5 38.5t13 41.5z" />
    <glyph glyph-name="oe" unicode="&#x153;" horiz-adv-x="479" 
d="M441 125h20q-21 -50 -60.5 -94.5t-90.5 -44.5q-47 0 -71 48q-43 -48 -87 -48q-50 0 -76 42.5t-26 99.5q0 64 31.5 132t78.5 111t89 43q57 0 79 -86q63 86 121 86q25 0 39 -16t14 -40q0 -54 -60.5 -109t-137.5 -80q-16 -48 -16 -93q0 -26 9.5 -41.5t17 -18t15.5 -2.5
q22 0 52 26t59 85zM310 191q66 20 109 70t43 92q0 36 -28 36q-37 0 -70.5 -59.5t-53.5 -138.5zM106 76q0 -33 12 -51.5t32 -18.5q24 0 43.5 27.5t41.5 92.5q10 28 31.5 106t21.5 108q0 27 -12.5 40.5t-29.5 13.5q-39 0 -73 -63t-50.5 -135.5t-16.5 -119.5z" />
    <glyph glyph-name="Scaron" unicode="&#x160;" horiz-adv-x="469" 
d="M72 222h20q3 -107 51 -158t110 -51q48 0 88 33.5t40 90.5q0 31 -13.5 59t-26.5 42.5t-37 37.5q-33 31 -48.5 47t-36 43t-29 54.5t-8.5 59.5q0 75 54.5 134.5t125.5 59.5q83 0 125 -84q17 27 30 72h20l-26 -194h-22q-1 57 -15 96.5t-36 57t-40.5 24t-37.5 6.5
q-48 0 -80.5 -38t-32.5 -91q0 -23 5.5 -41.5t22.5 -39.5t30 -33.5t44 -41.5q33 -30 52 -51t35.5 -58t16.5 -78q0 -90 -63 -141t-132 -51q-89 0 -153 87q-23 -30 -33 -67h-24zM415 785l154 119h18l-183 -191h-48l-8 191h10z" />
    <glyph glyph-name="scaron" unicode="&#x161;" horiz-adv-x="313" 
d="M261 108q0 -46 -35 -84t-103 -38q-52 0 -76 23t-24 47q0 11 6.5 22t20.5 11q26 0 26 -28q0 -5 -2 -14t-2 -11q0 -14 15.5 -22t34.5 -8q41 0 64 24.5t23 54.5q0 28 -16 58l-48 90q-18 35 -18 67q0 48 37.5 80t84.5 32q35 0 59.5 -17.5t24.5 -37.5q0 -11 -6 -19t-16 -8
q-16 0 -23 29q-8 33 -43 33q-27 0 -48 -15.5t-21 -40.5q0 -31 26 -77l36 -64q23 -42 23 -87zM272 541l154 119h18l-183 -191h-48l-8 191h10z" />
    <glyph glyph-name="Ydieresis" unicode="&#x178;" horiz-adv-x="552" 
d="M135 464h-22q15 39 35.5 81t58.5 85.5t74 43.5q32 0 55.5 -39.5t23.5 -116.5q0 -100 -30 -232q10 24 26.5 58.5t50 96.5t67 110.5t75 85.5t75.5 37q29 0 47.5 -16t18.5 -41q0 -15 -9 -26.5t-23 -11.5q-10 0 -20 7t-10 25q0 34 -23 34q-25 0 -66.5 -44t-83.5 -115
q-95 -161 -125 -260l-34 -113q-10 -37 -10 -43q0 -15 8 -25.5t21 -15t22 -6t17 -1.5h29l-7 -22h-307l7 22h30q50 0 71.5 24t34.5 74l41 153q10 37 20.5 116t10.5 126q0 116 -34 116q-26 0 -63.5 -61.5t-51.5 -105.5zM335 797q0 17 12 29t29 12t29.5 -12t12.5 -29t-12.5 -29
t-29.5 -12t-29 12t-12 29zM506 797q0 17 12 29t29 12t29 -12t12 -29t-12 -29t-29 -12t-29 12t-12 29z" />
    <glyph glyph-name="Zcaron" unicode="&#x17d;" horiz-adv-x="594" 
d="M618 -67h22q-13 -81 -53 -123.5t-97 -42.5q-52 0 -88 34t-77 112q-16 31 -23 43.5t-24.5 39t-31 38.5t-34 23t-41.5 11q-73 0 -95 -61q-13 -33 -31 -33q-10 0 -14.5 7.5t-4.5 12.5q0 21 42 72q59 73 190 177q97 77 148.5 119t118 103t102.5 105q-48 -12 -74 -12
q-50 0 -117 16q-42 11 -86 11q-49 0 -74.5 -20.5t-33.5 -43.5h-24q31 79 81 116t95 37q23 0 47.5 -9t40.5 -18.5t49 -30.5q44 -28 68 -28q21 0 35 13t18 30q10 43 31 43q19 0 19 -22q0 -15 -21.5 -47.5t-39 -53.5t-29.5 -34q-53 -58 -110.5 -107.5t-227.5 -185.5
q-14 -9 -76.5 -62.5t-93.5 -88.5q50 22 87 22q34 0 62.5 -11t55 -36.5t42 -45t43.5 -57.5q14 -19 23.5 -30t27.5 -28.5t40 -26t46 -8.5t41 7.5t26 22t12.5 25t7.5 26.5zM523 785l154 119h18l-183 -191h-48l-8 191h10z" />
    <glyph glyph-name="zcaron" unicode="&#x17e;" horiz-adv-x="427" 
d="M158 312h-18q6 19 12.5 33.5t18.5 32t31 27t43 9.5q38 0 72 -28q2 -1 6.5 -5t7 -5.5t7 -4.5t8 -4.5t9 -2.5t11.5 -1q27 0 36 29q7 22 21 22q13 0 13 -13q0 -31 -128 -141l-128 -108q-84 -71 -111 -114q25 14 49 14q46 0 129 -62q55 -41 90 -41q57 0 61 63h17
q1 -60 -28.5 -94.5t-72.5 -34.5q-27 0 -49 12.5t-35.5 27t-38.5 47.5q-17 22 -26 32t-23 19t-30 9q-29 0 -48 -19q-7 -7 -10.5 -15.5t-6.5 -12.5t-11 -4t-8 15q0 65 204 233q98 79 142 119q-17 -5 -33 -5q-19 0 -60.5 3.5t-45.5 3.5q-28 0 -44 -5t-20.5 -11t-12.5 -20z
M324 541l154 119h18l-183 -191h-48l-8 191h10z" />
    <glyph glyph-name="florin" unicode="&#x192;" horiz-adv-x="500" 
d="M367 401h89l-8 -33h-88q-25 -137 -93 -380q-68 -241 -182 -241q-25 0 -43 14t-18 39q0 19 12 31.5t27 12.5q11 0 21.5 -8.5t10.5 -20.5q0 -7 -5.5 -15.5t-5.5 -13.5q0 -9 14 -9q16 0 29 12t23 37.5t14.5 42t12.5 47.5q6 26 25 122.5t25 121.5l51 208h-88l8 33q60 4 76 16
t37 74q14 39 24 62.5t27 51t40 40.5t52 13q27 0 48 -14.5t21 -42.5q0 -18 -10.5 -28t-23.5 -10q-12 0 -21.5 8.5t-9.5 19.5q0 7 5 17t5 14q0 12 -17 12q-31 0 -44 -34t-27 -120q-3 -16 -4 -25z" />
    <glyph glyph-name="circumflex" unicode="&#x2c6;" horiz-adv-x="333" 
d="M299 597l-153 -120h-19l183 191h48l8 -191h-10z" />
    <glyph glyph-name="caron" unicode="&#x2c7;" horiz-adv-x="333" 
d="M267 549l154 119h18l-183 -191h-48l-8 191h10z" />
    <glyph glyph-name="uni02C9" unicode="&#x2c9;" horiz-adv-x="333" 
d="M17 519h299v-45h-299v45z" />
    <glyph glyph-name="breve" unicode="&#x2d8;" horiz-adv-x="333" 
d="M191 663h11q-4 -42 20 -63t65 -21q25 0 45.5 7.5t35 23t21.5 26t17 27.5h10q-8 -43 -25 -74t-37.5 -46t-38 -21.5t-33.5 -6.5q-37 0 -69 25.5t-32 74.5q0 20 10 48z" />
    <glyph glyph-name="dotaccent" unicode="&#x2d9;" horiz-adv-x="333" 
d="M230 561q0 17 12.5 29t29.5 12t29 -12t12 -29t-12 -29t-29 -12t-29.5 12t-12.5 29z" />
    <glyph glyph-name="ring" unicode="&#x2da;" horiz-adv-x="333" 
d="M373 587q0 -38 -27 -65t-65 -27t-65 27t-27 65t27 64.5t65 26.5t65 -26.5t27 -64.5zM280 651q-26 0 -44 -19t-18 -45q0 -27 18.5 -45.5t45.5 -18.5q26 0 44.5 18.5t18.5 44.5q0 28 -19 46.5t-46 18.5z" />
    <glyph glyph-name="ogonek" unicode="&#x2db;" horiz-adv-x="333" 
d="M145 7h34q-37 -29 -37 -59q0 -9 4 -21t14 -28.5t33.5 -27.5t55.5 -11l11 -13q-36 -27 -78 -27q-44 0 -76.5 28.5t-32.5 66.5q0 54 72 92z" />
    <glyph glyph-name="tilde" unicode="&#x2dc;" horiz-adv-x="333" 
d="M134 500h-14q0 58 26.5 88t68.5 30q33 0 83 -38q2 -2 12.5 -10t16 -12t14 -8t15.5 -4q20 0 33.5 20.5t15.5 50.5h14q0 -53 -24.5 -85.5t-66.5 -32.5q-38 0 -83 37q-27 22 -37 28t-23 6q-20 0 -34 -19t-17 -51z" />
    <glyph glyph-name="hungarumlaut" unicode="&#x2dd;" horiz-adv-x="333" 
d="M163 476l-10 8l69 110q13 21 20.5 30.5t18 17.5t20.5 8q11 0 20.5 -8t9.5 -21q0 -19 -39 -52zM320 476l-10 8l70 110q18 30 30.5 43t28.5 13q11 0 20.5 -8t9.5 -21q0 -18 -40 -52z" />
    <glyph glyph-name="uni03A9" unicode="&#x3a9;" horiz-adv-x="656" 
d="M613 0h-227v118q66 35 99.5 113.5t33.5 162.5q0 129 -48.5 207t-141.5 78q-96 0 -145 -79t-49 -206q0 -91 37.5 -172.5t102.5 -107.5v-114h-232v136h23q0 -40 10 -58t48 -18h113v31q-78 32 -132 113t-54 187q0 149 77 235t201 86q125 0 201 -92t76 -220
q0 -58 -18.5 -116.5t-61.5 -111.5t-102 -78v-34h107q38 0 48 18t10 58h24v-136z" />
    <glyph glyph-name="uni03BC" unicode="&#x3bc;" horiz-adv-x="500" 
d="M62 400h70v-213q0 -33 1 -50.5t5 -38t12.5 -30t23.5 -16t38 -6.5q29 0 62.5 17.5t61.5 48.5v288h71v-272q0 -26 0.5 -38t3.5 -26.5t10.5 -19.5t19.5 -5q31 0 39 60h20q-11 -113 -97 -113q-37 0 -50.5 24t-16.5 69q-81 -93 -163 -93q-47 0 -77 44q-1 -81 17 -172
q7 -38 7 -50q0 -22 -13 -38t-33 -16q-21 0 -32 17t-11 37q0 17 7 47q24 101 24 179v366z" />
    <glyph glyph-name="pi" unicode="&#x3c0;" horiz-adv-x="429" 
d="M407 90q-19 -102 -70 -102q-31 0 -47 31q-17 31 -17 124v274h-102v-200q0 -146 -29 -194q-22 -35 -55 -35q-11 0 -20 9t-9 21q0 26 31 37q29 8 37.5 52t8.5 131v179h-23q-25 0 -39.5 -15t-21.5 -52l-22 6q2 60 26 93t68 33h273v-65h-87v-244q0 -70 11 -100q9 -28 28 -28
q25 0 42 58z" />
    <glyph glyph-name="figuredash" unicode="&#x2012;" horiz-adv-x="500" 
d="M-6 320h512v-22h-512v22z" />
    <glyph glyph-name="endash" unicode="&#x2013;" horiz-adv-x="500" 
d="M41 261h512v-22h-512v22z" />
    <glyph glyph-name="emdash" unicode="&#x2014;" horiz-adv-x="1000" 
d="M41 261h1012v-22h-1012v22z" />
    <glyph glyph-name="quoteleft" unicode="&#x2018;" horiz-adv-x="240" 
d="M333 652v-19q-76 -8 -115 -52t-39 -75q0 -22 19 -22q2 0 11 1t10 1q7 0 16 -2.5t19.5 -14.5t10.5 -31q0 -28 -16 -41t-36 -13q-33 0 -49.5 26.5t-16.5 62.5q0 65 50.5 119t135.5 60z" />
    <glyph glyph-name="quoteright" unicode="&#x2019;" horiz-adv-x="240" 
d="M113 384v19q76 8 115 52t39 75q0 22 -19 22q-2 0 -11 -1t-10 -1q-7 0 -16 2.5t-19.5 14.5t-10.5 31q0 28 16 41t36 13q33 0 49.5 -26.5t16.5 -62.5q0 -65 -50.5 -119t-135.5 -60z" />
    <glyph glyph-name="quotesinglbase" unicode="&#x201a;" horiz-adv-x="240" 
d="M-21 -178v19q76 8 115 52t39 75q0 22 -19 22q-2 0 -11 -1t-10 -1q-7 0 -16 2.5t-19.5 14.5t-10.5 31q0 28 16 41t36 13q33 0 49.5 -26.5t16.5 -62.5q0 -65 -50.5 -119t-135.5 -60z" />
    <glyph glyph-name="quotedblleft" unicode="&#x201c;" horiz-adv-x="458" 
d="M336 652v-19q-76 -8 -115 -52t-39 -75q0 -22 19 -22q2 0 11 1t10 1q7 0 16 -2.5t19.5 -14.5t10.5 -31q0 -28 -16 -41t-36 -13q-33 0 -49.5 26.5t-16.5 62.5q0 65 50.5 119t135.5 60zM557 652v-19q-76 -8 -115 -52t-39 -75q0 -22 19 -22q2 0 11 1t10 1q7 0 16 -2.5
t19.5 -14.5t10.5 -31q0 -28 -16 -41t-36 -13q-33 0 -49.5 26.5t-16.5 62.5q0 65 50.5 119t135.5 60z" />
    <glyph glyph-name="quotedblright" unicode="&#x201d;" horiz-adv-x="458" 
d="M336 384v19q76 8 115 52t39 75q0 22 -19 22q-2 0 -11 -1t-10 -1q-7 0 -16 2.5t-19.5 14.5t-10.5 31q0 28 16 41t36 13q33 0 49.5 -26.5t16.5 -62.5q0 -65 -50.5 -119t-135.5 -60zM115 384v19q76 8 115 52t39 75q0 22 -19 22q-2 0 -11 -1t-10 -1q-7 0 -16 2.5t-19.5 14.5
t-10.5 31q0 28 16 41t36 13q33 0 49.5 -26.5t16.5 -62.5q0 -65 -50.5 -119t-135.5 -60z" />
    <glyph glyph-name="quotedblbase" unicode="&#x201e;" horiz-adv-x="458" 
d="M201 -174v19q76 8 115 52t39 75q0 22 -19 22q-2 0 -11 -1t-10 -1q-7 0 -16 2.5t-19.5 14.5t-10.5 31q0 28 16 41t36 13q33 0 49.5 -26.5t16.5 -62.5q0 -65 -50.5 -119t-135.5 -60zM-20 -174v19q76 8 115 52t39 75q0 22 -19 22q-2 0 -11 -1t-10 -1q-7 0 -16 2.5
t-19.5 14.5t-10.5 31q0 28 16 41t36 13q33 0 49.5 -26.5t16.5 -62.5q0 -65 -50.5 -119t-135.5 -60z" />
    <glyph glyph-name="dagger" unicode="&#x2020;" horiz-adv-x="458" 
d="M123 -227h-19l15 47q28 88 66 256q35 155 35 231q51 46 72 109q-29 0 -68 -16q-57 -23 -76 -23q-22 0 -37 12t-15 30t14.5 31.5t40.5 13.5q13 0 75 -19q36 -11 71 -12q9 23 9 73q0 5 -1.5 29t-1.5 28q0 31 6.5 52t17 29.5t18.5 11.5t16 3q18 0 32 -12.5t14 -34.5
q0 -34 -50 -103q-33 -46 -43 -76q36 0 83 16q42 14 65 14q22 0 35.5 -12.5t13.5 -28.5q0 -14 -12 -29.5t-40 -15.5q-19 0 -71 20q-49 19 -79 19q-5 -20 -5 -40q0 -26 19 -69q-39 -58 -108 -253q-50 -141 -85 -258z" />
    <glyph glyph-name="daggerdbl" unicode="&#x2021;" horiz-adv-x="458" 
d="M259 -9q35 13 51 13q18 0 31 -11t13 -27q0 -18 -13 -28t-29 -10t-46 12q-47 20 -86 17q-13 -36 -13 -103q0 -38 -11.5 -60.5t-21.5 -27.5t-20 -5q-15 0 -24.5 10.5t-9.5 28.5q0 29 23 60q44 61 57 97q-37 0 -83 -17q-30 -11 -49 -11q-15 0 -27 9.5t-12 27.5t11.5 28.5
t28.5 10.5q7 0 50 -13q54 -18 87 -16q6 28 6 52q0 30 -18 56q46 34 71.5 95t25.5 113q0 23 -11 54q28 22 42.5 45.5t28.5 62.5q-38 -2 -71 -13q-39 -14 -54 -14q-18 0 -30.5 10.5t-12.5 27.5q0 18 13 28t29 10q8 0 17 -2.5t22 -7.5t22 -8q47 -14 71 -12q12 36 12 103
q0 38 11.5 60.5t22 27.5t19.5 5q15 0 25 -10.5t10 -27.5q0 -32 -36 -78q-30 -39 -44 -80q38 0 86 18q26 10 46 10q14 0 26 -9.5t12 -27.5t-11 -28t-28 -10q-12 0 -48 12q-57 18 -89 16q-6 -27 -6 -52q0 -29 17 -56q-45 -33 -70.5 -93t-25.5 -115q0 -25 11 -54
q-46 -35 -71 -108q37 1 73 15z" />
    <glyph glyph-name="bullet" unicode="&#x2022;" horiz-adv-x="354" 
d="M222 443q-51 0 -86.5 -35.5t-35.5 -86.5t35.5 -87t86.5 -36t87 36t36 87t-36 86.5t-87 35.5z" />
    <glyph glyph-name="onedotenleader" unicode="&#x2024;" horiz-adv-x="500" 
d="M302 37q0 -21 -15.5 -36t-36.5 -15t-36.5 15t-15.5 36q0 22 15.5 37t36.5 15t36.5 -15t15.5 -37z" />
    <glyph glyph-name="twodotenleader" unicode="&#x2025;" horiz-adv-x="500" 
d="M125 89q22 0 37 -15t15 -37t-15 -37t-37 -15t-37 15t-15 37t15 37t37 15zM375 89q22 0 37 -15t15 -37t-15 -37t-37 -15t-37 15t-15 37t15 37t37 15z" />
    <glyph glyph-name="ellipsis" unicode="&#x2026;" horiz-adv-x="1000" 
d="M221 37q0 -22 -15 -37.5t-37 -15.5t-37.5 15.5t-15.5 37.5q0 21 15.5 36.5t37.5 15.5t37 -15.5t15 -36.5zM553 37q0 -22 -15.5 -37.5t-37.5 -15.5t-37 15.5t-15 37.5q0 21 15 36.5t37 15.5t37.5 -15.5t15.5 -36.5zM885 37q0 -22 -15 -37.5t-37 -15.5t-37.5 15.5
t-15.5 37.5q0 21 15.5 36.5t37.5 15.5t37 -15.5t15 -36.5z" />
    <glyph glyph-name="perthousand" unicode="&#x2030;" horiz-adv-x="958" 
d="M380 100q0 99 55 166.5t110 67.5q37 0 61.5 -32t24.5 -87q0 -79 -50 -153.5t-111 -74.5q-42 0 -66 32t-24 81zM430 56q0 -50 35 -50q32 0 60 54t42 113t14 92q0 50 -33 50q-41 0 -79.5 -97t-38.5 -162zM88 439q0 99 55 166.5t110 67.5q37 0 61.5 -32t24.5 -87
q0 -79 -50 -153.5t-111 -74.5q-42 0 -66 32t-24 81zM138 395q0 -50 35 -50q32 0 60 54t42 113t14 92q0 50 -33 50q-41 0 -79.5 -97t-38.5 -162zM707 100q0 99 55 166.5t110 67.5q37 0 61.5 -32t24.5 -87q0 -79 -50 -153.5t-111 -74.5q-42 0 -66 32t-24 81zM757 56
q0 -50 35 -50q32 0 60 54t42 113t14 92q0 50 -33 50q-41 0 -79.5 -97t-38.5 -162zM112 0h-36l553 662h35z" />
    <glyph glyph-name="guilsinglleft" unicode="&#x2039;" horiz-adv-x="240" 
d="M169 33h-23l-85 182l179 177h29l-132 -188z" />
    <glyph glyph-name="guilsinglright" unicode="&#x203a;" horiz-adv-x="240" 
d="M117 392h23l85 -182l-179 -177h-29l132 188z" />
    <glyph glyph-name="fraction" unicode="&#x2044;" horiz-adv-x="156" 
d="M-86 0h-35l552 662h36z" />
    <glyph glyph-name="zero.superior" unicode="&#x2070;" 
d="M118 411q0 89 56.5 167.5t122.5 78.5q37 0 55 -30t18 -69q0 -100 -60 -175t-117 -75q-36 0 -55.5 30.5t-19.5 72.5zM163 372q0 -48 28 -48q26 0 58 46.5t54 111t22 114.5q0 45 -28 45q-43 0 -88.5 -98.5t-45.5 -170.5z" />
    <glyph glyph-name="four.superior" unicode="&#x2074;" 
d="M238 429h-127l7 21l223 208h29l-72 -206q26 0 30 4q6 6 10 14h23l-14 -41h-57l-24 -69q-6 -14 -6 -22q0 -5 23 -5h18l-6 -17h-136l6 17q35 0 38 4q3 2 13 29zM151 452h95l46 129l-2 2z" />
    <glyph glyph-name="five.superior" unicode="&#x2075;" 
d="M177 485h-24l68 165h164q-14 -28 -21 -33t-27 -5h-107l-32 -78l2 -2q22 13 49 13q36 0 62 -25t26 -63q0 -59 -48.5 -104t-116.5 -45q-40 0 -62.5 16t-22.5 32q0 7 6.5 13t17.5 6q23 0 35 -29q9 -20 32 -20q40 0 74.5 50.5t34.5 98.5q0 52 -42 52q-37 0 -68 -42z" />
    <glyph glyph-name="six.superior" unicode="&#x2076;" 
d="M196 520l2 -2q26 16 55 16q41 0 68.5 -27t27.5 -69q0 -54 -41 -92t-93 -38q-39 0 -70.5 26.5t-31.5 85.5q0 82 65 159.5t148 77.5q18 0 33 -3.5t23.5 -8.5t14 -11t7.5 -10.5t2 -6.5q0 -7 -6.5 -12.5t-16.5 -5.5q-18 0 -29 18q-15 24 -34 24q-60 0 -124 -121zM156 385
q0 -29 16.5 -44t38.5 -15q29 0 51.5 30.5t31 62t8.5 51.5q0 46 -49 46q-48 0 -76 -52q-21 -39 -21 -79z" />
    <glyph glyph-name="seven.superior" unicode="&#x2077;" 
d="M179 580h-25l35 85h24q-3 -7 -3 -9q0 -6 6 -6h170v-10l-173 -272q-25 -40 -35 -50t-24 -10q-25 0 -25 17q0 5 24 38l188 249h-119q-21 0 -28 -6t-15 -26z" />
    <glyph glyph-name="eight.superior" unicode="&#x2078;" 
d="M201 492l15 3q-42 24 -42 64q0 37 34.5 67.5t85.5 30.5q38 0 62 -21t24 -51q0 -15 -5 -30.5t-28 -36t-61 -29.5v-2q52 -23 52 -72q0 -41 -38 -74t-95 -33q-45 0 -74 24.5t-29 57.5q0 44 33 69.5t66 32.5zM224 537q0 -38 34 -38q23 0 40.5 23t24.5 46.5t7 37.5
q0 33 -36 33q-31 0 -50.5 -39t-19.5 -63zM152 370q0 -44 50 -44q41 0 63.5 37.5t22.5 80.5q0 8 -3 15t-14.5 14.5t-30.5 7.5q-38 0 -60 -31q-11 -16 -19.5 -41t-8.5 -39z" />
    <glyph glyph-name="nine.superior" unicode="&#x2079;" 
d="M283 448l-2 2q-24 -17 -52 -17q-42 0 -67.5 28t-25.5 69q0 54 40 90.5t91 36.5q36 0 67 -23.5t31 -82.5q0 -44 -22 -98.5t-68.5 -99.5t-103.5 -45q-35 0 -52.5 13.5t-17.5 26.5q0 10 8 15.5t18 5.5q20 0 29 -20q4 -9 6 -13t6.5 -7t11.5 -3q47 0 103 122zM183 492
q0 -41 47 -41q44 0 70 45q22 38 22 85q0 28 -14 43t-36 15q-28 0 -49.5 -29t-30.5 -61.5t-9 -56.5z" />
    <glyph glyph-name="parenleft.superior" unicode="&#x207d;" horiz-adv-x="198" 
d="M188 186l-18 -11q-46 83 -46 183q0 120 57.5 213.5t154.5 150.5l11 -13q-59 -45 -100 -103t-57.5 -113.5t-22.5 -93t-6 -69.5q0 -85 27 -144z" />
    <glyph glyph-name="parenright.superior" unicode="&#x207e;" horiz-adv-x="198" 
d="M167 712l18 10q46 -85 46 -183q0 -111 -53.5 -205.5t-158.5 -158.5l-12 14q98 73 142.5 177.5t44.5 201.5q0 84 -27 144z" />
    <glyph glyph-name="n.superior" unicode="&#x207f;" horiz-adv-x="271" 
d="M322 374h16q-37 -63 -79 -63q-33 0 -33 35q0 16 13 51l33 87q13 34 13 46q0 16 -16 16q-28 0 -65 -54t-63 -128l-17 -49h-40l58 170q17 51 17 55t-5 4q-22 0 -51 -46h-14q37 66 76 66q13 0 19 -5.5t6 -20.5q0 -12 -11 -49l2 -2q30 42 51 59.5t47 17.5q43 0 43 -39
q0 -14 -13 -49l-29 -83q-19 -52 -19 -56q0 -8 9 -8q24 0 52 45z" />
    <glyph glyph-name="zero.inferior" unicode="&#x2080;" 
d="M59 95q0 90 56.5 168.5t122.5 78.5q36 0 54.5 -30.5t18.5 -69.5q0 -100 -60 -175t-117 -75q-36 0 -55.5 30.5t-19.5 72.5zM104 56q0 -48 28 -48q26 0 58 46.5t54 111t22 114.5q0 46 -28 46q-43 0 -88.5 -99t-45.5 -171z" />
    <glyph glyph-name="one.inferior" unicode="&#x2081;" 
d="M244 342h26l-104 -297q-6 -16 -6 -20q0 -5 3.5 -6t19.5 -1h27l-6 -18h-155l6 18h21q24 0 27 3q3 2 13 29l73 208q7 21 7 25q0 14 -31 14h-23l6 18q69 0 96 27z" />
    <glyph glyph-name="two.inferior" unicode="&#x2082;" 
d="M244 35l-18 -53h-20q0 9 -2 14q-1 4 -28 4h-150q-1 16 3.5 22t24.5 22q115 89 156.5 137t41.5 90q0 20 -14.5 36t-42.5 16q-24 0 -41.5 -12.5t-17.5 -30.5q0 -12 5 -19.5t10 -11.5t5 -5q0 -6 -13.5 -15t-22.5 -9q-14 0 -21.5 14t-7.5 28q0 28 30.5 53.5t83.5 25.5
q51 0 75 -21.5t24 -51.5q0 -50 -62 -104q-12 -11 -76.5 -59.5t-71.5 -54.5l-19 -13v-2h169z" />
    <glyph glyph-name="three.inferior" unicode="&#x2083;" 
d="M192 193v-2q68 -10 68 -70q0 -49 -46.5 -89t-110.5 -40q-33 0 -61.5 12t-28.5 30q0 21 24 21q8 0 15 -4t10 -7.5t3 -4.5q11 -17 19 -23t23 -6q47 0 74 45t27 80q0 15 -8 28t-26 13q-15 0 -35 -13q-19 -12 -26 -12q-14 0 -14 10q0 5 4.5 8t28.5 14q68 32 92.5 51.5
t24.5 50.5q0 38 -54 38q-28 0 -40.5 -13t-12.5 -29q0 -10 4 -18q4 -5 4 -7q0 -4 -11 -11.5t-18 -7.5q-10 0 -17 10.5t-7 24.5q0 30 30.5 49.5t78.5 19.5q45 0 70 -16t25 -40q0 -15 -7.5 -28t-25.5 -25t-32.5 -19t-43.5 -20z" />
    <glyph glyph-name="four.inferior" unicode="&#x2084;" 
d="M179 113h-127l7 21l223 208h29l-72 -206q26 0 30 4q6 6 10 14h23l-14 -41h-57l-24 -69q-6 -14 -6 -22q0 -5 23 -5h18l-6 -17h-136l6 17q35 0 38 4q3 2 13 29zM92 136h95l46 129l-2 2z" />
    <glyph glyph-name="five.inferior" unicode="&#x2085;" 
d="M118 169h-24l68 165h164q-14 -28 -21 -33t-27 -5h-107l-32 -78l2 -2q22 13 49 13q36 0 62 -25t26 -63q0 -59 -48.5 -104t-116.5 -45q-40 0 -62.5 16t-22.5 32q0 7 6.5 13t17.5 6q23 0 35 -29q9 -20 32 -20q40 0 74.5 50.5t34.5 98.5q0 52 -42 52q-37 0 -68 -42z" />
    <glyph glyph-name="six.inferior" unicode="&#x2086;" 
d="M144 204l2 -2q26 16 55 16q41 0 68.5 -27t27.5 -69q0 -54 -41 -92t-93 -38q-39 0 -70.5 26.5t-31.5 85.5q0 82 65 159.5t148 77.5q18 0 33 -3.5t23.5 -8.5t14 -11t7.5 -10.5t2 -6.5q0 -7 -6.5 -12.5t-16.5 -5.5q-18 0 -29 18q-15 24 -34 24q-60 0 -124 -121zM104 69
q0 -29 16.5 -44t38.5 -15q29 0 51.5 30.5t31 62t8.5 51.5q0 46 -49 46q-48 0 -76 -52q-21 -39 -21 -79z" />
    <glyph glyph-name="seven.inferior" unicode="&#x2087;" 
d="M120 264h-25l35 86h24l-3 -9q0 -5 1 -6t6 -1h169v-10l-172 -272q-26 -40 -36 -50t-24 -10q-25 0 -25 17q0 6 24 38l189 249h-120q-20 0 -27.5 -6t-15.5 -26z" />
    <glyph glyph-name="eight.inferior" unicode="&#x2088;" 
d="M142 176l15 3q-42 24 -42 64q0 37 34.5 67.5t85.5 30.5q38 0 62 -21t24 -51q0 -15 -5 -30.5t-28 -36t-61 -29.5v-2q52 -23 52 -72q0 -41 -38 -74t-95 -33q-45 0 -74 24.5t-29 57.5q0 44 33 69.5t66 32.5zM165 221q0 -38 34 -38q23 0 40.5 23t24.5 46.5t7 37.5
q0 33 -36 33q-31 0 -50.5 -39t-19.5 -63zM93 54q0 -44 50 -44q41 0 63.5 37.5t22.5 80.5q0 8 -3 15t-14.5 14.5t-30.5 7.5q-38 0 -60 -31q-11 -16 -19.5 -41t-8.5 -39z" />
    <glyph glyph-name="nine.inferior" unicode="&#x2089;" 
d="M224 133l-2 2q-24 -17 -52 -17q-42 0 -67.5 28t-25.5 69q0 54 40 90.5t91 36.5q36 0 67 -23.5t31 -82.5q0 -44 -22 -98.5t-68.5 -99.5t-103.5 -45q-35 0 -52.5 13.5t-17.5 26.5q0 10 8 15.5t18 5.5q20 0 29 -20q4 -9 6 -13t6.5 -7t11.5 -3q47 0 103 122zM124 177
q0 -41 47 -41q44 0 70 45q22 38 22 85q0 28 -14 43t-36 15q-28 0 -49.5 -29t-30.5 -61.5t-9 -56.5z" />
    <glyph glyph-name="parenleft.inferior" unicode="&#x208d;" horiz-adv-x="198" 
d="M129 -128l-18 -10q-46 81 -46 182q0 120 57.5 213.5t154.5 150.5l12 -13q-48 -37 -84.5 -83.5t-55.5 -87t-30 -85t-14 -71.5t-3 -52q0 -85 27 -144z" />
    <glyph glyph-name="parenright.inferior" unicode="&#x208e;" horiz-adv-x="198" 
d="M108 398l18 10q46 -83 46 -182q0 -112 -53.5 -206t-158.5 -158l-11 13q67 50 111 121.5t59.5 134t15.5 123.5q0 84 -27 144z" />
    <glyph glyph-name="colonmonetary" unicode="&#x20a1;" horiz-adv-x="604" 
d="M246 4l-34 -110h-23l37 119q-61 31 -94 95t-33 132q0 96 45 191.5t122 161.5t162 78l31 99h24l-30 -96q50 1 87 -13l34 109h23l-36 -118q44 -26 69 -82q24 41 33 76h21l-43 -192h-21q12 128 -65 177l-191 -618q34 5 65 23.5t50.5 38t39 49t27.5 45t18 37.5h22l-67 -214
h-21q0 26 -4 66q-62 -60 -137 -68l-30 -96h-23l29 94q-47 0 -87 16zM446 650l-190 -614q34 -24 84 -25l194 631q-24 12 -57 12q-19 0 -31 -4zM238 53l182 591q-61 -20 -109.5 -80.5t-73 -132.5t-37 -131.5t-12.5 -94.5q0 -99 50 -152z" />
    <glyph glyph-name="Euro" unicode="&#x20ac;" horiz-adv-x="500" 
d="M482 376l-8 -28h-308q-2 -8 -5 -24t-4 -21h307l-8 -29h-304q-5 -45 -5 -75q0 -89 29 -136q35 -53 100 -53q47 0 94 38t77 121h21q-58 -181 -199 -181q-95 0 -145 76q-47 70 -47 172q0 12 2 38h-38l8 29h33q4 27 8 45h-44l8 28h44q22 78 73 149q93 136 211 136
q56 0 86 -23q39 -28 50 -76q11 23 23 73h22l-42 -190h-21q2 18 2 25q0 93 -24 127q-33 44 -87 44q-59 0 -110 -51q-58 -56 -95 -173q-9 -27 -12 -41h308z" />
    <glyph glyph-name="afii61289" unicode="&#x2113;" horiz-adv-x="359" 
d="M349 104q-43 -116 -131 -116q-48 0 -79 30q-36 35 -36 110v88q-6 -8 -16.5 -20t-23.5 -26t-17 -19l-21 26q63 69 78 90v243q0 88 32.5 145t87.5 57q43 0 63.5 -28t20.5 -72q0 -100 -72 -228q-34 -62 -54 -85v-174q0 -45 16 -69t39 -24q48 0 82 86zM273 611q0 66 -44 66
q-48 0 -48 -127v-190q1 2 13 23t19 35q60 106 60 193z" />
    <glyph glyph-name="trademark" unicode="&#x2122;" horiz-adv-x="979" 
d="M225 267v16q36 -1 46.5 12.5t10.5 66.5v276h-45q-37 0 -54.5 -12.5t-22.5 -55.5h-13v92h329v-92h-12q-5 40 -20 54t-57 14h-45v-276q0 -53 10.5 -66.5t46.5 -12.5v-16h-174zM511 662h116l144 -310l140 310h111v-16q-38 -2 -47 -12t-9 -51v-231q0 -44 9 -56t47 -13v-16
h-169v16q38 0 48 12t10 57v256l-152 -341h-8l-157 334v-252q0 -45 8 -55.5t49 -10.5v-16h-140v16q40 0 48 11.5t8 57.5v224q0 30 -2 41t-14 19t-40 10v16z" />
    <glyph glyph-name="Omega" unicode="&#x2126;" horiz-adv-x="656" 
d="M613 0h-227v118q66 35 99.5 113.5t33.5 162.5q0 129 -48.5 207t-141.5 78q-96 0 -145 -79t-49 -206q0 -91 37.5 -172.5t102.5 -107.5v-114h-232v136h23q0 -40 10 -58t48 -18h113v31q-78 32 -132 113t-54 187q0 149 77 235t201 86q125 0 201 -92t76 -220
q0 -58 -18.5 -116.5t-61.5 -111.5t-102 -78v-34h107q38 0 48 18t10 58h24v-136z" />
    <glyph glyph-name="estimated" unicode="&#x212e;" horiz-adv-x="619" 
d="M583 275h-425v-199q60 -62 151 -62q135 0 210 130l27 -16q-48 -70 -102.5 -105t-134.5 -35q-122 0 -195.5 82t-73.5 205q0 124 73 206t195 82q125 0 197.5 -81t77.5 -207zM460 302v171q-64 64 -152 64q-90 0 -150 -63v-172h302z" />
    <glyph glyph-name="onethird" unicode="&#x2153;" horiz-adv-x="875" 
d="M691 193v-2q68 -10 68 -70q0 -49 -46.5 -89t-110.5 -40q-33 0 -61.5 12t-28.5 30q0 21 24 21q8 0 15 -4t10 -7.5t3 -4.5q11 -17 19 -23t23 -6q47 0 74 45t27 80q0 15 -8 28t-26 13q-15 0 -35 -13q-19 -12 -26 -12q-14 0 -14 10q0 5 4.5 8t28.5 14q68 32 92.5 51.5
t24.5 50.5q0 38 -54 38q-28 0 -40.5 -13t-12.5 -29q0 -10 4 -18q4 -5 4 -7q0 -4 -11 -11.5t-18 -7.5q-10 0 -17 10.5t-7 24.5q0 30 30.5 49.5t78.5 19.5q45 0 70 -16t25 -40q0 -15 -7.5 -28t-25.5 -25t-32.5 -19t-43.5 -20zM180 0h-36l553 662h36zM308 657h26l-104 -296
q-6 -21 -6 -22q0 -5 23 -5h27l-6 -18h-155l6 18h21q24 0 27 3q3 2 13 29l73 208q7 19 7 26q0 12 -31 13l-23 1l5 17q72 0 97 26z" />
    <glyph glyph-name="twothirds" unicode="&#x2154;" horiz-adv-x="875" 
d="M701 193v-2q68 -10 68 -70q0 -49 -46.5 -89t-110.5 -40q-33 0 -61.5 12t-28.5 30q0 21 24 21q8 0 15 -4t10 -7.5t3 -4.5q11 -17 19 -23t23 -6q47 0 74 45t27 80q0 15 -8 28t-26 13q-15 0 -35 -13q-19 -12 -26 -12q-14 0 -14 10q0 5 4.5 8t28.5 14q68 32 92.5 51.5
t24.5 50.5q0 38 -54 38q-28 0 -40.5 -13t-12.5 -29q0 -10 4 -18q4 -5 4 -7q0 -4 -11 -11.5t-18 -7.5q-10 0 -17 10.5t-7 24.5q0 30 30.5 49.5t78.5 19.5q45 0 70 -16t25 -40q0 -15 -7.5 -28t-25.5 -25t-32.5 -19t-43.5 -20zM179 0h-36l553 662h36zM249 351l-18 -53h-20
q0 9 -2 14q-1 4 -28 4h-150q-1 16 3.5 22t24.5 22q115 89 156.5 137t41.5 90q0 20 -14.5 36t-42.5 16q-24 0 -41.5 -12.5t-17.5 -30.5q0 -12 5 -19.5t10 -11.5t5 -5q0 -6 -13.5 -15t-22.5 -9q-14 0 -21.5 14t-7.5 28q0 28 30.5 53.5t83.5 25.5q51 0 75 -21.5t24 -51.5
q0 -50 -62 -104q-12 -11 -76.5 -59.5t-71.5 -54.5l-19 -13v-2h169z" />
    <glyph glyph-name="oneeighth" unicode="&#x215b;" horiz-adv-x="875" 
d="M652 176l15 3q-42 24 -42 64q0 37 34.5 67.5t85.5 30.5q38 0 62 -21t24 -51q0 -15 -5 -30.5t-28 -36t-61 -29.5v-2q52 -23 52 -72q0 -41 -38 -74t-95 -33q-45 0 -74 24.5t-29 57.5q0 44 33 69.5t66 32.5zM675 221q0 -38 34 -38q23 0 40.5 23t24.5 46.5t7 37.5
q0 33 -36 33q-31 0 -50.5 -39t-19.5 -63zM603 54q0 -44 50 -44q41 0 63.5 37.5t22.5 80.5q0 8 -3 15t-14.5 14.5t-30.5 7.5q-38 0 -60 -31q-11 -16 -19.5 -41t-8.5 -39zM308 657h26l-104 -296q-6 -21 -6 -22q0 -5 23 -5h27l-6 -18h-155l6 18h21q24 0 27 3q3 2 13 29l73 208
q7 19 7 26q0 12 -31 13l-23 1l5 17q72 0 97 26zM192 0h-36l553 662h35z" />
    <glyph glyph-name="threeeighths" unicode="&#x215c;" horiz-adv-x="875" 
d="M651 176l15 3q-42 24 -42 64q0 37 34.5 67.5t85.5 30.5q38 0 62 -21t24 -51q0 -15 -5 -30.5t-28 -36t-61 -29.5v-2q52 -23 52 -72q0 -41 -38 -74t-95 -33q-45 0 -74 24.5t-29 57.5q0 44 33 69.5t66 32.5zM674 221q0 -38 34 -38q23 0 40.5 23t24.5 46.5t7 37.5
q0 33 -36 33q-31 0 -50.5 -39t-19.5 -63zM602 54q0 -44 50 -44q41 0 63.5 37.5t22.5 80.5q0 8 -3 15t-14.5 14.5t-30.5 7.5q-38 0 -60 -31q-11 -16 -19.5 -41t-8.5 -39zM226 509v-2q68 -10 68 -70q0 -49 -46.5 -89t-110.5 -40q-33 0 -61.5 12t-28.5 30q0 21 24 21q8 0 15 -4
t10 -7.5t3 -4.5q11 -17 19 -23t23 -6q47 0 74 45t27 80q0 15 -8 28t-26 13q-15 0 -35 -13q-19 -12 -26 -12q-14 0 -14 10q0 5 4.5 8t28.5 14q68 32 92.5 51.5t24.5 50.5q0 38 -54 38q-28 0 -40.5 -13t-12.5 -29q0 -10 4 -18q4 -5 4 -7q0 -4 -11 -11.5t-18 -7.5
q-10 0 -17 10.5t-7 24.5q0 30 30.5 49.5t78.5 19.5q45 0 70 -16t25 -40q0 -15 -7.5 -28t-25.5 -25t-32.5 -19t-43.5 -20zM179 0h-36l553 662h36z" />
    <glyph glyph-name="fiveeighths" unicode="&#x215d;" horiz-adv-x="875" 
d="M652 176l15 3q-42 24 -42 64q0 37 34.5 67.5t85.5 30.5q38 0 62 -21t24 -51q0 -15 -5 -30.5t-28 -36t-61 -29.5v-2q52 -23 52 -72q0 -41 -38 -74t-95 -33q-45 0 -74 24.5t-29 57.5q0 44 33 69.5t66 32.5zM675 221q0 -38 34 -38q23 0 40.5 23t24.5 46.5t7 37.5
q0 33 -36 33q-31 0 -50.5 -39t-19.5 -63zM603 54q0 -44 50 -44q41 0 63.5 37.5t22.5 80.5q0 8 -3 15t-14.5 14.5t-30.5 7.5q-38 0 -60 -31q-11 -16 -19.5 -41t-8.5 -39zM123 485h-24l68 165h164q-14 -28 -21 -33t-27 -5h-107l-32 -78l2 -2q22 13 49 13q36 0 62 -25t26 -63
q0 -59 -48.5 -104t-116.5 -45q-40 0 -62.5 16t-22.5 32q0 7 6.5 13t17.5 6q23 0 35 -29q9 -20 32 -20q40 0 74.5 50.5t34.5 98.5q0 52 -42 52q-37 0 -68 -42zM180 0h-36l553 662h35z" />
    <glyph glyph-name="seveneighths" unicode="&#x215e;" horiz-adv-x="875" 
d="M651 176l15 3q-42 24 -42 64q0 37 34.5 67.5t85.5 30.5q38 0 62 -21t24 -51q0 -15 -5 -30.5t-28 -36t-61 -29.5v-2q52 -23 52 -72q0 -41 -38 -74t-95 -33q-45 0 -74 24.5t-29 57.5q0 44 33 69.5t66 32.5zM674 221q0 -38 34 -38q23 0 40.5 23t24.5 46.5t7 37.5
q0 33 -36 33q-31 0 -50.5 -39t-19.5 -63zM602 54q0 -44 50 -44q41 0 63.5 37.5t22.5 80.5q0 8 -3 15t-14.5 14.5t-30.5 7.5q-38 0 -60 -31q-11 -16 -19.5 -41t-8.5 -39zM172 580h-25l35 85h24q-3 -7 -3 -9q0 -6 6 -6h170v-10l-173 -272q-26 -41 -35.5 -50.5t-23.5 -9.5
q-25 0 -25 17q0 6 24 38l188 249h-119q-21 0 -28 -6t-15 -26zM179 0h-36l553 662h36z" />
    <glyph glyph-name="partialdiff" unicode="&#x2202;" horiz-adv-x="460" 
d="M431 474q0 -60 -13.5 -137t-35.5 -136q-41 -104 -87 -159t-114 -55q-74 0 -113.5 57.5t-39.5 140.5q0 117 60 199t157 82q53 0 87.5 -28t46.5 -62h2q4 45 4 82q0 36 -6.5 70t-21 65t-41 49.5t-61.5 18.5q-81 0 -140 -76l-18 18q78 115 181 115q153 0 153 -244zM374 325
q-12 41 -40 72.5t-76 31.5q-63 0 -108 -74.5t-45 -184.5q0 -70 28 -108t71 -38q42 0 78.5 49t57.5 113.5t34 138.5z" />
    <glyph glyph-name="Delta" unicode="&#x2206;" horiz-adv-x="541" 
d="M523 0h-504l228 712h56zM432 40l-176 547l-184 -547h360z" />
    <glyph glyph-name="product" unicode="&#x220f;" horiz-adv-x="624" 
d="M589 -131h-208v24h17q30 0 39 19t9 56l1 695h-271v-695q0 -37 9 -56t39 -19h16v-24h-205v24h16q30 0 39 19t9 56v633q0 39 -8.5 57t-39.5 18h-16v24h554v-24h-15q-31 0 -40 -18t-9 -57v-633q0 -38 9 -56.5t39 -18.5h16v-24z" />
    <glyph glyph-name="summation" unicode="&#x2211;" horiz-adv-x="496" 
d="M479 15l-12 -146h-457l-1 27l234 386l-226 392v26h435l8 -130h-22q-4 54 -16.5 73t-53.5 19h-267l203 -342l-233 -384h308q43 0 57 16.5t21 66.5z" />
    <glyph glyph-name="minus" unicode="&#x2212;" horiz-adv-x="667" 
d="M116 346h528v-52h-528v52z" />
    <glyph glyph-name="uni2215" unicode="&#x2215;" horiz-adv-x="156" 
d="M-86 0h-35l552 662h36z" />
    <glyph glyph-name="uni2219" unicode="&#x2219;" horiz-adv-x="290" 
d="M154 331q0 21 15 36.5t37 15.5t37 -15t15 -37q0 -21 -15.5 -36t-36.5 -15t-36.5 15t-15.5 36z" />
    <glyph glyph-name="radical" unicode="&#x221a;" horiz-adv-x="383" 
d="M284 728l-75 -740h-47l-98 339l-46 -31l-18 28l98 65l86 -313h2l67 652h31z" />
    <glyph glyph-name="infinity" unicode="&#x221e;" horiz-adv-x="660" 
d="M478 141q-52 0 -84.5 26t-58.5 74h-2q-59 -100 -146 -100q-57 0 -94.5 39t-37.5 100q0 62 36 101.5t93 39.5q89 0 139 -97h2q29 46 63 71.5t86 25.5q55 0 92.5 -38.5t37.5 -99.5t-36.5 -101.5t-89.5 -40.5zM479 383q-11 0 -20.5 -1.5t-18 -6t-15 -7t-14.5 -11.5t-12 -12
t-12.5 -16t-10.5 -16.5t-12 -20t-12 -19.5q48 -94 125 -94q44 0 68.5 30.5t24.5 70.5q0 45 -23 74t-68 29zM186 383q-43 0 -70 -28t-27 -74t25 -74t69 -28q22 0 41.5 10.5t35.5 32t24.5 34.5t20.5 36q-17 38 -47 64.5t-72 26.5z" />
    <glyph glyph-name="integral" unicode="&#x222b;" horiz-adv-x="240" 
d="M226 701q0 -11 -5.5 -20.5t-16.5 -9.5t-25 12q-16 11 -26 11q-21 0 -22 -41q-1 -17 5 -66t8 -84q10 -116 10 -247q0 -149 -6 -225q-9 -131 -19 -168q-10 -36 -25 -55t-43 -19q-20 0 -36 12.5t-16 32.5q0 31 27 31q10 0 22 -13q8 -9 21 -9q22 0 23 70q1 12 -12 121
q-8 107 -8 220q0 85 5 207q4 155 14 211q16 76 67 76q25 0 41.5 -14t16.5 -33z" />
    <glyph glyph-name="approxequal" unicode="&#x2248;" horiz-adv-x="667" 
d="M617 442q-48 -114 -156 -114q-59 0 -150 39q-58 27 -107 27q-44 0 -70 -17.5t-48 -55.5l-35 17q43 114 158 114q54 0 139 -36q65 -30 119 -30q71 0 114 73zM617 242q-48 -113 -156 -113q-59 0 -150 39q-55 26 -107 26q-44 0 -70 -17t-48 -56l-35 18q43 114 158 114
q54 0 139 -36q65 -30 119 -30q71 0 114 73z" />
    <glyph glyph-name="notequal" unicode="&#x2260;" horiz-adv-x="666" 
d="M602 167h-317l-88 -148h-57l88 148h-162v52h194l84 142h-278v52h310l93 157h58l-94 -157h169v-52h-201l-84 -142h285v-52z" />
    <glyph glyph-name="lessequal" unicode="&#x2264;" horiz-adv-x="667" 
d="M602 0h-536v52h536v-52zM602 108l-536 219v47l536 219v-57l-460 -185l460 -185v-58z" />
    <glyph glyph-name="greaterequal" unicode="&#x2265;" horiz-adv-x="667" 
d="M602 0h-536v52h536v-52zM602 327l-536 -219v57l459 185l-459 185v57l536 -218v-47z" />
    <glyph glyph-name="lozenge" unicode="&#x25ca;" horiz-adv-x="361" 
d="M351 349l-152 -361h-41l-147 361l147 363h42zM308 349l-129 309l-125 -309l125 -308z" />
    <glyph glyph-name="uni2014.alt" unicode="&#xe000;" horiz-adv-x="750" 
d="M-5 273h760v-46h-760v46z" />
    <glyph glyph-name="one.fitted" unicode="&#xf6dc;" horiz-adv-x="448" 
d="M430 657h28l-174 -572q-11 -35 -11 -43q0 -14 11.5 -17t37.5 -3h33l-6 -22h-243l7 22h27q31 0 38.5 1t14.5 7q10 10 24 59l124 408q13 47 13 53q0 31 -62 34l-29 1l7 21q115 0 160 51z" />
    <glyph glyph-name="R_p" unicode="&#xf6dd;" horiz-adv-x="1021" 
d="M623 55l10 -23q-54 -41 -110 -41q-32 0 -55.5 12t-34.5 26.5t-17 38t-6.5 36t-0.5 31.5q0 42 -0.5 64t-4.5 46.5t-10.5 35.5t-19 21t-31 13t-45.5 3h-25l-59 -191q-14 -46 -14 -58q0 -15 8 -25.5t21 -14.5t22 -5.5t17 -1.5h13l-6 -22h-268l6 22q58 0 76.5 19.5t36.5 80.5
l128 421q15 49 15 62q0 35 -72 35l7 22h173q78 0 112.5 -4.5t69.5 -23.5q78 -43 78 -126q0 -17 -4 -34.5t-14 -39.5t-32 -42.5t-54 -34.5q-56 -26 -156 -29v-2q42 -15 69 -37t39 -49.5t15.5 -45t5.5 -42.5q6 -90 16 -107q11 -17 37 -17q25 0 64 27zM372 641l-92 -301
q14 -3 39.5 -0.5t55.5 5t60.5 15.5t56 31.5t41.5 52t16 77.5q0 129 -177 120zM658 201h-23l92 148q26 42 36 59t22.5 46t24.5 68l7 23h58l-33 -110l-41 -113l2 -2q64 94 124 94q36 0 61.5 -34t25.5 -84q0 -106 -70 -207.5t-156 -101.5q-55 0 -66 49h-2l-57 -189
q-11 -35 -11 -43q0 -14 11.5 -17t37.5 -3h22l-7 -21h-204l7 21q54 0 63 8q9 10 24 59l102 336q35 116 74 212l-2 2l-40 -69zM767 191l-19 -65q-13 -39 -13 -62q0 -22 12 -39.5t38 -17.5q40 0 74.5 42t54.5 99t31.5 106t11.5 72q0 63 -39 63q-36 0 -82 -51q-37 -44 -69 -147z
" />
    <glyph glyph-name="cent.inferior" unicode="&#xf6df;" horiz-adv-x="198" 
d="M140 216l36 102h24l-35 -99q16 -1 27 -10.5t11 -21.5q0 -21 -23 -21q-16 0 -21.5 15t-11.5 15q-31 0 -62 -78q-8 -20 -12.5 -38t-5 -32t3 -22.5t12.5 -8.5q42 0 71 62h23q-29 -75 -90 -84l-31 -88h-25l32 89q-43 11 -43 59q0 50 36 98t84 63z" />
    <glyph glyph-name="cent.superior" unicode="&#xf6e0;" horiz-adv-x="198" 
d="M227 531l36 102h24l-35 -99q16 -1 27 -10.5t11 -21.5q0 -21 -23 -21q-16 0 -21.5 15t-11.5 15q-31 0 -62 -78q-8 -20 -12.5 -38t-5 -32t3 -22.5t12.5 -8.5q42 0 71 62h23q-29 -75 -90 -84l-31 -88h-25l32 89q-43 11 -43 59q0 50 36 98t84 63z" />
    <glyph glyph-name="comma.inferior" unicode="&#xf6e1;" horiz-adv-x="156" 
d="M-15 -101v18q40 6 58 17q18 10 29.5 27t11.5 28q0 10 -10 10q-46 0 -46 31q0 18 12.5 26t27.5 8q22 0 35 -16t13 -40q0 -35 -31.5 -70t-99.5 -39z" />
    <glyph glyph-name="comma.superior" unicode="&#xf6e2;" horiz-adv-x="156" 
d="M44 213v18q40 6 58 17q18 10 29.5 27t11.5 28q0 10 -10 10q-46 0 -46 31q0 18 12.5 26t27.5 8q22 0 35 -16t13 -40q0 -35 -31.5 -70t-99.5 -39z" />
    <glyph glyph-name="dollar.inferior" unicode="&#xf6e3;" horiz-adv-x="271" 
d="M74 30l51 146q-41 32 -41 72q0 30 25 56.5t71 32.5l5 14h25l-4 -12q33 -5 36 -6l7 18h25l-9 -26q39 -20 39 -43q0 -15 -21 -15q-16 0 -31 20l-42 -122q46 -41 46 -79q0 -29 -24.5 -56t-80.5 -36l-16 -46h-25l15 44q-21 0 -38 3l-16 -47h-25l18 53q-52 21 -52 45
q0 17 21 17q9 0 16 -4.5t11.5 -9.5t13.5 -19zM141 224l33 96q-48 -15 -48 -59q0 -17 15 -37zM190 181l44 129q-16 13 -34 13l-40 -118zM131 8l43 128q2 5 -15 13q-8 6 -15 11l-50 -146q14 -7 37 -6zM194 117l-37 -105q57 15 57 59q0 18 -20 46z" />
    <glyph glyph-name="dollar.superior" unicode="&#xf6e4;" horiz-adv-x="271" 
d="M146 344l51 146q-41 32 -41 72q0 30 25 56.5t71 32.5l5 14h25l-4 -12q33 -5 36 -6l7 18h25l-9 -26q39 -20 39 -43q0 -15 -21 -15q-16 0 -31 20l-42 -122q46 -41 46 -79q0 -29 -24.5 -56t-80.5 -36l-16 -46h-25l15 44q-21 0 -38 3l-16 -47h-25l18 53q-52 21 -52 45
q0 17 21 17q9 0 16 -4.5t11.5 -9.5t13.5 -19zM213 538l33 96q-48 -15 -48 -59q0 -17 15 -37zM262 495l44 129q-16 13 -34 13l-40 -118zM203 322l43 128q2 5 -15 13q-8 6 -15 11l-50 -146q14 -7 37 -6zM266 431l-37 -105q57 15 57 59q0 18 -20 46z" />
    <glyph glyph-name="hyphen.inferior" unicode="&#xf6e5;" horiz-adv-x="208" 
d="M44 135h165l-18 -30h-165z" />
    <glyph glyph-name="hyphen.superior" unicode="&#xf6e6;" horiz-adv-x="208" 
d="M103 448h165l-18 -30h-165z" />
    <glyph glyph-name="period.inferior" unicode="&#xf6e7;" horiz-adv-x="156" 
d="M39 28q0 13 11.5 23t27.5 10t27.5 -9.5t11.5 -23.5t-11.5 -24t-27.5 -10t-27.5 9.5t-11.5 24.5z" />
    <glyph glyph-name="period.superior" unicode="&#xf6e8;" horiz-adv-x="156" 
d="M98 342q0 14 11.5 23.5t27.5 9.5t27.5 -9.5t11.5 -23.5q0 -15 -11.5 -24.5t-27.5 -9.5t-27.5 9.5t-11.5 24.5z" />
    <glyph glyph-name="a.superior" unicode="&#xf6e9;" horiz-adv-x="271" 
d="M288 563h38l-57 -171q-11 -37 -11 -45q0 -12 11 -12q19 0 50 46h13q-14 -29 -36.5 -49.5t-41.5 -20.5q-30 0 -30 36q0 12 6 29l-2 2q-12 -21 -38.5 -44t-52.5 -23q-21 0 -37.5 17t-16.5 48q0 67 55.5 129.5t102.5 62.5q33 0 38 -30h2zM122 366q0 -39 25 -39q16 0 41 20
t46 62q14 28 25 63.5t11 49.5q0 30 -26 30q-39 0 -80.5 -71t-41.5 -115z" />
    <glyph glyph-name="b.superior" unicode="&#xf6ea;" horiz-adv-x="271" 
d="M134 422l78 236q9 27 9 31q0 7 -4.5 8t-31.5 1l4 13q57 4 75 10h8l-67 -201l2 -2q28 30 41.5 40t33.5 10q29 0 43 -22.5t14 -49.5q0 -68 -51.5 -126.5t-108.5 -58.5q-24 0 -41 13.5t-17 41.5q0 17 13 56zM155 355q0 -24 25 -24q34 0 64 38.5t44 79.5t14 63q0 14 -7 25
t-18 11q-47 0 -88 -89q-34 -74 -34 -104z" />
    <glyph glyph-name="d.superior" unicode="&#xf6eb;" horiz-adv-x="271" 
d="M320 378h18q-39 -67 -78 -67q-15 0 -23 8.5t-9 16t-2 23.5q-33 -29 -43 -36q-18 -12 -37 -12q-28 0 -40 21t-12 44q0 67 51 129.5t101 62.5q11 0 18 -3.5t23 -17.5l41 125q3 10 4 15.5t-2 8t-5.5 3t-12 0t-15.5 -0.5l4 13q47 0 72 11h10l-101 -307q-19 -57 -19 -68
q0 -10 6 -10q25 0 51 41zM131 363q0 -30 23 -30q50 0 90 93q9 21 17 44.5t11.5 37t3.5 15.5q0 25 -27 25q-28 0 -56.5 -37t-45 -80t-16.5 -68z" />
    <glyph glyph-name="e.superior" unicode="&#xf6ec;" horiz-adv-x="198" 
d="M228 394h15q-17 -34 -44 -58.5t-59 -24.5q-26 0 -42.5 16.5t-16.5 45.5q0 68 51.5 131.5t96.5 63.5q21 0 29 -12t8 -25q0 -58 -137 -117q-9 -22 -9 -48q0 -37 31 -37q43 0 77 65zM133 430q39 16 73 45.5t34 55.5q0 21 -20 21q-18 0 -43.5 -31.5t-43.5 -90.5z" />
    <glyph glyph-name="i.superior" unicode="&#xf6ed;" horiz-adv-x="156" 
d="M179 697q0 10 8.5 18t19.5 8q12 0 19.5 -7.5t7.5 -18.5t-8 -18.5t-19 -7.5t-19.5 7.5t-8.5 18.5zM203 384h15q-17 -31 -40.5 -52t-44.5 -21q-14 0 -26 9t-12 30q0 13 18 59l30 75q18 46 18 52q0 12 -11 12t-27.5 -16t-25.5 -33h-15q38 69 81 69q16 0 25.5 -10t9.5 -24
q0 -12 -18 -57l-30 -76q-18 -42 -18 -52q0 -9 5 -13.5t10 -4.5q23 0 56 53z" />
    <glyph glyph-name="l.superior" unicode="&#xf6ee;" horiz-adv-x="156" 
d="M193 390h14q-12 -29 -33 -54t-50 -25q-18 0 -28.5 11.5t-10.5 26.5t21 78l75 225q9 26 9 34q0 9 -6 11t-32 2l4 13q50 0 77 11h8l-102 -311q-16 -48 -16 -54q-1 -3 -1 -11q0 -18 13 -18q12 0 28 15t30 46z" />
    <glyph glyph-name="m.superior" unicode="&#xf6ef;" horiz-adv-x="417" 
d="M468 375h14q-13 -27 -34.5 -45.5t-43.5 -18.5q-13 0 -23.5 9t-10.5 26q0 16 15 57l29 80q14 31 14 44q0 19 -17 19q-35 0 -73 -53t-69 -152l-8 -26h-38l52 158q13 38 13 55q0 18 -15 18q-6 0 -12.5 -2.5t-13.5 -8t-12.5 -10.5t-11.5 -12t-10 -11.5t-9 -10.5l-4 -6
q-26 -37 -62 -141l-10 -29h-38l58 176q12 37 12 43q0 10 -7 10q-20 0 -50 -48h-14q17 32 39 50t38 18q10 0 18 -7t8 -22q0 -21 -19 -70l2 -2q19 40 50.5 70.5t58.5 30.5q16 0 26 -10t10 -29q0 -26 -13 -56l2 -2q51 97 110 97q18 0 30.5 -11t12.5 -31q0 -18 -17 -64l-25 -66
q-16 -40 -16 -50q0 -13 12 -13q22 0 52 46z" />
    <glyph glyph-name="o.superior" unicode="&#xf6f0;" horiz-adv-x="240" 
d="M103 397q0 62 41.5 116.5t91.5 54.5q26 0 45.5 -21t19.5 -63q0 -68 -40.5 -120.5t-91.5 -52.5q-23 0 -38 11t-20 28.5t-6.5 27t-1.5 19.5zM137 363q0 -14 8.5 -26.5t25.5 -12.5q25 0 45 27t30 63t15.5 63t5.5 36q0 42 -33 42q-29 0 -52.5 -39t-34 -82t-10.5 -71z" />
    <glyph glyph-name="r.superior" unicode="&#xf6f1;" horiz-adv-x="188" 
d="M119 489h-13q11 29 31 54t42 25q27 0 27 -41q0 -24 -14 -71l2 -2q9 30 29 62q30 52 56 52q11 0 17.5 -6.5t6.5 -15.5q0 -20 -19 -20q-9 0 -17 10q-6 3 -7 3q-17 0 -51 -75.5t-51 -127.5l-7 -21h-38l50 155q15 45 15 60q0 18 -10 18t-25.5 -19.5t-23.5 -39.5z" />
    <glyph glyph-name="s.superior" unicode="&#xf6f2;" horiz-adv-x="198" 
d="M247 384q0 -29 -23.5 -51t-65.5 -22q-34 0 -50 14t-16 28q0 7 4.5 13.5t13.5 6.5q17 0 17 -17q0 -1 -1.5 -7.5t-1.5 -8.5q0 -7 10 -11.5t23 -4.5q19 0 37.5 11t18.5 36q0 17 -35 78q-18 33 -18 51q0 29 24.5 48t55.5 19q23 0 38.5 -11t15.5 -22q0 -16 -14 -16
q-11 0 -14 12q-3 9 -4.5 13t-8 7.5t-16.5 3.5q-18 0 -31.5 -9t-13.5 -23q0 -18 31 -70q24 -40 24 -68z" />
    <glyph glyph-name="t.superior" unicode="&#xf6f3;" horiz-adv-x="156" 
d="M249 560v-13h-52l-42 -128q-22 -64 -22 -73q0 -15 14 -15q12 0 30 19.5t33 50.5h14q-14 -32 -38 -61t-52 -29q-15 0 -25 10t-10 28q0 16 19 73l41 125h-43l4 13h44l29 88h38l-30 -88h48z" />
    <glyph glyph-name="dollar.oldstyle" unicode="&#xf724;" horiz-adv-x="333" 
d="M88 38l57 192q-46 42 -46 96q0 42 29.5 76.5t80.5 43.5l6 18h27l-5 -17q23 0 43 -7l8 24h27l-10 -35q44 -26 44 -57q0 -10 -6.5 -16.5t-16.5 -6.5q-16 0 -36 30l-48 -162q52 -52 52 -105q0 -41 -30 -76.5t-90 -45.5l-18 -62h-28l18 59q-25 0 -44 4l-19 -63h-28l22 72
q-23 9 -41 26t-18 34q0 9 6 16.5t16 7.5q14 0 22 -8.5t26 -37.5zM164 294l37 125q-28 -8 -41.5 -31t-13.5 -44q0 -24 18 -50zM220 239l51 168q-17 16 -41 16l-45 -152q3 -2 18 -15.5t17 -16.5zM153 12l49 165q-11 12 -35 33l-57 -191q16 -8 43 -7zM223 154l-41 -137
q38 10 52 33t14 43q0 25 -25 61z" />
    <glyph glyph-name="zero.oldstyle" unicode="&#xf730;" horiz-adv-x="458" 
d="M439 200q-7 -29 -26.5 -64t-49.5 -70t-74.5 -58t-92.5 -23q-70 0 -109 48t-39 116q0 104 77 195t176 91q56 0 101.5 -42t45.5 -117q0 -39 -9 -76zM374 252q10 50 10 73q0 36 -20.5 63t-61.5 27q-48 0 -87 -40t-60 -95.5t-32 -104t-11 -77.5q0 -42 24.5 -67.5t59.5 -25.5
q40 0 73.5 29t54.5 74.5t32 78.5t18 65z" />
    <glyph glyph-name="one.oldstyle" unicode="&#xf731;" horiz-adv-x="375" 
d="M161 418h206l-6 -20h-16q-35 0 -44.5 -8t-19.5 -42l-84 -278q-6 -18 -6 -26q0 -28 64 -24l-6 -20h-210l6 20h19q31 0 42.5 8t22.5 44l83 276q6 19 6 26q0 16 -12 20.5t-52 3.5z" />
    <glyph glyph-name="two.oldstyle" unicode="&#xf732;" horiz-adv-x="448" 
d="M89 57h253l-28 -88h-21q4 22 -3 26.5t-33 4.5h-237v39q208 122 263 167q74 62 74 128q0 29 -21.5 53.5t-65.5 24.5q-38 0 -70.5 -19.5t-32.5 -54.5t41 -63q-29 -27 -46 -27q-13 0 -26.5 20.5t-13.5 45.5q0 48 46 84.5t113 36.5q63 0 105 -33.5t42 -79.5q0 -28 -16.5 -54
t-29.5 -37t-35 -26q-54 -38 -258 -146v-2z" />
    <glyph glyph-name="three.oldstyle" unicode="&#xf733;" horiz-adv-x="438" 
d="M166 271l-41 -28q-18 4 -25 24.5t-7 35.5q0 59 52 95.5t124 36.5q68 0 110 -30.5t42 -79.5q0 -55 -60 -100q-24 -18 -133 -81v-2q65 -3 92 -30q37 -37 37 -92q0 -38 -16.5 -80.5t-48.5 -82t-86.5 -65t-121.5 -25.5q-64 0 -112.5 22t-48.5 55q0 6 2 13t8.5 13.5t16.5 6.5
q11 0 18.5 -7t25.5 -34q34 -49 92 -49q43 0 78.5 19.5t57.5 48.5t37 65.5t21 68.5t6 58q0 31 -16 53t-43 22q-37 0 -75 -34q-16 -15 -25 -15q-13 0 -13 15q0 12 19 22q49 29 70.5 41.5t56.5 37.5t50 43.5t27.5 45t12.5 54.5q0 33 -24 57.5t-67 24.5q-45 0 -79.5 -28
t-34.5 -68q0 -24 21 -47z" />
    <glyph glyph-name="four.oldstyle" unicode="&#xf734;" horiz-adv-x="448" 
d="M409 435l-124 -404h40q37 0 45 8q7 9 19 28h20l-20 -67h-113l-29 -95q-23 -77 -23 -89q0 -16 13.5 -19.5t50.5 -2.5l-6 -20h-208l6 20q46 0 59 8.5t26 51.5l44 146h-209v31l377 404h32zM31 31h188l91 300l-2 2z" />
    <glyph glyph-name="five.oldstyle" unicode="&#xf735;" horiz-adv-x="417" 
d="M180 418h256q-20 -46 -28 -52q-9 -8 -52 -8h-174l-64 -180l2 -2q53 41 102 41q59 0 99.5 -45.5t40.5 -123.5q0 -118 -84.5 -199.5t-194.5 -81.5q-58 0 -102.5 25.5t-44.5 57.5q0 16 9.5 25.5t23.5 9.5q17 0 26 -11t30 -49q9 -18 29.5 -28t39.5 -10q57 0 105.5 54
t72.5 123t24 128q0 49 -22.5 77t-54.5 28q-72 0 -123 -82h-22z" />
    <glyph glyph-name="six.oldstyle" unicode="&#xf736;" horiz-adv-x="469" 
d="M174 357l2 -2q54 56 116 56q58 0 104.5 -47.5t46.5 -135.5q0 -109 -69 -176t-149 -67q-42 0 -74.5 18.5t-51 49t-27.5 64t-9 68.5q0 109 53.5 222.5t137.5 186.5t166 73q44 0 85 -22.5t41 -53.5q0 -13 -7.5 -22t-21.5 -9q-25 0 -46 43q-6 12 -11 19t-19 14.5t-33 7.5
q-24 0 -48 -12.5t-43 -30t-39.5 -47.5t-33.5 -51.5t-30 -56t-23 -48.5t-17 -41zM117 127q0 -55 28 -88.5t73 -33.5q40 0 65.5 24t46.5 66t37 97.5t16 96.5q0 53 -30 77.5t-64 24.5q-81 0 -132 -102q-40 -83 -40 -162z" />
    <glyph glyph-name="seven.oldstyle" unicode="&#xf737;" horiz-adv-x="406" 
d="M379 356h-188q-59 0 -73.5 -9t-32.5 -54h-20l58 171h21q-7 -21 -7 -28q0 -12 11 -15t40 -3h246l-290 -541q-40 -77 -65 -99q-11 -11 -31 -11q-15 0 -21.5 8t-6.5 16q0 14 26 56z" />
    <glyph glyph-name="eight.oldstyle" unicode="&#xf738;" horiz-adv-x="479" 
d="M338 334v-2q97 -44 97 -143q0 -84 -65 -144t-148 -60q-75 0 -120.5 48t-45.5 110q0 6 0.5 13t4.5 24.5t11 33.5t22 37t36 37t54.5 31t75.5 23q-16 11 -25 18t-23.5 23t-21.5 37.5t-7 48.5q0 75 57.5 130.5t134.5 55.5q56 0 95 -37.5t39 -98.5q0 -79 -63 -137
q-42 -40 -108 -48zM243 425q0 -42 20.5 -61t46.5 -19q62 0 102 80q33 63 33 133q0 34 -20.5 55.5t-51.5 21.5q-33 0 -59.5 -28.5t-41 -66.5t-22 -69.5t-7.5 -45.5zM120 96q0 -42 30.5 -66.5t66.5 -24.5q51 0 80 33q26 29 50 85.5t24 118.5q0 42 -26.5 62.5t-62.5 20.5
q-84 0 -130 -99q-32 -69 -32 -130z" />
    <glyph glyph-name="nine.oldstyle" unicode="&#xf739;" horiz-adv-x="469" 
d="M330 60l-2 2q-49 -53 -116 -53q-57 0 -104.5 50t-47.5 133q0 103 68 173t150 70q65 0 114 -50.5t49 -154.5q0 -84 -35.5 -177.5t-110.5 -174.5q-102 -111 -209 -111q-58 0 -91 28.5t-33 56.5q0 13 9.5 20.5t20.5 7.5q12 0 21.5 -8.5t14.5 -18.5t14 -34q5 -12 19.5 -22
t32.5 -10q121 0 236 273zM389 294q0 13 -3.5 30t-13 39t-30.5 37t-51 15q-46 0 -82 -37t-54 -89t-26.5 -94.5t-8.5 -66.5q0 -43 27 -71t67 -28q88 0 140 121q17 41 26 83.5t9 60.5z" />
    <glyph glyph-name="cent.oldstyle" unicode="&#xf7a2;" 
d="M203 286l40 134h27l-40 -130q16 -2 29 -14t13 -30q0 -14 -8 -21.5t-17 -7.5q-18 0 -24 18q-1 1 -2 10.5t-1 11.5l-71 -234q41 11 69 82h25q-34 -102 -104 -113l-35 -117h-27l36 118q-48 14 -48 80q0 71 46.5 136.5t91.5 76.5zM125 31l67 220q-28 -25 -51.5 -90.5
t-23.5 -102.5q0 -17 8 -27z" />
    </font>
</defs>
</svg>
