<?xml version="1.0" standalone="no"?>
<!DOCTYPE svg PUBLIC "-//W3C//DTD SVG 1.1//EN" "http://www.w3.org/Graphics/SVG/1.1/DTD/svg11.dtd" >
<svg xmlns="http://www.w3.org/2000/svg" xmlns:xlink="http://www.w3.org/1999/xlink" version="1.1">
<metadata>
Created by FontForge 20170731 at Thu Feb 10 18:09:19 2005
 By Aleksey,,,
Font software Copyright 1994 Adobe Systems Incorporated. Typeface designs Copyright 1994 The Monotype Corporation. All rights reserved.
</metadata>
<defs>
<font id="BaskervilleMTStd-Regular" horiz-adv-x="333" >
  <font-face 
    font-family="Baskerville MT Std"
    font-weight="400"
    font-stretch="normal"
    units-per-em="1000"
    panose-1="2 2 6 3 5 4 5 2 3 4"
    ascent="682"
    descent="-318"
    x-height="400"
    cap-height="662"
    bbox="-160 -255 1169 902"
    underline-thickness="50"
    underline-position="-200"
    unicode-range="U+0020-FB04"
  />
<missing-glyph horiz-adv-x="500" 
d="M12 0v665h475v-665h-475zM88 618l162 -243l161 243h-323zM60 575v-484l40 61l80 120l41 61zM440 575l-162 -242l162 -243v485zM411 48l-161 242l-162 -242h323z" />
    <glyph glyph-name="f_f" unicode="ff" horiz-adv-x="542" 
d="M450 430v-30h89v-23h-89v-239q0 -81 8 -98t51 -17h16v-23h-215v23q52 0 61 15.5t9 99.5v239h-222v-239q0 -82 8.5 -98.5t53.5 -16.5v-23h-212v23h20q44 0 52 17t8 98v239h-87v23h87v47q0 17 0.5 28t2.5 33t7.5 37.5t14 36.5t23.5 35.5t34.5 28t48.5 20t65 6.5
q56 0 90 -18.5t46 -44.5q49 63 132 63q60 0 93 -24.5t33 -48.5q0 -14 -9.5 -23.5t-22.5 -9.5q-12 0 -22.5 8.5t-14 13.5t-11.5 18q-23 43 -62 43q-46 0 -68 -40q-13 -23 -15.5 -52.5t-2.5 -126.5zM380 400v36q0 96 18 136q-30 -6 -49 22q-11 20 -18 30t-22.5 17.5t-37.5 7.5
q-117 0 -114 -159l1 -90h222z" />
    <glyph glyph-name="fi" unicode="fi" horiz-adv-x="510" 
d="M5 378v22h78v38q0 128 61 182q59 52 146 52q68 0 103 -23t35 -47q0 -13 -8.5 -22.5t-21.5 -9.5q-25 0 -48 38q-7 12 -13.5 19.5t-23 15t-39.5 7.5q-31 0 -55.5 -14.5t-33 -26t-13.5 -21.5q-19 -41 -19 -125v-63h144q64 0 130 16h7v-279q0 -83 8.5 -99t57.5 -16v-22h-205
v22q51 0 60 15.5t9 99.5v146q0 65 -10.5 80t-63.5 15h-137v-241q0 -83 9 -99t58 -16v-22h-203v22q49 0 57.5 16t8.5 99v241h-78z" />
    <glyph glyph-name="fl" unicode="fl" horiz-adv-x="510" 
d="M434 672v-535q0 -83 8.5 -99t56.5 -16v-22h-204v22q51 0 60 15.5t9 99.5v241h-211v-241q0 -83 9 -99t58 -16v-22h-203v22q49 0 57.5 16t8.5 99v241h-78v22h78v60q0 108 60 160t145 52q49 0 85 -14q18 4 41 11q8 3 20 3zM364 400v187q-6 6 -15 21q-27 42 -75 42
q-28 0 -49.5 -9t-34.5 -26t-21 -34.5t-11 -42t-4 -40.5t-1 -38v-60h211z" />
    <glyph glyph-name="f_f_i" unicode="ffi" horiz-adv-x="792" 
d="M438 429v-29h127q95 0 140 23h13v-285q0 -83 8.5 -99t57.5 -16v-23h-201v23q47 0 56 16.5t9 98.5v160q0 55 -10.5 67t-59.5 12h-140v-239q0 -82 8.5 -98.5t54.5 -16.5v-23h-201v23q50 0 59 16t9 99v239h-208v-239q0 -81 8 -98t51 -17v-23h-195v23q49 0 57.5 16t8.5 99
v239h-76v23h76v33q0 119 51 177q55 62 140 62q55 0 93 -24t42 -48q56 72 154 72q52 0 99.5 -24t47.5 -56q0 -14 -9 -22t-22 -8q-18 0 -30 12.5t-26 38.5q-21 36 -68 36q-39 0 -66 -20t-39 -45q-10 -19 -14 -43t-4.5 -42t-0.5 -70zM368 400v32q0 84 27 136q-6 -2 -12 -2
q-25 0 -50 37q-11 17 -15 22t-18.5 14.5t-31.5 9.5q-72 0 -95 -68q-13 -41 -13 -151v-30h208z" />
    <glyph glyph-name="f_f_l" unicode="ffl" horiz-adv-x="792" 
d="M707 672h12v-534q0 -83 8.5 -99t57.5 -16v-23h-200v23q47 0 55.5 16.5t8.5 98.5v239h-209v-239q0 -82 8.5 -98.5t54.5 -16.5v-23h-201v23q50 0 59 16t9 99v239h-207v-239q0 -81 8 -98t50 -17v-23h-195v23q49 0 58 16t9 99v239h-77v23h77v33q0 119 51 177q54 62 140 62
q54 0 92 -24t42 -48q61 72 155 72q43 0 87 -18q22 4 47 18zM370 400v32q0 88 27 136q-6 -2 -12 -2q-28 0 -49 37q-9 15 -15 22t-20 15.5t-31 8.5q-72 0 -94 -68q-13 -41 -13 -151v-30h207zM649 400v185q-3 3 -13.5 20.5t-12.5 20.5q-18 23 -59 23q-56 0 -90 -43
q-23 -28 -28.5 -64t-5.5 -113v-29h209z" />
    <glyph glyph-name=".notdef" horiz-adv-x="500" 
d="M12 0v665h475v-665h-475zM88 618l162 -243l161 243h-323zM60 575v-484l40 61l80 120l41 61zM440 575l-162 -242l162 -243v485zM411 48l-161 242l-162 -242h323z" />
    <glyph glyph-name=".null" horiz-adv-x="0" 
 />
    <glyph glyph-name="nonmarkingreturn" 
 />
    <glyph glyph-name="space" unicode=" " horiz-adv-x="250" 
 />
    <glyph glyph-name="exclam" unicode="!" horiz-adv-x="250" 
d="M136 189h-21l-27 337q-5 53 -5 69q0 31 13.5 46t29.5 15t29.5 -15.5t13.5 -46.5q0 -10 -5 -70zM73 37q0 21 15 36.5t37 15.5t37.5 -15t15.5 -37t-15.5 -37.5t-37.5 -15.5q-21 0 -36.5 15.5t-15.5 37.5z" />
    <glyph glyph-name="quotedbl" unicode="&#x22;" horiz-adv-x="408" 
d="M304 388h-22l-33 184q-4 23 -4 42q0 61 48 61t48 -61q0 -19 -4 -42zM126 388h-22l-33 184q-4 23 -4 42q0 61 48 61t48 -61q0 -19 -4 -42z" />
    <glyph glyph-name="numbersign" unicode="#" horiz-adv-x="668" 
d="M45 468h160l44 201h50l-44 -201h216l43 201h50l-43 -201h101v-50h-110l-40 -190h150v-50h-160l-42 -201h-50l42 201h-216l-41 -201h-50l41 201h-101v50h111l40 190h-151v50zM462 418h-216l-40 -190h216z" />
    <glyph glyph-name="dollar" unicode="$" horiz-adv-x="490" 
d="M170 16v315q-20 10 -33 18t-36 27.5t-35.5 49t-12.5 66.5q0 56 32.5 95t84.5 56v33h25v-25q3 1 9 1.5t9 0.5q8 1 26 1q20 0 45 -5v27h25v-33q52 -16 86.5 -51t34.5 -68q0 -17 -9.5 -25.5t-18.5 -8.5q-12 0 -20 9t-11 18.5t-6 27.5q-9 52 -56 73v-270q135 -59 135 -175
q0 -62 -35.5 -110t-99.5 -67v-98h-25v92q-1 0 -8 -1.5t-12 -2.5q-16 -2 -22 -2q-39 0 -47 1v-87h-25v93q-54 13 -89 46.5t-35 59.5q0 17 9 25.5t20 8.5q24 0 34 -43q3 -14 7 -23.5t18 -24t36 -24.5zM170 407v215q-27 -12 -50 -41.5t-23 -70.5q0 -64 73 -103zM284 358v269
q-18 5 -50 5q-19 0 -39 -5v-232q44 -19 89 -37zM284 12v269q-4 4 -9 4q-7 3 -34.5 14.5t-45.5 19.5v-310q13 -3 39 -3q32 0 50 6zM309 270v-248q86 37 86 128q0 47 -22.5 74t-63.5 46z" />
    <glyph glyph-name="percent" unicode="%" horiz-adv-x="875" 
d="M361 483q0 -74 -37 -124t-96 -50q-60 0 -96.5 51t-36.5 123t36.5 122.5t96.5 50.5q59 0 96 -50t37 -123zM297 483q0 155 -69 155t-69 -155q0 -156 69 -156t69 156zM779 158q0 -74 -37 -124t-96 -50q-60 0 -96 51t-36 123t36 123t96 51q59 0 96 -50t37 -124zM715 158
q0 156 -69 156t-69 -156t69 -156t69 156zM283 0h-30l339 640h30z" />
    <glyph glyph-name="ampersand" unicode="&#x26;" horiz-adv-x="698" 
d="M426 400h209v-22q-32 -7 -62.5 -34t-48.5 -70q-37 -89 -66 -130q44 -62 74 -88t71 -26q46 0 71 43h22q-12 -42 -45.5 -65.5t-75.5 -23.5q-93 0 -168 95q-1 -1 -11 -11.5t-16.5 -16.5t-20 -17.5t-26.5 -19t-30 -15t-36.5 -11.5t-40.5 -4q-72 0 -129 50t-57 131
q0 64 36 106.5t125 101.5q-57 80 -57 143q0 52 39 92t99 40q54 0 95.5 -30.5t41.5 -76.5q0 -13 -3.5 -25t-10.5 -23.5t-14.5 -21t-19.5 -19t-20.5 -16t-21.5 -14t-19.5 -11.5t-18 -10t-13.5 -7q55 -73 166 -229q20 25 39 69.5t19 78.5q0 20 -8.5 33.5t-22.5 20t-24.5 8.5
t-20.5 3v22zM393 99q-83 129 -177 254q-36 -21 -71 -61.5t-35 -91.5q0 -61 48 -114t109 -53q71 0 126 66zM265 413q98 57 98 123q0 39 -21.5 64t-57.5 25q-38 0 -58 -24.5t-20 -57.5q0 -53 59 -130z" />
    <glyph glyph-name="quotesingle" unicode="'" horiz-adv-x="180" 
d="M100 388h-22l-33 184q-4 23 -4 42q0 61 48 61t48 -61q0 -19 -4 -42z" />
    <glyph glyph-name="parenleft" unicode="(" horiz-adv-x="240" 
d="M245 -239h-34q-163 198 -163 462q0 253 158 446h34q-71 -85 -113.5 -199.5t-42.5 -247.5q0 -84 17 -162.5t44.5 -136.5t51 -95.5t48.5 -66.5z" />
    <glyph glyph-name="parenright" unicode=")" horiz-adv-x="240" 
d="M-5 669h34q163 -198 163 -462q0 -253 -158 -446h-34q71 85 113.5 199.5t42.5 247.5q0 84 -17 162.5t-44.5 136.5t-51 95.5t-48.5 66.5z" />
    <glyph glyph-name="asterisk" unicode="*" horiz-adv-x="417" 
d="M137 533q10 -12 63 -62q-7 43 -22 91q-13 39 -13 54q0 26 13 38t26 12q14 0 28.5 -12t14.5 -38q0 -11 -16 -59q-14 -42 -17 -86q30 20 65 61q45 51 74 51q16 0 27 -10t11 -27q0 -45 -76 -57q-43 -7 -93 -30q28 -12 88 -25q81 -19 81 -62q0 -14 -10.5 -24t-26.5 -10
q-30 0 -75 47q-42 46 -65 61q5 -48 15 -78q3 -8 8.5 -23t8 -23.5t2.5 -16.5q0 -23 -12.5 -37t-28.5 -14q-15 0 -27.5 13.5t-12.5 36.5q0 6 5 24t11 38t7 23q8 34 10 57q-34 -22 -74 -71q-25 -30 -41 -35q-8 -3 -18 -3q-19 0 -30 10.5t-11 26.5q0 7 2 13.5t6 11.5t7.5 9
t10 7.5t11 5.5t12.5 4t11 3t11 2.5t9 1.5q74 16 88 27q-49 22 -90 30q-77 15 -77 56q0 15 12 26t27 11q32 0 71 -49z" />
    <glyph glyph-name="plus" unicode="+" horiz-adv-x="667" 
d="M69 346h238v238h52v-238h238v-52h-238v-238h-52v238h-238v52z" />
    <glyph glyph-name="comma" unicode="," horiz-adv-x="250" 
d="M54 -191v25q58 18 84 57t26 72q0 32 -21 32q-4 0 -12 -2q-6 -3 -14 -3q-19 0 -35 11.5t-16 35.5t14.5 38t35.5 14q36 0 57 -33t21 -75q0 -51 -33.5 -101.5t-106.5 -70.5z" />
    <glyph glyph-name="hyphen" unicode="-" horiz-adv-x="313" 
d="M37 262h239v-66h-239v66z" />
    <glyph glyph-name="period" unicode="." horiz-adv-x="250" 
d="M72 37q0 21 15 36.5t37 15.5t37.5 -15t15.5 -37t-15.5 -37.5t-37.5 -15.5q-21 0 -36.5 15.5t-15.5 37.5z" />
    <glyph glyph-name="slash" unicode="/" horiz-adv-x="520" 
d="M401 674h59l-341 -690h-59z" />
    <glyph glyph-name="zero" unicode="0" horiz-adv-x="500" 
d="M41 320q0 155 58.5 245.5t151.5 90.5t151 -91t58 -245q0 -155 -58 -245.5t-151 -90.5t-151.5 90.5t-58.5 245.5zM122 320q0 -61 2 -102t9.5 -84t21.5 -68.5t38 -41.5t58 -16q42 0 68.5 22t39 68.5t16.5 95.5t4 126q0 50 -1.5 85.5t-5.5 74t-13 64t-23 47t-35 31.5t-50 10
q-42 0 -69 -22t-39.5 -68.5t-16.5 -95.5t-4 -126z" />
    <glyph glyph-name="one" unicode="1" horiz-adv-x="500" 
d="M268 656h21v-565q0 -37 9.5 -53t39.5 -16h30v-22h-220v22h30q29 0 37 15.5t8 53.5v394q0 81 -8 98t-51 17h-21v22q83 0 125 34z" />
    <glyph glyph-name="two" unicode="2" horiz-adv-x="500" 
d="M57 0v30q78 63 190 195q111 131 111 243q0 78 -36.5 120t-96.5 42q-57 0 -86.5 -36t-29.5 -77q0 -46 39 -74q15 -10 15 -16q0 -9 -16.5 -24t-27.5 -15q-17 0 -36.5 32t-19.5 74q0 19 8.5 43t27 52.5t57.5 47.5t92 19q92 0 141.5 -49t49.5 -133q0 -61 -30.5 -113
t-122.5 -145q-95 -98 -165 -157h310l-27 -110h-24q5 22 5 32q0 13 -8 16t-27 3h-6h-287z" />
    <glyph glyph-name="three" unicode="3" horiz-adv-x="500" 
d="M257 355q24 6 31 6q77 0 115.5 -52.5t38.5 -120.5q0 -92 -62 -148t-155 -56q-67 0 -113 30t-46 62q0 14 9 24t23 10q17 0 24 -10t14 -31q19 -63 87 -63q39 0 67 17.5t41.5 38.5t20.5 52t8 45.5t1 30.5q0 82 -30.5 115.5t-65.5 33.5q-29 0 -55 -22q-2 -2 -9.5 -10
t-13.5 -12t-11 -4q-14 0 -14 15q0 4 2.5 8.5t5.5 7.5t9 7.5t9.5 7.5t12 8t11.5 7q66 43 96.5 79.5t30.5 95.5q0 53 -27.5 79t-67.5 26q-42 0 -76.5 -27t-34.5 -72q0 -35 17 -52q16 -16 16 -19q0 -7 -16 -14t-24 -7q-15 0 -28.5 23t-13.5 50q0 49 44 95.5t131 46.5
q72 0 116.5 -34.5t44.5 -85.5q0 -43 -32 -79.5t-80 -67.5t-51 -34z" />
    <glyph glyph-name="four" unicode="4" horiz-adv-x="500" 
d="M273 220h-240v30l279 406h31v-406h70q10 0 16 1t10.5 6t6 7t6 14.5t6.5 17.5h22l-11 -76h-126v-124q0 -48 11 -61t43 -13h13v-22h-213v22h30q30 0 38 17t8 55v126zM60 250h213v313z" />
    <glyph glyph-name="five" unicode="5" horiz-adv-x="500" 
d="M132 336h-26l15 304h253q-19 -47 -28.5 -56t-34.5 -9h-170l-10 -206q15 19 25 29.5t37 23.5t60 13q74 0 129 -59.5t55 -154.5q0 -31 -6.5 -62t-23.5 -63.5t-42.5 -56.5t-66.5 -39.5t-92 -15.5q-77 0 -119 35t-42 65q0 13 8.5 22t22.5 9q18 0 26 -11t18 -38
q6 -16 11.5 -26t26 -22t50.5 -12q13 0 25.5 1.5t36.5 13.5t41.5 32t31 62.5t13.5 100.5q0 62 -13.5 103.5t-35 58.5t-37.5 22.5t-32 5.5q-69 0 -106 -70z" />
    <glyph glyph-name="six" unicode="6" horiz-adv-x="500" 
d="M127 331q60 73 136 73q79 0 136 -60.5t57 -149.5q0 -81 -54 -145.5t-145 -64.5q-99 0 -156.5 84t-57.5 223q0 89 25 169.5t84 138t142 57.5q53 0 94.5 -23t41.5 -53q0 -14 -8.5 -20.5t-19.5 -6.5q-8 0 -14.5 2t-11.5 7.5t-7.5 9.5t-7.5 12.5t-6 10.5q-22 35 -76 35
q-53 0 -85 -32t-44 -70q-28 -90 -23 -197zM125 201q0 -83 33.5 -139t93.5 -56q123 0 123 201q0 89 -34 129q-36 42 -90 42q-51 0 -86 -37q-40 -43 -40 -140z" />
    <glyph glyph-name="seven" unicode="7" horiz-adv-x="500" 
d="M75 521l41 135h17q2 -9 5 -12q8 -4 23 -4h272l-188 -572q-9 -27 -14.5 -41t-18.5 -28.5t-29 -14.5q-13 0 -21 8.5t-8 21.5q0 15 26 74l210 487h-227q-28 0 -39 -6.5t-21 -32.5l-6 -15h-22z" />
    <glyph glyph-name="eight" unicode="8" horiz-adv-x="500" 
d="M290 333q65 -6 115 -51t50 -119q0 -89 -63 -134t-145 -45q-85 0 -144 50t-59 127q0 64 42 111t118 61q-60 15 -99.5 58t-39.5 103q0 73 53.5 117.5t129.5 44.5q71 0 129 -43t58 -119q0 -64 -39 -104.5t-106 -56.5zM143 503q0 -159 102 -159q112 0 112 147q0 143 -109 143
q-41 0 -73 -29t-32 -102zM125 167q0 -21 1 -35.5t7 -41t18 -42.5t36.5 -29t58.5 -13q36 0 61.5 12t38 27.5t19.5 40t8 39.5t1 36q0 161 -129 161q-120 0 -120 -155z" />
    <glyph glyph-name="nine" unicode="9" horiz-adv-x="500" 
d="M373 309q-60 -73 -136 -73q-79 0 -136 60.5t-57 149.5q0 81 54 145.5t145 64.5q99 0 156.5 -84t57.5 -223q0 -89 -25 -169.5t-84 -138t-142 -57.5q-53 0 -94.5 23t-41.5 53q0 14 8.5 20.5t19.5 6.5q8 0 14.5 -2t11.5 -7.5t7.5 -9.5t7.5 -12.5t6 -10.5q22 -35 76 -35
q53 0 85 32t44 70q28 90 23 197zM375 439q0 83 -33.5 139t-93.5 56q-123 0 -123 -201q0 -89 34 -129q36 -42 90 -42q51 0 86 37q40 43 40 140z" />
    <glyph glyph-name="colon" unicode=":" horiz-adv-x="250" 
d="M72 37q0 21 15 36.5t37 15.5t37.5 -15t15.5 -37t-15.5 -37.5t-37.5 -15.5q-21 0 -36.5 15.5t-15.5 37.5zM72 375q0 22 15 37.5t37 15.5t37.5 -15.5t15.5 -37.5t-15.5 -37t-37.5 -15q-21 0 -36.5 15t-15.5 37z" />
    <glyph glyph-name="semicolon" unicode=";" horiz-adv-x="250" 
d="M54 -191v25q58 18 84 57t26 72q0 32 -21 32q-4 0 -12 -2q-6 -3 -14 -3q-19 0 -35 11.5t-16 35.5t14.5 38t35.5 14q36 0 57 -33t21 -75q0 -51 -33.5 -101.5t-106.5 -70.5zM72 375q0 22 15 37.5t37 15.5t37.5 -15.5t15.5 -37.5t-15.5 -37t-37.5 -15q-21 0 -36.5 15
t-15.5 37z" />
    <glyph glyph-name="less" unicode="&#x3c;" horiz-adv-x="667" 
d="M597 76l-527 223v47l527 222v-57l-457 -189l457 -189v-57z" />
    <glyph glyph-name="equal" unicode="=" horiz-adv-x="667" 
d="M69 460h528v-52h-528v52zM69 232h528v-52h-528v52z" />
    <glyph glyph-name="greater" unicode="&#x3e;" horiz-adv-x="667" 
d="M70 568l527 -223v-47l-527 -222v57l456 188l-456 189v58z" />
    <glyph glyph-name="question" unicode="?" horiz-adv-x="396" 
d="M142 185h-22v206h22q23 -37 53 -37q76 0 76 147q0 54 -23.5 94t-76.5 40q-22 0 -37 -8.5t-20.5 -16.5t-12.5 -23q-11 -25 -31 -25q-23 0 -23 25q0 28 39 48.5t90 20.5q48 0 84 -20t53.5 -50t25 -58t7.5 -52q0 -64 -38.5 -107.5t-93.5 -43.5q-45 0 -72 27v-167zM187 37
q0 -22 -15 -37t-37 -15t-37.5 15t-15.5 37t15.5 37t37.5 15q21 0 36.5 -15t15.5 -37z" />
    <glyph glyph-name="at" unicode="@" horiz-adv-x="921" 
d="M688 447l-88 -305q-14 -52 -15 -75q0 -12 8.5 -25t28.5 -13q72 0 139.5 95t67.5 223q0 130 -88 215.5t-229 85.5q-94 0 -174 -40.5t-132.5 -106.5t-82 -149t-29.5 -169q0 -174 107.5 -282t274.5 -108q76 0 145 23.5t137.5 86.5t109.5 160h28q-31 -97 -99.5 -166.5
t-151.5 -101.5t-172 -32q-182 0 -304 122t-122 311q0 204 136 341t326 137q86 0 154 -28.5t110 -76t63.5 -106.5t21.5 -124q0 -79 -29.5 -156t-93 -133t-146.5 -56q-75 0 -75 68q0 18 4.5 43t4.5 29q-113 -140 -192 -140q-43 0 -66 36t-23 78q0 73 43.5 154.5t107 134.5
t118.5 53q68 0 84 -71l16 57zM516 427q-44 0 -91.5 -59t-76.5 -130.5t-29 -114.5q0 -28 16 -49t41 -21q68 0 148 121q21 32 37 89t16 92q0 31 -16.5 51.5t-44.5 20.5z" />
    <glyph glyph-name="A" unicode="A" horiz-adv-x="677" 
d="M429 244h-252l-39 -97q-16 -43 -16 -63q0 -26 18.5 -44t53.5 -18v-22h-197v22q62 2 95 79l238 571h19l243 -575q9 -22 18 -36t27.5 -26.5t43.5 -12.5v-22h-261v22q24 0 33.5 0.5t24 3.5t19.5 11t5 21q0 11 -13 41zM187 266h233l-117 282z" />
    <glyph glyph-name="B" unicode="B" horiz-adv-x="615" 
d="M327 0h-303v22h25q60 0 72 24t12 126v323v61.5t-5 40t-8.5 26t-18.5 11.5t-27.5 6h-42.5v22q166 7 233 7q271 0 271 -158q0 -129 -191 -155q96 -5 161.5 -46.5t65.5 -127.5q0 -52 -21 -89.5t-58 -56.5t-77.5 -27.5t-87.5 -8.5zM229 342v-148q0 -119 11 -145t69 -26
q155 0 155 160q0 87 -50.5 126.5t-184.5 32.5zM229 644v-278q52 -1 86 3.5t62.5 19t41.5 43.5t13 74q0 87 -49.5 117t-153.5 21z" />
    <glyph glyph-name="C" unicode="C" horiz-adv-x="719" 
d="M626 248h20v-231h-20q-10 41 -32 70q-85 -99 -223 -99q-143 0 -234.5 90.5t-91.5 240.5q0 66 19.5 127.5t57 113t102 83t145.5 31.5t139.5 -32t85.5 -66q21 43 25 86h22l5 -251h-20q-10 70 -37 119.5t-63 74t-70.5 35t-70.5 10.5q-62 0 -108.5 -28.5t-71.5 -77.5
t-36.5 -104t-11.5 -117q0 -154 68 -230.5t165 -76.5q58 0 103 22t71.5 58t41.5 74t20 78z" />
    <glyph glyph-name="D" unicode="D" horiz-adv-x="760" 
d="M23 657q182 12 292 12q189 0 286 -83q108 -91 108 -261q0 -166 -102 -252q-31 -26 -66 -42t-79 -22.5t-70.5 -7.5t-77.5 -1h-294v22h27q61 0 73 24t12 126v320q0 39 -0.5 57.5t-4 38.5t-7.5 26t-16 12.5t-24.5 7t-37.5 0.5h-19v23zM228 643v-442q0 -122 9 -146
q9 -27 47 -30q14 -2 48 -2q117 0 175 45q95 74 95 250q0 142 -62 230q-24 34 -55.5 56t-68.5 29.5t-57 9.5t-50 2q-37 0 -81 -2z" />
    <glyph glyph-name="E" unicode="E" horiz-adv-x="625" 
d="M571 206h23l-14 -206h-548v22h13q62 0 74 24t12 126v325q0 101 -12 122t-74 21v22h474l15 -165h-23q-12 52 -26.5 81.5t-41 43t-50 16t-74.5 2.5h-92v-279h71q66 0 82.5 19t16.5 81h23v-227h-23q0 30 -3.5 49t-9 31t-19 17t-27 6.5t-39.5 1.5h-72v-157q0 -42 0.5 -65
t4.5 -43.5t9 -28.5t18 -14.5t26 -7.5t39 -1h49q24 0 38.5 1t42 11t46 27.5t38.5 54.5t33 90z" />
    <glyph glyph-name="F" unicode="F" horiz-adv-x="552" 
d="M542 662l6 -165h-23q-6 41 -18.5 68.5t-26.5 42t-37.5 22t-40 9t-45.5 1.5h-129v-281h62q57 0 78.5 18t21.5 83h24v-233h-24q0 32 -5.5 53.5t-12 32.5t-22 16.5t-26.5 6.5t-34 1h-62v-165q0 -102 12 -126t73 -24h22v-22h-307v22h20q60 0 72 24.5t12 125.5v362
q0 41 -2.5 60.5t-15 31t-28.5 13t-54 1.5v22h510z" />
    <glyph glyph-name="G" unicode="G" horiz-adv-x="771" 
d="M462 283h286v-24h-24q-43 0 -55.5 -24t-12.5 -85v-110q-12 2 -21 2q-35 0 -109 -27t-143 -27q-143 0 -237 93t-94 237q0 151 92 253.5t242 102.5q133 0 220 -97q17 35 20 74h24v-222h-24q-15 108 -79.5 164.5t-149.5 56.5q-109 0 -171 -75.5t-62 -239.5q0 -169 64 -246
t169 -77q74 0 118.5 37.5t44.5 94.5v36q0 46 -15 62.5t-49 16.5h-34v24z" />
    <glyph glyph-name="H" unicode="H" horiz-adv-x="802" 
d="M574 332h-345v-160q0 -102 12 -126t72 -24h17v-22h-298v22h17q60 0 72 24t12 126v325v47.5t-2 34.5t-3.5 26.5t-8.5 16.5t-11.5 11t-18.5 4.5t-24 2.5h-33v22h298v-22h-42t-27 -6t-18.5 -11.5t-8.5 -25.5t-5 -39.5v-60.5v-131h345v131v57.5t-3.5 38.5t-7.5 26.5
t-15.5 12.5t-24.5 7.5t-37 0.5h-18v22h301v-22h-41.5t-26.5 -6t-18 -12t-8.5 -26t-4.5 -39v-60v-325q0 -102 12 -126t72 -24h15v-22h-301v22h23q60 0 71.5 24t11.5 126v160z" />
    <glyph glyph-name="I" unicode="I" horiz-adv-x="354" 
d="M26 640v22h302v-22h-14q-24 0 -37 -0.5t-24.5 -7t-16 -12.5t-7.5 -26.5t-3.5 -38.5t-0.5 -58v-325q0 -102 12 -126t72 -24h19v-22h-302v22h19q60 0 72 24t12 126v325q0 39 -0.5 57.5t-3.5 38.5t-7.5 26.5t-16 13t-24.5 7t-37 0.5h-14z" />
    <glyph glyph-name="J" unicode="J" horiz-adv-x="354" 
d="M35 662h308v-22h-16q-24 0 -37 -0.5t-25 -7t-16 -13t-7.5 -26t-4 -38.5t-0.5 -58v-432q0 -58 -1.5 -86t-11 -63t-28.5 -63q-62 -89 -200 -89q-81 0 -118.5 29.5t-37.5 64.5q0 23 14 38t35 15q22 0 36.5 -14t14.5 -34q0 -13 -6 -25t-6 -18q0 -32 65 -32q96 0 132 93
q11 27 13.5 64.5t2.5 118.5v433q0 39 -0.5 57.5t-3.5 38.5t-7.5 26.5t-16.5 13t-25 7t-37 0.5h-16v22z" />
    <glyph glyph-name="K" unicode="K" horiz-adv-x="781" 
d="M228 325l207 186q66 59 66 86q0 40 -70 43v22h249v-22q-17 -1 -24.5 -2t-29.5 -7.5t-48.5 -25.5t-59.5 -49l-174 -160l296 -299q27 -27 42 -39.5t41.5 -24t57.5 -11.5v-22h-344v22q25 0 37.5 0.5t29 3.5t23 10t6.5 19q0 21 -68 89l-189 191l-48 -42v-121q0 -42 0.5 -59
t3.5 -39.5t8 -28.5t17.5 -13.5t27.5 -8.5t41 -1v-22h-298v22h21q60 0 71.5 24t11.5 126v325v59.5t-4 38.5t-8 26t-17.5 12t-26 6.5t-39.5 0.5v22h293v-22h-42.5t-27.5 -6t-18.5 -11.5t-8.5 -25.5t-5 -39.5v-60.5v-172z" />
    <glyph glyph-name="L" unicode="L" horiz-adv-x="604" 
d="M595 195l-4 -195h-563v22h20q60 0 72 24t12 126v325q0 39 -0.5 57.5t-3.5 38.5t-7.5 26.5t-16 13t-24.5 7t-37 0.5h-15v22h318v-22h-29q-24 0 -37 -0.5t-24.5 -7t-16 -12.5t-7.5 -26.5t-3.5 -38.5t-0.5 -58v-346q0 -36 0.5 -50.5t3.5 -33.5t8 -24.5t17.5 -12t28 -7.5
t41.5 -1h50q88 0 125 31t71 142h22z" />
    <glyph glyph-name="M" unicode="M" horiz-adv-x="927" 
d="M463 114l241 548h204v-22h-25q-24 0 -37 -0.5t-24.5 -7t-16 -12.5t-7.5 -26.5t-3.5 -38.5t-0.5 -58v-325q0 -102 12 -126t72 -24h30v-22h-317v22h23q60 0 72 24t12 126v426l-262 -598h-23l-264 598v-445q0 -67 24.5 -96.5t81.5 -34.5v-22h-236v22q53 5 79.5 32.5
t26.5 104.5v338v57.5t-3.5 38.5t-7.5 26.5t-15.5 12.5t-24.5 7.5t-37 0.5h-18v22h201z" />
    <glyph glyph-name="N" unicode="N" horiz-adv-x="750" 
d="M613 -15l-468 623v-474q0 -58 22.5 -84t93.5 -28v-22h-247v22q39 3 62 11t32 24.5t11 29t2 38.5v9v363q0 37 -0.5 57.5t-5 39t-9.5 26t-17.5 13t-26.5 6.5t-39 1v22h195l392 -521v399q0 25 -3 40t-13.5 30t-34.5 22.5t-62 7.5v22h240v-22q-67 -6 -85 -29.5t-18 -77.5
v-548h-21z" />
    <glyph glyph-name="O" unicode="O" horiz-adv-x="823" 
d="M51 336q0 108 52.5 186.5t132 115t172.5 36.5q70 0 133.5 -20.5t116 -61t83.5 -107.5t31 -153q0 -153 -98.5 -248.5t-262.5 -95.5q-156 0 -258 93.5t-102 254.5zM163 332q0 -320 252 -320q62 0 108.5 23t72 56.5t40.5 79.5t19.5 83t4.5 77q0 37 -3.5 71t-18.5 82t-40 82
t-73.5 59t-113.5 25q-59 0 -104.5 -20t-72 -51.5t-43 -75t-22.5 -84.5t-6 -87z" />
    <glyph glyph-name="P" unicode="P" horiz-adv-x="563" 
d="M230 643v-307h47q24 0 39.5 1t44 9t46 22.5t31.5 44.5t14 73q0 45 -13.5 77t-30.5 47.5t-45.5 24t-45 9.5t-42.5 1q-23 0 -45 -2zM266 669q28 0 47.5 -0.5t52.5 -4t55.5 -10t50 -20t44 -32t28 -47.5t11.5 -65q0 -47 -20 -85.5t-48 -56.5q-55 -36 -185 -36h-72v-140
q0 -102 12 -126t72 -24h22v-22h-303v22h17q60 0 72 24t12 126v325v60.5t-5 39.5t-8.5 25.5t-18.5 11.5t-27 6h-42v22q115 7 233 7z" />
    <glyph glyph-name="Q" unicode="Q" horiz-adv-x="823" 
d="M540 7l-147 -80q9 1 28 1q111 0 221 -39l57 -20q84 -28 143 -28q88 0 105 67h20q-10 -74 -59 -112.5t-120 -38.5q-53 0 -94.5 17t-102.5 56q-119 75 -194 75q-32 0 -51.5 -9.5t-40.5 -27.5q-29 -25 -41 -25q-17 0 -17 16q0 9 4.5 13.5t19.5 12.5q5 3 7 4l191 103
q-5 -1 -22 -3q-5 0 -16.5 -0.5t-18.5 -0.5q-160 0 -260.5 95t-100.5 251q0 109 52.5 188t131.5 115.5t172 36.5q70 0 133.5 -20.5t116 -61t84 -108t31.5 -152.5q0 -30 -4.5 -61t-19.5 -72t-39 -75.5t-68 -66.5t-101 -50zM163 332q0 -320 251 -320q62 0 109 23t72 56.5
t40.5 79.5t20 83t4.5 77q0 29 -3 57.5t-11 67.5t-25.5 71t-43.5 61t-69 45.5t-98 16.5q-59 0 -104.5 -20t-72 -51.5t-43 -75t-22 -84.5t-5.5 -87z" />
    <glyph glyph-name="R" unicode="R" horiz-adv-x="729" 
d="M227 645v-302h55q90 0 131.5 36.5t41.5 113.5q0 88 -46 121t-141 33q-15 0 -41 -2zM275 671h30t45 -3t57 -9t55 -18.5t51.5 -30t34 -46t14.5 -64.5q0 -70 -53.5 -114.5t-144.5 -52.5q20 -1 51 -32.5t52 -59.5l84 -110q83 -109 176 -109v-22h-178q-43 33 -88 95l-104 143
q-28 39 -49 57t-32.5 21t-34.5 3h-14v-147q0 -102 11.5 -126t71.5 -24h32v-22h-317v22h21q61 0 73 24t12 126v325v48t-3 35.5t-3.5 26t-9 16.5t-11.5 10.5t-19 4.5t-23.5 2h-31.5v22q128 9 245 9z" />
    <glyph glyph-name="S" unicode="S" horiz-adv-x="542" 
d="M58 7v213h24q41 -208 197 -208q65 0 106 38t41 91q0 14 -3 26.5t-7 23t-13.5 21t-15.5 17.5t-19 15.5t-19.5 13t-22.5 12t-21 10t-22 10t-20 8.5q-33 15 -51 23.5t-45.5 24t-42.5 30t-31 34.5t-23 45t-7 55q0 68 48 116t127 48q40 0 73.5 -13.5t48 -25.5t31.5 -31
q21 25 26 58h21v-173h-21q-21 83 -70 122t-106 39q-53 0 -83.5 -29.5t-30.5 -71.5q0 -28 12.5 -51t39.5 -41.5t48.5 -29.5t58.5 -27q46 -20 72 -32.5t56.5 -32.5t45.5 -40.5t25.5 -49.5t10.5 -66q0 -80 -52.5 -135.5t-155.5 -55.5q-110 0 -182 83q-16 -24 -24 -64h-24z" />
    <glyph glyph-name="T" unicode="T" horiz-adv-x="698" 
d="M47 503h-22l3 159h642l4 -159h-21q-6 34 -13 58t-18.5 38.5t-21 23t-28.5 12.5t-31 4.5t-38 0.5h-106v-468q0 -102 12 -126t72 -24h33v-22h-331v22h34q61 0 72.5 24t11.5 126v468h-138q-57 0 -77 -28.5t-39 -108.5z" />
    <glyph glyph-name="U" unicode="U" horiz-adv-x="771" 
d="M528 662h222v-22q-28 -2 -47 -10t-29 -17.5t-15 -30.5t-5.5 -35.5t-0.5 -46.5v-220q0 -76 -4 -110.5t-22 -67.5q-28 -51 -90 -82.5t-152 -31.5q-91 0 -146.5 29.5t-81.5 67.5q-23 34 -28 72.5t-5 134.5v203q0 103 -12 124t-77 21h-15v22h302v-22h-42.5t-27.5 -6
t-18.5 -11.5t-8.5 -25.5t-5 -39.5v-60.5v-208q0 -59 1 -85t6.5 -55.5t17.5 -49.5q19 -33 61 -55.5t102 -22.5q56 0 109.5 22t83.5 68q13 21 19.5 48t7.5 50t1 75v225q0 31 -1 44.5t-5.5 33t-15 28t-30 16t-49.5 9.5v22z" />
    <glyph glyph-name="V" unicode="V" horiz-adv-x="729" 
d="M390 -16h-31l-251 581q-12 27 -21 40.5t-30 24t-54 10.5v22h285v-22q-47 0 -68.5 -6.5t-21.5 -31.5q0 -12 23 -66l190 -440l153 366q39 93 39 119q0 59 -80 59v22h202v-22q-34 0 -57.5 -25.5t-42.5 -70.5z" />
    <glyph glyph-name="W" unicode="W" horiz-adv-x="948" 
d="M691 -16h-22l-199 545l-178 -545h-24l-174 562q-18 59 -37.5 76.5t-55.5 17.5v22h248v-22q-39 0 -54.5 -13t-15.5 -28t13 -56l126 -415l171 534h29l195 -534l106 372q21 85 7.5 112.5t-61.5 27.5v22h181v-22q-64 -5 -100 -127z" />
    <glyph glyph-name="X" unicode="X" horiz-adv-x="771" 
d="M415 367l171 -208q35 -43 61 -70t40.5 -41t32 -19.5t22.5 -6t26 -0.5v-22h-329v22q21 0 29.5 0.5t26.5 3.5t25.5 12t7.5 23q0 15 -10.5 31.5t-44.5 57.5l-119 145l-118 -144q-45 -55 -45 -78q0 -48 76 -51v-22h-256v22q63 5 101.5 35t115.5 123l111 133l-198 238
q-45 54 -68.5 71.5t-61.5 17.5v22h283v-22q-29 0 -44.5 -5.5t-18 -10.5t-2.5 -14q0 -19 47 -76l122 -149l129 162l8 11q8 10 11.5 15t8 14t4.5 16q0 37 -86 37v22h248v-22q-52 0 -94 -28t-108 -113z" />
    <glyph glyph-name="Y" unicode="Y" horiz-adv-x="677" 
d="M377 290l141 238q21 33 21 57q0 55 -78 55v22h216v-22q-25 -4 -44 -13t-37 -29t-29 -37t-32 -52l-148 -249v-88v-4q0 -102 12.5 -124t79.5 -22v-22h-282v22h25.5t20.5 3t16 3.5t12 7.5t9 10t5.5 15.5t3.5 18t1.5 25t0.5 30v37.5v82l-174 285q-41 67 -59 84t-58 17v22h268
v-22q-75 0 -75 -34q0 -14 25 -55z" />
    <glyph glyph-name="Z" unicode="Z" horiz-adv-x="635" 
d="M30 0v17l428 623h-206h-12q-37 0 -53 -2t-38 -14t-38 -39t-34 -75h-20l21 152h492v-22l-422 -618h201q45 0 68.5 2t48 9.5t39.5 24t30 43t31 70.5h22l-22 -171h-536z" />
    <glyph glyph-name="bracketleft" unicode="[" horiz-adv-x="344" 
d="M363 -233h-232v895h232v-22h-113q-36 0 -46.5 -12.5t-10.5 -52.5v-721q0 -42 11.5 -53.5t45.5 -11.5h113v-22z" />
    <glyph glyph-name="backslash" unicode="\" horiz-adv-x="520" 
d="M119 674l341 -690h-59l-341 690h59z" />
    <glyph glyph-name="bracketright" unicode="]" horiz-adv-x="344" 
d="M-19 -233v22h113q34 0 45.5 11.5t11.5 53.5v721q0 40 -10.5 52.5t-46.5 12.5h-113v22h232v-895h-232z" />
    <glyph glyph-name="asciicircum" unicode="^" horiz-adv-x="469" 
d="M244 662l209 -350h-56l-163 273l-162 -273h-56l209 350h19z" />
    <glyph glyph-name="underscore" unicode="_" horiz-adv-x="500" 
d="M506 -125h-513v50h513v-50z" />
    <glyph glyph-name="grave" unicode="`" 
d="M222 474l-96 79q-34 29 -34 46q0 12 9.5 20.5t21.5 8.5q17 0 29.5 -12.5t32.5 -45.5l56 -96h-19z" />
    <glyph glyph-name="a" unicode="a" horiz-adv-x="469" 
d="M441 73h18q-2 -36 -22.5 -59.5t-59.5 -23.5q-23 0 -38.5 6.5t-23.5 20t-10.5 21.5t-5.5 22q-98 -70 -161 -70q-38 0 -68.5 22.5t-30.5 62.5q0 44 42 82t142 79l76 31v20q0 53 -17.5 80t-73.5 27q-73 0 -82 -43q-2 -13 -3.5 -18.5t-6 -16t-12.5 -15.5t-20 -5t-21 7.5
t-9 20.5q0 29 41 60.5t122 31.5q43 0 74 -10.5t45.5 -24t22.5 -36t9 -35.5t1 -34v-162q0 -27 0.5 -39t3.5 -26t9.5 -18.5t17.5 -4.5q33 0 41 47zM299 86v158l-53 -22q-126 -51 -126 -128q0 -28 15 -48.5t43 -20.5q47 0 121 61z" />
    <glyph glyph-name="b" unicode="b" horiz-adv-x="521" 
d="M96 -16h-19v535q0 73 -9 91.5t-55 18.5v22q47 0 127 21h7v-317q69 61 141 61q77 0 137 -55t60 -158q0 -92 -55.5 -155.5t-148.5 -63.5q-88 0 -134 74q-30 -30 -51 -74zM147 326v-188q0 -45 33.5 -87.5t83.5 -42.5q70 0 105 53.5t35 146.5q0 86 -33 134.5t-95 48.5
q-64 0 -129 -65z" />
    <glyph glyph-name="c" unicode="c" horiz-adv-x="427" 
d="M382 98h22q-34 -114 -166 -114q-87 0 -145 59.5t-58 152.5q0 94 61 157t151 63q61 0 100 -23t39 -55q0 -15 -8.5 -24.5t-22.5 -9.5q-18 0 -26.5 10.5t-13.5 32.5q-6 24 -20 34.5t-47 10.5q-132 0 -132 -179q0 -35 5.5 -65.5t19 -64t44 -53.5t74.5 -20q97 0 123 88z" />
    <glyph glyph-name="d" unicode="d" horiz-adv-x="521" 
d="M376 357v157q0 84 -9 99.5t-61 15.5v22q54 0 133 21h7v-538q0 -83 8.5 -99t57.5 -16v-22q-79 -3 -126 -13q-6 24 -6 72q-75 -72 -154 -72q-74 0 -132 59.5t-58 154.5q0 97 57 157.5t138 60.5q80 0 145 -59zM376 83v246q-70 57 -131 57q-36 0 -62 -17t-38 -38.5t-19 -52
t-8 -45.5t-1 -31q0 -56 13.5 -96t35 -58.5t41.5 -26.5t41 -8q74 0 128 70z" />
    <glyph glyph-name="e" unicode="e" horiz-adv-x="438" 
d="M399 264h-279q-2 -28 -2 -47q0 -207 131 -207q89 0 127 80h23q-2 -8 -10.5 -23t-26 -35t-51 -34t-75.5 -14q-75 0 -137 56t-62 157q0 94 55.5 156.5t139.5 62.5q74 0 119.5 -45.5t47.5 -106.5zM122 284h191q2 12 2 20q0 46 -26 68t-61 22q-89 0 -106 -110z" />
    <glyph glyph-name="f" unicode="f" horiz-adv-x="271" 
d="M242 400v-22h-83v-284q0 -46 11 -59t48 -13h21v-22h-216v22q45 0 55.5 13t10.5 63v280h-74v22h74v75q0 82 42.5 139.5t129.5 57.5q60 0 93.5 -24.5t33.5 -48.5q0 -14 -10 -23.5t-23 -9.5q-26 0 -47 40q-25 44 -62 44q-87 0 -87 -137v-113h83z" />
    <glyph glyph-name="g" unicode="g" horiz-adv-x="469" 
d="M343 365q42 47 84 47q24 0 36.5 -13t12.5 -28q0 -13 -8 -22.5t-21 -9.5q-17 0 -28 20q-12 19 -22 19q-18 0 -42 -26q26 -40 26 -85q0 -61 -45 -106q-42 -42 -139 -46q-103 -4 -103 -42q0 -21 27.5 -27.5t108.5 -10.5q26 -1 41 -2.5t43 -6.5t45.5 -14t36 -23.5t28 -38
t9.5 -53.5q0 -61 -50.5 -102t-152.5 -41q-94 0 -148 35t-54 90q0 25 14.5 46t45.5 21q8 0 15 -3q-31 -34 -31 -70q0 -51 48 -75t113 -24q75 0 113 29.5t38 72.5q0 24 -10.5 41.5t-24 26.5t-39.5 14.5t-42.5 7t-46.5 2.5q-36 1 -60.5 4t-51.5 11t-41 24t-14 41q0 65 89 80
q-93 54 -93 142q0 61 47.5 103.5t115.5 42.5q81 0 130 -51zM123 259q0 -20 3.5 -38.5t12 -39t28 -32.5t47.5 -12q22 0 39.5 8t26.5 23.5t15 28t7.5 32t2 24t0.5 14.5q0 125 -92 125q-90 0 -90 -133z" />
    <glyph glyph-name="h" unicode="h" horiz-adv-x="531" 
d="M442 278v-141q0 -84 9 -99.5t59 -15.5v-22h-207v22q51 0 60 15.5t9 99.5v129q0 68 -20.5 94t-66.5 26q-53 0 -122 -88v-161q0 -82 8.5 -98.5t54.5 -16.5v-22h-203v22q52 0 61 15.5t9 99.5v399q0 26 -0.5 37t-3.5 25t-10 19t-19.5 8.5t-32.5 3.5v22q73 0 129 21h7v-339
q78 83 145 83q134 0 134 -138z" />
    <glyph glyph-name="i" unicode="i" horiz-adv-x="250" 
d="M173 416v-279q0 -77 4 -90q10 -25 51 -25h15v-22h-216v22h17q36 0 47.5 13t11.5 63v160q0 45 -1 64.5t-11.5 31.5t-21.5 13t-42 1v22q51 2 136 26h10zM77 620q0 21 15 36.5t36 15.5t35.5 -15.5t14.5 -36.5t-14.5 -36.5t-35.5 -15.5t-36 15.5t-15 36.5z" />
    <glyph glyph-name="j" unicode="j" horiz-adv-x="250" 
d="M173 416v-430q0 -46 -2 -71.5t-14 -61t-37 -58.5q-44 -41 -119 -41q-42 0 -73.5 16t-31.5 45q0 15 9 23.5t21 8.5q11 0 19 -6.5t11 -12.5t9 -19q15 -33 50 -33q19 0 42.5 11.5t34.5 40.5q11 28 11 122v309q0 44 -1 63.5t-11 31.5t-21 13t-41 1v22q63 3 134 26h10zM77 620
q0 21 15 36.5t36 15.5t35.5 -15.5t14.5 -36.5t-14.5 -36.5t-35.5 -15.5t-36 15.5t-15 36.5z" />
    <glyph glyph-name="k" unicode="k" horiz-adv-x="458" 
d="M264 400h161v-22q-16 0 -35.5 -9t-31 -17.5t-31 -24.5t-22.5 -18l-73 -58l145 -170q29 -34 46 -46t40 -13v-22h-199v22q17 -1 33.5 4t16.5 18q0 9 -33 47l-103 119l-21 -15v-58q0 -81 8 -98t51 -17v-22h-203v22h15q43 0 51 18t8 97v401q0 57 -10 74t-54 17v22
q69 0 127 21h7v-451l43 30q102 70 102 104q0 10 -7 15.5t-12.5 6t-18.5 1.5v22z" />
    <glyph glyph-name="l" unicode="l" horiz-adv-x="240" 
d="M155 672v-535q0 -85 9 -100t62 -15v-22h-214v22h13q43 0 51.5 17.5t8.5 97.5v396q0 61 -10 78.5t-57 17.5v22q74 2 130 21h7z" />
    <glyph glyph-name="m" unicode="m" horiz-adv-x="802" 
d="M367 256v14v16t-0.5 16t-2 17.5t-4.5 15.5t-7 15.5t-10 12.5t-14 10.5t-19 6t-24 2.5q-72 0 -129 -86v-159q0 -83 8.5 -99t57.5 -16v-22h-202v22q49 0 57.5 16t8.5 99v119q0 83 -8.5 99t-57.5 16v22q45 5 110 23h13q10 -30 13 -83q70 83 155 83q60 0 88 -27t33 -60
q75 87 159 87q125 0 125 -130v-149q0 -82 9 -98.5t57 -16.5v-22h-205v22q51 0 60 15.5t9 99.5v125q0 18 -0.5 27.5t-2.5 26.5t-7 26.5t-13.5 20t-23 15t-34.5 4.5q-72 0 -129 -86v-159q0 -83 8.5 -99t57.5 -16v-22h-202v22q48 0 57 16.5t9 98.5v119z" />
    <glyph glyph-name="n" unicode="n" horiz-adv-x="531" 
d="M137 416h13q10 -30 13 -83q76 83 154 83q64 0 94.5 -37.5t30.5 -93.5v-148q0 -83 8.5 -99t57.5 -16v-22h-205v22q51 0 60 16t9 99v129q0 120 -81 120q-10 0 -20.5 -2.5t-18 -5t-18.5 -10t-15.5 -10.5t-15.5 -14.5t-13.5 -13.5t-14 -15.5t-12.5 -14.5v-163q0 -83 8.5 -99
t57.5 -16v-22h-202v22q49 0 57.5 16t8.5 99v119q0 83 -8.5 99t-57.5 16v22q84 12 110 23z" />
    <glyph glyph-name="o" unicode="o" horiz-adv-x="500" 
d="M37 201q0 92 61.5 153.5t151.5 61.5t152 -61t62 -155q0 -101 -63.5 -158.5t-150.5 -57.5q-84 0 -148.5 56.5t-64.5 160.5zM118 198q0 -29 2 -51.5t10 -50t21.5 -45.5t39 -30.5t59.5 -12.5t59.5 12t39 30t21.5 44.5t10.5 50t2.5 52.5q0 91 -29.5 143t-103.5 52
q-73 0 -102.5 -51.5t-29.5 -142.5z" />
    <glyph glyph-name="p" unicode="p" horiz-adv-x="521" 
d="M127 416h13q10 -32 8 -66q64 66 144 66q82 0 137.5 -58t55.5 -152q0 -93 -54.5 -157.5t-147.5 -64.5q-44 0 -73.5 15t-61.5 44v-152q0 -83 8.5 -99t57.5 -16v-22h-209v22h14q39 0 49 16.5t10 76.5v424q0 47 -10 61.5t-49 14.5h-14v23q30 3 122 24zM148 319v-244
q53 -65 118 -65q14 0 28 3t35 15t36.5 32t27 58.5t11.5 90.5q0 46 -11.5 80.5t-27 52.5t-36 28.5t-34 13t-25.5 2.5q-65 0 -122 -67z" />
    <glyph glyph-name="q" unicode="q" horiz-adv-x="521" 
d="M428 416h16v-525q0 -85 9 -100t61 -15v-22h-215v22h16q41 0 50 14.5t9 64.5v179q-71 -50 -144 -50q-82 0 -138 56t-56 153q0 105 63.5 164t136.5 59q28 0 55 -9t41 -17t42 -26q28 18 54 52zM374 57v277q-58 52 -122 52q-32 0 -56.5 -11.5t-38.5 -32.5t-23 -41t-12 -46.5
t-4 -38.5t-1 -28q0 -13 1 -24t4 -35t11.5 -42t22 -37t37 -29.5t54.5 -10.5q67 0 127 47z" />
    <glyph glyph-name="r" unicode="r" horiz-adv-x="365" 
d="M164 231v-94q0 -80 8 -97.5t51 -17.5h14v-22h-212v22q51 0 60 15.5t9 99.5v113q0 84 -9 99.5t-60 15.5v22q46 6 113 27l7 2q14 -45 14 -105q21 51 58.5 78t69.5 27t51 -20t19 -41q0 -14 -9.5 -24t-23.5 -10q-23 0 -35 30q-14 30 -28 30q-28 0 -62.5 -41t-34.5 -109z" />
    <glyph glyph-name="s" unicode="s" 
d="M41 -12v131h19q9 -43 39.5 -78t78.5 -35q42 0 58 24t16 47q0 19 -6.5 33t-23 26.5t-29 19.5t-38.5 20q-20 10 -30.5 16t-29 18.5t-28 24.5t-17.5 30.5t-8 39.5q0 41 29 76t78 35q51 0 87 -42q3 4 19 35h18v-124h-18q-8 38 -34.5 73.5t-69.5 35.5q-30 0 -47.5 -18.5
t-17.5 -42.5q0 -16 7.5 -29.5t23.5 -25t28 -17.5t35 -17q27 -12 42.5 -21t36.5 -25.5t31 -40.5t10 -55q0 -51 -34 -84.5t-87 -33.5q-24 0 -44 7.5t-29 15t-25 22.5q-16 -17 -21 -41h-19z" />
    <glyph glyph-name="t" unicode="t" horiz-adv-x="292" 
d="M275 378h-121v-242q0 -28 1 -43t6 -35.5t18.5 -30t34.5 -9.5q33 0 61 40l15 -9q-11 -22 -27.5 -37t-34.5 -20t-26.5 -6.5t-15.5 -1.5q-28 0 -52 13.5t-35 35.5q-10 18 -12.5 40t-2.5 78v227h-58v22q39 2 70.5 31.5t41.5 93.5h16v-125h121v-22z" />
    <glyph glyph-name="u" unicode="u" horiz-adv-x="521" 
d="M435 400v-262q0 -82 8 -99t53 -17v-22q-74 0 -107 -16h-7q-17 31 -17 96q-22 -39 -62.5 -67.5t-90.5 -28.5q-124 0 -124 134v145q0 83 -8.5 99t-57.5 16v22h136v-277q0 -22 1.5 -35t8 -32t23.5 -28.5t44 -9.5q10 0 24 3t33 13t35 25t27 41.5t11 60.5v102q0 84 -9 99.5
t-61 15.5v22h140z" />
    <glyph glyph-name="v" unicode="v" horiz-adv-x="458" 
d="M241 -16h-28l-142 320q-20 45 -33 59t-40 15v22h180v-22q-13 0 -19.5 -0.5t-15 -2.5t-12.5 -7t-4 -14t11 -34l116 -261l97 217q23 53 23 67q0 32 -49 35v22h135v-22q-20 -1 -36 -16t-24.5 -32t-28.5 -60z" />
    <glyph glyph-name="w" unicode="w" horiz-adv-x="677" 
d="M480 -16h-22l-119 318l-122 -318h-21l-132 342q-14 35 -24 43q-13 9 -39 9v22h183v-22q-17 0 -26 -1t-18 -7t-9 -18q0 -5 18 -53l82 -218l124 319h19l120 -319l88 227q14 35 14 43q0 25 -49 27v22h130v-22q-11 0 -19.5 -2.5t-15 -7t-10.5 -8t-8.5 -11.5t-6 -11.5
t-5 -13.5t-4.5 -12z" />
    <glyph glyph-name="x" unicode="x" horiz-adv-x="479" 
d="M266 225l110 -139q50 -64 95 -64v-22h-200v22q49 0 49 19q0 5 -16 26l-85 106l-69 -80q-31 -36 -31 -46q0 -25 54 -25v-22h-165v22q54 2 112 69l85 100l-88 112q-37 47 -58.5 61t-44.5 14v22h188v-22q-40 0 -40 -19q0 -7 29 -43l61 -75l71 83q14 16 14 30q0 9 -14.5 16.5
t-39.5 7.5v22h159v-22q-43 -2 -94 -58z" />
    <glyph glyph-name="y" unicode="y" horiz-adv-x="458" 
d="M262 75l99 238q14 32 14 39q0 26 -54 26v22h140v-22q-35 -2 -49.5 -19.5t-35.5 -68.5l-178 -430q-22 -53 -42 -79.5t-47 -26.5q-13 0 -22 7.5t-9 21.5q0 33 51 56q28 12 38.5 21.5t20.5 34.5l38 95l-150 322q-19 41 -32 53t-46 13v22h184v-22q-14 -1 -19 -1.5t-14 -2.5
t-12.5 -6t-3.5 -10t19 -49z" />
    <glyph glyph-name="z" unicode="z" horiz-adv-x="427" 
d="M33 0v15l265 363h-145q-24 0 -35.5 -3.5t-26 -23t-28.5 -62.5h-18l6 111h335v-18l-264 -360h109q35 0 50 1.5t34 11.5t31.5 31.5t27.5 60.5h19l-12 -127h-348z" />
    <glyph glyph-name="braceleft" unicode="{" horiz-adv-x="480" 
d="M105 200v19q54 10 82.5 39.5t28.5 64.5q0 13 -11 72q-12 54 -12 81q0 65 49 123.5t136 69.5v-19q-53 -10 -83.5 -41.5t-30.5 -76.5q0 -20 10 -78t10 -79q0 -18 -5.5 -37t-19 -43t-43 -46.5t-71.5 -37.5q44 -18 74.5 -42t43 -48.5t17 -42t4.5 -33.5t-9 -77
q-10 -52 -10 -79q0 -93 113 -121v-17q-84 11 -134 67.5t-50 123.5q0 24 11.5 79t11.5 73q0 7 -0.5 13.5t-6.5 22t-17 27.5t-33.5 24.5t-54.5 18.5z" />
    <glyph glyph-name="bar" unicode="|" horiz-adv-x="496" 
d="M221 674h54v-910h-54v910z" />
    <glyph glyph-name="braceright" unicode="}" horiz-adv-x="480" 
d="M375 220v-19q-54 -10 -82.5 -39.5t-28.5 -64.5q0 -16 12 -72q11 -59 11 -81q0 -65 -49 -123.5t-136 -69.5v19q53 10 83.5 41.5t30.5 76.5q0 20 -10 78t-10 79q0 18 5.5 37t19 43t43 46.5t71.5 37.5q-44 18 -74.5 42t-43 48.5t-17 42t-4.5 33.5q0 23 10 77q9 61 9 79
q0 93 -113 121v17q84 -11 134 -67.5t50 -123.5q0 -24 -11.5 -78.5t-11.5 -73.5q0 -7 0.5 -13.5t6.5 -22t17 -27.5t33.5 -24.5t54.5 -18.5z" />
    <glyph glyph-name="asciitilde" unicode="~" horiz-adv-x="667" 
d="M572 392h23q-1 -66 -36.5 -103t-85.5 -37q-27 0 -57 9.5t-125 49.5q-76 31 -106 31q-72 0 -90 -89h-23q2 39 14.5 68t27 42t33.5 20.5t27 8.5t15 1q47 0 186 -59q74 -32 107 -32q32 0 58.5 20t31.5 70z" />
    <glyph glyph-name="uni00A0" unicode="&#xa0;" horiz-adv-x="250" 
 />
    <glyph glyph-name="exclamdown" unicode="&#xa1;" horiz-adv-x="250" 
d="M114 241h21l27 -337q5 -53 5 -69q0 -31 -13.5 -46t-29.5 -15t-29.5 15.5t-13.5 46.5q0 10 5 70zM177 393q0 -21 -15 -36.5t-37 -15.5t-37.5 15t-15.5 37t15.5 37.5t37.5 15.5q21 0 36.5 -15.5t15.5 -37.5z" />
    <glyph glyph-name="cent" unicode="&#xa2;" horiz-adv-x="427" 
d="M150 3l-66 -190h-26l70 201q-45 28 -69 76t-24 105q0 101 67.5 165.5t166.5 54.5l68 192h26l-70 -197q47 -8 70 -27.5t23 -44.5q0 -12 -7.5 -23t-23.5 -11q-15 0 -24 7.5t-11.5 15t-5.5 21.5q-4 21 -10 28.5t-18 11.5l-121 -342q38 -36 95 -36q96 0 122 88h22
q-10 -33 -28.5 -56.5t-42.5 -35.5t-46.5 -17t-47.5 -5q-49 0 -89 19zM146 70l115 322q-145 5 -145 -179q0 -91 30 -143z" />
    <glyph glyph-name="sterling" unicode="&#xa3;" horiz-adv-x="708" 
d="M195 100l37 131q120 425 337 425q49 0 88.5 -20t39.5 -52q0 -13 -8 -21t-19 -8q-18 0 -40 35q-26 41 -80 41q-117 0 -174 -198l-16 -56q-41 -143 -97 -277h182l-8 -23h-184q-19 -43 -80 -155q26 13 56 13q69 0 125 -56l21 -21q53 -53 100 -53q41 0 70.5 27t29.5 61
q0 24 -18 53q-9 14 -9 27q0 11 9.5 19t19.5 8q22 0 32 -21t10 -43q0 -69 -59 -123t-125 -54q-45 0 -79 21.5t-71 60.5q-59 63 -98 63q-6 0 -27 -7q-5 -9 -17.5 -32.5t-21 -38.5t-21 -32.5t-24.5 -26.5t-23 -9q-9 0 -18 6t-9 19q0 30 35.5 66t75.5 61q31 95 51 167h-157l8 23
h156z" />
    <glyph glyph-name="currency" unicode="&#xa4;" horiz-adv-x="512" 
d="M469 174l-30 -31l-66 65q-54 -41 -118 -41q-63 0 -117 41l-67 -65l-30 31l67 64q-40 58 -40 116q0 63 40 116l-67 65l30 31l67 -65q58 41 117 41q61 0 117 -41l67 65l30 -31l-66 -65q41 -56 41 -116q0 -57 -41 -116zM401 355q0 62 -44.5 103t-100.5 41q-61 0 -103 -42.5
t-42 -101.5t42.5 -102.5t101.5 -43.5q60 0 103 43t43 103z" />
    <glyph glyph-name="yen" unicode="&#xa5;" horiz-adv-x="490" 
d="M303 289h187v-28h-199l-4 -16v-73h203v-28h-203v-47q0 -47 18.5 -61t65.5 -14v-22h-254v22q24 0 36.5 2t25.5 9.5t18.5 24.5t5.5 46v40h-205v28h205v73l-9 16h-196v28h181l-125 236q-41 78 -58.5 95.5t-55.5 19.5v22h242v-22q-38 0 -53 -8t-15 -26q0 -14 23 -55l142 -261
l119 223q27 50 27 72q0 55 -70 55v22h194v-22q-30 -5 -53 -24t-36 -39.5t-39 -68.5z" />
    <glyph glyph-name="brokenbar" unicode="&#xa6;" horiz-adv-x="496" 
d="M221 127h54v-363h-54v363zM221 674h54v-363h-54v363z" />
    <glyph glyph-name="section" unicode="&#xa7;" horiz-adv-x="396" 
d="M187 354q-57 46 -89 89.5t-32 94.5q0 55 39.5 89.5t95.5 34.5q53 0 90.5 -27.5t37.5 -64.5q0 -14 -7.5 -23.5t-21.5 -9.5q-32 0 -35 44q-4 60 -70 60q-34 0 -60 -19.5t-26 -56.5q0 -59 106 -149q38 -32 58 -51.5t43.5 -47.5t33.5 -56.5t10 -60.5q0 -54 -34 -94.5
t-91 -40.5q-7 0 -19 2q54 -43 84 -83.5t30 -92.5q0 -57 -35 -94t-101 -37q-59 0 -91 29t-32 61q0 20 9.5 28.5t20.5 8.5q27 0 32 -44q1 -10 3.5 -18t8.5 -19.5t20 -18t35 -6.5q17 0 34.5 5t35 24t17.5 49q0 29 -17.5 58t-38 48t-62.5 53q-29 23 -45 38t-40.5 43t-36.5 59.5
t-12 66.5q0 56 36.5 94t90.5 38q7 0 25 -3zM75 259q0 -49 47 -105q31 -37 55 -52.5t56 -15.5q40 0 65 23.5t25 56.5q0 52 -56 111q-57 59 -101 59q-42 0 -66.5 -22.5t-24.5 -54.5z" />
    <glyph glyph-name="dieresis" unicode="&#xa8;" 
d="M295 514q0 -16 -11.5 -27.5t-27.5 -11.5t-27.5 11.5t-11.5 27.5t11.5 27.5t27.5 11.5t27.5 -11.5t11.5 -27.5zM117 514q0 -16 -11.5 -27.5t-27.5 -11.5t-27.5 11.5t-11.5 27.5t11.5 27.5t27.5 11.5t27.5 -11.5t11.5 -27.5z" />
    <glyph glyph-name="copyright" unicode="&#xa9;" horiz-adv-x="760" 
d="M551 551l10 -137h-19q-5 14 -8 23t-15 28.5t-26.5 31.5t-40.5 22t-58 10q-71 0 -114 -50t-43 -140q0 -12 0.5 -23t4 -33t9 -39t17.5 -38t28.5 -35t43 -23.5t59.5 -9.5q95 0 152 79l18 -10q-67 -99 -187 -99q-99 0 -162.5 64.5t-63.5 152.5q0 92 67.5 159t176.5 67
q36 0 90 -18q10 -4 18 -4q15 0 24 22h19zM380 674q143 0 244.5 -101t101.5 -245q0 -143 -101.5 -244.5t-244.5 -101.5t-244.5 101.5t-101.5 244.5q0 144 101.5 245t244.5 101zM380 644q-130 0 -223 -92t-93 -224q0 -131 92.5 -223.5t223.5 -92.5t223.5 92.5t92.5 223.5
q0 132 -93 224t-223 92z" />
    <glyph glyph-name="ordfeminine" unicode="&#xaa;" horiz-adv-x="302" 
d="M285 469h12q-2 -23 -15.5 -36.5t-38.5 -13.5q-19 0 -30.5 8t-14.5 15t-5 19q-63 -42 -105 -42q-25 0 -44.5 13.5t-19.5 37.5q0 27 28 49.5t92 47.5l49 18q0 21 -1 31t-6.5 22.5t-18 18t-34.5 5.5q-48 0 -52 -26q-6 -28 -19 -32q-4 -1 -9 -1q-19 0 -19 17q0 10 9 21.5
t34.5 22t61.5 10.5q35 0 57.5 -8t30.5 -23.5t10 -25.5t2 -27v-97q0 -16 0.5 -23.5t2 -15.5t6 -11t11.5 -3q20 0 26 29zM193 476v96l-35 -14q-81 -30 -81 -77q0 -18 9.5 -29.5t27.5 -11.5q30 0 79 36z" />
    <glyph glyph-name="guillemotleft" unicode="&#xab;" horiz-adv-x="469" 
d="M29 213l181 187h28l-114 -187l114 -191h-28zM238 213l181 187h26l-113 -187l113 -191h-26z" />
    <glyph glyph-name="logicalnot" unicode="&#xac;" horiz-adv-x="667" 
d="M69 460h528v-280h-52v228h-476v52z" />
    <glyph glyph-name="uni00AD" unicode="&#xad;" horiz-adv-x="313" 
d="M37 262h239v-66h-239v66z" />
    <glyph glyph-name="registered" unicode="&#xae;" horiz-adv-x="760" 
d="M188 541h189q67 0 106 -30.5t39 -78.5q0 -81 -109 -109l103 -145q14 -19 25.5 -29t17.5 -11.5t16 -2.5v-17h-90l-144 198h-37v-115q0 -25 0.5 -32t5.5 -18t17 -13.5t35 -2.5v-17h-179v17q19 0 29.5 3t15 13t5.5 19.5t1 31.5v256q0 29 -2 40t-11.5 18.5t-32.5 7.5v17z
M304 512v-175h15q48 0 86 20t38 69q0 39 -27 66t-71 27q-20 0 -41 -7zM380 674q143 0 244.5 -101t101.5 -245q0 -143 -101.5 -244.5t-244.5 -101.5t-244.5 101.5t-101.5 244.5q0 144 101.5 245t244.5 101zM380 644q-130 0 -223 -92t-93 -224q0 -131 92.5 -223.5t223.5 -92.5
t223.5 92.5t92.5 223.5q0 132 -93 224t-223 92z" />
    <glyph glyph-name="macron" unicode="&#xaf;" 
d="M17 519h299v-45h-299v45z" />
    <glyph glyph-name="degree" unicode="&#xb0;" horiz-adv-x="400" 
d="M200 656q65 0 111 -46t46 -111t-46 -111t-111 -46t-111 46t-46 111t46 111t111 46zM200 607q-45 0 -76.5 -31.5t-31.5 -76.5t31.5 -76.5t76.5 -31.5t76.5 31.5t31.5 76.5t-31.5 76.5t-76.5 31.5z" />
    <glyph glyph-name="plusminus" unicode="&#xb1;" horiz-adv-x="667" 
d="M69 52h528v-52h-528v52zM69 427h238v238h52v-238h238v-52h-238v-238h-52v238h-238v52z" />
    <glyph glyph-name="two.superior" unicode="&#xb2;" horiz-adv-x="302" 
d="M31 315v19q41 28 94 80q84 81 84 143q0 79 -73 79q-30 0 -46 -17t-16 -37q0 -24 21 -36q11 -7 11 -10q0 -5 -11.5 -14t-20.5 -9q-14 0 -26.5 17.5t-12.5 39.5q0 37 35 61.5t80 24.5q43 0 81 -23.5t38 -73.5q0 -29 -14.5 -51t-49.5 -57q-40 -40 -121 -100h181l-18 -62h-25
l1 7q2 11 0 15t-12 4h-180z" />
    <glyph glyph-name="three.superior" unicode="&#xb3;" horiz-adv-x="302" 
d="M257 592q0 -45 -86 -88q45 0 72 -24t27 -66q0 -50 -39.5 -78.5t-93.5 -28.5q-43 0 -71.5 16.5t-28.5 33.5q0 20 24 20q20 0 28 -22q12 -31 46 -31q75 0 75 91q0 39 -15.5 56t-34.5 17t-34 -15q-10 -10 -19 -10q-14 0 -14 12q0 7 34 26q37 21 53.5 39t16.5 47q0 50 -50 50
q-22 0 -40.5 -12.5t-18.5 -34.5q0 -16 9 -25q10 -10 10 -11q0 -5 -11.5 -9.5t-17.5 -4.5q-13 0 -22 13t-9 27q0 27 28 51.5t81 24.5q45 0 73 -19t28 -45z" />
    <glyph glyph-name="acute" unicode="&#xb4;" 
d="M111 474h-19l56 96q20 33 32.5 45.5t29.5 12.5q12 0 21.5 -8.5t9.5 -20.5q0 -17 -34 -46z" />
    <glyph glyph-name="mu" unicode="&#xb5;" horiz-adv-x="500" 
d="M62 400h70v-213q0 -33 1 -50.5t5 -38t12.5 -30t23.5 -16t38 -6.5q29 0 62.5 17.5t61.5 48.5v288h71v-272q0 -26 0.5 -38t3.5 -26.5t10.5 -19.5t19.5 -5q31 0 39 60h20q-11 -113 -97 -113q-37 0 -50.5 24t-16.5 69q-81 -93 -163 -93q-47 0 -77 44q-1 -81 17 -172
q7 -38 7 -50q0 -22 -13 -38t-33 -16q-21 0 -32 17t-11 37q0 17 7 47q24 101 24 179v366z" />
    <glyph glyph-name="paragraph" unicode="&#xb6;" horiz-adv-x="453" 
d="M474 662v-19h-21q-41 0 -49.5 -19.5t-8.5 -83.5v-776h-36v870h-95v-870h-37v515q-114 0 -178.5 47.5t-64.5 145.5q0 84 58.5 137t169.5 53h262z" />
    <glyph glyph-name="periodcentered" unicode="&#xb7;" horiz-adv-x="271" 
d="M83 331q0 21 15 36.5t37 15.5t37.5 -15t15.5 -37t-15.5 -37.5t-37.5 -15.5q-21 0 -36.5 15.5t-15.5 37.5z" />
    <glyph glyph-name="cedilla" unicode="&#xb8;" 
d="M198 7h30l-35 -50q63 -21 63 -71q0 -57 -75 -85q-32 -13 -104 -13v21q49 5 62.5 8t28.5 14q23 16 23 41q0 40 -65 43z" />
    <glyph glyph-name="one.superior" unicode="&#xb9;" horiz-adv-x="302" 
d="M180 656v-268q0 -39 4 -47t25 -8h17v-18h-141v18h15q21 0 25 8t4 47v177q0 39 -4 47.5t-25 8.5h-18v17q44 0 76 18h22z" />
    <glyph glyph-name="ordmasculine" unicode="&#xba;" horiz-adv-x="323" 
d="M23 545q0 55 40 92t99 37q58 0 98 -36.5t40 -92.5q0 -62 -42.5 -96t-95.5 -34t-96 33.5t-43 96.5zM76 544q0 -22 2.5 -39t10.5 -36t26.5 -29.5t46.5 -10.5q85 0 85 114q0 56 -18.5 87t-66.5 31q-86 0 -86 -117z" />
    <glyph glyph-name="guillemotright" unicode="&#xbb;" horiz-adv-x="469" 
d="M440 209l-181 -187h-28l114 187l-114 191h28zM231 209l-181 -187h-26l113 187l-113 191h26z" />
    <glyph glyph-name="onequarter" unicode="&#xbc;" horiz-adv-x="875" 
d="M657 112h-142v19l167 210h28v-207h38q5 0 7 1.5t4 4t5 9.5l4 8h24l-8 -45h-74v-63q0 -19 5 -25t19 -6h16v-18h-138v18h22q15 0 19 8t4 25v61zM282 0h-30l340 640h30zM546 134h111v141zM265 656v-268q0 -39 4 -47t25 -8h17v-18h-141v18h15q21 0 25 8t4 47v177
q0 39 -4 47.5t-25 8.5h-18v17q45 0 76 18h22z" />
    <glyph glyph-name="onehalf" unicode="&#xbd;" horiz-adv-x="875" 
d="M282 0h-30l340 640h30zM532 0v19q41 28 94 80q84 81 84 143q0 79 -73 79q-30 0 -46 -17t-16 -37q0 -24 21 -36q11 -7 11 -10q0 -5 -11.5 -14t-20.5 -9q-14 0 -26.5 17.5t-12.5 39.5q0 37 35 61.5t80 24.5q43 0 81 -23.5t38 -73.5q0 -29 -14.5 -51t-49.5 -57
q-40 -40 -121 -100h181l-18 -62h-25l1 7q2 11 0 15t-12 4h-180zM265 656v-268q0 -39 4 -47t25 -8h17v-18h-141v18h15q21 0 25 8t4 47v177q0 39 -4 47.5t-25 8.5h-18v17q45 0 76 18h22z" />
    <glyph glyph-name="threequarters" unicode="&#xbe;" horiz-adv-x="875" 
d="M657 112h-142v19l167 210h28v-207h38q5 0 7 1.5t4 4t5 9.5l4 8h24l-8 -45h-74v-63q0 -19 5 -25t19 -6h16v-18h-138v18h22q15 0 19 8t4 25v61zM282 0h-30l340 640h30zM546 134h111v141zM322 592q0 -45 -86 -88q45 0 72 -24t27 -66q0 -50 -39.5 -78.5t-93.5 -28.5
q-43 0 -71.5 16.5t-28.5 33.5q0 20 24 20q20 0 28 -22q12 -31 46 -31q75 0 75 91q0 39 -15.5 56t-34.5 17t-34 -15q-10 -10 -19 -10q-14 0 -14 12q0 7 34 26q37 21 53.5 39t16.5 47q0 50 -50 50q-22 0 -40.5 -12.5t-18.5 -34.5q0 -16 9 -25q10 -10 10 -11q0 -5 -11 -9.5
t-18 -4.5q-13 0 -22 13t-9 27q0 27 28 51.5t81 24.5q45 0 73 -19t28 -45z" />
    <glyph glyph-name="questiondown" unicode="&#xbf;" horiz-adv-x="396" 
d="M254 246h22v-206h-22q-23 37 -53 37q-76 0 -76 -147q0 -54 23.5 -94t76.5 -40q22 0 37 8.5t20.5 16.5t12.5 23q11 25 31 25q23 0 23 -25q0 -28 -39 -48.5t-90 -20.5q-48 0 -84 20t-53.5 50t-25 58t-7.5 52q0 64 38.5 107.5t93.5 43.5q45 0 72 -27v167zM209 394
q0 22 15 37t37 15t37.5 -15t15.5 -37t-15.5 -37t-37.5 -15q-21 0 -36.5 15t-15.5 37z" />
    <glyph glyph-name="Agrave" unicode="&#xc0;" horiz-adv-x="677" 
d="M429 244h-252l-39 -97q-16 -43 -16 -63q0 -26 18.5 -44t53.5 -18v-22h-197v22q62 2 95 79l238 571h19l243 -575q9 -22 18 -36t27.5 -26.5t43.5 -12.5v-22h-261v22q24 0 33.5 0.5t24 3.5t19.5 11t5 21q0 11 -13 41zM187 266h233l-117 282zM394 722l-96 79q-34 29 -34 46
q0 12 9.5 20.5t21.5 8.5q17 0 29.5 -12.5t32.5 -45.5l56 -96h-19z" />
    <glyph glyph-name="Aacute" unicode="&#xc1;" horiz-adv-x="677" 
d="M429 244h-252l-39 -97q-16 -43 -16 -63q0 -26 18.5 -44t53.5 -18v-22h-197v22q62 2 95 79l238 571h19l243 -575q9 -22 18 -36t27.5 -26.5t43.5 -12.5v-22h-261v22q24 0 33.5 0.5t24 3.5t19.5 11t5 21q0 11 -13 41zM187 266h233l-117 282zM283 722h-19l56 96
q20 33 32.5 45.5t29.5 12.5q12 0 21.5 -8.5t9.5 -20.5q0 -17 -34 -46z" />
    <glyph glyph-name="Acircumflex" unicode="&#xc2;" horiz-adv-x="677" 
d="M429 244h-252l-39 -97q-16 -43 -16 -63q0 -26 18.5 -44t53.5 -18v-22h-197v22q62 2 95 79l238 571h19l243 -575q9 -22 18 -36t27.5 -26.5t43.5 -12.5v-22h-261v22q24 0 33.5 0.5t24 3.5t19.5 11t5 21q0 11 -13 41zM187 266h233l-117 282zM301 866h76l103 -145h-22
l-120 95l-120 -95h-20z" />
    <glyph glyph-name="Atilde" unicode="&#xc3;" horiz-adv-x="677" 
d="M429 244h-252l-39 -97q-16 -43 -16 -63q0 -26 18.5 -44t53.5 -18v-22h-197v22q62 2 95 79l238 571h19l243 -575q9 -22 18 -36t27.5 -26.5t43.5 -12.5v-22h-261v22q24 0 33.5 0.5t24 3.5t19.5 11t5 21q0 11 -13 41zM187 266h233l-117 282zM472 829h17q0 -19 -4.5 -40
t-24.5 -44t-54 -23q-14 0 -28.5 4t-23 8.5t-20.5 11t-15 8.5q-5 2 -19 10.5t-25.5 13t-22.5 4.5q-37 0 -48 -60h-16q8 107 85 107q28 0 82 -29q4 -2 16 -9t18.5 -10.5t17 -7t18.5 -3.5q22 0 34 18t13 41z" />
    <glyph glyph-name="Adieresis" unicode="&#xc4;" horiz-adv-x="677" 
d="M429 244h-252l-39 -97q-16 -43 -16 -63q0 -26 18.5 -44t53.5 -18v-22h-197v22q62 2 95 79l238 571h19l243 -575q9 -22 18 -36t27.5 -26.5t43.5 -12.5v-22h-261v22q24 0 33.5 0.5t24 3.5t19.5 11t5 21q0 11 -13 41zM187 266h233l-117 282zM467 762q0 -16 -11.5 -27.5
t-27.5 -11.5t-27.5 11.5t-11.5 27.5t11.5 27.5t27.5 11.5t27.5 -11.5t11.5 -27.5zM289 762q0 -16 -11.5 -27.5t-27.5 -11.5t-27.5 11.5t-11.5 27.5t11.5 27.5t27.5 11.5t27.5 -11.5t11.5 -27.5z" />
    <glyph glyph-name="Aring" unicode="&#xc5;" horiz-adv-x="677" 
d="M429 244h-252l-39 -97q-16 -43 -16 -63q0 -26 18.5 -44t53.5 -18v-22h-197v22q62 2 95 79l238 571h19l243 -575q9 -22 18 -36t27.5 -26.5t43.5 -12.5v-22h-261v22q24 0 33.5 0.5t24 3.5t19.5 11t5 21q0 11 -13 41zM187 266h233l-117 282zM430 811q0 -38 -27 -65t-65 -27
t-65 27t-27 65t27 64.5t65 26.5t65 -26.5t27 -64.5zM337 875q-26 0 -44 -19t-18 -45q0 -27 18.5 -45.5t45.5 -18.5q26 0 44.5 18.5t18.5 44.5q0 28 -19 46.5t-46 18.5z" />
    <glyph glyph-name="AE" unicode="&#xc6;" horiz-adv-x="885" 
d="M399 324h-158l-85 -173q-26 -52 -26 -74q0 -52 79 -55v-22h-209v22q70 9 137 143l191 389q25 50 25 62q0 16 -17.5 20t-56.5 4h-15v22h517l17 -163h-23q-9 41 -22.5 69t-26.5 42t-34 21t-34.5 8t-38.5 1h-124v-294h75q26 0 38 2t26 11t19 30.5t5 59.5h23v-227h-23
q0 64 -16 83t-70 19h-77v-155v-40.5t1 -31.5t3 -26t4.5 -18t8.5 -14t12.5 -8.5t17.5 -6t22.5 -1.5t29.5 -1h45q32 0 48 1.5t41.5 10.5t41 27t32.5 53t30 87h21l-8 -201h-545v22h15q60 0 72 24t12 126v152zM252 346h147v298h-2z" />
    <glyph glyph-name="Ccedilla" unicode="&#xc7;" horiz-adv-x="719" 
d="M361 -12q-137 3 -226.5 92.5t-89.5 238.5q0 66 19.5 127.5t57 113t102 83t145.5 31.5t139.5 -32t85.5 -66q21 43 25 86h22l5 -251h-20q-10 70 -37 119.5t-63 74t-70.5 35t-70.5 10.5q-62 0 -108.5 -28.5t-71.5 -77.5t-36.5 -104t-11.5 -117q0 -154 68 -230.5t165 -76.5
q58 0 103 22t71.5 58t41.5 74t20 78h20v-231h-20q-10 41 -32 70q-81 -94 -210 -99l-5 -54q49 1 77 -24t28 -57q0 -42 -37 -65.5t-89 -23.5q-49 0 -87 20l8 21q37 -17 66 -17q30 0 50.5 16t20.5 43q0 26 -19 40t-49 12z" />
    <glyph glyph-name="Egrave" unicode="&#xc8;" horiz-adv-x="625" 
d="M571 206h23l-14 -206h-548v22h13q62 0 74 24t12 126v325q0 101 -12 122t-74 21v22h474l15 -165h-23q-12 52 -26.5 81.5t-41 43t-50 16t-74.5 2.5h-92v-279h71q66 0 82.5 19t16.5 81h23v-227h-23q0 30 -3.5 49t-9 31t-19 17t-27 6.5t-39.5 1.5h-72v-157q0 -42 0.5 -65
t4.5 -43.5t9 -28.5t18 -14.5t26 -7.5t39 -1h49q24 0 38.5 1t42 11t46 27.5t38.5 54.5t33 90zM368 722l-96 79q-34 29 -34 46q0 12 9.5 20.5t21.5 8.5q17 0 29.5 -12.5t32.5 -45.5l56 -96h-19z" />
    <glyph glyph-name="Eacute" unicode="&#xc9;" horiz-adv-x="625" 
d="M571 206h23l-14 -206h-548v22h13q62 0 74 24t12 126v325q0 101 -12 122t-74 21v22h474l15 -165h-23q-12 52 -26.5 81.5t-41 43t-50 16t-74.5 2.5h-92v-279h71q66 0 82.5 19t16.5 81h23v-227h-23q0 30 -3.5 49t-9 31t-19 17t-27 6.5t-39.5 1.5h-72v-157q0 -42 0.5 -65
t4.5 -43.5t9 -28.5t18 -14.5t26 -7.5t39 -1h49q24 0 38.5 1t42 11t46 27.5t38.5 54.5t33 90zM257 722h-19l56 96q20 33 32.5 45.5t29.5 12.5q12 0 21.5 -8.5t9.5 -20.5q0 -17 -34 -46z" />
    <glyph glyph-name="Ecircumflex" unicode="&#xca;" horiz-adv-x="625" 
d="M571 206h23l-14 -206h-548v22h13q62 0 74 24t12 126v325q0 101 -12 122t-74 21v22h474l15 -165h-23q-12 52 -26.5 81.5t-41 43t-50 16t-74.5 2.5h-92v-279h71q66 0 82.5 19t16.5 81h23v-227h-23q0 30 -3.5 49t-9 31t-19 17t-27 6.5t-39.5 1.5h-72v-157q0 -42 0.5 -65
t4.5 -43.5t9 -28.5t18 -14.5t26 -7.5t39 -1h49q24 0 38.5 1t42 11t46 27.5t38.5 54.5t33 90zM275 866h76l103 -145h-22l-120 95l-120 -95h-20z" />
    <glyph glyph-name="Edieresis" unicode="&#xcb;" horiz-adv-x="625" 
d="M571 206h23l-14 -206h-548v22h13q62 0 74 24t12 126v325q0 101 -12 122t-74 21v22h474l15 -165h-23q-12 52 -26.5 81.5t-41 43t-50 16t-74.5 2.5h-92v-279h71q66 0 82.5 19t16.5 81h23v-227h-23q0 30 -3.5 49t-9 31t-19 17t-27 6.5t-39.5 1.5h-72v-157q0 -42 0.5 -65
t4.5 -43.5t9 -28.5t18 -14.5t26 -7.5t39 -1h49q24 0 38.5 1t42 11t46 27.5t38.5 54.5t33 90zM441 762q0 -16 -11.5 -27.5t-27.5 -11.5t-27.5 11.5t-11.5 27.5t11.5 27.5t27.5 11.5t27.5 -11.5t11.5 -27.5zM263 762q0 -16 -11.5 -27.5t-27.5 -11.5t-27.5 11.5t-11.5 27.5
t11.5 27.5t27.5 11.5t27.5 -11.5t11.5 -27.5z" />
    <glyph glyph-name="Igrave" unicode="&#xcc;" horiz-adv-x="354" 
d="M26 640v22h302v-22h-14q-24 0 -37 -0.5t-24.5 -7t-16 -12.5t-7.5 -26.5t-3.5 -38.5t-0.5 -58v-325q0 -102 12 -126t72 -24h19v-22h-302v22h19q60 0 72 24t12 126v325q0 39 -0.5 57.5t-3.5 38.5t-7.5 26.5t-16 13t-24.5 7t-37 0.5h-14zM233 722l-96 79q-34 29 -34 46
q0 12 9.5 20.5t21.5 8.5q17 0 29.5 -12.5t32.5 -45.5l56 -96h-19z" />
    <glyph glyph-name="Iacute" unicode="&#xcd;" horiz-adv-x="354" 
d="M26 640v22h302v-22h-14q-24 0 -37 -0.5t-24.5 -7t-16 -12.5t-7.5 -26.5t-3.5 -38.5t-0.5 -58v-325q0 -102 12 -126t72 -24h19v-22h-302v22h19q60 0 72 24t12 126v325q0 39 -0.5 57.5t-3.5 38.5t-7.5 26.5t-16 13t-24.5 7t-37 0.5h-14zM122 722h-19l56 96q20 33 32.5 45.5
t29.5 12.5q12 0 21.5 -8.5t9.5 -20.5q0 -17 -34 -46z" />
    <glyph glyph-name="Icircumflex" unicode="&#xce;" horiz-adv-x="354" 
d="M26 640v22h302v-22h-14q-24 0 -37 -0.5t-24.5 -7t-16 -12.5t-7.5 -26.5t-3.5 -38.5t-0.5 -58v-325q0 -102 12 -126t72 -24h19v-22h-302v22h19q60 0 72 24t12 126v325q0 39 -0.5 57.5t-3.5 38.5t-7.5 26.5t-16 13t-24.5 7t-37 0.5h-14zM140 866h76l103 -145h-22l-120 95
l-120 -95h-20z" />
    <glyph glyph-name="Idieresis" unicode="&#xcf;" horiz-adv-x="354" 
d="M26 640v22h302v-22h-14q-24 0 -37 -0.5t-24.5 -7t-16 -12.5t-7.5 -26.5t-3.5 -38.5t-0.5 -58v-325q0 -102 12 -126t72 -24h19v-22h-302v22h19q60 0 72 24t12 126v325q0 39 -0.5 57.5t-3.5 38.5t-7.5 26.5t-16 13t-24.5 7t-37 0.5h-14zM306 762q0 -16 -11 -27.5t-28 -11.5
t-28 11.5t-11 27.5t11.5 27.5t27.5 11.5t27.5 -11.5t11.5 -27.5zM128 762q0 -16 -11.5 -27.5t-27.5 -11.5q-17 0 -28 11.5t-11 27.5t11.5 27.5t27.5 11.5t27.5 -11.5t11.5 -27.5z" />
    <glyph glyph-name="Eth" unicode="&#xd0;" horiz-adv-x="760" 
d="M132 341v151q0 39 -0.5 57.5t-4 38.5t-7.5 26t-16 12.5t-24.5 7t-37.5 0.5h-19v23q182 12 292 12q189 0 286 -83q108 -91 108 -261q0 -166 -102 -252q-31 -26 -66 -42t-79 -22.5t-70.5 -7.5t-77.5 -1h-294v22h27q61 0 73 24t12 126v142h-112v27h112zM228 314v-115
q0 -121 9 -145q9 -26 45 -30q14 -1 50 -1q117 0 175 45q95 74 95 250q0 142 -62 230q-24 34 -55.5 56t-68.5 29.5t-57 9.5t-50 2q-43 0 -81 -2v-302h168v-27h-168z" />
    <glyph glyph-name="Ntilde" unicode="&#xd1;" horiz-adv-x="750" 
d="M613 -15l-468 623v-474q0 -58 22.5 -84t93.5 -28v-22h-247v22q39 3 62 11t32 24.5t11 29t2 38.5v9v363q0 37 -0.5 57.5t-5 39t-9.5 26t-17.5 13t-26.5 6.5t-39 1v22h195l392 -521v399q0 25 -3 40t-13.5 30t-34.5 22.5t-62 7.5v22h240v-22q-67 -6 -85 -29.5t-18 -77.5
v-548h-21zM509 829h17q0 -19 -4.5 -40t-24.5 -44t-54 -23q-14 0 -28.5 4t-23 8.5t-20.5 11t-15 8.5q-5 2 -19 10.5t-25.5 13t-22.5 4.5q-37 0 -48 -60h-16q8 107 85 107q28 0 82 -29q4 -2 16 -9t18.5 -10.5t17 -7t18.5 -3.5q22 0 34 18t13 41z" />
    <glyph glyph-name="Ograve" unicode="&#xd2;" horiz-adv-x="823" 
d="M51 336q0 108 52.5 186.5t132 115t172.5 36.5q70 0 133.5 -20.5t116 -61t83.5 -107.5t31 -153q0 -153 -98.5 -248.5t-262.5 -95.5q-156 0 -258 93.5t-102 254.5zM163 332q0 -320 252 -320q62 0 108.5 23t72 56.5t40.5 79.5t19.5 83t4.5 77q0 37 -3.5 71t-18.5 82t-40 82
t-73.5 59t-113.5 25q-59 0 -104.5 -20t-72 -51.5t-43 -75t-22.5 -84.5t-6 -87zM467 722l-96 79q-34 29 -34 46q0 12 9.5 20.5t21.5 8.5q17 0 29.5 -12.5t32.5 -45.5l56 -96h-19z" />
    <glyph glyph-name="Oacute" unicode="&#xd3;" horiz-adv-x="823" 
d="M51 336q0 108 52.5 186.5t132 115t172.5 36.5q70 0 133.5 -20.5t116 -61t83.5 -107.5t31 -153q0 -153 -98.5 -248.5t-262.5 -95.5q-156 0 -258 93.5t-102 254.5zM163 332q0 -320 252 -320q62 0 108.5 23t72 56.5t40.5 79.5t19.5 83t4.5 77q0 37 -3.5 71t-18.5 82t-40 82
t-73.5 59t-113.5 25q-59 0 -104.5 -20t-72 -51.5t-43 -75t-22.5 -84.5t-6 -87zM356 722h-19l56 96q20 33 32.5 45.5t29.5 12.5q12 0 21.5 -8.5t9.5 -20.5q0 -17 -34 -46z" />
    <glyph glyph-name="Ocircumflex" unicode="&#xd4;" horiz-adv-x="823" 
d="M51 336q0 108 52.5 186.5t132 115t172.5 36.5q70 0 133.5 -20.5t116 -61t83.5 -107.5t31 -153q0 -153 -98.5 -248.5t-262.5 -95.5q-156 0 -258 93.5t-102 254.5zM163 332q0 -320 252 -320q62 0 108.5 23t72 56.5t40.5 79.5t19.5 83t4.5 77q0 37 -3.5 71t-18.5 82t-40 82
t-73.5 59t-113.5 25q-59 0 -104.5 -20t-72 -51.5t-43 -75t-22.5 -84.5t-6 -87zM374 866h76l103 -145h-22l-120 95l-120 -95h-20z" />
    <glyph glyph-name="Otilde" unicode="&#xd5;" horiz-adv-x="823" 
d="M51 336q0 108 52.5 186.5t132 115t172.5 36.5q70 0 133.5 -20.5t116 -61t83.5 -107.5t31 -153q0 -153 -98.5 -248.5t-262.5 -95.5q-156 0 -258 93.5t-102 254.5zM163 332q0 -320 252 -320q62 0 108.5 23t72 56.5t40.5 79.5t19.5 83t4.5 77q0 37 -3.5 71t-18.5 82t-40 82
t-73.5 59t-113.5 25q-59 0 -104.5 -20t-72 -51.5t-43 -75t-22.5 -84.5t-6 -87zM545 829h17q0 -19 -4.5 -40t-24.5 -44t-54 -23q-14 0 -28.5 4t-23 8.5t-20.5 11t-15 8.5q-5 2 -19 10.5t-25.5 13t-22.5 4.5q-37 0 -48 -60h-16q8 107 85 107q28 0 82 -29q4 -2 16 -9
t18.5 -10.5t17 -7t18.5 -3.5q22 0 34 18t13 41z" />
    <glyph glyph-name="Odieresis" unicode="&#xd6;" horiz-adv-x="823" 
d="M51 336q0 108 52.5 186.5t132 115t172.5 36.5q70 0 133.5 -20.5t116 -61t83.5 -107.5t31 -153q0 -153 -98.5 -248.5t-262.5 -95.5q-156 0 -258 93.5t-102 254.5zM163 332q0 -320 252 -320q62 0 108.5 23t72 56.5t40.5 79.5t19.5 83t4.5 77q0 37 -3.5 71t-18.5 82t-40 82
t-73.5 59t-113.5 25q-59 0 -104.5 -20t-72 -51.5t-43 -75t-22.5 -84.5t-6 -87zM540 762q0 -16 -11 -27.5t-28 -11.5t-28 11.5t-11 27.5t11.5 27.5t27.5 11.5t27.5 -11.5t11.5 -27.5zM362 762q0 -16 -11.5 -27.5t-27.5 -11.5q-17 0 -28 11.5t-11 27.5t11.5 27.5t27.5 11.5
t27.5 -11.5t11.5 -27.5z" />
    <glyph glyph-name="multiply" unicode="&#xd7;" horiz-adv-x="668" 
d="M93 525l37 38l204 -205l204 205l37 -38l-204 -204l202 -202l-37 -37l-202 202l-203 -202l-37 37l203 202z" />
    <glyph glyph-name="Oslash" unicode="&#xd8;" horiz-adv-x="823" 
d="M639 607l57 66l18 -15l-56 -65q45 -38 79.5 -103t34.5 -157q0 -155 -99 -250t-261 -95q-128 0 -219 62l-55 -64l-17 14l54 64q-124 97 -124 270q0 82 30.5 148.5t81.5 107.5t114 62.5t131 21.5q134 0 231 -67zM213 109l388 453q-67 88 -190 88q-60 0 -105.5 -20.5
t-72 -52t-43 -76t-22 -85t-5.5 -85.5q0 -67 14.5 -127t35.5 -95zM614 541l-387 -451q66 -78 188 -78q64 0 111.5 24.5t72 58.5t39.5 82t18.5 82.5t3.5 72.5q0 124 -46 209z" />
    <glyph glyph-name="Ugrave" unicode="&#xd9;" horiz-adv-x="771" 
d="M528 662h222v-22q-28 -2 -47 -10t-29 -17.5t-15 -30.5t-5.5 -35.5t-0.5 -46.5v-220q0 -76 -4 -110.5t-22 -67.5q-28 -51 -90 -82.5t-152 -31.5q-91 0 -146.5 29.5t-81.5 67.5q-23 34 -28 72.5t-5 134.5v203q0 103 -12 124t-77 21h-15v22h302v-22h-42.5t-27.5 -6
t-18.5 -11.5t-8.5 -25.5t-5 -39.5v-60.5v-208q0 -59 1 -85t6.5 -55.5t17.5 -49.5q19 -33 61 -55.5t102 -22.5q56 0 109.5 22t83.5 68q13 21 19.5 48t7.5 50t1 75v225q0 31 -1 44.5t-5.5 33t-15 28t-30 16t-49.5 9.5v22zM461 722l-96 79q-34 29 -34 46q0 12 9.5 20.5
t21.5 8.5q17 0 29.5 -12.5t32.5 -45.5l56 -96h-19z" />
    <glyph glyph-name="Uacute" unicode="&#xda;" horiz-adv-x="771" 
d="M528 662h222v-22q-28 -2 -47 -10t-29 -17.5t-15 -30.5t-5.5 -35.5t-0.5 -46.5v-220q0 -76 -4 -110.5t-22 -67.5q-28 -51 -90 -82.5t-152 -31.5q-91 0 -146.5 29.5t-81.5 67.5q-23 34 -28 72.5t-5 134.5v203q0 103 -12 124t-77 21h-15v22h302v-22h-42.5t-27.5 -6
t-18.5 -11.5t-8.5 -25.5t-5 -39.5v-60.5v-208q0 -59 1 -85t6.5 -55.5t17.5 -49.5q19 -33 61 -55.5t102 -22.5q56 0 109.5 22t83.5 68q13 21 19.5 48t7.5 50t1 75v225q0 31 -1 44.5t-5.5 33t-15 28t-30 16t-49.5 9.5v22zM380 722h-19l56 96q20 33 32.5 45.5t29.5 12.5
q12 0 21.5 -8.5t9.5 -20.5q0 -17 -34 -46z" />
    <glyph glyph-name="Ucircumflex" unicode="&#xdb;" horiz-adv-x="771" 
d="M528 662h222v-22q-28 -2 -47 -10t-29 -17.5t-15 -30.5t-5.5 -35.5t-0.5 -46.5v-220q0 -76 -4 -110.5t-22 -67.5q-28 -51 -90 -82.5t-152 -31.5q-91 0 -146.5 29.5t-81.5 67.5q-23 34 -28 72.5t-5 134.5v203q0 103 -12 124t-77 21h-15v22h302v-22h-42.5t-27.5 -6
t-18.5 -11.5t-8.5 -25.5t-5 -39.5v-60.5v-208q0 -59 1 -85t6.5 -55.5t17.5 -49.5q19 -33 61 -55.5t102 -22.5q56 0 109.5 22t83.5 68q13 21 19.5 48t7.5 50t1 75v225q0 31 -1 44.5t-5.5 33t-15 28t-30 16t-49.5 9.5v22zM388 866h76l103 -145h-22l-120 95l-120 -95h-20z" />
    <glyph glyph-name="Udieresis" unicode="&#xdc;" horiz-adv-x="771" 
d="M528 662h222v-22q-28 -2 -47 -10t-29 -17.5t-15 -30.5t-5.5 -35.5t-0.5 -46.5v-220q0 -76 -4 -110.5t-22 -67.5q-28 -51 -90 -82.5t-152 -31.5q-91 0 -146.5 29.5t-81.5 67.5q-23 34 -28 72.5t-5 134.5v203q0 103 -12 124t-77 21h-15v22h302v-22h-42.5t-27.5 -6
t-18.5 -11.5t-8.5 -25.5t-5 -39.5v-60.5v-208q0 -59 1 -85t6.5 -55.5t17.5 -49.5q19 -33 61 -55.5t102 -22.5q56 0 109.5 22t83.5 68q13 21 19.5 48t7.5 50t1 75v225q0 31 -1 44.5t-5.5 33t-15 28t-30 16t-49.5 9.5v22zM554 762q0 -16 -11 -27.5t-28 -11.5t-28 11.5
t-11 27.5t11.5 27.5t27.5 11.5t27.5 -11.5t11.5 -27.5zM376 762q0 -16 -11.5 -27.5t-27.5 -11.5q-17 0 -28 11.5t-11 27.5t11.5 27.5t27.5 11.5t27.5 -11.5t11.5 -27.5z" />
    <glyph glyph-name="Yacute" unicode="&#xdd;" horiz-adv-x="677" 
d="M377 290l141 238q21 33 21 57q0 55 -78 55v22h216v-22q-25 -4 -44 -13t-37 -29t-29 -37t-32 -52l-148 -249v-88v-4q0 -102 12.5 -124t79.5 -22v-22h-282v22h25.5t20.5 3t16 3.5t12 7.5t9 10t5.5 15.5t3.5 18t1.5 25t0.5 30v37.5v82l-174 285q-41 67 -59 84t-58 17v22h268
v-22q-75 0 -75 -34q0 -14 25 -55zM333 722h-19l56 96q20 33 32.5 45.5t29.5 12.5q12 0 21.5 -8.5t9.5 -20.5q0 -17 -34 -46z" />
    <glyph glyph-name="Thorn" unicode="&#xde;" horiz-adv-x="563" 
d="M336 662v-22h-22q-59 0 -71.5 -23t-12.5 -108h92q21 0 44 -2.5t59 -13t63 -28t47 -52.5t20 -81q0 -183 -243 -179h-10h-72q0 -33 0.5 -47t3 -33.5t7.5 -25.5t14.5 -14t23.5 -9.5t35 -1.5h22v-22h-303v22h17q60 0 72 24t12 126v325v60.5t-5 39.5t-8.5 25.5t-18.5 11.5
t-27 6h-42v22h303zM230 485v-307h47q24 0 39.5 1t44 9t46 22.5t31.5 44.5t14 73q0 45 -13.5 77t-30.5 47.5t-45.5 24t-45 9.5t-42.5 1q-23 0 -45 -2z" />
    <glyph glyph-name="germandbls" unicode="&#xdf;" horiz-adv-x="521" 
d="M155 471v-378q0 -20 0.5 -27.5t4.5 -20.5t14 -18t27 -5h14v-22h-200v22h21q15 0 24.5 4t14.5 9t7 18t2.5 21t0.5 27v314q0 50 1 73.5t8.5 52.5t23.5 53q25 38 67 58t90 20q91 0 138 -47t47 -106q0 -63 -40 -99.5t-97 -49.5q74 -14 118.5 -61t44.5 -131q0 -30 -8.5 -60.5
t-25.5 -59t-49.5 -46t-74.5 -17.5q-38 0 -55 15t-17 29q0 10 7 17.5t17 7.5q19 0 38 -23q19 -22 36 -22q29 0 40 32t11 93q0 114 -28 163.5t-113 49.5q-30 0 -30 10q0 11 13 11q21 0 33.5 1t33.5 7.5t33.5 19.5t22 39t9.5 63q0 143 -109 143q-33 0 -56 -12t-34.5 -27
t-17 -43.5t-6.5 -46.5t-1 -51z" />
    <glyph glyph-name="agrave" unicode="&#xe0;" horiz-adv-x="469" 
d="M441 73h18q-2 -36 -22.5 -59.5t-59.5 -23.5q-23 0 -38.5 6.5t-23.5 20t-10.5 21.5t-5.5 22q-98 -70 -161 -70q-38 0 -68.5 22.5t-30.5 62.5q0 44 42 82t142 79l76 31v20q0 53 -17.5 80t-73.5 27q-73 0 -82 -43q-2 -13 -3.5 -18.5t-6 -16t-12.5 -15.5t-20 -5t-21 7.5
t-9 20.5q0 29 41 60.5t122 31.5q43 0 74 -10.5t45.5 -24t22.5 -36t9 -35.5t1 -34v-162q0 -27 0.5 -39t3.5 -26t9.5 -18.5t17.5 -4.5q33 0 41 47zM299 86v158l-53 -22q-126 -51 -126 -128q0 -28 15 -48.5t43 -20.5q47 0 121 61zM275 472l-96 79q-34 29 -34 46q0 12 9.5 20.5
t21.5 8.5q17 0 29.5 -12.5t32.5 -45.5l56 -96h-19z" />
    <glyph glyph-name="aacute" unicode="&#xe1;" horiz-adv-x="469" 
d="M441 73h18q-2 -36 -22.5 -59.5t-59.5 -23.5q-23 0 -38.5 6.5t-23.5 20t-10.5 21.5t-5.5 22q-98 -70 -161 -70q-38 0 -68.5 22.5t-30.5 62.5q0 44 42 82t142 79l76 31v20q0 53 -17.5 80t-73.5 27q-73 0 -82 -43q-2 -13 -3.5 -18.5t-6 -16t-12.5 -15.5t-20 -5t-21 7.5
t-9 20.5q0 29 41 60.5t122 31.5q43 0 74 -10.5t45.5 -24t22.5 -36t9 -35.5t1 -34v-162q0 -27 0.5 -39t3.5 -26t9.5 -18.5t17.5 -4.5q33 0 41 47zM299 86v158l-53 -22q-126 -51 -126 -128q0 -28 15 -48.5t43 -20.5q47 0 121 61zM179 472h-19l56 96q20 33 32.5 45.5t29.5 12.5
q12 0 21.5 -8.5t9.5 -20.5q0 -17 -34 -46z" />
    <glyph glyph-name="acircumflex" unicode="&#xe2;" horiz-adv-x="469" 
d="M441 73h18q-2 -36 -22.5 -59.5t-59.5 -23.5q-23 0 -38.5 6.5t-23.5 20t-10.5 21.5t-5.5 22q-98 -70 -161 -70q-38 0 -68.5 22.5t-30.5 62.5q0 44 42 82t142 79l76 31v20q0 53 -17.5 80t-73.5 27q-73 0 -82 -43q-2 -13 -3.5 -18.5t-6 -16t-12.5 -15.5t-20 -5t-21 7.5
t-9 20.5q0 29 41 60.5t122 31.5q43 0 74 -10.5t45.5 -24t22.5 -36t9 -35.5t1 -34v-162q0 -27 0.5 -39t3.5 -26t9.5 -18.5t17.5 -4.5q33 0 41 47zM299 86v158l-53 -22q-126 -51 -126 -128q0 -28 15 -48.5t43 -20.5q47 0 121 61zM172 616h76l103 -145h-22l-120 95l-120 -95
h-20z" />
    <glyph glyph-name="atilde" unicode="&#xe3;" horiz-adv-x="469" 
d="M441 73h18q-2 -36 -22.5 -59.5t-59.5 -23.5q-23 0 -38.5 6.5t-23.5 20t-10.5 21.5t-5.5 22q-98 -70 -161 -70q-38 0 -68.5 22.5t-30.5 62.5q0 44 42 82t142 79l76 31v20q0 53 -17.5 80t-73.5 27q-73 0 -82 -43q-2 -13 -3.5 -18.5t-6 -16t-12.5 -15.5t-20 -5t-21 7.5
t-9 20.5q0 29 41 60.5t122 31.5q43 0 74 -10.5t45.5 -24t22.5 -36t9 -35.5t1 -34v-162q0 -27 0.5 -39t3.5 -26t9.5 -18.5t17.5 -4.5q33 0 41 47zM299 86v158l-53 -22q-126 -51 -126 -128q0 -28 15 -48.5t43 -20.5q47 0 121 61zM348 579h17q0 -19 -4.5 -40t-24.5 -44t-54 -23
q-14 0 -28.5 4t-23 8.5t-20.5 11t-15 8.5q-5 2 -19 10.5t-25.5 13t-22.5 4.5q-37 0 -48 -60h-16q8 107 85 107q28 0 82 -29q4 -2 16 -9t18.5 -10.5t17 -7t18.5 -3.5q22 0 34 18t13 41z" />
    <glyph glyph-name="adieresis" unicode="&#xe4;" horiz-adv-x="469" 
d="M441 73h18q-2 -36 -22.5 -59.5t-59.5 -23.5q-23 0 -38.5 6.5t-23.5 20t-10.5 21.5t-5.5 22q-98 -70 -161 -70q-38 0 -68.5 22.5t-30.5 62.5q0 44 42 82t142 79l76 31v20q0 53 -17.5 80t-73.5 27q-73 0 -82 -43q-2 -13 -3.5 -18.5t-6 -16t-12.5 -15.5t-20 -5t-21 7.5
t-9 20.5q0 29 41 60.5t122 31.5q43 0 74 -10.5t45.5 -24t22.5 -36t9 -35.5t1 -34v-162q0 -27 0.5 -39t3.5 -26t9.5 -18.5t17.5 -4.5q33 0 41 47zM299 86v158l-53 -22q-126 -51 -126 -128q0 -28 15 -48.5t43 -20.5q47 0 121 61zM333 512q0 -16 -11.5 -27.5t-27.5 -11.5
t-27.5 11.5t-11.5 27.5t11.5 27.5t27.5 11.5t27.5 -11.5t11.5 -27.5zM155 512q0 -16 -11.5 -27.5t-27.5 -11.5t-27.5 11.5t-11.5 27.5t11.5 27.5t27.5 11.5t27.5 -11.5t11.5 -27.5z" />
    <glyph glyph-name="aring" unicode="&#xe5;" horiz-adv-x="469" 
d="M441 73h18q-2 -36 -22.5 -59.5t-59.5 -23.5q-23 0 -38.5 6.5t-23.5 20t-10.5 21.5t-5.5 22q-98 -70 -161 -70q-38 0 -68.5 22.5t-30.5 62.5q0 44 42 82t142 79l76 31v20q0 53 -17.5 80t-73.5 27q-73 0 -82 -43q-2 -13 -3.5 -18.5t-6 -16t-12.5 -15.5t-20 -5t-21 7.5
t-9 20.5q0 29 41 60.5t122 31.5q43 0 74 -10.5t45.5 -24t22.5 -36t9 -35.5t1 -34v-162q0 -27 0.5 -39t3.5 -26t9.5 -18.5t17.5 -4.5q33 0 41 47zM299 86v158l-53 -22q-126 -51 -126 -128q0 -28 15 -48.5t43 -20.5q47 0 121 61zM306 564q0 -38 -27 -65t-65 -27t-65 27t-27 65
t27 64.5t65 26.5t65 -26.5t27 -64.5zM213 628q-26 0 -44 -19t-18 -45q0 -27 18.5 -45.5t45.5 -18.5q26 0 44.5 18.5t18.5 44.5q0 28 -19 46.5t-46 18.5z" />
    <glyph glyph-name="ae" unicode="&#xe6;" horiz-adv-x="625" 
d="M599 264h-272v-66q0 -188 122 -188q39 0 72 21.5t50 57.5l19 -7q-43 -98 -160 -98q-107 0 -160 93q-63 -93 -138 -93q-42 0 -71.5 29.5t-29.5 68.5q0 57 54.5 99t173.5 83v21q0 60 -15.5 84.5t-60.5 24.5q-14 0 -24.5 -2t-18 -6t-12.5 -7t-8.5 -9.5t-5 -9.5t-4 -10
t-2.5 -8t-1.5 -6t-3 -8.5t-5 -9t-7 -9t-9.5 -6t-13 -2.5q-31 0 -31 28q0 31 45.5 59t104.5 28q12 0 23.5 -1t21 -3.5t17.5 -4.5t16 -6.5t13 -7t11.5 -7.5t9 -7t8 -6.5t6.5 -5.5q51 49 116 49q63 0 109.5 -37.5t59.5 -114.5zM327 284h188q-1 14 -3.5 28t-10.5 35t-27.5 34
t-48.5 13q-44 0 -69 -31t-29 -79zM259 98v145q-51 -17 -84.5 -36t-47.5 -38t-18.5 -32.5t-4.5 -30.5q0 -38 20.5 -58t44.5 -20q41 0 90 70z" />
    <glyph glyph-name="ccedilla" unicode="&#xe7;" horiz-adv-x="427" 
d="M240 -16l-7 -42q46 -1 72.5 -24t26.5 -59q0 -37 -31.5 -66t-95.5 -29q-44 0 -77 12l7 19q29 -9 59 -9q43 0 61.5 18.5t18.5 40.5t-18 39t-54 17l16 83q-77 5 -130 62.5t-53 148.5q0 95 61.5 158t149.5 63q63 0 101.5 -22.5t38.5 -56.5q0 -15 -8.5 -24t-22.5 -9
q-19 0 -27 9.5t-13 32.5q-5 24 -19.5 35t-47.5 11q-132 0 -132 -179q0 -34 5.5 -65.5t19.5 -64.5t44.5 -53t74.5 -20q96 0 122 87h21q-31 -111 -163 -113z" />
    <glyph glyph-name="egrave" unicode="&#xe8;" horiz-adv-x="438" 
d="M399 264h-279q-2 -28 -2 -47q0 -207 131 -207q89 0 127 80h23q-2 -8 -10.5 -23t-26 -35t-51 -34t-75.5 -14q-75 0 -137 56t-62 157q0 94 55.5 156.5t139.5 62.5q74 0 119.5 -45.5t47.5 -106.5zM122 284h191q2 12 2 20q0 46 -26 68t-61 22q-89 0 -106 -110zM275 472
l-96 79q-34 29 -34 46q0 12 9.5 20.5t21.5 8.5q17 0 29.5 -12.5t32.5 -45.5l56 -96h-19z" />
    <glyph glyph-name="eacute" unicode="&#xe9;" horiz-adv-x="438" 
d="M399 264h-279q-2 -28 -2 -47q0 -207 131 -207q89 0 127 80h23q-2 -8 -10.5 -23t-26 -35t-51 -34t-75.5 -14q-75 0 -137 56t-62 157q0 94 55.5 156.5t139.5 62.5q74 0 119.5 -45.5t47.5 -106.5zM122 284h191q2 12 2 20q0 46 -26 68t-61 22q-89 0 -106 -110zM184 472h-19
l56 96q20 33 32.5 45.5t29.5 12.5q12 0 21.5 -8.5t9.5 -20.5q0 -17 -34 -46z" />
    <glyph glyph-name="ecircumflex" unicode="&#xea;" horiz-adv-x="438" 
d="M399 264h-279q-2 -28 -2 -47q0 -207 131 -207q89 0 127 80h23q-2 -8 -10.5 -23t-26 -35t-51 -34t-75.5 -14q-75 0 -137 56t-62 157q0 94 55.5 156.5t139.5 62.5q74 0 119.5 -45.5t47.5 -106.5zM122 284h191q2 12 2 20q0 46 -26 68t-61 22q-89 0 -106 -110zM202 616h76
l103 -145h-22l-120 95l-120 -95h-20z" />
    <glyph glyph-name="edieresis" unicode="&#xeb;" horiz-adv-x="438" 
d="M399 264h-279q-2 -28 -2 -47q0 -207 131 -207q89 0 127 80h23q-2 -8 -10.5 -23t-26 -35t-51 -34t-75.5 -14q-75 0 -137 56t-62 157q0 94 55.5 156.5t139.5 62.5q74 0 119.5 -45.5t47.5 -106.5zM122 284h191q2 12 2 20q0 46 -26 68t-61 22q-89 0 -106 -110zM368 512
q0 -16 -11 -27.5t-28 -11.5t-28 11.5t-11 27.5t11.5 27.5t27.5 11.5t27.5 -11.5t11.5 -27.5zM190 512q0 -16 -11.5 -27.5t-27.5 -11.5q-17 0 -28 11.5t-11 27.5t11.5 27.5t27.5 11.5t27.5 -11.5t11.5 -27.5z" />
    <glyph glyph-name="igrave" unicode="&#xec;" horiz-adv-x="250" 
d="M161 416v-279q0 -77 4 -90q10 -25 51 -25h15v-22h-216v22h17q36 0 47.5 13t11.5 63v160q0 45 -1 64.5t-11.5 31.5t-21.5 13t-42 1v22q51 2 136 26h10zM161 472l-96 79q-34 29 -34 46q0 12 9.5 20.5t21.5 8.5q17 0 29.5 -12.5t32.5 -45.5l56 -96h-19z" />
    <glyph glyph-name="iacute" unicode="&#xed;" horiz-adv-x="250" 
d="M161 416v-279q0 -77 4 -90q10 -25 51 -25h15v-22h-216v22h17q36 0 47.5 13t11.5 63v160q0 45 -1 64.5t-11.5 31.5t-21.5 13t-42 1v22q51 2 136 26h10zM70 472h-19l56 96q20 33 32.5 45.5t29.5 12.5q12 0 21.5 -8.5t9.5 -20.5q0 -17 -34 -46z" />
    <glyph glyph-name="icircumflex" unicode="&#xee;" horiz-adv-x="250" 
d="M161 416v-279q0 -77 4 -90q10 -25 51 -25h15v-22h-216v22h17q36 0 47.5 13t11.5 63v160q0 45 -1 64.5t-11.5 31.5t-21.5 13t-42 1v22q51 2 136 26h10zM88 616h76l103 -145h-22l-120 95l-120 -95h-20z" />
    <glyph glyph-name="idieresis" unicode="&#xef;" horiz-adv-x="250" 
d="M161 416v-279q0 -77 4 -90q10 -25 51 -25h15v-22h-216v22h17q36 0 47.5 13t11.5 63v160q0 45 -1 64.5t-11.5 31.5t-21.5 13t-42 1v22q51 2 136 26h10zM254 512q0 -16 -11 -27.5t-28 -11.5t-28 11.5t-11 27.5t11.5 27.5t27.5 11.5t27.5 -11.5t11.5 -27.5zM76 512
q0 -16 -11.5 -27.5t-27.5 -11.5q-17 0 -28 11.5t-11 27.5t11.5 27.5t27.5 11.5t27.5 -11.5t11.5 -27.5z" />
    <glyph glyph-name="eth" unicode="&#xf0;" horiz-adv-x="500" 
d="M284 597l78 49l11 -19l-72 -45q163 -172 163 -356q0 -63 -21 -112t-55 -76t-70 -40.5t-71 -13.5q-84 0 -147 57.5t-63 156.5q0 103 65.5 160.5t142.5 57.5q68 0 113 -49q-18 63 -37.5 99t-61.5 90l-93 -58l-12 18l91 57q-38 46 -86 78l21 21q52 -29 104 -75zM118 198
q0 -39 5 -69.5t18.5 -59.5t41 -45t67.5 -16q34 0 59.5 12t39 30t21.5 44.5t10.5 50t2.5 52.5q0 91 -29.5 143t-103.5 52q-72 0 -102 -50t-30 -144z" />
    <glyph glyph-name="ntilde" unicode="&#xf1;" horiz-adv-x="531" 
d="M137 416h13q10 -30 13 -83q76 83 154 83q64 0 94.5 -37.5t30.5 -93.5v-148q0 -83 8.5 -99t57.5 -16v-22h-205v22q51 0 60 16t9 99v129q0 120 -81 120q-10 0 -20.5 -2.5t-18 -5t-18.5 -10t-15.5 -10.5t-15.5 -14.5t-13.5 -13.5t-14 -15.5t-12.5 -14.5v-163q0 -83 8.5 -99
t57.5 -16v-22h-202v22q49 0 57.5 16t8.5 99v119q0 83 -8.5 99t-57.5 16v22q84 12 110 23zM399 579h17q0 -19 -4.5 -40t-24.5 -44t-54 -23q-14 0 -28.5 4t-23 8.5t-20.5 11t-15 8.5q-5 2 -19 10.5t-25.5 13t-22.5 4.5q-37 0 -48 -60h-16q8 107 85 107q28 0 82 -29q4 -2 16 -9
t18.5 -10.5t17 -7t18.5 -3.5q22 0 34 18t13 41z" />
    <glyph glyph-name="ograve" unicode="&#xf2;" horiz-adv-x="500" 
d="M37 201q0 92 61.5 153.5t151.5 61.5t152 -61t62 -155q0 -101 -63.5 -158.5t-150.5 -57.5q-84 0 -148.5 56.5t-64.5 160.5zM118 198q0 -29 2 -51.5t10 -50t21.5 -45.5t39 -30.5t59.5 -12.5t59.5 12t39 30t21.5 44.5t10.5 50t2.5 52.5q0 91 -29.5 143t-103.5 52
q-73 0 -102.5 -51.5t-29.5 -142.5zM306 472l-96 79q-34 29 -34 46q0 12 9.5 20.5t21.5 8.5q17 0 29.5 -12.5t32.5 -45.5l56 -96h-19z" />
    <glyph glyph-name="oacute" unicode="&#xf3;" horiz-adv-x="500" 
d="M37 201q0 92 61.5 153.5t151.5 61.5t152 -61t62 -155q0 -101 -63.5 -158.5t-150.5 -57.5q-84 0 -148.5 56.5t-64.5 160.5zM118 198q0 -29 2 -51.5t10 -50t21.5 -45.5t39 -30.5t59.5 -12.5t59.5 12t39 30t21.5 44.5t10.5 50t2.5 52.5q0 91 -29.5 143t-103.5 52
q-73 0 -102.5 -51.5t-29.5 -142.5zM195 472h-19l56 96q20 33 32.5 45.5t29.5 12.5q12 0 21.5 -8.5t9.5 -20.5q0 -17 -34 -46z" />
    <glyph glyph-name="ocircumflex" unicode="&#xf4;" horiz-adv-x="500" 
d="M37 201q0 92 61.5 153.5t151.5 61.5t152 -61t62 -155q0 -101 -63.5 -158.5t-150.5 -57.5q-84 0 -148.5 56.5t-64.5 160.5zM118 198q0 -29 2 -51.5t10 -50t21.5 -45.5t39 -30.5t59.5 -12.5t59.5 12t39 30t21.5 44.5t10.5 50t2.5 52.5q0 91 -29.5 143t-103.5 52
q-73 0 -102.5 -51.5t-29.5 -142.5zM213 616h76l103 -145h-22l-120 95l-120 -95h-20z" />
    <glyph glyph-name="otilde" unicode="&#xf5;" horiz-adv-x="500" 
d="M37 201q0 92 61.5 153.5t151.5 61.5t152 -61t62 -155q0 -101 -63.5 -158.5t-150.5 -57.5q-84 0 -148.5 56.5t-64.5 160.5zM118 198q0 -29 2 -51.5t10 -50t21.5 -45.5t39 -30.5t59.5 -12.5t59.5 12t39 30t21.5 44.5t10.5 50t2.5 52.5q0 91 -29.5 143t-103.5 52
q-73 0 -102.5 -51.5t-29.5 -142.5zM384 579h17q0 -19 -4.5 -40t-24.5 -44t-54 -23q-14 0 -28.5 4t-23 8.5t-20.5 11t-15 8.5q-5 2 -19 10.5t-25.5 13t-22.5 4.5q-37 0 -48 -60h-16q8 107 85 107q28 0 82 -29q4 -2 16 -9t18.5 -10.5t17 -7t18.5 -3.5q22 0 34 18t13 41z" />
    <glyph glyph-name="odieresis" unicode="&#xf6;" horiz-adv-x="500" 
d="M37 201q0 92 61.5 153.5t151.5 61.5t152 -61t62 -155q0 -101 -63.5 -158.5t-150.5 -57.5q-84 0 -148.5 56.5t-64.5 160.5zM118 198q0 -29 2 -51.5t10 -50t21.5 -45.5t39 -30.5t59.5 -12.5t59.5 12t39 30t21.5 44.5t10.5 50t2.5 52.5q0 91 -29.5 143t-103.5 52
q-73 0 -102.5 -51.5t-29.5 -142.5zM379 512q0 -16 -11.5 -27.5t-27.5 -11.5t-27.5 11.5t-11.5 27.5t11.5 27.5t27.5 11.5t27.5 -11.5t11.5 -27.5zM201 512q0 -16 -11.5 -27.5t-27.5 -11.5t-27.5 11.5t-11.5 27.5t11.5 27.5t27.5 11.5t27.5 -11.5t11.5 -27.5z" />
    <glyph glyph-name="divide" unicode="&#xf7;" horiz-adv-x="668" 
d="M333 151q-14 0 -24.5 -10.5t-10.5 -24.5t10.5 -24.5t24.5 -10.5t24.5 10.5t10.5 24.5t-10.5 24.5t-24.5 10.5zM333 559q-14 0 -24.5 -10.5t-10.5 -24.5t10.5 -24.5t24.5 -10.5t24.5 10.5t10.5 24.5t-10.5 24.5t-24.5 10.5zM69 346h528v-52h-528v52z" />
    <glyph glyph-name="oslash" unicode="&#xf8;" horiz-adv-x="500" 
d="M380 376l49 55l18 -16l-49 -57q66 -64 66 -158q0 -97 -61 -156.5t-153 -59.5q-77 0 -136 46l-52 -60l-18 15l52 61q-59 53 -59 155q0 89 60.5 152t152.5 63q76 0 130 -40zM131 86l222 256q-31 50 -103 50q-73 0 -102.5 -50.5t-29.5 -143.5q0 -75 13 -112zM365 319
l-221 -257q31 -54 106 -54q33 0 57 11t38.5 28.5t23 43t11.5 51t3 56.5q0 77 -18 121z" />
    <glyph glyph-name="ugrave" unicode="&#xf9;" horiz-adv-x="521" 
d="M435 400v-262q0 -82 8 -99t53 -17v-22q-74 0 -107 -16h-7q-17 31 -17 96q-22 -39 -62.5 -67.5t-90.5 -28.5q-124 0 -124 134v145q0 83 -8.5 99t-57.5 16v22h136v-277q0 -22 1.5 -35t8 -32t23.5 -28.5t44 -9.5q10 0 24 3t33 13t35 25t27 41.5t11 60.5v102q0 84 -9 99.5
t-61 15.5v22h140zM301 472l-96 79q-34 29 -34 46q0 12 9.5 20.5t21.5 8.5q17 0 29.5 -12.5t32.5 -45.5l56 -96h-19z" />
    <glyph glyph-name="uacute" unicode="&#xfa;" horiz-adv-x="521" 
d="M435 400v-262q0 -82 8 -99t53 -17v-22q-74 0 -107 -16h-7q-17 31 -17 96q-22 -39 -62.5 -67.5t-90.5 -28.5q-124 0 -124 134v145q0 83 -8.5 99t-57.5 16v22h136v-277q0 -22 1.5 -35t8 -32t23.5 -28.5t44 -9.5q10 0 24 3t33 13t35 25t27 41.5t11 60.5v102q0 84 -9 99.5
t-61 15.5v22h140zM225 472h-19l56 96q20 33 32.5 45.5t29.5 12.5q12 0 21.5 -8.5t9.5 -20.5q0 -17 -34 -46z" />
    <glyph glyph-name="ucircumflex" unicode="&#xfb;" horiz-adv-x="521" 
d="M435 400v-262q0 -82 8 -99t53 -17v-22q-74 0 -107 -16h-7q-17 31 -17 96q-22 -39 -62.5 -67.5t-90.5 -28.5q-124 0 -124 134v145q0 83 -8.5 99t-57.5 16v22h136v-277q0 -22 1.5 -35t8 -32t23.5 -28.5t44 -9.5q10 0 24 3t33 13t35 25t27 41.5t11 60.5v102q0 84 -9 99.5
t-61 15.5v22h140zM223 616h76l103 -145h-22l-120 95l-120 -95h-20z" />
    <glyph glyph-name="udieresis" unicode="&#xfc;" horiz-adv-x="521" 
d="M435 400v-262q0 -82 8 -99t53 -17v-22q-74 0 -107 -16h-7q-17 31 -17 96q-22 -39 -62.5 -67.5t-90.5 -28.5q-124 0 -124 134v145q0 83 -8.5 99t-57.5 16v22h136v-277q0 -22 1.5 -35t8 -32t23.5 -28.5t44 -9.5q10 0 24 3t33 13t35 25t27 41.5t11 60.5v102q0 84 -9 99.5
t-61 15.5v22h140zM389 512q0 -16 -11.5 -27.5t-27.5 -11.5t-27.5 11.5t-11.5 27.5t11.5 27.5t27.5 11.5t27.5 -11.5t11.5 -27.5zM211 512q0 -16 -11.5 -27.5t-27.5 -11.5t-27.5 11.5t-11.5 27.5t11.5 27.5t27.5 11.5t27.5 -11.5t11.5 -27.5z" />
    <glyph glyph-name="yacute" unicode="&#xfd;" horiz-adv-x="458" 
d="M262 75l99 238q14 32 14 39q0 26 -54 26v22h140v-22q-35 -2 -49.5 -19.5t-35.5 -68.5l-178 -430q-22 -53 -42 -79.5t-47 -26.5q-13 0 -22 7.5t-9 21.5q0 33 51 56q28 12 38.5 21.5t20.5 34.5l38 95l-150 322q-19 41 -32 53t-46 13v22h184v-22q-14 -1 -19 -1.5t-14 -2.5
t-12.5 -6t-3.5 -10t19 -49zM194 472h-19l56 96q20 33 32.5 45.5t29.5 12.5q12 0 21.5 -8.5t9.5 -20.5q0 -17 -34 -46z" />
    <glyph glyph-name="thorn" unicode="&#xfe;" horiz-adv-x="521" 
d="M135 672h13v-322q64 66 144 66q82 0 137.5 -58t55.5 -152q0 -93 -54.5 -157.5t-147.5 -64.5q-44 0 -73.5 15t-61.5 44v-152q0 -83 8.5 -99t57.5 -16v-22h-209v22h14q43 0 51 17t8 98v618q0 81 -8 98.5t-51 17.5h-14v22q62 4 130 25zM148 319v-244q53 -65 118 -65
q14 0 28 3t35 15t36.5 32t27 58.5t11.5 90.5q0 46 -11.5 80.5t-27 52.5t-36 28.5t-34 13t-25.5 2.5q-65 0 -122 -67z" />
    <glyph glyph-name="ydieresis" unicode="&#xff;" horiz-adv-x="458" 
d="M262 75l99 238q14 32 14 39q0 26 -54 26v22h140v-22q-35 -2 -49.5 -19.5t-35.5 -68.5l-178 -430q-22 -53 -42 -79.5t-47 -26.5q-13 0 -22 7.5t-9 21.5q0 33 51 56q28 12 38.5 21.5t20.5 34.5l38 95l-150 322q-19 41 -32 53t-46 13v22h184v-22q-14 -1 -19 -1.5t-14 -2.5
t-12.5 -6t-3.5 -10t19 -49zM358 512q0 -16 -11 -27.5t-28 -11.5t-28 11.5t-11 27.5t11.5 27.5t27.5 11.5t27.5 -11.5t11.5 -27.5zM180 512q0 -16 -11.5 -27.5t-27.5 -11.5q-17 0 -28 11.5t-11 27.5t11.5 27.5t27.5 11.5t27.5 -11.5t11.5 -27.5z" />
    <glyph glyph-name="dotlessi" unicode="&#x131;" horiz-adv-x="250" 
d="M161 416v-279q0 -77 4 -90q10 -25 51 -25h15v-22h-216v22h17q36 0 47.5 13t11.5 63v160q0 45 -1 64.5t-11.5 31.5t-21.5 13t-42 1v22q51 2 136 26h10z" />
    <glyph glyph-name="Lslash" unicode="&#x141;" horiz-adv-x="604" 
d="M228 366v-215q0 -36 0.5 -50.5t3.5 -33.5t8 -24.5t17.5 -12t28 -7.5t41.5 -1h50q88 0 125 31t71 142h22l-4 -195h-563v22h20q60 0 72 24t12 126v116l-97 -80v33l97 79v177q0 39 -0.5 57.5t-3.5 38.5t-7.5 26.5t-16 13t-24.5 7t-37 0.5h-15v22h318v-22h-29q-24 0 -37 -0.5
t-24.5 -7t-16 -12.5t-7.5 -26.5t-3.5 -38.5t-0.5 -58v-98l132 109v-32z" />
    <glyph glyph-name="lslash" unicode="&#x142;" horiz-adv-x="240" 
d="M155 307v-170q0 -85 9 -100t62 -15v-22h-214v22h13q43 0 51.5 17.5t8.5 97.5v115l-84 -65v32l84 66v248q0 61 -10 78.5t-57 17.5v22q74 2 130 21h7v-333l83 65v-32z" />
    <glyph glyph-name="OE" unicode="&#x152;" horiz-adv-x="938" 
d="M904 209l-14 -209h-332q-19 0 -54 -0.5t-50 -0.5q-64 -2 -81 -2q-78 0 -142 29.5t-103 77t-60 105t-21 116.5q0 41 10 84t35.5 90t63 83.5t98 60t135.5 23.5q9 0 67 -2q60 -2 78 -2h293l13 -159h-23q-11 49 -25 78.5t-34.5 41.5t-35 14.5t-44.5 2.5h-125v-278h73
q50 0 66 19.5t16 86.5h23v-234h-23q0 71 -16 88.5t-66 17.5h-73v-154v-52t2 -38.5t4 -29.5t7.5 -19.5t11 -13.5t17 -6.5t23 -4t30.5 -0.5h51q38 0 60.5 5t47.5 22.5t42.5 56.5t32.5 103h22zM457 103v471q0 32 -15 50t-64 18q-41 0 -77.5 -15.5t-69.5 -49t-52.5 -95
t-19.5 -143.5q0 -36 4 -72t17 -82.5t34.5 -81.5t60.5 -59t91 -24q91 0 91 83z" />
    <glyph glyph-name="oe" unicode="&#x153;" horiz-adv-x="771" 
d="M744 264h-291q-5 -29 -5 -68q0 -50 13.5 -87.5t30.5 -55.5t40.5 -28.5t36.5 -12.5t25 -2q41 0 75.5 21t50.5 59l20 -7q-19 -49 -65.5 -74t-94.5 -25q-43 0 -87 20.5t-72 61.5q-63 -82 -173 -82q-92 0 -151.5 63t-59.5 151q0 96 65 157t150 61q104 0 169 -75q66 75 154 75
q64 0 111 -41.5t58 -110.5zM660 284q-1 48 -26 79t-70 31q-43 0 -70 -31.5t-37 -78.5h203zM118 173q0 -77 31 -122t99 -45q32 0 56 10t38 30t22.5 37.5t11.5 45t3.5 39.5t0.5 34q0 95 -26 138q-33 53 -105 54q-32 0 -55.5 -10.5t-37.5 -31.5t-22.5 -39.5t-11.5 -48t-3.5 -44
t-0.5 -38.5v-9z" />
    <glyph glyph-name="Scaron" unicode="&#x160;" horiz-adv-x="542" 
d="M58 7v213h24q41 -208 197 -208q65 0 106 38t41 91q0 14 -3 26.5t-7 23t-13.5 21t-15.5 17.5t-19 15.5t-19.5 13t-22.5 12t-21 10t-22 10t-20 8.5q-33 15 -51 23.5t-45.5 24t-42.5 30t-31 34.5t-23 45t-7 55q0 68 48 116t127 48q40 0 73.5 -13.5t48 -25.5t31.5 -31
q21 25 26 58h21v-173h-21q-21 83 -70 122t-106 39q-53 0 -83.5 -29.5t-30.5 -71.5q0 -28 12.5 -51t39.5 -41.5t48.5 -29.5t58.5 -27q46 -20 72 -32.5t56.5 -32.5t45.5 -40.5t25.5 -49.5t10.5 -66q0 -80 -52.5 -135.5t-155.5 -55.5q-110 0 -182 83q-16 -24 -24 -64h-24z
M308 721h-76l-102 145h21l120 -96l120 96h21z" />
    <glyph glyph-name="scaron" unicode="&#x161;" 
d="M41 -12v131h19q9 -43 39.5 -78t78.5 -35q42 0 58 24t16 47q0 19 -6.5 33t-23 26.5t-29 19.5t-38.5 20q-20 10 -30.5 16t-29 18.5t-28 24.5t-17.5 30.5t-8 39.5q0 41 29 76t78 35q51 0 87 -42q3 4 19 35h18v-124h-18q-8 38 -34.5 73.5t-69.5 35.5q-30 0 -47.5 -18.5
t-17.5 -42.5q0 -16 7.5 -29.5t23.5 -25t28 -17.5t35 -17q27 -12 42.5 -21t36.5 -25.5t31 -40.5t10 -55q0 -51 -34 -84.5t-87 -33.5q-24 0 -44 7.5t-29 15t-25 22.5q-16 -17 -21 -41h-19zM203 471h-76l-102 145h21l120 -96l120 96h21z" />
    <glyph glyph-name="Ydieresis" unicode="&#x178;" horiz-adv-x="677" 
d="M377 290l141 238q21 33 21 57q0 55 -78 55v22h216v-22q-25 -4 -44 -13t-37 -29t-29 -37t-32 -52l-148 -249v-88v-4q0 -102 12.5 -124t79.5 -22v-22h-282v22h25.5t20.5 3t16 3.5t12 7.5t9 10t5.5 15.5t3.5 18t1.5 25t0.5 30v37.5v82l-174 285q-41 67 -59 84t-58 17v22h268
v-22q-75 0 -75 -34q0 -14 25 -55zM467 762q0 -16 -11.5 -27.5t-27.5 -11.5t-27.5 11.5t-11.5 27.5t11.5 27.5t27.5 11.5t27.5 -11.5t11.5 -27.5zM289 762q0 -16 -11.5 -27.5t-27.5 -11.5t-27.5 11.5t-11.5 27.5t11.5 27.5t27.5 11.5t27.5 -11.5t11.5 -27.5z" />
    <glyph glyph-name="Zcaron" unicode="&#x17d;" horiz-adv-x="635" 
d="M30 0v17l428 623h-206h-12q-37 0 -53 -2t-38 -14t-38 -39t-34 -75h-20l21 152h492v-22l-422 -618h201q45 0 68.5 2t48 9.5t39.5 24t30 43t31 70.5h22l-22 -171h-536zM354 721h-76l-102 145h21l120 -96l120 96h21z" />
    <glyph glyph-name="zcaron" unicode="&#x17e;" horiz-adv-x="427" 
d="M33 0v15l265 363h-145q-24 0 -35.5 -3.5t-26 -23t-28.5 -62.5h-18l6 111h335v-18l-264 -360h109q35 0 50 1.5t34 11.5t31.5 31.5t27.5 60.5h19l-12 -127h-348zM250 471h-76l-102 145h21l120 -96l120 96h21z" />
    <glyph glyph-name="florin" unicode="&#x192;" horiz-adv-x="488" 
d="M338 399h89l-8 -33h-88l-47 -209q-28 -125 -72 -251q-22 -64 -63 -112.5t-93 -48.5q-25 0 -43 14t-18 39q0 19 12 31.5t27 12.5q11 0 21.5 -8.5t10.5 -20.5q0 -7 -5.5 -16t-5.5 -13q0 -9 14 -9q50 0 81 149q41 205 43 213l56 229h-88l8 33q60 4 76 16t37 74
q14 39 24 62.5t27 51t40 40.5t52 13q27 0 48 -14.5t21 -42.5q0 -18 -10.5 -28t-23.5 -10q-12 0 -21.5 8.5t-9.5 19.5q0 7 5 16.5t5 14.5q0 12 -17 12q-44 0 -57 -78z" />
    <glyph glyph-name="circumflex" unicode="&#x2c6;" 
d="M129 618h76l103 -145h-22l-120 95l-120 -95h-20z" />
    <glyph glyph-name="caron" unicode="&#x2c7;" 
d="M203 473h-76l-102 145h21l120 -96l120 96h21z" />
    <glyph glyph-name="uni02C9" unicode="&#x2c9;" 
d="M17 519h299v-45h-299v45z" />
    <glyph glyph-name="breve" unicode="&#x2d8;" 
d="M34 609h21q8 -32 37.5 -53.5t71.5 -21.5q88 0 115 75h20q-6 -72 -47.5 -103.5t-85.5 -31.5q-50 0 -87.5 35.5t-44.5 99.5z" />
    <glyph glyph-name="dotaccent" unicode="&#x2d9;" 
d="M214 520q0 -20 -14 -34t-34 -14t-34 14t-14 34t14 34t34 14t34 -14t14 -34z" />
    <glyph glyph-name="ring" unicode="&#x2da;" 
d="M258 566q0 -38 -27 -65t-65 -27t-65 27t-27 65t27 64.5t65 26.5t65 -26.5t27 -64.5zM165 630q-26 0 -44 -19t-18 -45q0 -27 18.5 -45.5t45.5 -18.5q26 0 44.5 18.5t18.5 44.5q0 28 -19 46.5t-46 18.5z" />
    <glyph glyph-name="ogonek" unicode="&#x2db;" 
d="M100 8h21q-20 -33 -20 -58q0 -35 27 -64.5t82 -29.5q24 0 56 10l9 -16q-54 -31 -109 -31q-51 0 -79.5 27.5t-28.5 64.5q0 43 42 97z" />
    <glyph glyph-name="tilde" unicode="&#x2dc;" 
d="M300 581h17q0 -19 -4.5 -40t-24.5 -44t-54 -23q-14 0 -28.5 4t-23 8.5t-20.5 11t-15 8.5q-5 2 -19 10.5t-25.5 13t-22.5 4.5q-37 0 -48 -60h-16q8 107 85 107q28 0 82 -29q4 -2 16 -9t18.5 -10.5t17 -7t18.5 -3.5q22 0 34 18t13 41z" />
    <glyph glyph-name="hungarumlaut" unicode="&#x2dd;" 
d="M181 474h-19l50 97q29 57 58 57q11 0 21 -6t10 -20q0 -13 -7 -22.5t-30 -30.5zM53 474h-19l51 97q10 19 16 28.5t17.5 19t24.5 9.5q10 0 20.5 -6t10.5 -20q0 -13 -7 -22t-31 -31z" />
    <glyph glyph-name="uni03A9" unicode="&#x3a9;" horiz-adv-x="656" 
d="M613 0h-227v118q66 35 99.5 113.5t33.5 162.5q0 129 -48.5 207t-141.5 78q-96 0 -145 -79t-49 -206q0 -91 37.5 -172.5t102.5 -107.5v-114h-232v136h23q0 -40 10 -58t48 -18h113v31q-78 32 -132 113t-54 187q0 149 77 235t201 86q125 0 201 -92t76 -220
q0 -58 -18.5 -116.5t-61.5 -111.5t-102 -78v-34h107q38 0 48 18t10 58h24v-136z" />
    <glyph glyph-name="uni03BC" unicode="&#x3bc;" horiz-adv-x="500" 
d="M62 400h70v-213q0 -33 1 -50.5t5 -38t12.5 -30t23.5 -16t38 -6.5q29 0 62.5 17.5t61.5 48.5v288h71v-272q0 -26 0.5 -38t3.5 -26.5t10.5 -19.5t19.5 -5q31 0 39 60h20q-11 -113 -97 -113q-37 0 -50.5 24t-16.5 69q-81 -93 -163 -93q-47 0 -77 44q-1 -81 17 -172
q7 -38 7 -50q0 -22 -13 -38t-33 -16q-21 0 -32 17t-11 37q0 17 7 47q24 101 24 179v366z" />
    <glyph glyph-name="pi" unicode="&#x3c0;" horiz-adv-x="429" 
d="M407 90q-19 -102 -70 -102q-31 0 -47 31q-17 31 -17 124v274h-102v-200q0 -146 -29 -194q-22 -35 -55 -35q-11 0 -20 9t-9 21q0 26 31 37q29 8 37.5 52t8.5 131v179h-23q-25 0 -39.5 -15t-21.5 -52l-22 6q2 60 26 93t68 33h273v-65h-87v-244q0 -70 11 -100q9 -28 28 -28
q25 0 42 58z" />
    <glyph glyph-name="figuredash" unicode="&#x2012;" horiz-adv-x="500" 
d="M-6 320h512v-22h-512v22z" />
    <glyph glyph-name="endash" unicode="&#x2013;" horiz-adv-x="500" 
d="M-6 261h512v-22h-512v22z" />
    <glyph glyph-name="emdash" unicode="&#x2014;" horiz-adv-x="1000" 
d="M-6 261h1012v-22h-1012v22z" />
    <glyph glyph-name="quoteleft" unicode="&#x2018;" horiz-adv-x="250" 
d="M189 665v-26q-95 -18 -95 -106q0 -31 18 -31q5 0 12.5 2.5t16.5 2.5q25 0 39 -15.5t14 -33.5q0 -19 -14.5 -34t-37.5 -15q-32 0 -55 29.5t-23 77.5q0 20 5 40t17 42.5t38.5 40.5t64.5 26z" />
    <glyph glyph-name="quoteright" unicode="&#x2019;" horiz-adv-x="250" 
d="M69 409v26q95 18 95 106q0 31 -18 31q-5 0 -12.5 -2.5t-16.5 -2.5q-25 0 -39 15.5t-14 33.5q0 19 14.5 34t37.5 15q32 0 55 -29.5t23 -77.5q0 -20 -5 -40t-17 -42.5t-38.5 -40.5t-64.5 -26z" />
    <glyph glyph-name="quotesinglbase" unicode="&#x201a;" horiz-adv-x="250" 
d="M69 -168v26q95 18 95 106q0 31 -18 31q-4 0 -12 -2q-6 -3 -17 -3q-25 0 -39 15.5t-14 33.5q0 19 14.5 34t37.5 15q32 0 55 -29.5t23 -77.5q0 -20 -5 -40t-17 -42.5t-38.5 -40.5t-64.5 -26z" />
    <glyph glyph-name="quotedblleft" unicode="&#x201c;" horiz-adv-x="458" 
d="M410 665v-26q-95 -18 -95 -106q0 -31 18 -31q5 0 12.5 2.5t16.5 2.5q25 0 39 -15.5t14 -33.5q0 -19 -14.5 -34t-37.5 -15q-32 0 -55 29.5t-23 77.5q0 20 5 40t17 42.5t38.5 40.5t64.5 26zM189 665v-26q-95 -18 -95 -106q0 -31 18 -31q5 0 12.5 2.5t16.5 2.5
q25 0 39 -15.5t14 -33.5q0 -19 -14.5 -34t-37.5 -15q-32 0 -55 29.5t-23 77.5q0 20 5 40t17 42.5t38.5 40.5t64.5 26z" />
    <glyph glyph-name="quotedblright" unicode="&#x201d;" horiz-adv-x="458" 
d="M48 409v26q95 18 95 106q0 31 -18 31q-5 0 -12.5 -2.5t-16.5 -2.5q-25 0 -39 15.5t-14 33.5q0 19 14.5 34t37.5 15q32 0 55 -29.5t23 -77.5q0 -20 -5 -40t-17 -42.5t-38.5 -40.5t-64.5 -26zM269 409v26q95 18 95 106q0 31 -18 31q-5 0 -12.5 -2.5t-16.5 -2.5
q-25 0 -39 15.5t-14 33.5q0 19 14.5 34t37.5 15q32 0 55 -29.5t23 -77.5q0 -20 -5 -40t-17 -42.5t-38.5 -40.5t-64.5 -26z" />
    <glyph glyph-name="quotedblbase" unicode="&#x201e;" horiz-adv-x="458" 
d="M48 -165v26q95 18 95 106q0 31 -18 31q-4 0 -12 -2q-6 -3 -17 -3q-25 0 -39 15.5t-14 33.5q0 19 14.5 34t37.5 15q32 0 55 -29.5t23 -77.5q0 -20 -5 -40t-17 -42.5t-38.5 -40.5t-64.5 -26zM269 -165v26q95 18 95 106q0 31 -18 31q-4 0 -12 -2q-6 -3 -17 -3
q-25 0 -39 15.5t-14 33.5q0 19 14.5 34t37.5 15q32 0 55 -29.5t23 -77.5q0 -20 -5 -40t-17 -42.5t-38.5 -40.5t-64.5 -26z" />
    <glyph glyph-name="dagger" unicode="&#x2020;" horiz-adv-x="427" 
d="M221 -236h-24v214q0 90 -5.5 190t-5.5 108q0 31 5.5 80t5.5 64q-32 -4 -51 -11q-53 -20 -67 -20q-21 0 -34 12t-13 28q0 17 13 29.5t33 12.5q10 0 42 -11q44 -16 77 -18q-2 41 -25 106q-11 30 -11 57q0 26 13 41.5t35 15.5q23 0 36 -17t13 -43q0 -24 -12 -52
q-23 -57 -25 -108q34 0 83 20q24 10 42 10q20 0 34.5 -10.5t14.5 -30.5q0 -15 -11 -29t-37 -14q-19 0 -62 21q-19 9 -64 11q1 -11 4 -38t5 -53t2 -52q-1 -64 -6 -154.5t-5 -142.5v-216z" />
    <glyph glyph-name="daggerdbl" unicode="&#x2021;" horiz-adv-x="427" 
d="M205 174h20v-24q0 -18 5 -65.5t5 -51.5q0 -37 -10 -64q15 0 61 16q44 16 58 16q20 0 33 -11t13 -29q0 -37 -49 -37q-10 0 -55 15q-31 11 -61 12q1 -24 20 -78q13 -39 13 -59q0 -18 -10.5 -35t-31.5 -17q-19 0 -32.5 15t-13.5 37q0 18 11 49q2 7 8 23t8.5 23t5 19t2.5 23
q-19 0 -61 -14q-39 -13 -58 -13q-48 0 -48 37q0 39 48 39q15 0 42 -11q43 -18 77 -20q-10 28 -10 62q0 5 5 53t5 65v25zM205 250v25q0 17 -5 65t-5 53q0 34 10 62q-34 -2 -77 -20q-27 -11 -42 -11q-48 0 -48 39q0 37 48 37q19 0 58 -13q42 -14 61 -14q0 11 -2.5 23t-5 19
t-8.5 23t-8 23q-11 31 -11 49q0 22 13.5 37t32.5 15q21 0 31.5 -17t10.5 -35q0 -20 -13 -59q-19 -54 -20 -78q30 1 61 12q45 15 55 15q49 0 49 -37q0 -18 -13 -29t-33 -11q-14 0 -58 16q-46 16 -61 16q10 -27 10 -64q0 -4 -5 -51.5t-5 -65.5v-24h-20z" />
    <glyph glyph-name="bullet" unicode="&#x2022;" horiz-adv-x="350" 
d="M176 443q50 0 86 -35.5t36 -87.5q0 -50 -35.5 -86t-86.5 -36t-87 36t-36 86q0 51 36.5 87t86.5 36z" />
    <glyph glyph-name="onedotenleader" unicode="&#x2024;" horiz-adv-x="500" 
d="M302 37q0 -22 -15.5 -37.5t-37.5 -15.5t-37 15.5t-15 37.5q0 21 15 36.5t37 15.5t37.5 -15.5t15.5 -36.5z" />
    <glyph glyph-name="twodotenleader" unicode="&#x2025;" horiz-adv-x="500" 
d="M125 89q22 0 37.5 -15t15.5 -37t-15.5 -37.5t-37.5 -15.5t-37 15.5t-15 37.5t15 37t37 15zM375 89q22 0 37 -15t15 -37t-15 -37.5t-37 -15.5t-37.5 15.5t-15.5 37.5t15.5 37t37.5 15z" />
    <glyph glyph-name="ellipsis" unicode="&#x2026;" horiz-adv-x="1000" 
d="M221 37q0 -22 -15 -37.5t-37 -15.5t-37.5 15.5t-15.5 37.5q0 21 15.5 36.5t37.5 15.5t37 -15.5t15 -36.5zM553 37q0 -22 -15.5 -37.5t-37.5 -15.5t-37 15.5t-15 37.5q0 21 15 36.5t37 15.5t37.5 -15.5t15.5 -36.5zM885 37q0 -22 -15 -37.5t-37 -15.5t-37.5 15.5
t-15.5 37.5q0 21 15.5 36.5t37.5 15.5t37 -15.5t15 -36.5z" />
    <glyph glyph-name="perthousand" unicode="&#x2030;" horiz-adv-x="1000" 
d="M971 158q0 -74 -37 -124t-96 -50q-61 0 -97 51t-36 123t36.5 123t96.5 51q59 0 96 -50t37 -124zM907 158q0 156 -69 156t-69 -156t69 -156t69 156zM295 483q0 -74 -37 -124t-96 -50q-60 0 -96.5 51t-36.5 123t36.5 122.5t96.5 50.5q59 0 96 -50t37 -123zM231 483
q0 155 -69 155t-69 -155q0 -156 69 -156t69 156zM641 158q0 -74 -37 -124t-96 -50q-60 0 -96 51t-36 123t36 123t96 51q59 0 96 -50t37 -124zM577 158q0 156 -68 156q-69 0 -69 -156t69 -156q68 0 68 156zM180 0h-30l339 640h30z" />
    <glyph glyph-name="guilsinglleft" unicode="&#x2039;" horiz-adv-x="271" 
d="M34 213l181 187h26l-113 -187l113 -191h-26z" />
    <glyph glyph-name="guilsinglright" unicode="&#x203a;" horiz-adv-x="271" 
d="M237 209l-181 -187h-26l113 187l-113 191h26z" />
    <glyph glyph-name="fraction" unicode="&#x2044;" horiz-adv-x="344" 
d="M17 0h-30l340 640h30z" />
    <glyph glyph-name="zero.superior" unicode="&#x2070;" horiz-adv-x="302" 
d="M23 481q0 83 36.5 129t92.5 46q57 0 93 -46.5t36 -128.5q0 -83 -36.5 -128.5t-92.5 -45.5t-92.5 45.5t-36.5 128.5zM82 481q0 -81 14 -118.5t56 -37.5t56 37t14 119t-14 119.5t-56 37.5t-56 -37.5t-14 -119.5z" />
    <glyph glyph-name="four.superior" unicode="&#x2074;" horiz-adv-x="302" 
d="M158 427h-141v19l166 210h28v-207h21q25 0 27 3q3 3 10 20h24l-8 -45h-74v-37q0 -44 3 -50q5 -7 37 -7v-18h-138v18h16q21 0 25 8t4 47v39zM47 449h111v139h-2z" />
    <glyph glyph-name="five.superior" unicode="&#x2075;" horiz-adv-x="302" 
d="M85 486h-25l9 162h163q-14 -29 -20.5 -34.5t-24.5 -5.5h-95l-4 -87q27 22 65 22q46 0 80 -31.5t34 -80.5t-34.5 -86.5t-107.5 -37.5q-33 0 -57.5 11t-34 22.5t-9.5 20.5q0 8 7 13.5t18 5.5q20 0 30 -26q13 -29 47 -29q80 0 80 105q0 93 -62 93q-36 0 -59 -37z" />
    <glyph glyph-name="six.superior" unicode="&#x2076;" horiz-adv-x="302" 
d="M87 499q18 16 40 23q16 5 34 5q49 0 84.5 -31.5t35.5 -78.5q0 -43 -33.5 -76.5t-89.5 -33.5q-60 0 -96 42.5t-36 116.5q0 75 39.5 132.5t114.5 57.5q34 0 60 -13t26 -29q0 -17 -22 -17q-19 0 -29 17q-14 24 -43 24q-83 0 -85 -139zM85 421q0 -38 18 -67t52 -29
q67 0 67 99q0 85 -67 85q-44 0 -61 -38q-9 -20 -9 -50z" />
    <glyph glyph-name="seven.superior" unicode="&#x2077;" horiz-adv-x="302" 
d="M41 581l26 75h21v-4l-1 -1v-1q2 -2 23 -2h156l-105 -278q-11 -27 -15.5 -37t-13 -18t-20.5 -8q-24 0 -24 18q0 4 25 56l113 227h-115q-30 0 -35 -5q-2 -2 -11 -22h-24z" />
    <glyph glyph-name="eight.superior" unicode="&#x2078;" horiz-adv-x="302" 
d="M194 490v-2q36 -8 60 -30.5t24 -56.5q0 -47 -39 -70.5t-89 -23.5q-52 0 -89 26t-37 67q0 35 24.5 57t59.5 30v2q-72 25 -72 81q0 39 33.5 62.5t80.5 23.5q44 0 80 -23t36 -63q0 -60 -72 -80zM93 575q0 -78 55 -78q21 0 34.5 7.5t18 21.5t5.5 22t1 21q0 69 -58 69
q-56 0 -56 -63zM83 403q0 -16 1.5 -25.5t6.5 -23.5t20 -21.5t38 -7.5q70 0 70 75q0 79 -71 79q-42 0 -57 -30q-8 -17 -8 -46z" />
    <glyph glyph-name="nine.superior" unicode="&#x2079;" horiz-adv-x="302" 
d="M217 464q-33 -29 -74 -29q-49 0 -84.5 31.5t-35.5 78.5q0 43 33.5 77t89.5 34q59 0 95.5 -42.5t36.5 -117.5t-39.5 -132t-114.5 -57q-34 0 -60 13t-26 28q0 18 23 18q19 0 28 -18q13 -23 43 -23q83 0 85 139zM219 542q0 38 -18 67t-52 29q-67 0 -67 -99q0 -84 67 -84
q45 0 60 38q10 22 10 49z" />
    <glyph glyph-name="parenleft.superior" unicode="&#x207d;" horiz-adv-x="156" 
d="M168 175h-35q-107 117 -107 276q0 147 103 266h35q-106 -108 -106 -267q0 -88 31.5 -159.5t78.5 -115.5z" />
    <glyph glyph-name="parenright.superior" unicode="&#x207e;" horiz-adv-x="156" 
d="M-8 717h34q104 -121 104 -266q0 -157 -107 -276h-35q48 45 79 117t31 158q0 160 -106 267z" />
    <glyph glyph-name="n.superior" unicode="&#x207f;" horiz-adv-x="344" 
d="M287 470v-78q0 -52 6 -58t36 -6v-13h-132v13q32 0 38 6t6 58v100q0 48 -52 48q-26 0 -43 -12t-39 -37v-99q0 -52 6 -58q7 -6 37 -6v-13h-130v13q30 0 36 6q5 5 5 59v81q0 53 -5 58q-7 6 -36 6v13q33 4 38 5q1 0 18.5 4t21.5 4q2 -5 10 -47q18 16 29 24t29.5 15.5
t39.5 7.5q29 0 46.5 -8.5t24.5 -25.5t8.5 -28.5t1.5 -31.5z" />
    <glyph glyph-name="zero.inferior" unicode="&#x2080;" horiz-adv-x="302" 
d="M23 166q0 83 36.5 129t92.5 46q57 0 93 -46t36 -129t-36.5 -128.5t-92.5 -45.5t-92.5 45.5t-36.5 128.5zM82 166q0 -81 14 -118.5t56 -37.5t56 37t14 119t-14 119.5t-56 37.5t-56 -37.5t-14 -119.5z" />
    <glyph glyph-name="one.inferior" unicode="&#x2081;" horiz-adv-x="302" 
d="M180 341v-268q0 -39 4 -47t25 -8h17v-18h-141v18h15q21 0 25 8t4 47v178q0 38 -4 46.5t-25 8.5h-18v18q45 0 71 11l1 2q2 2 4 3l1 1h21z" />
    <glyph glyph-name="two.inferior" unicode="&#x2082;" horiz-adv-x="302" 
d="M31 0v19q41 28 94 80q85 82 85 143q0 79 -74 79q-30 0 -46 -17t-16 -37q0 -25 22 -36q10 -7 10 -10q0 -5 -11.5 -14t-20.5 -9q-14 0 -26.5 17.5t-12.5 39.5q0 37 35 61.5t80 24.5q43 0 81 -23.5t38 -73.5q0 -27 -13 -48.5t-45 -52.5q-71 -69 -125 -105v-2h179l-18 -62
h-25v7q3 8 3 10v8q-1 1 -18 1h-176z" />
    <glyph glyph-name="three.inferior" unicode="&#x2083;" horiz-adv-x="302" 
d="M199 205l-27 -14v-2q44 0 71 -23.5t27 -66.5q0 -50 -39.5 -78.5t-93.5 -28.5q-43 0 -71.5 16.5t-28.5 33.5q0 9 6.5 15t17.5 6q20 0 28 -23q12 -30 46 -30q76 0 76 91q0 38 -15.5 54t-35.5 16q-19 0 -39 -17q-8 -6 -14 -6q-14 0 -14 12q0 7 34 26q38 22 54.5 39.5
t16.5 46.5q0 24 -13.5 37.5t-37.5 13.5q-21 0 -40 -13t-19 -35q0 -20 14 -30q5 -3 5 -6q0 -5 -11.5 -9.5t-17.5 -4.5q-13 0 -22 13t-9 27q0 27 28 51.5t81 24.5q45 0 73 -19t28 -45q0 -37 -58 -72z" />
    <glyph glyph-name="four.inferior" unicode="&#x2084;" horiz-adv-x="302" 
d="M158 112h-141v19l166 210h28v-207h21q25 0 27 3q3 3 10 20h24l-8 -45h-74v-37q0 -44 3 -50q5 -7 37 -7v-18h-138v18h16q21 0 25 8t4 47v39zM47 134h111v139h-2z" />
    <glyph glyph-name="five.inferior" unicode="&#x2085;" horiz-adv-x="302" 
d="M85 171h-25l9 162h163q-14 -29 -20.5 -34.5t-24.5 -5.5h-95l-4 -87q27 22 65 22q46 0 80 -31.5t34 -80.5t-34.5 -86.5t-107.5 -37.5q-33 0 -57.5 11t-34 22.5t-9.5 20.5q0 8 7 13.5t18 5.5q20 0 30 -26q13 -29 47 -29q80 0 80 105q0 93 -62 93q-36 0 -59 -37z" />
    <glyph glyph-name="six.inferior" unicode="&#x2086;" horiz-adv-x="302" 
d="M87 184q33 28 74 28q49 0 84.5 -31.5t35.5 -78.5q0 -43 -33.5 -76.5t-89.5 -33.5q-60 0 -96 42.5t-36 116.5q0 75 39.5 132.5t114.5 57.5q34 0 60 -13t26 -29q0 -17 -22 -17q-19 0 -29 17q-14 24 -43 24q-83 0 -85 -139zM85 106q0 -38 18 -67t52 -29q67 0 67 99
q0 85 -67 85q-44 0 -61 -38q-9 -20 -9 -50z" />
    <glyph glyph-name="seven.inferior" unicode="&#x2087;" horiz-adv-x="302" 
d="M41 266l26 75h21v-4l-1 -1v-1q2 -2 23 -2h156l-105 -278q-11 -27 -15.5 -37t-13 -18t-20.5 -8q-24 0 -24 18q0 4 25 56l113 227h-115q-30 0 -35 -4q-2 -3 -11 -23h-24z" />
    <glyph glyph-name="eight.inferior" unicode="&#x2088;" horiz-adv-x="302" 
d="M194 175v-2q36 -8 60 -30.5t24 -56.5q0 -47 -39 -70.5t-89 -23.5q-52 0 -89 26t-37 67q0 35 24.5 57t59.5 30v2q-72 25 -72 81q0 39 33.5 62.5t80.5 23.5q44 0 80 -23t36 -63q0 -60 -72 -80zM93 260q0 -78 55 -78q21 0 34.5 7.5t18 21.5t5.5 22t1 21q0 69 -58 69
q-56 0 -56 -63zM83 88q0 -16 1.5 -25.5t6.5 -23.5t20 -21.5t38 -7.5q70 0 70 75q0 79 -71 79q-42 0 -57 -30q-8 -17 -8 -46z" />
    <glyph glyph-name="nine.inferior" unicode="&#x2089;" horiz-adv-x="302" 
d="M217 149q-33 -29 -74 -29q-49 0 -84.5 31.5t-35.5 78.5q0 43 33.5 77t89.5 34q59 0 95.5 -42.5t36.5 -117.5t-39.5 -132t-114.5 -57q-34 0 -60 13t-26 28q0 18 23 18q19 0 28 -18q13 -23 43 -23q83 0 85 139zM219 227q0 38 -18 67t-52 29q-67 0 -67 -99q0 -84 67 -84
q45 0 60 38q10 25 10 49z" />
    <glyph glyph-name="parenleft.inferior" unicode="&#x208d;" horiz-adv-x="156" 
d="M168 -140h-35q-107 117 -107 276q0 147 103 266h35q-106 -108 -106 -267q0 -88 31.5 -159.5t78.5 -115.5z" />
    <glyph glyph-name="parenright.inferior" unicode="&#x208e;" horiz-adv-x="156" 
d="M-8 402h34q104 -121 104 -266q0 -157 -107 -276h-35q48 45 79 117t31 158q0 160 -106 267z" />
    <glyph glyph-name="colonmonetary" unicode="&#x20a1;" horiz-adv-x="719" 
d="M218 21l-37 -123h-24l41 133q-75 42 -114 118.5t-39 169.5q0 71 22 135.5t63.5 116t109.5 80t153 23.5l28 90h23l-28 -93q56 -8 109 -38l40 131h23l-43 -144q27 -18 49 -44q21 43 25 86h22l5 -251h-20q-23 132 -89 185l-175 -578q10 -2 28 -2q112 0 177 83q47 61 59 149
h20v-231h-20q-10 41 -32 70q-91 -103 -241 -99l-28 -90h-24l29 92q-63 8 -112 31zM409 648l-173 -568q48 -45 103 -58l179 588q-54 32 -109 38zM219 101l167 548q-64 0 -110.5 -29t-71 -78t-36 -103.5t-11.5 -115.5q0 -140 62 -222z" />
    <glyph glyph-name="Euro" unicode="&#x20ac;" horiz-adv-x="500" 
d="M412 370l-5 -28h-275v-15q-1 -15 0 -15v-15h269l-5 -28h-264q6 -122 43 -180q23 -38 53 -60t58 -22q60 0 97 51.5t44 121.5h22q-7 -88 -51 -142t-123 -54q-98 0 -160 89q-54 74 -63 196h-37l5 28h31v11q0 6 0.5 17t0.5 17h-37l5 28h35q6 61 26 118q29 86 81 126
q50 41 112 41q53 0 90 -25q30 -22 53 -62q7 26 10 76h23l3 -207h-22q-10 60 -21.5 89t-31.5 58q-35 48 -97 48q-68 0 -110 -84q-32 -61 -38 -178h279z" />
    <glyph glyph-name="afii61289" unicode="&#x2113;" horiz-adv-x="359" 
d="M349 104q-43 -116 -131 -116q-48 0 -79 30q-36 35 -36 110v88q-6 -8 -16.5 -20t-23.5 -26t-17 -19l-21 26q63 69 78 90v243q0 88 32.5 145t87.5 57q43 0 63.5 -28t20.5 -72q0 -100 -72 -228q-34 -62 -54 -85v-174q0 -45 16 -69t39 -24q48 0 82 86zM273 611q0 66 -44 66
q-48 0 -48 -127v-190q1 2 13 23t19 35q60 106 60 193z" />
    <glyph glyph-name="trademark" unicode="&#x2122;" horiz-adv-x="980" 
d="M134 267v16q36 -1 46.5 12.5t10.5 66.5v276h-45q-37 0 -54.5 -12.5t-22.5 -55.5h-13v92h329v-92h-12q-5 40 -20 54t-57 14h-45v-276q0 -53 10.5 -66.5t46.5 -12.5v-16h-174zM420 662h116l144 -310l140 310h111v-16q-38 -2 -47 -12t-9 -51v-231q0 -44 9 -56t47 -13v-16
h-169v16q38 0 48 12t10 57v255l-152 -340h-8l-157 334v-252q0 -45 8 -55.5t49 -10.5v-16h-140v16q40 0 48 11.5t8 57.5v224q0 30 -2 41t-14 19t-40 10v16z" />
    <glyph glyph-name="Omega" unicode="&#x2126;" horiz-adv-x="656" 
d="M613 0h-227v118q66 35 99.5 113.5t33.5 162.5q0 129 -48.5 207t-141.5 78q-96 0 -145 -79t-49 -206q0 -91 37.5 -172.5t102.5 -107.5v-114h-232v136h23q0 -40 10 -58t48 -18h113v31q-78 32 -132 113t-54 187q0 149 77 235t201 86q125 0 201 -92t76 -220
q0 -58 -18.5 -116.5t-61.5 -111.5t-102 -78v-34h107q38 0 48 18t10 58h24v-136z" />
    <glyph glyph-name="estimated" unicode="&#x212e;" horiz-adv-x="619" 
d="M583 275h-425v-199q60 -62 151 -62q135 0 210 130l27 -16q-48 -70 -102.5 -105t-134.5 -35q-122 0 -195.5 82t-73.5 205q0 124 73 206t195 82q125 0 197.5 -81t77.5 -207zM460 302v171q-64 64 -152 64q-90 0 -150 -63v-172h302z" />
    <glyph glyph-name="onethird" unicode="&#x2153;" horiz-adv-x="875" 
d="M752 205l-27 -14v-2q44 0 71 -23.5t27 -66.5q0 -50 -39.5 -78.5t-93.5 -28.5q-43 0 -71.5 16.5t-28.5 33.5q0 9 6.5 15t17.5 6q20 0 28 -23q12 -30 46 -30q76 0 76 91q0 38 -15.5 54t-35.5 16q-19 0 -39 -17q-8 -6 -14 -6q-14 0 -14 12q0 7 34 26q38 22 54.5 39.5
t16.5 46.5q0 24 -13.5 37.5t-37.5 13.5q-21 0 -40 -13t-19 -35q0 -20 14 -30q5 -3 5 -6q0 -5 -11 -9.5t-18 -4.5q-13 0 -22 13t-9 27q0 27 28 51.5t81 24.5q45 0 73 -19t28 -45q0 -37 -58 -72zM283 0h-30l339 640h30zM200 656v-268q0 -39 4 -47t25 -8h17v-18h-141v18h15
q21 0 25 8t4 47v178q0 38 -4 46.5t-25 8.5h-18v18q45 0 71 11l1 2q2 2 4 3l1 1h21z" />
    <glyph glyph-name="twothirds" unicode="&#x2154;" horiz-adv-x="875" 
d="M752 205l-27 -14v-2q44 0 71 -23.5t27 -66.5q0 -50 -39.5 -78.5t-93.5 -28.5q-43 0 -71.5 16.5t-28.5 33.5q0 9 6.5 15t17.5 6q20 0 28 -23q12 -30 46 -30q76 0 76 91q0 38 -15.5 54t-35.5 16q-19 0 -39 -17q-8 -6 -14 -6q-14 0 -14 12q0 7 34 26q38 22 54.5 39.5
t16.5 46.5q0 24 -13.5 37.5t-37.5 13.5q-21 0 -40 -13t-19 -35q0 -20 14 -30q5 -3 5 -6q0 -5 -11 -9.5t-18 -4.5q-13 0 -22 13t-9 27q0 27 28 51.5t81 24.5q45 0 73 -19t28 -45q0 -37 -58 -72zM283 0h-30l339 640h30zM51 315v19q41 28 94 80q85 82 85 143q0 79 -74 79
q-30 0 -46 -17t-16 -37q0 -25 22 -36q10 -7 10 -10q0 -5 -11.5 -14t-20.5 -9q-14 0 -26.5 17.5t-12.5 39.5q0 37 35 61.5t80 24.5q43 0 81 -23.5t38 -73.5q0 -27 -13 -48.5t-45 -52.5q-71 -69 -125 -105v-2h179l-18 -62h-25v7q3 8 3 10v8q-1 1 -18 1h-176z" />
    <glyph glyph-name="oneeighth" unicode="&#x215b;" horiz-adv-x="875" 
d="M747 175v-2q36 -8 60 -30.5t24 -56.5q0 -47 -39 -70.5t-89 -23.5q-52 0 -89 26t-37 67q0 35 24.5 57t59.5 30v2q-72 25 -72 81q0 39 33.5 62.5t80.5 23.5q44 0 80 -23t36 -63q0 -60 -72 -80zM646 260q0 -78 55 -78q21 0 34.5 7.5t18 21.5t5.5 22t1 21q0 69 -58 69
q-56 0 -56 -63zM636 88q0 -16 1.5 -25.5t6.5 -23.5t20 -21.5t38 -7.5q70 0 70 75q0 79 -71 79q-42 0 -57 -30q-8 -17 -8 -46zM283 0h-30l339 640h30zM200 656v-268q0 -39 4 -47t25 -8h17v-18h-141v18h15q21 0 25 8t4 47v178q0 38 -4 46.5t-25 8.5h-18v18q45 0 71 11l1 2
q2 2 4 3l1 1h21z" />
    <glyph glyph-name="threeeighths" unicode="&#x215c;" horiz-adv-x="875" 
d="M747 175v-2q36 -8 60 -30.5t24 -56.5q0 -47 -39 -70.5t-89 -23.5q-52 0 -89 26t-37 67q0 35 24.5 57t59.5 30v2q-72 25 -72 81q0 39 33.5 62.5t80.5 23.5q44 0 80 -23t36 -63q0 -60 -72 -80zM646 260q0 -78 55 -78q21 0 34.5 7.5t18 21.5t5.5 22t1 21q0 69 -58 69
q-56 0 -56 -63zM636 88q0 -16 1.5 -25.5t6.5 -23.5t20 -21.5t38 -7.5q70 0 70 75q0 79 -71 79q-42 0 -57 -30q-8 -17 -8 -46zM283 0h-30l339 640h30zM219 520l-27 -14v-2q44 0 71 -23.5t27 -66.5q0 -50 -39.5 -78.5t-93.5 -28.5q-43 0 -71.5 16.5t-28.5 33.5q0 9 6.5 15
t17.5 6q20 0 28 -23q12 -30 46 -30q76 0 76 91q0 38 -15.5 54t-35.5 16q-19 0 -39 -17q-8 -6 -14 -6q-14 0 -14 12q0 7 34 26q38 22 54.5 39.5t16.5 46.5q0 24 -13.5 37.5t-37.5 13.5q-21 0 -40 -13t-19 -35q0 -20 14 -30q5 -3 5 -6q0 -5 -11.5 -9.5t-17.5 -4.5
q-13 0 -22 13t-9 27q0 27 28 51.5t81 24.5q45 0 73 -19t28 -45q0 -37 -58 -72z" />
    <glyph glyph-name="fiveeighths" unicode="&#x215d;" horiz-adv-x="875" 
d="M747 175v-2q36 -8 60 -30.5t24 -56.5q0 -47 -39 -70.5t-89 -23.5q-52 0 -89 26t-37 67q0 35 24.5 57t59.5 30v2q-72 25 -72 81q0 39 33.5 62.5t80.5 23.5q44 0 80 -23t36 -63q0 -60 -72 -80zM646 260q0 -78 55 -78q21 0 34.5 7.5t18 21.5t5.5 22t1 21q0 69 -58 69
q-56 0 -56 -63zM636 88q0 -16 1.5 -25.5t6.5 -23.5t20 -21.5t38 -7.5q70 0 70 75q0 79 -71 79q-42 0 -57 -30q-8 -17 -8 -46zM105 486h-25l9 162h163q-14 -29 -20.5 -34.5t-24.5 -5.5h-95l-4 -87q27 22 65 22q46 0 80 -31.5t34 -80.5t-34.5 -86.5t-107.5 -37.5
q-33 0 -57.5 11t-34 22.5t-9.5 20.5q0 8 7 13.5t18 5.5q20 0 30 -26q13 -29 47 -29q80 0 80 105q0 93 -62 93q-36 0 -59 -37zM283 0h-30l339 640h30z" />
    <glyph glyph-name="seveneighths" unicode="&#x215e;" horiz-adv-x="875" 
d="M748 175v-2q36 -8 60 -30.5t24 -56.5q0 -47 -39 -70.5t-89 -23.5q-52 0 -89 26t-37 67q0 35 24.5 57t59.5 30v2q-72 25 -72 81q0 39 33.5 62.5t80.5 23.5q44 0 80 -23t36 -63q0 -60 -72 -80zM647 260q0 -78 55 -78q21 0 34.5 7.5t18 21.5t5.5 22t1 21q0 69 -58 69
q-56 0 -56 -63zM637 88q0 -16 1.5 -25.5t6.5 -23.5t20 -21.5t38 -7.5q70 0 70 75q0 79 -71 79q-42 0 -57 -30q-8 -17 -8 -46zM284 0h-30l340 640h30zM61 581l26 75h21v-4l-1 -1v-1q2 -2 23 -2h156l-105 -278q-10 -26 -15 -36.5t-13.5 -18.5t-20.5 -8q-24 0 -24 18q0 4 25 56
l113 227h-115q-30 0 -35 -5q-2 -2 -11 -22h-24z" />
    <glyph glyph-name="partialdiff" unicode="&#x2202;" horiz-adv-x="460" 
d="M431 474q0 -60 -13.5 -137t-35.5 -136q-41 -104 -87 -159t-114 -55q-74 0 -113.5 57.5t-39.5 140.5q0 117 60 199t157 82q53 0 87.5 -28t46.5 -62h2q4 45 4 82q0 36 -6.5 70t-21 65t-41 49.5t-61.5 18.5q-81 0 -140 -76l-18 18q78 115 181 115q153 0 153 -244zM374 325
q-12 41 -40 72.5t-76 31.5q-63 0 -108 -74.5t-45 -184.5q0 -70 28 -108t71 -38q42 0 78.5 49t57.5 113.5t34 138.5z" />
    <glyph glyph-name="Delta" unicode="&#x2206;" horiz-adv-x="541" 
d="M523 0h-504l228 712h56zM432 40l-176 547l-184 -547h360z" />
    <glyph glyph-name="product" unicode="&#x220f;" horiz-adv-x="624" 
d="M589 -131h-208v24h17q30 0 39 19t9 56l1 695h-271v-695q0 -37 9 -56t39 -19h16v-24h-205v24h16q30 0 39 19t9 56v633q0 39 -8.5 57t-39.5 18h-16v24h554v-24h-15q-31 0 -40 -18t-9 -57v-633q0 -38 9 -56.5t39 -18.5h16v-24z" />
    <glyph glyph-name="summation" unicode="&#x2211;" horiz-adv-x="496" 
d="M479 15l-12 -146h-457l-1 27l234 386l-226 392v26h435l8 -130h-22q-4 54 -16.5 73t-53.5 19h-267l203 -342l-233 -384h308q43 0 57 16.5t21 66.5z" />
    <glyph glyph-name="minus" unicode="&#x2212;" horiz-adv-x="667" 
d="M69 346h528v-52h-528v52z" />
    <glyph glyph-name="uni2215" unicode="&#x2215;" horiz-adv-x="344" 
d="M17 0h-30l340 640h30z" />
    <glyph glyph-name="uni2219" unicode="&#x2219;" horiz-adv-x="271" 
d="M83 331q0 21 15 36.5t37 15.5t37.5 -15t15.5 -37t-15.5 -37.5t-37.5 -15.5q-21 0 -36.5 15.5t-15.5 37.5z" />
    <glyph glyph-name="radical" unicode="&#x221a;" horiz-adv-x="383" 
d="M284 728l-75 -740h-47l-98 339l-46 -31l-18 28l98 65l86 -313h2l67 652h31z" />
    <glyph glyph-name="infinity" unicode="&#x221e;" horiz-adv-x="660" 
d="M478 141q-52 0 -84.5 26t-58.5 74h-2q-59 -100 -146 -100q-57 0 -94.5 39t-37.5 100q0 62 36 101.5t93 39.5q89 0 139 -97h2q29 46 63 71.5t86 25.5q55 0 92.5 -38.5t37.5 -99.5t-36.5 -101.5t-89.5 -40.5zM479 383q-11 0 -20.5 -1.5t-18 -6t-15 -7t-14.5 -11.5t-12 -12
t-12.5 -16t-10.5 -16.5t-12 -20t-12 -19.5q48 -94 125 -94q44 0 68.5 30.5t24.5 70.5q0 45 -23 74t-68 29zM186 383q-43 0 -70 -28t-27 -74t25 -74t69 -28q22 0 41.5 10.5t35.5 32t24.5 34.5t20.5 36q-17 38 -47 64.5t-72 26.5z" />
    <glyph glyph-name="integral" unicode="&#x222b;" horiz-adv-x="240" 
d="M226 701q0 -11 -5.5 -20.5t-16.5 -9.5t-25 12q-16 11 -26 11q-21 0 -22 -41q-1 -17 5 -66t8 -84q10 -116 10 -247q0 -149 -6 -225q-9 -131 -19 -168q-10 -36 -25 -55t-43 -19q-20 0 -36 12.5t-16 32.5q0 31 27 31q10 0 22 -13q8 -9 21 -9q22 0 23 70q1 12 -12 121
q-8 107 -8 220q0 85 5 207q4 155 14 211q16 76 67 76q25 0 41.5 -14t16.5 -33z" />
    <glyph glyph-name="approxequal" unicode="&#x2248;" horiz-adv-x="667" 
d="M617 442q-48 -114 -156 -114q-59 0 -150 39q-58 27 -107 27q-44 0 -70 -17.5t-48 -55.5l-35 17q43 114 158 114q54 0 139 -36q65 -30 119 -30q71 0 114 73zM617 242q-48 -113 -156 -113q-59 0 -150 39q-55 26 -107 26q-44 0 -70 -17t-48 -56l-35 18q43 114 158 114
q54 0 139 -36q65 -30 119 -30q71 0 114 73z" />
    <glyph glyph-name="notequal" unicode="&#x2260;" horiz-adv-x="666" 
d="M602 167h-317l-88 -148h-57l88 148h-162v52h194l84 142h-278v52h310l93 157h58l-94 -157h169v-52h-201l-84 -142h285v-52z" />
    <glyph glyph-name="lessequal" unicode="&#x2264;" horiz-adv-x="667" 
d="M602 0h-536v52h536v-52zM602 108l-536 219v47l536 219v-57l-460 -185l460 -185v-58z" />
    <glyph glyph-name="greaterequal" unicode="&#x2265;" horiz-adv-x="667" 
d="M602 0h-536v52h536v-52zM602 327l-536 -219v57l459 185l-459 185v57l536 -218v-47z" />
    <glyph glyph-name="lozenge" unicode="&#x25ca;" horiz-adv-x="361" 
d="M351 349l-152 -361h-41l-147 361l147 363h42zM308 349l-129 309l-125 -309l125 -308z" />
    <glyph glyph-name="uni2014.alt" unicode="&#xe000;" horiz-adv-x="750" 
d="M-6 273h762v-46h-762v46z" />
    <glyph glyph-name="one.fitted" unicode="&#xf6dc;" horiz-adv-x="302" 
d="M165 656h22v-519q0 -81 8 -98t51 -17h19v-22h-219v22h16q43 0 50.5 17t7.5 98v348q0 81 -7.5 98t-50.5 17h-22v22q85 2 125 34z" />
    <glyph glyph-name="R_p" unicode="&#xf6dd;" horiz-adv-x="1208" 
d="M727 0h-178q-29 21 -59 58.5t-105 141.5q-71 95 -92 109q-15 10 -40 10h-27v-147q0 -102 12 -126t73 -24h31v-22h-317v22h22q60 0 72 24t12 126v325v60.5t-5 39.5t-8.5 25.5t-18.5 11.5t-27 6h-42v22l95 5q95 5 151 5q159 0 230 -58q56 -46 56 -114q0 -72 -52.5 -114.5
t-135.5 -51.5v-2q20 -11 48.5 -40.5t47.5 -53.5t54 -72q67 -90 109.5 -116t93.5 -28v-22zM226 645v-303q104 3 136 11q16 4 28 10t29 20t26.5 42t9.5 68q0 51 -15.5 84t-46 47t-57.5 18t-68 4q-29 0 -42 -1zM811 416h13q10 -32 8 -66q64 66 143 66q83 0 138.5 -58t55.5 -152
q0 -93 -54.5 -157.5t-147.5 -64.5q-44 0 -73.5 15t-61.5 44v-152q0 -83 8.5 -99t57.5 -16v-22h-209v22h14q43 0 51 17t8 98v363q0 81 -8 98t-51 17h-14v23q60 6 122 24zM832 319v-244q53 -65 118 -65q14 0 28 3t35 15t36.5 32t26.5 58.5t11 90.5q0 57 -16 96t-40.5 55
t-42.5 21.5t-34 5.5q-64 0 -122 -68z" />
    <glyph glyph-name="cent.inferior" unicode="&#xf6df;" horiz-adv-x="260" 
d="M56 -95h-25l43 105q-55 32 -55 94q0 52 40.5 85t99.5 30l40 98h24l-41 -101q55 -17 55 -40q0 -7 -6 -13.5t-18 -6.5q-24 0 -28 18q-6 21 -11 23l-68 -168q22 -17 51 -17q51 0 68 45h22q-20 -65 -106 -65q-21 0 -46 9zM90 51l62 150q-13 0 -21.5 -2t-23 -9t-22 -27
t-7.5 -51q0 -32 12 -61z" />
    <glyph glyph-name="cent.superior" unicode="&#xf6e0;" horiz-adv-x="260" 
d="M56 218h-25l43 105q-55 32 -55 94q0 52 40.5 85t99.5 30l40 98h24l-41 -101q55 -17 55 -40q0 -7 -6 -13.5t-18 -6.5q-24 0 -28 18q-6 21 -11 23l-68 -168q22 -17 51 -17q51 0 68 45h22q-20 -65 -106 -65q-21 0 -46 9zM90 364l62 150q-13 0 -21.5 -2t-23 -9t-22 -27
t-7.5 -51q0 -33 12 -61z" />
    <glyph glyph-name="comma.inferior" unicode="&#xf6e1;" horiz-adv-x="156" 
d="M27 -113v21q31 8 48.5 27.5t19.5 29.5t2 18q0 15 -8 15h-3q-3 -1 -5 -1q-6 -2 -7 -2q-16 0 -28 8t-12 23q0 16 11 25t27 9q26 0 41 -20.5t15 -46.5q0 -17 -5.5 -35.5t-30 -40.5t-65.5 -30z" />
    <glyph glyph-name="comma.superior" unicode="&#xf6e2;" horiz-adv-x="156" 
d="M27 202v21q31 8 48.5 27.5t19.5 29.5t2 18q0 15 -8 15l-3 -1h-5q-6 -2 -7 -2q-16 0 -28 8t-12 23q0 16 11 25t27 9q26 0 41 -20.5t15 -46.5q0 -10 -2.5 -20.5t-11 -28.5t-31 -33.5t-56.5 -23.5z" />
    <glyph glyph-name="dollar.inferior" unicode="&#xf6e3;" horiz-adv-x="302" 
d="M101 17v154q-69 28 -69 83t69 79v18h24v-13q19 2 46 0v13h24v-18q27 -8 44 -22t22 -24t5 -17q0 -20 -23 -20q-22 0 -25 23q-4 18 -8 25t-15 13v-129l15 -6q64 -26 64 -84q0 -68 -79 -93v-51h-24v46q-29 -3 -46 -2v-44h-24v48q-36 9 -54.5 26.5t-18.5 29.5q0 21 23 21
q19 0 23 -16q8 -30 27 -40zM101 218v96q-31 -19 -31 -51q0 -29 31 -45zM171 191v129q-15 3 -22 3q-8 0 -24 -2v-114zM171 144l-46 17v-152q24 -3 46 2v133zM195 134v-114q39 20 39 60q0 38 -39 54z" />
    <glyph glyph-name="dollar.superior" unicode="&#xf6e4;" horiz-adv-x="302" 
d="M101 332v154q-69 28 -69 83t69 79v18h24v-13q19 2 46 0v13h24v-18q27 -8 44 -22t22 -24t5 -17q0 -20 -23 -20q-22 0 -25 23q-4 18 -8 25t-15 13v-129l15 -6q64 -26 64 -84q0 -68 -79 -93v-51h-24v46q-29 -3 -46 -2v-44h-24v48q-36 9 -54.5 26.5t-18.5 29.5q0 21 23 21
q19 0 23 -16q8 -30 27 -40zM101 533v96q-31 -19 -31 -51q0 -29 31 -45zM171 506v129q-15 3 -22 3q-8 0 -24 -2v-114zM171 459l-46 17v-152q24 -3 46 2v133zM195 449v-114q39 20 39 60q0 38 -39 54z" />
    <glyph glyph-name="hyphen.inferior" unicode="&#xf6e5;" horiz-adv-x="198" 
d="M15 148h165v-49h-165v49z" />
    <glyph glyph-name="hyphen.superior" unicode="&#xf6e6;" horiz-adv-x="198" 
d="M15 463h165v-50h-165v50z" />
    <glyph glyph-name="period.inferior" unicode="&#xf6e7;" horiz-adv-x="156" 
d="M38 26q0 14 11.5 24t28.5 10q16 0 27.5 -9.5t11.5 -24.5q0 -14 -11.5 -24t-27.5 -10q-17 0 -28.5 10t-11.5 24z" />
    <glyph glyph-name="period.superior" unicode="&#xf6e8;" horiz-adv-x="156" 
d="M38 341q0 14 11.5 24t28.5 10q16 0 27.5 -9.5t11.5 -24.5q0 -14 -11.5 -24t-27.5 -10q-17 0 -28.5 10t-11.5 24z" />
    <glyph glyph-name="a.superior" unicode="&#xf6e9;" horiz-adv-x="302" 
d="M285 356h12q-2 -23 -15.5 -37t-38.5 -14q-19 0 -31 8.5t-14.5 15t-4.5 18.5q-64 -42 -105 -42q-25 0 -44.5 13.5t-19.5 38.5q0 27 28 49.5t92 47.5l49 19q0 21 -1 31t-6 23t-18 18.5t-35 5.5q-48 0 -52 -26q0 -1 -1 -3q-10 -28 -27 -30q-19 0 -19 17q0 10 9 22t34.5 22.5
t61.5 10.5q35 0 57.5 -8t30.5 -23.5t10 -25.5t2 -27v-100q0 -17 0.5 -24t2 -15.5t6 -11t11.5 -2.5q20 0 26 29zM193 363v96l-35 -13q-81 -30 -81 -78q0 -18 9.5 -29.5t27.5 -11.5q30 0 79 36z" />
    <glyph glyph-name="b.superior" unicode="&#xf6ea;" 
d="M60 305h-12v326q0 44 -5.5 52.5t-35.5 8.5v13q18 0 50 4q2 0 18 4t19 4v-188q31 20 48.5 27.5t41.5 7.5q55 0 91 -35t36 -92q0 -55 -35.5 -93.5t-95.5 -38.5q-22 0 -38.5 6t-24.5 13t-24 25q-29 -35 -33 -44zM94 506v-89q0 -39 8 -55q20 -37 68 -37q30 0 49.5 14t27 37
t9.5 37t2 29q0 47 -20 74.5t-61 27.5q-39 0 -83 -38z" />
    <glyph glyph-name="d.superior" unicode="&#xf6eb;" 
d="M240 533v95q0 51 -6 58q-6 6 -38 6v13q25 0 55 6q2 0 10 2t15.5 3t9.5 1v-328q0 -48 3 -55q5 -9 39 -9v-13q-47 -1 -81 -7q-3 14 -5 41q-21 -15 -31.5 -22t-28.5 -13t-37 -6q-48 0 -85.5 36t-37.5 93q0 59 36.5 94.5t88.5 35.5q37 0 93 -31zM240 369v138q-45 32 -82 32
q-83 0 -83 -102q0 -12 1.5 -24t8.5 -34.5t25.5 -36t47.5 -13.5q44 0 82 40z" />
    <glyph glyph-name="e.superior" unicode="&#xf6ec;" horiz-adv-x="281" 
d="M258 472h-182q-11 -151 84 -151q58 0 83 47h15q-12 -33 -43 -48t-63 -15q-49 0 -89 33.5t-40 94.5q0 56 36 93.5t90 37.5q48 0 77.5 -28t31.5 -64zM77 485h125q5 34 -13 50t-42 16q-60 0 -70 -66z" />
    <glyph glyph-name="i.superior" unicode="&#xf6ed;" horiz-adv-x="167" 
d="M46 687q0 13 9.5 22t23.5 9q13 0 22.5 -9t9.5 -22t-9.5 -22t-22.5 -9q-14 0 -23.5 9t-9.5 22zM107 564v-167q0 -50 6 -59.5t39 -9.5v-13h-140v13q36 0 44 10q5 6 5 59v74q0 48 -7 56.5t-42 8.5v13q48 2 88 15h7z" />
    <glyph glyph-name="l.superior" unicode="&#xf6ee;" horiz-adv-x="156" 
d="M100 718v-321q0 -51 6 -60t40 -9v-13h-139v13q34 0 40.5 10.5t6.5 58.5v237q0 26 -1.5 36t-11 16t-30.5 6v13q50 0 82 13h7z" />
    <glyph glyph-name="m.superior" unicode="&#xf6ef;" horiz-adv-x="521" 
d="M91 564h3q10 -24 9 -50q46 50 99 50q65 0 80 -54q50 54 101 54q29 0 47 -8.5t25 -25.5t8.5 -29t1.5 -32v-72q0 -50 5.5 -59.5t36.5 -9.5v-13h-129v13q30 0 35.5 10t5.5 59v80q0 15 -1 23.5t-5.5 20.5t-16 17.5t-29.5 5.5q-41 0 -83 -52v-95q0 -48 5 -58.5t33 -10.5v-13
h-126v13q31 0 36.5 10t5.5 59v66q0 16 -0.5 24t-3 21t-8 19.5t-16 11.5t-25.5 5q-16 0 -32 -7.5t-25 -15.5t-25 -24v-100q0 -48 5.5 -58.5t34.5 -10.5v-13h-127v13q31 0 36 9.5t5 59.5v72q0 49 -5.5 59t-35.5 10v13q38 3 75 13z" />
    <glyph glyph-name="o.superior" unicode="&#xf6f0;" horiz-adv-x="323" 
d="M23 435q0 55 40 92t99 37q58 0 98 -36.5t40 -92.5q0 -63 -42.5 -96.5t-95.5 -33.5t-96 33.5t-43 96.5zM76 434q0 -23 2.5 -39.5t10.5 -36t26.5 -30t46.5 -10.5q27 0 45.5 10.5t26.5 29t10.5 35.5t2.5 40q0 118 -85 118q-86 0 -86 -117z" />
    <glyph glyph-name="r.superior" unicode="&#xf6f1;" horiz-adv-x="240" 
d="M112 440v-43q0 -48 6.5 -58.5t40.5 -10.5v-13h-138v13q33 0 39 9.5t6 59.5v68q0 50 -6 59.5t-39 9.5v13q23 2 78 17q9 -20 9 -61h2q12 29 36.5 45t45.5 16t33 -11.5t12 -24.5q0 -9 -6 -15t-15 -6q-10 0 -14 4.5t-12 21.5l-1 1q-1 2 -2 3l-2.5 2.5t-4 2.5t-5.5 1
q-22 0 -44 -29q-13 -17 -16 -31.5t-3 -42.5z" />
    <glyph glyph-name="s.superior" unicode="&#xf6f2;" horiz-adv-x="219" 
d="M28 307v79h12q23 -68 77 -68q27 0 37.5 14t10.5 29q0 21 -15 33t-48 26q-74 32 -74 78q0 24 18.5 45t51.5 21q35 0 57 -25q2 2 5 7t5 9t2 5h12v-74h-12q-6 24 -23 44.5t-45 20.5q-42 0 -42 -36q0 -19 15.5 -30t58.5 -29q66 -28 66 -80q0 -31 -22 -51t-58 -20
q-34 0 -63 27q-8 -9 -14 -25h-12z" />
    <glyph glyph-name="t.superior" unicode="&#xf6f3;" horiz-adv-x="187" 
d="M177 542h-78v-146q0 -23 1 -34.5t10 -24t27 -12.5q22 0 40 24l10 -5q-20 -39 -68 -39q-23 0 -37.5 8.5t-20 26t-7 30t-1.5 35.5v137h-37v13q24 1 45 18t28 57h10v-75h78v-13z" />
    <glyph glyph-name="breve.sc" unicode="&#xf6f4;" 
d="M34 678h21q8 -32 37.5 -53.5t71.5 -21.5q88 0 115 75h20q-6 -72 -47.5 -103.5t-85.5 -31.5q-50 0 -87.5 35.5t-44.5 99.5z" />
    <glyph glyph-name="caron.sc" unicode="&#xf6f5;" 
d="M204 542h-76l-102 145h21l120 -96l120 96h21z" />
    <glyph glyph-name="circumflex.sc" unicode="&#xf6f6;" 
d="M129 687h76l102 -145h-21l-120 96l-120 -96h-21z" />
    <glyph glyph-name="dotaccent.sc" unicode="&#xf6f7;" 
d="M214 589q0 -19 -14 -33.5t-34 -14.5t-34 14.5t-14 33.5t14 33.5t34 14.5t34 -14.5t14 -33.5z" />
    <glyph glyph-name="hungarumlaut.sc" unicode="&#xf6f8;" 
d="M175 543h-19l50 97q10 19 16.5 29t17.5 19t24 9q11 0 21 -6t10 -20q0 -13 -7 -22.5t-30 -30.5zM57 543h-19l51 97q14 28 26.5 42.5t31.5 14.5q10 0 20.5 -6t10.5 -20q0 -13 -7 -22t-31 -31z" />
    <glyph glyph-name="lslash.sc" unicode="&#xf6f9;" horiz-adv-x="448" 
d="M11 433h226v-23q-49 2 -64.5 -11t-15.5 -65v-61l85 77v-34l-85 -77v-150q0 -44 11.5 -55t53.5 -11h76q47 0 71.5 21.5t40.5 83.5h20l-9 -128h-407v23h16q35 0 44 18t9 62v68l-59 -54v34l59 54v125q0 50 -11.5 66t-60.5 14v23z" />
    <glyph glyph-name="oe.sc" unicode="&#xf6fa;" horiz-adv-x="771" 
d="M690 433l13 -104h-21q-26 59 -38.5 70t-48.5 11h-124v-167h30q54 0 72 11.5t22 61.5h23v-169h-23q-4 47 -22 60t-74 13h-28v-114q0 -57 12.5 -70t58.5 -13h50q60 0 86.5 22t47.5 81h23l-22 -126h-358q-1 0 -17 -0.5t-26 -0.5q-36 -2 -42 -2q-63 0 -111 21.5t-75 55.5
t-40 71t-13 73q0 92 69.5 155.5t170.5 63.5q12 0 74 -2t72 -2h259zM397 140v156q0 34 -1.5 49t-10.5 34.5t-30.5 27t-58.5 7.5q-42 0 -73 -13.5t-48.5 -33.5t-28 -48t-14 -52t-3.5 -51q0 -87 43 -141.5t126 -54.5q36 0 56.5 5.5t30 23.5t11 35t1.5 56z" />
    <glyph glyph-name="ogonek.sc" unicode="&#xf6fb;" 
d="M100 8h21q-20 -33 -20 -58q0 -35 27 -64.5t82 -29.5q24 0 56 10l9 -16q-54 -31 -109 -31q-51 0 -79.5 27.5t-28.5 64.5q0 43 42 97z" />
    <glyph glyph-name="ring.sc" unicode="&#xf6fc;" 
d="M258 635q0 -38 -27 -65t-65 -27t-65 27t-27 65t27 64.5t65 26.5t65 -26.5t27 -64.5zM165 698q-27 0 -45 -18.5t-18 -44.5q0 -27 19 -45.5t46 -18.5q26 0 44.5 18.5t18.5 44.5q0 27 -19 45.5t-46 18.5z" />
    <glyph glyph-name="scaron.sc" unicode="&#xf6fd;" horiz-adv-x="344" 
d="M282 436l2 -129h-21q-9 55 -37.5 84t-68.5 29q-34 0 -51 -18.5t-17 -43.5q0 -30 22.5 -49t80.5 -46q121 -57 121 -146q0 -47 -34 -85.5t-89 -38.5q-51 0 -101 47q-14 -17 -20 -40h-22v144h22q12 -47 29 -74q15 -24 41 -39t50 -15q31 0 53.5 20.5t22.5 50.5q0 60 -93 100
q-32 15 -50 25t-38.5 26.5t-29.5 38t-9 49.5q0 49 32 83t84 34q44 0 85 -38q12 17 17 31h19zM210 500h-76l-102 145h21l120 -96l120 96h21z" />
    <glyph glyph-name="tilde.sc" unicode="&#xf6fe;" 
d="M300 650h17q-9 -107 -83 -107q-22 0 -38.5 7t-71.5 38q-26 15 -44 15q-37 0 -48 -60h-16q8 107 85 107q27 0 69 -21q43 -26 56 -32t27 -6q22 0 34 18t13 41z" />
    <glyph glyph-name="zcaron.sc" unicode="&#xf6ff;" horiz-adv-x="448" 
d="M55 433h348v-17l-290 -393h149q68 1 88.5 13t52.5 72h18l-11 -108h-386v23l285 387h-135q-48 0 -65 -14t-43 -67h-20zM262 500h-76l-102 145h21l120 -96l120 96h21z" />
    <glyph glyph-name="exclam.sc" unicode="&#xf721;" horiz-adv-x="156" 
d="M90 128h-28l-19 243q-3 23 -3 41q0 25 11 37.5t25 12.5q13 0 24.5 -12.5t11.5 -37.5q0 -16 -3 -41zM35 33q0 19 12 31.5t29 12.5t29.5 -12.5t12.5 -31.5t-12.5 -31.5t-29.5 -12.5t-29 12.5t-12 31.5z" />
    <glyph glyph-name="dollar.oldstyle" unicode="&#xf724;" horiz-adv-x="323" 
d="M106 26v198q-15 7 -24 13t-24 19.5t-23 33.5t-8 45q0 77 79 105v24h25v-18q14 2 26 2q15 0 27 -2v18h26v-24q40 -13 60.5 -38t20.5 -45q0 -14 -8 -21.5t-17 -7.5q-15 0 -20.5 10.5t-9.5 30.5q-5 29 -26 41v-168q25 -12 41 -22.5t33 -37t17 -61.5q0 -38 -21.5 -71.5
t-69.5 -50.5v-68h-26v62q-19 -5 -53 -3v-59h-25v64q-40 12 -61.5 35t-21.5 41q0 13 7.5 20.5t17.5 7.5q20 0 28 -33q7 -27 30 -40zM106 288v124q-38 -23 -38 -65q0 -39 38 -59zM184 253v167q-9 3 -29 3q-12 0 -24 -2v-146q4 -1 53 -22zM184 189l-53 23v-195q12 -2 22 -2
q17 0 31 4v170zM210 177v-147q46 27 46 77q0 49 -46 70z" />
    <glyph glyph-name="ampersand.sc" unicode="&#xf726;" horiz-adv-x="531" 
d="M336 269h168v-23q-28 -5 -43 -15t-31 -33l-33 -49.5t-35 -51.5q23 -27 35.5 -40t33 -25.5t39.5 -12.5q9 0 29 4l3 -23q-52 -14 -77 -14q-30 0 -51.5 13.5t-55.5 48.5q-41 -32 -73 -47t-78 -15t-77 15.5t-43.5 39t-16.5 38.5t-4 26q0 27 13 52t38 45.5t41 31t40 23.5
q-37 58 -37 96q0 36 32 64t79 28q40 0 67 -22t27 -54t-19 -49.5t-80 -50.5q43 -59 121 -156q46 65 46 92q0 15 -5.5 24t-16.5 12.5t-17.5 4t-18.5 0.5v23zM215 289q34 17 52.5 35t18.5 45q0 30 -18.5 41.5t-39.5 11.5q-28 0 -42.5 -15.5t-14.5 -30.5q0 -27 44 -87zM169 238
q-16 -9 -24.5 -15t-23.5 -19t-22.5 -28t-7.5 -33q0 -37 35 -80t77 -43q43 0 100 45q-48 55 -134 173z" />
    <glyph glyph-name="zero.oldstyle" unicode="&#xf730;" horiz-adv-x="490" 
d="M455 216q0 -61 -20 -108t-52.5 -73t-68 -39t-71.5 -13q-35 0 -70 13t-66.5 39t-51.5 72t-20 104t20.5 103t52.5 70.5t68 38.5t71 13q83 0 145.5 -60t62.5 -160zM373 225q0 38 -4.5 67.5t-17 59t-38.5 45.5t-65 16q-35 0 -60.5 -13.5t-38.5 -32t-20.5 -49t-9.5 -55
t-2 -58.5q0 -22 0.5 -36t4 -41t12 -45t22 -37.5t37 -29.5t54.5 -10q35 0 60 15t37.5 34.5t19.5 53t8 57t1 59.5z" />
    <glyph glyph-name="one.oldstyle" unicode="&#xf731;" horiz-adv-x="385" 
d="M90 422h205v-23h-17q-25 0 -36.5 -10.5t-13.5 -23t-2 -39.5v-238q0 -43 11.5 -52.5t57.5 -12.5v-23h-205v23q45 1 57 14t12 56v224q0 20 -0.5 29.5t-3 22t-8 17.5t-15.5 9t-26 4h-16v23z" />
    <glyph glyph-name="two.oldstyle" unicode="&#xf732;" horiz-adv-x="458" 
d="M391 60l-20 -97h-22q0 26 -5 31.5t-33 5.5h-257v23q166 116 215 169t49 118q0 42 -23.5 72t-69.5 30q-52 0 -91 -31t-39 -75q0 -26 33 -66q-7 -7 -23.5 -13t-21.5 -6q-9 0 -19 22t-10 47q0 58 55 102.5t132 44.5q67 0 114 -36t47 -89q0 -79 -105 -148q-50 -32 -91.5 -60
t-62.5 -42v-2h248z" />
    <glyph glyph-name="three.oldstyle" unicode="&#xf733;" horiz-adv-x="458" 
d="M232 141l2 -2q9 3 35 3q59 0 102 -51t43 -122q0 -82 -61.5 -143.5t-156.5 -61.5q-66 0 -112 31.5t-46 66.5q0 11 8.5 21.5t22.5 10.5q17 0 25 -11t16 -34q22 -62 88 -62q62 0 97 48t35 132q0 13 -0.5 25t-5.5 37.5t-13.5 43t-27.5 32t-45 14.5q-32 0 -57 -23
q-27 -25 -32 -25q-6 0 -10.5 5.5t-4.5 10.5q0 8 5.5 13.5t23.5 17.5q61 40 84 59t39 41q26 37 26 89q0 21 -6 42t-28.5 42.5t-59.5 21.5q-46 0 -80 -29.5t-34 -72.5q0 -35 22 -55q2 -1 7.5 -6.5t5.5 -6.5q0 -7 -15 -14.5t-25 -7.5q-18 0 -30.5 23.5t-12.5 50.5q0 52 47 96.5
t132 44.5q45 0 78.5 -13t50 -32.5t23.5 -37.5t7 -34q0 -28 -13 -53t-40.5 -49t-49 -38.5t-59.5 -37.5z" />
    <glyph glyph-name="four.oldstyle" unicode="&#xf734;" horiz-adv-x="469" 
d="M255 0h-242v23l280 413h29v-405h69q23 0 29 6.5t18 38.5h23l-12 -76h-127v-137q0 -44 12 -54.5t57 -11.5v-23h-213v23q27 0 38 1t22 8t14 21.5t3 42.5v130zM46 31h209v309h-2z" />
    <glyph glyph-name="five.oldstyle" unicode="&#xf735;" horiz-adv-x="448" 
d="M92 422h253q-14 -41 -33 -61q-5 -5 -32 -5h-168l-7 -197l2 -2q46 60 121 60q71 0 125.5 -59t54.5 -159q0 -59 -23.5 -111.5t-77 -89t-127.5 -36.5q-73 0 -118 33.5t-45 71.5q0 27 31 27q18 0 25 -9.5t19 -41.5q21 -58 91 -58q18 0 37 6.5t45 25.5t42.5 66t16.5 115
q0 18 -0.5 32t-6.5 46.5t-16.5 54.5t-33 40t-54.5 18q-73 0 -108 -71h-26z" />
    <glyph glyph-name="six.oldstyle" unicode="&#xf736;" horiz-adv-x="500" 
d="M139 340l2 -2q55 73 136 73q76 0 133.5 -58.5t57.5 -146.5q0 -82 -52.5 -150t-147.5 -68q-102 0 -158 85t-56 214q0 98 28.5 182.5t90 141t145.5 56.5q55 0 92.5 -23t37.5 -48q0 -10 -7 -20t-21 -10q-11 0 -18 4.5t-11.5 10.5t-15.5 25q-23 38 -70 38q-86 0 -129 -86
q-29 -59 -37 -218zM386 192q0 196 -121 196q-48 0 -83 -34q-46 -46 -46 -141q0 -80 32.5 -141t96.5 -61q9 0 17.5 1t29 10.5t35.5 26.5t27 54.5t12 88.5z" />
    <glyph glyph-name="seven.oldstyle" unicode="&#xf737;" horiz-adv-x="417" 
d="M341 358h-230q-21 0 -29.5 -2t-18 -14t-16.5 -38h-23l53 172h22q-5 -24 -5 -33q0 -10 7 -15t14.5 -5.5t25.5 -0.5h243l-187 -561q-18 -53 -33.5 -75t-36.5 -22q-10 0 -18.5 7.5t-8.5 24.5q0 13 12 43q31 65 49 105z" />
    <glyph glyph-name="eight.oldstyle" unicode="&#xf738;" horiz-adv-x="500" 
d="M202 330v2q-136 45 -136 159q0 75 58.5 119t128.5 44q69 0 127 -45.5t58 -117.5q0 -117 -141 -157v-2q159 -38 159 -168q0 -86 -61.5 -133.5t-147.5 -47.5q-88 0 -145.5 52.5t-57.5 123.5q0 76 57 125q36 30 101 46zM356 486q0 145 -105 145q-30 0 -51.5 -12.5t-32 -28
t-16 -38.5t-6.5 -34.5t-1 -25.5q0 -53 16 -90q25 -60 88 -60q22 0 47.5 11.5t39.5 34.5q21 34 21 98zM372 158q0 65 -17 101q-27 60 -106 60q-71 0 -99 -51q-22 -39 -22 -119q0 -14 1 -25.5t7 -35.5t17.5 -40t36 -29t58.5 -13q124 0 124 152z" />
    <glyph glyph-name="nine.oldstyle" unicode="&#xf739;" horiz-adv-x="490" 
d="M363 81q-21 -20 -34 -31t-43.5 -25t-61.5 -14q-71 0 -130.5 58.5t-59.5 150.5q0 87 57.5 152t138.5 65q89 0 153 -77t64 -222q0 -160 -76.5 -267t-188.5 -107q-52 0 -90.5 25.5t-38.5 52.5q0 14 10 21.5t21 7.5q10 0 18 -6t12 -12t12 -20q20 -42 71 -42q158 0 166 290z
M116 226q0 -189 121 -189q63 0 101 55q29 42 29 121q0 57 -13 99t-34 63t-41.5 30t-40.5 9q-10 0 -21 -2t-30.5 -13t-34 -29.5t-25.5 -56t-11 -87.5z" />
    <glyph glyph-name="question.sc" unicode="&#xf73f;" horiz-adv-x="250" 
d="M41 33q0 18 12.5 31t29.5 13t29 -13t12 -31q0 -19 -12 -31.5t-29 -12.5t-29.5 12.5t-12.5 31.5zM97 126h-30v155h27q14 -25 29 -25q41 0 41 92q0 83 -56 83q-27 0 -37 -27q-11 -22 -28 -22q-10 0 -16.5 7t-6.5 18q0 22 27.5 38.5t63.5 16.5q43 0 71 -25t37 -52.5t9 -53.5
q0 -49 -27 -79.5t-65 -30.5q-23 0 -39 10v-105z" />
    <glyph glyph-name="grave.sc" unicode="&#xf760;" 
d="M222 543l-89 73q-19 16 -24.5 21t-11 13.5t-5.5 17.5q0 12 9.5 20.5t21.5 8.5q17 0 29.5 -12.5t32.5 -45.5l56 -96h-19z" />
    <glyph glyph-name="a.sc" unicode="&#xf761;" horiz-adv-x="510" 
d="M265 443l160 -343q23 -50 39 -62.5t48 -14.5v-23h-204v23q24 0 34 2q24 6 24 24q0 6 -9 25l-36 78h-184l-17 -42q-15 -39 -15 -55q0 -18 11.5 -25t39.5 -7v-23h-158v23q36 3 56.5 23t42.5 72l142 325h26zM148 175h162l-83 181z" />
    <glyph glyph-name="b.sc" unicode="&#xf762;" horiz-adv-x="469" 
d="M11 410v23q139 4 188 4q24 0 38.5 -0.5t43 -3t47 -9.5t38 -18t29.5 -30t10 -44q0 -21 -9 -37.5t-21 -26t-32 -18t-33 -12t-34 -7.5v-2q153 -19 153 -117q0 -17 -7.5 -34.5t-26 -36t-57.5 -30t-93 -11.5h-236v23h20q38 0 49 16t11 61v243q0 41 -13 54t-50 13h-15zM163 414
v-174q86 -3 120 13q40 18 40 76q0 24 -9 41t-20.5 25.5t-31 13t-31 5t-30.5 0.5h-38zM202 217h-39v-96q0 -61 8 -79.5t46 -18.5q22 0 36 1t33.5 6.5t30.5 15.5t19.5 30t8.5 48q0 62 -47 82q-27 11 -96 11z" />
    <glyph glyph-name="c.sc" unicode="&#xf763;" horiz-adv-x="510" 
d="M441 433l8 -165h-21q-12 44 -32 76t-38.5 47t-41.5 23.5t-32.5 9.5t-19.5 1q-43 0 -72.5 -21.5t-42 -57.5t-16.5 -64.5t-4 -59.5q0 -18 1 -34t5 -43t13.5 -48.5t24 -42.5t39 -32.5t56.5 -11.5q76 0 127 69q25 34 37 89h21v-168h-22q-8 31 -25 55q-17 -18 -29 -28.5
t-44.5 -23.5t-72.5 -13q-88 0 -151.5 61t-63.5 161q0 97 60 165t157 68q86 0 144 -73q13 30 15 61h20z" />
    <glyph glyph-name="d.sc" unicode="&#xf764;" horiz-adv-x="531" 
d="M12 410v23q207 7 220 7q126 0 191.5 -64t65.5 -160q0 -25 -5 -50.5t-21.5 -56.5t-42 -54t-72 -39t-106.5 -16h-230v23h21q24 0 36 12t14 25t2 38v237q0 28 -2.5 43t-13 22t-21 8.5t-36.5 1.5zM159 414v-330q0 -17 1 -25t5.5 -18t16 -14t30.5 -4q77 0 123 29q70 45 70 166
q0 111 -63 162q-45 37 -119 37q-19 0 -64 -3z" />
    <glyph glyph-name="e.sc" unicode="&#xf765;" horiz-adv-x="458" 
d="M380 433l13 -105h-19q-27 58 -40 70t-53 12h-120v-171h51q17 0 27 1.5t22 8t18 21t7 38.5h21v-166h-24q0 26 -5.5 42.5t-17 22.5t-20 7.5t-23.5 1.5h-56v-117q0 -47 10.5 -61.5t51.5 -14.5h75q20 0 31.5 2t28.5 10.5t31 30t28 57.5h21l-21 -123h-408v23h23q20 0 31.5 4
t16.5 16t6 22.5t1 33.5v236q0 46 -12 61.5t-57 13.5v23h362z" />
    <glyph glyph-name="f.sc" unicode="&#xf766;" horiz-adv-x="417" 
d="M163 410v-171h52q40 0 54 17t18 53h22v-168h-22q-9 50 -20.5 62.5t-56.5 12.5h-47v-120q0 -42 10 -57.5t47 -15.5h22v-23h-223v23h19q15 0 25 4.5t15.5 10t7.5 17.5t2.5 19t0.5 24v237q0 17 -0.5 24t-3 19.5t-8 17.5t-16 9.5t-26.5 4.5h-18v23h369l10 -110h-20
q-24 59 -45.5 73t-63.5 14h-104z" />
    <glyph glyph-name="g.sc" unicode="&#xf767;" horiz-adv-x="552" 
d="M441 432l8 -165h-22q-27 84 -73 121q-42 34 -90 34q-55 0 -95.5 -49.5t-40.5 -150.5q0 -16 1 -30t4.5 -42t13.5 -50t25 -44t42 -34.5t61 -12.5q57 0 83 26.5t26 71.5q0 22 -4 34.5t-15 18t-19.5 6.5t-27.5 1v23h204v-23q-42 0 -53 -16t-11 -59v-69q-40 3 -109 -22
q-43 -15 -80 -15q-102 0 -163.5 69.5t-61.5 160.5q0 93 62 161t151 68q37 0 69.5 -14.5t45.5 -26t32 -31.5q13 33 17 59h20z" />
    <glyph glyph-name="h.sc" unicode="&#xf768;" horiz-adv-x="552" 
d="M161 231h230v104q0 27 -2 40t-14.5 24t-38.5 11h-18v23h220v-23h-18q-37 0 -46 -17.5t-9 -57.5v-237q0 -21 1 -32t6.5 -22.5t17 -16t30.5 -4.5h18v-23h-220v23h19q36 0 45 18t9 57v110h-230v-110q0 -16 0.5 -24t3 -20t8 -17.5t16 -9.5t25.5 -4h19v-23h-218v23h18
q36 0 45 17.5t9 57.5v237q0 16 -0.5 24t-3 19.5t-8 17t-16 10t-26.5 4.5h-18v23h218v-23h-19q-16 0 -26.5 -4.5t-15.5 -10t-7.5 -17.5t-3 -19t-0.5 -24v-104z" />
    <glyph glyph-name="i.sc" unicode="&#xf769;" horiz-adv-x="271" 
d="M250 433v-23h-18q-16 0 -26.5 -4.5t-16 -10t-8 -17t-3 -19.5t-0.5 -24v-237q0 -28 2 -41t14.5 -23.5t38.5 -10.5h17v-23h-218v23h19q19 0 30.5 5t16 17.5t5.5 22t1 30.5v237q0 21 -1 31t-5.5 22t-16 17t-31.5 5h-18v23h218z" />
    <glyph glyph-name="j.sc" unicode="&#xf76a;" horiz-adv-x="271" 
d="M27 433h233v-23q-54 0 -66 -12t-12 -73v-323q0 -81 -7.5 -118.5t-33.5 -67.5q-41 -46 -111 -46q-39 0 -71 15.5t-32 48.5q0 16 12 25.5t27 9.5q17 0 25.5 -10t8.5 -22q0 -2 -2 -13t-2 -12q0 -19 39 -19q38 0 59 32q14 22 14 106v413q0 45 -14.5 55t-66.5 11v23z" />
    <glyph glyph-name="k.sc" unicode="&#xf76b;" horiz-adv-x="510" 
d="M16 433h215v-23q-44 0 -57.5 -11.5t-13.5 -59.5v-132l145 142q27 26 27 38q0 10 -7.5 15.5t-14 6t-21.5 1.5v23h161v-23q-30 -2 -50.5 -12t-50.5 -40l-104 -100l192 -194q24 -24 38 -32t36 -9v-23h-204v23q16 1 24 2t15 5t7 12q0 10 -29 39l-129 129l-35 -34v-95
q0 -38 15.5 -48.5t59.5 -9.5v-23h-219v23q47 0 58.5 16t11.5 73v229q0 44 -12.5 57t-57.5 12v23z" />
    <glyph glyph-name="l.sc" unicode="&#xf76c;" horiz-adv-x="448" 
d="M14 433h226v-23q-49 2 -64.5 -11t-15.5 -65v-245q0 -44 11.5 -55t53.5 -11h76q47 0 71.5 21.5t40.5 83.5h20l-9 -128h-407v23h16q35 0 44 18t9 62v227q0 50 -11.5 66t-60.5 14v23z" />
    <glyph glyph-name="m.sc" unicode="&#xf76d;" horiz-adv-x="594" 
d="M174 433l125 -331l127 331h145v-23q-44 2 -53 -15.5t-9 -77.5v-208q0 -59 9 -72t53 -14v-23h-209v23q27 0 37.5 1.5t21 11t12.5 28t2 55.5v273h-2l-149 -392h-21l-146 392h-2v-285q0 -41 6 -58t18 -21t45 -5v-23h-160v23q47 -1 56.5 14.5t9.5 73.5v229q0 26 -3 40
t-13 20.5t-19 8t-31 1.5v23h150z" />
    <glyph glyph-name="n.sc" unicode="&#xf76e;" horiz-adv-x="510" 
d="M10 433h143l256 -331h2v226q0 43 -14 63t-61 19v23h172v-23q-26 1 -42 -5t-22 -20t-7.5 -24.5t-1.5 -30.5v-341h-24l-302 385h-2v-282q0 -40 18.5 -55t52.5 -14v-23h-170v23q23 -1 38.5 3.5t23.5 10.5t12 19t4.5 22.5t0.5 27.5v239q0 46 -14.5 55.5t-62.5 9.5v23z" />
    <glyph glyph-name="o.sc" unicode="&#xf76f;" horiz-adv-x="552" 
d="M45 216q0 102 68.5 165.5t162.5 63.5q98 0 164.5 -66t66.5 -163q0 -102 -71 -166t-166 -64q-91 0 -158 63.5t-67 166.5zM129 227q0 -218 142 -218q68 0 111 50q41 48 41 152q0 211 -149 211q-46 0 -77 -21t-44.5 -55t-18.5 -62t-5 -57z" />
    <glyph glyph-name="p.sc" unicode="&#xf770;" horiz-adv-x="438" 
d="M219 194h-60v-96q0 -14 0.5 -23t3.5 -20t8.5 -17t16 -10.5t25.5 -4.5h21v-23h-220v23h17q36 0 45 17t9 58v240q0 27 -3 42t-13.5 22t-20 8.5t-33.5 1.5v23q101 4 189 4q119 0 169 -40q44 -36 44 -87q0 -24 -13.5 -52t-48.5 -46q-40 -20 -136 -20zM159 416v-199h53
q65 0 94 21t29 83q0 35 -13.5 56t-37 29t-55.5 10.5t-70 -0.5z" />
    <glyph glyph-name="q.sc" unicode="&#xf771;" horiz-adv-x="552" 
d="M361 4l-133 -78v-2q45 -4 68.5 -11t115.5 -46q50 -22 99 -22q29 0 54.5 14t30.5 41h22q-9 -42 -30 -70.5t-45.5 -39t-39 -13.5t-25.5 -3q-28 0 -55.5 11.5t-44.5 23.5t-54 42q-69 57 -108 57q-30 0 -56 -38q-12 -17 -14.5 -20t-6.5 -3q-7 0 -13.5 5.5t-6.5 12.5t6 15
t20.5 18t24.5 15.5t32 18.5l101 56v2q-2 0 -16 -1t-21 -1q-83 0 -152 62t-69 165q0 99 67.5 165t163.5 66q99 0 165 -67t66 -164q0 -141 -146 -211zM129 229q0 -218 144 -218q95 0 131 88q19 45 19 110q0 102 -33.5 158t-115.5 56q-36 0 -63.5 -14t-42.5 -34.5t-24.5 -49
t-12 -51t-2.5 -45.5z" />
    <glyph glyph-name="r.sc" unicode="&#xf772;" horiz-adv-x="510" 
d="M14 413v23q12 0 78 2t95 2q67 0 102.5 -5t66.5 -22q62 -33 62 -91q0 -55 -47 -84q-37 -23 -100 -29v-2q38 -20 103 -92q54 -59 75 -75.5t48 -16.5h13v-23h-125q-42 38 -116 134q-33 42 -53.5 52.5t-54.5 8.5v-97q0 -19 1 -29t6 -22.5t16 -18t30 -5.5h20v-23h-217v23h18
q19 0 30 5.5t15.5 18t5.5 22t1 29.5v245q0 40 -11 55t-45 15h-17zM161 415v-197q83 0 119 15q54 22 54 86q0 98 -125 98q-14 0 -48 -2z" />
    <glyph glyph-name="s.sc" unicode="&#xf773;" horiz-adv-x="344" 
d="M282 436l2 -129h-21q-9 55 -37.5 84t-68.5 29q-34 0 -51 -18.5t-17 -43.5q0 -30 22.5 -49t80.5 -46q121 -57 121 -146q0 -47 -34 -85.5t-89 -38.5q-51 0 -101 47q-14 -17 -20 -40h-22v144h22q12 -47 29 -74q15 -24 41 -39t50 -15q31 0 53.5 20.5t22.5 50.5q0 60 -93 100
q-32 15 -50 25t-38.5 26.5t-29.5 38t-9 49.5q0 49 32 83t84 34q44 0 85 -38q12 17 17 31h19z" />
    <glyph glyph-name="t.sc" unicode="&#xf774;" horiz-adv-x="469" 
d="M16 433h437v-119h-21q-11 62 -32.5 79t-70.5 17h-59v-310q0 -48 12 -62.5t59 -14.5v-23h-216v23q47 -1 59 12.5t12 63.5v311h-65q-18 0 -27 -1.5t-25 -9.5t-26 -29t-16 -56h-21v119z" />
    <glyph glyph-name="u.sc" unicode="&#xf775;" horiz-adv-x="510" 
d="M336 433h169v-23q-18 0 -27.5 -2.5t-21 -10.5t-16.5 -26.5t-5 -48.5v-149q0 -24 -1 -38t-5.5 -39.5t-15.5 -41t-29.5 -32t-49.5 -24.5t-73 -8q-52 0 -88.5 15.5t-54 34.5t-27.5 49t-11 45.5t-1 38.5v139q-1 68 -10.5 83t-59.5 15v23h217v-23q-47 1 -60 -13t-13 -62v-174
q0 -55 14 -83q33 -65 113 -65q35 0 67 14.5t47 37.5q18 27 18 95v120q0 80 -13 104.5t-63 25.5v23z" />
    <glyph glyph-name="v.sc" unicode="&#xf776;" horiz-adv-x="510" 
d="M-1 433h201v-23q-19 0 -28.5 -1t-19 -6.5t-9.5 -17.5q0 -9 11 -33l129 -276l104 238q15 37 15 56q0 13 -4.5 21.5t-15 12t-17.5 4.5t-24 2v23h170v-23q-14 0 -21 -1t-16.5 -6.5t-20.5 -17.5q-21 -24 -45 -80l-136 -319h-25l-172 369q-16 34 -30.5 44.5t-45.5 10.5v23z
" />
    <glyph glyph-name="w.sc" unicode="&#xf777;" horiz-adv-x="740" 
d="M-1 433h191v-23q-51 -2 -51 -31q0 -14 14 -51l95 -242l130 347h22l143 -347l82 224q13 33 13 54q0 40 -56 46v23h159v-23q-34 -2 -52 -24t-40 -82l-117 -318h-22l-143 348l-131 -348h-23l-143 368q-14 34 -27.5 43.5t-43.5 12.5v23z" />
    <glyph glyph-name="x.sc" unicode="&#xf778;" horiz-adv-x="542" 
d="M22 433h224v-23q-45 0 -52 -8q-3 -4 -3 -10q0 -13 31 -52l62 -74l54 63q27 31 27 52q0 29 -52 29v23h183v-23q-22 0 -35 -2.5t-37 -20.5t-55 -54l-71 -85l123 -149q37 -47 59.5 -62t51.5 -14v-23h-234v23q31 -1 46.5 3.5t15.5 21.5q0 18 -34 58l-73 87l-53 -62
q-42 -49 -42 -75q0 -29 53 -33v-23h-189v23q18 0 30.5 3t39.5 23t60 59l87 103l-111 135q-34 42 -52 52t-54 12v23z" />
    <glyph glyph-name="y.sc" unicode="&#xf779;" horiz-adv-x="510" 
d="M-1 433h209v-23q-16 0 -24.5 -0.5t-19 -6.5t-10.5 -18q0 -16 25 -49l105 -143l86 126q24 36 24 54q0 37 -60 37v23h177v-23q-19 -2 -29 -5t-29.5 -20t-42.5 -50l-116 -167v-70q0 -20 1 -29t5 -22t15 -18.5t29 -5.5h21v-23h-214v23q26 1 35.5 2.5t19.5 9t12 23t2 44.5v62
l-141 193q-18 24 -32.5 36t-23 14t-24.5 3v23z" />
    <glyph glyph-name="z.sc" unicode="&#xf77a;" horiz-adv-x="448" 
d="M55 433h348v-17l-290 -393h149q68 1 88.5 13t52.5 72h18l-11 -108h-386v23l285 387h-135q-48 0 -65 -14t-43 -67h-20z" />
    <glyph glyph-name="exclamdown.sc" unicode="&#xf7a1;" horiz-adv-x="156" 
d="M57 323h28l19 -243q3 -22 3 -41q0 -25 -11 -37.5t-25 -12.5q-13 0 -24.5 12t-11.5 38q0 13 3 41zM29 418q0 19 12.5 31.5t29.5 12.5t29 -12.5t12 -31.5q0 -18 -12 -31t-29 -13t-29.5 13t-12.5 31z" />
    <glyph glyph-name="cent.oldstyle" unicode="&#xf7a2;" horiz-adv-x="281" 
d="M100 1l-44 -126h-27l49 137q-62 42 -62 124q0 70 46 114t113 39l46 129h26l-47 -133q62 -16 62 -53q0 -10 -7 -19.5t-20 -9.5q-12 0 -19.5 6.5t-9.5 12.5t-4 16q-4 15 -11 19l-77 -218q21 -21 57 -21q63 0 78 59h27q-4 -14 -9 -24t-17.5 -27.5t-36.5 -27t-57 -9.5
q-29 0 -56 12zM96 66l70 197q-17 0 -29.5 -3.5t-26 -14.5t-21 -36t-7.5 -63q0 -45 14 -80z" />
    <glyph glyph-name="dieresis.sc" unicode="&#xf7a8;" 
d="M295 583q0 -17 -11.5 -28t-27.5 -11t-27.5 11t-11.5 28q0 16 11.5 27.5t27.5 11.5t27.5 -11.5t11.5 -27.5zM117 583q0 -16 -11.5 -27.5t-27.5 -11.5t-27.5 11t-11.5 28q0 16 11.5 27.5t27.5 11.5t27.5 -11.5t11.5 -27.5z" />
    <glyph glyph-name="macron.sc" unicode="&#xf7af;" 
d="M17 588h299v-45h-299v45z" />
    <glyph glyph-name="acute.sc" unicode="&#xf7b4;" 
d="M111 543h-19l57 96q18 31 31 44.5t30 13.5q13 0 22 -8.5t9 -20.5q0 -13 -8 -22t-33 -30z" />
    <glyph glyph-name="cedilla.sc" unicode="&#xf7b8;" 
d="M198 7h30l-35 -50q63 -21 63 -71q0 -57 -75 -85q-32 -13 -104 -13v21q49 5 62.5 8t28.5 14q23 16 23 41q0 40 -65 43z" />
    <glyph glyph-name="questiondown.sc" unicode="&#xf7bf;" horiz-adv-x="250" 
d="M98 418q0 18 12 31t29 13t29.5 -12.5t12.5 -31.5q0 -18 -12.5 -31t-29.5 -13t-29 13t-12 31zM126 325h31v-155h-27q-13 25 -29 25q-41 0 -41 -92q0 -83 56 -83q17 0 24 7t13 21q9 21 28 21q10 0 16.5 -7t6.5 -18q0 -22 -27.5 -38.5t-63.5 -16.5q-42 0 -70.5 24.5
t-37.5 52t-9 54.5q0 50 27 80.5t66 30.5q17 0 37 -10v104z" />
    <glyph glyph-name="agrave.sc" unicode="&#xf7e0;" horiz-adv-x="510" 
d="M265 443l160 -343q23 -50 39 -62.5t48 -14.5v-23h-204v23q24 0 34 2q24 6 24 24q0 6 -9 25l-36 78h-184l-17 -42q-15 -39 -15 -55q0 -18 11.5 -25t39.5 -7v-23h-158v23q36 3 56.5 23t42.5 72l142 325h26zM148 175h162l-83 181zM311 501l-89 73q-19 16 -24.5 21t-11 13.5
t-5.5 17.5q0 12 9.5 20.5t21.5 8.5q17 0 29.5 -12.5t32.5 -45.5l56 -96h-19z" />
    <glyph glyph-name="aacute.sc" unicode="&#xf7e1;" horiz-adv-x="510" 
d="M265 443l160 -343q23 -50 39 -62.5t48 -14.5v-23h-204v23q24 0 34 2q24 6 24 24q0 6 -9 25l-36 78h-184l-17 -42q-15 -39 -15 -55q0 -18 11.5 -25t39.5 -7v-23h-158v23q36 3 56.5 23t42.5 72l142 325h26zM148 175h162l-83 181zM200 501h-19l57 96q18 31 31 44.5t30 13.5
q13 0 22 -8.5t9 -20.5q0 -13 -8 -22t-33 -30z" />
    <glyph glyph-name="acircumflex.sc" unicode="&#xf7e2;" horiz-adv-x="510" 
d="M265 443l160 -343q23 -50 39 -62.5t48 -14.5v-23h-204v23q24 0 34 2q24 6 24 24q0 6 -9 25l-36 78h-184l-17 -42q-15 -39 -15 -55q0 -18 11.5 -25t39.5 -7v-23h-158v23q36 3 56.5 23t42.5 72l142 325h26zM148 175h162l-83 181zM218 645h76l102 -145h-21l-120 96l-120 -96
h-21z" />
    <glyph glyph-name="atilde.sc" unicode="&#xf7e3;" horiz-adv-x="510" 
d="M265 443l160 -343q23 -50 39 -62.5t48 -14.5v-23h-204v23q24 0 34 2q24 6 24 24q0 6 -9 25l-36 78h-184l-17 -42q-15 -39 -15 -55q0 -18 11.5 -25t39.5 -7v-23h-158v23q36 3 56.5 23t42.5 72l142 325h26zM148 175h162l-83 181zM389 608h17q-9 -107 -83 -107
q-22 0 -38.5 7t-71.5 38q-26 15 -44 15q-37 0 -48 -60h-16q8 107 85 107q27 0 69 -21q43 -26 56 -32t27 -6q22 0 34 18t13 41z" />
    <glyph glyph-name="adieresis.sc" unicode="&#xf7e4;" horiz-adv-x="510" 
d="M265 443l160 -343q23 -50 39 -62.5t48 -14.5v-23h-204v23q24 0 34 2q24 6 24 24q0 6 -9 25l-36 78h-184l-17 -42q-15 -39 -15 -55q0 -18 11.5 -25t39.5 -7v-23h-158v23q36 3 56.5 23t42.5 72l142 325h26zM148 175h162l-83 181zM384 541q0 -17 -11 -28t-28 -11t-28 11
t-11 28q0 16 11.5 27.5t27.5 11.5t27.5 -11.5t11.5 -27.5zM206 541q0 -16 -11.5 -27.5t-27.5 -11.5q-17 0 -28 11t-11 28q0 16 11.5 27.5t27.5 11.5t27.5 -11.5t11.5 -27.5z" />
    <glyph glyph-name="aring.sc" unicode="&#xf7e5;" horiz-adv-x="510" 
d="M265 443l160 -343q23 -50 39 -62.5t48 -14.5v-23h-204v23q24 0 34 2q24 6 24 24q0 6 -9 25l-36 78h-184l-17 -42q-15 -39 -15 -55q0 -18 11.5 -25t39.5 -7v-23h-158v23q36 3 56.5 23t42.5 72l142 325h26zM148 175h162l-83 181zM347 593q0 -38 -27 -65t-65 -27t-65 27
t-27 65t27 64.5t65 26.5t65 -26.5t27 -64.5zM254 656q-27 0 -45 -18.5t-18 -44.5q0 -27 19 -45.5t46 -18.5q26 0 44.5 18.5t18.5 44.5q0 27 -19 45.5t-46 18.5z" />
    <glyph glyph-name="ae.sc" unicode="&#xf7e6;" horiz-adv-x="708" 
d="M215 433h413l12 -103h-20q-33 67 -42 74q-7 6 -42 6h-130v-169h37q28 0 45 4.5t25 16.5t10.5 22t3.5 31h23v-169h-23q-3 41 -20.5 56.5t-81.5 15.5h-19v-133q0 -40 13 -51t51 -11h51q52 0 78 19.5t56 82.5h22l-20 -125h-394v23q47 -1 58 16t11 78v39h-168l-26 -40
q-21 -32 -21 -52q0 -18 12.5 -27.5t24 -11t30.5 -2.5v-23h-182v23q29 3 51 22t65 85l137 210q22 34 22 45q0 13 -8.5 18.5t-18.5 6.5t-35 0v23zM330 413l-151 -234h153v234h-2z" />
    <glyph glyph-name="ccedilla.sc" unicode="&#xf7e7;" horiz-adv-x="510" 
d="M265 -10l-24 -33q64 -21 64 -71q0 -56 -75 -85q-35 -13 -105 -13v21q49 5 63 8t29 14q22 17 22 41q0 40 -65 43l60 76q-76 10 -132.5 67t-56.5 154t60 165t157 68q86 0 144 -73q13 30 15 61h20l8 -165h-21q-12 44 -32 76t-38.5 47t-41.5 23.5t-32.5 9.5t-19.5 1
q-43 0 -72.5 -21.5t-42 -57.5t-16.5 -64.5t-4 -59.5q0 -75 19 -124q34 -88 120 -88q76 0 127 69q25 34 37 89h21v-168h-22q-8 31 -25 55q-60 -65 -141 -65z" />
    <glyph glyph-name="egrave.sc" unicode="&#xf7e8;" horiz-adv-x="458" 
d="M380 433l13 -105h-19q-27 58 -40 70t-53 12h-120v-171h51q17 0 27 1.5t22 8t18 21t7 38.5h21v-166h-24q0 26 -5.5 42.5t-17 22.5t-20 7.5t-23.5 1.5h-56v-117q0 -47 10.5 -61.5t51.5 -14.5h75q20 0 31.5 2t28.5 10.5t31 30t28 57.5h21l-21 -123h-408v23h23q20 0 31.5 4
t16.5 16t6 22.5t1 33.5v236q0 46 -12 61.5t-57 13.5v23h362zM285 501l-89 73q-19 16 -24.5 21t-11 13.5t-5.5 17.5q0 12 9.5 20.5t21.5 8.5q17 0 29.5 -12.5t32.5 -45.5l56 -96h-19z" />
    <glyph glyph-name="eacute.sc" unicode="&#xf7e9;" horiz-adv-x="458" 
d="M380 433l13 -105h-19q-27 58 -40 70t-53 12h-120v-171h51q17 0 27 1.5t22 8t18 21t7 38.5h21v-166h-24q0 26 -5.5 42.5t-17 22.5t-20 7.5t-23.5 1.5h-56v-117q0 -47 10.5 -61.5t51.5 -14.5h75q20 0 31.5 2t28.5 10.5t31 30t28 57.5h21l-21 -123h-408v23h23q20 0 31.5 4
t16.5 16t6 22.5t1 33.5v236q0 46 -12 61.5t-57 13.5v23h362zM174 501h-19l57 96q18 31 31 44.5t30 13.5q13 0 22 -8.5t9 -20.5q0 -13 -8 -22t-33 -30z" />
    <glyph glyph-name="ecircumflex.sc" unicode="&#xf7ea;" horiz-adv-x="458" 
d="M380 433l13 -105h-19q-27 58 -40 70t-53 12h-120v-171h51q17 0 27 1.5t22 8t18 21t7 38.5h21v-166h-24q0 26 -5.5 42.5t-17 22.5t-20 7.5t-23.5 1.5h-56v-117q0 -47 10.5 -61.5t51.5 -14.5h75q20 0 31.5 2t28.5 10.5t31 30t28 57.5h21l-21 -123h-408v23h23q20 0 31.5 4
t16.5 16t6 22.5t1 33.5v236q0 46 -12 61.5t-57 13.5v23h362zM192 645h76l102 -145h-21l-120 96l-120 -96h-21z" />
    <glyph glyph-name="edieresis.sc" unicode="&#xf7eb;" horiz-adv-x="458" 
d="M380 433l13 -105h-19q-27 58 -40 70t-53 12h-120v-171h51q17 0 27 1.5t22 8t18 21t7 38.5h21v-166h-24q0 26 -5.5 42.5t-17 22.5t-20 7.5t-23.5 1.5h-56v-117q0 -47 10.5 -61.5t51.5 -14.5h75q20 0 31.5 2t28.5 10.5t31 30t28 57.5h21l-21 -123h-408v23h23q20 0 31.5 4
t16.5 16t6 22.5t1 33.5v236q0 46 -12 61.5t-57 13.5v23h362zM358 541q0 -17 -11 -28t-28 -11t-28 11t-11 28q0 16 11.5 27.5t27.5 11.5t27.5 -11.5t11.5 -27.5zM180 541q0 -16 -11.5 -27.5t-27.5 -11.5q-17 0 -28 11t-11 28q0 16 11.5 27.5t27.5 11.5t27.5 -11.5t11.5 -27.5
z" />
    <glyph glyph-name="igrave.sc" unicode="&#xf7ec;" horiz-adv-x="271" 
d="M250 433v-23h-18q-16 0 -26.5 -4.5t-16 -10t-8 -17t-3 -19.5t-0.5 -24v-237q0 -28 2 -41t14.5 -23.5t38.5 -10.5h17v-23h-218v23h19q19 0 30.5 5t16 17.5t5.5 22t1 30.5v237q0 21 -1 31t-5.5 22t-16 17t-31.5 5h-18v23h218zM191 501l-89 73q-19 16 -24.5 21t-11 13.5
t-5.5 17.5q0 12 9.5 20.5t21.5 8.5q17 0 29.5 -12.5t32.5 -45.5l56 -96h-19z" />
    <glyph glyph-name="iacute.sc" unicode="&#xf7ed;" horiz-adv-x="271" 
d="M250 433v-23h-18q-16 0 -26.5 -4.5t-16 -10t-8 -17t-3 -19.5t-0.5 -24v-237q0 -28 2 -41t14.5 -23.5t38.5 -10.5h17v-23h-218v23h19q19 0 30.5 5t16 17.5t5.5 22t1 30.5v237q0 21 -1 31t-5.5 22t-16 17t-31.5 5h-18v23h218zM80 501h-19l57 96q18 31 31 44.5t30 13.5
q13 0 22 -8.5t9 -20.5q0 -13 -8 -22t-33 -30z" />
    <glyph glyph-name="icircumflex.sc" unicode="&#xf7ee;" horiz-adv-x="271" 
d="M250 433v-23h-18q-16 0 -26.5 -4.5t-16 -10t-8 -17t-3 -19.5t-0.5 -24v-237q0 -28 2 -41t14.5 -23.5t38.5 -10.5h17v-23h-218v23h19q19 0 30.5 5t16 17.5t5.5 22t1 30.5v237q0 21 -1 31t-5.5 22t-16 17t-31.5 5h-18v23h218zM98 645h76l102 -145h-21l-120 96l-120 -96h-21
z" />
    <glyph glyph-name="idieresis.sc" unicode="&#xf7ef;" horiz-adv-x="271" 
d="M250 433v-23h-18q-16 0 -26.5 -4.5t-16 -10t-8 -17t-3 -19.5t-0.5 -24v-237q0 -28 2 -41t14.5 -23.5t38.5 -10.5h17v-23h-218v23h19q19 0 30.5 5t16 17.5t5.5 22t1 30.5v237q0 21 -1 31t-5.5 22t-16 17t-31.5 5h-18v23h218zM264 541q0 -17 -11 -28t-28 -11t-28 11t-11 28
q0 16 11.5 27.5t27.5 11.5t27.5 -11.5t11.5 -27.5zM86 541q0 -16 -11.5 -27.5t-27.5 -11.5q-17 0 -28 11t-11 28q0 16 11.5 27.5t27.5 11.5t27.5 -11.5t11.5 -27.5z" />
    <glyph glyph-name="eth.sc" unicode="&#xf7f0;" horiz-adv-x="531" 
d="M12 410v23q207 7 220 7q126 0 191.5 -64t65.5 -160q0 -25 -5 -50.5t-21.5 -56.5t-42 -54t-72 -39t-106.5 -16h-230v23h21q24 0 36 12t14 25t2 38v107h-73v23h73v107q0 28 -2.5 43t-13 22t-21 8.5t-36.5 1.5zM159 414v-186h122v-23h-122v-121q0 -17 1 -25t5.5 -18t16 -14
t30.5 -4q77 0 123 29q70 45 70 166q0 111 -63 162q-45 37 -119 37q-19 0 -64 -3z" />
    <glyph glyph-name="ntilde.sc" unicode="&#xf7f1;" horiz-adv-x="510" 
d="M10 433h143l256 -331h2v226q0 43 -14 63t-61 19v23h172v-23q-26 1 -42 -5t-22 -20t-7.5 -24.5t-1.5 -30.5v-341h-24l-302 385h-2v-282q0 -40 18.5 -55t52.5 -14v-23h-170v23q23 -1 38.5 3.5t23.5 10.5t12 19t4.5 22.5t0.5 27.5v239q0 46 -14.5 55.5t-62.5 9.5v23z
M389 608h17q-9 -107 -83 -107q-22 0 -38.5 7t-71.5 38q-26 15 -44 15q-37 0 -48 -60h-16q8 107 85 107q27 0 69 -21q43 -26 56 -32t27 -6q22 0 34 18t13 41z" />
    <glyph glyph-name="ograve.sc" unicode="&#xf7f2;" horiz-adv-x="552" 
d="M45 216q0 102 68.5 165.5t162.5 63.5q98 0 164.5 -66t66.5 -163q0 -102 -71 -166t-166 -64q-91 0 -158 63.5t-67 166.5zM129 227q0 -218 142 -218q68 0 111 50q41 48 41 152q0 211 -149 211q-46 0 -77 -21t-44.5 -55t-18.5 -62t-5 -57zM332 501l-89 73q-19 16 -24.5 21
t-11 13.5t-5.5 17.5q0 12 9.5 20.5t21.5 8.5q17 0 29.5 -12.5t32.5 -45.5l56 -96h-19z" />
    <glyph glyph-name="oacute.sc" unicode="&#xf7f3;" horiz-adv-x="552" 
d="M45 216q0 102 68.5 165.5t162.5 63.5q98 0 164.5 -66t66.5 -163q0 -102 -71 -166t-166 -64q-91 0 -158 63.5t-67 166.5zM129 227q0 -218 142 -218q68 0 111 50q41 48 41 152q0 211 -149 211q-46 0 -77 -21t-44.5 -55t-18.5 -62t-5 -57zM221 501h-19l57 96q18 31 31 44.5
t30 13.5q13 0 22 -8.5t9 -20.5q0 -13 -8 -22t-33 -30z" />
    <glyph glyph-name="ocircumflex.sc" unicode="&#xf7f4;" horiz-adv-x="552" 
d="M45 216q0 102 68.5 165.5t162.5 63.5q98 0 164.5 -66t66.5 -163q0 -102 -71 -166t-166 -64q-91 0 -158 63.5t-67 166.5zM129 227q0 -218 142 -218q68 0 111 50q41 48 41 152q0 211 -149 211q-46 0 -77 -21t-44.5 -55t-18.5 -62t-5 -57zM239 645h76l102 -145h-21l-120 96
l-120 -96h-21z" />
    <glyph glyph-name="otilde.sc" unicode="&#xf7f5;" horiz-adv-x="552" 
d="M45 216q0 102 68.5 165.5t162.5 63.5q98 0 164.5 -66t66.5 -163q0 -102 -71 -166t-166 -64q-91 0 -158 63.5t-67 166.5zM129 227q0 -218 142 -218q68 0 111 50q41 48 41 152q0 211 -149 211q-46 0 -77 -21t-44.5 -55t-18.5 -62t-5 -57zM410 608h17q-9 -107 -83 -107
q-22 0 -38.5 7t-71.5 38q-26 15 -44 15q-37 0 -48 -60h-16q8 107 85 107q27 0 69 -21q43 -26 56 -32t27 -6q22 0 34 18t13 41z" />
    <glyph glyph-name="odieresis.sc" unicode="&#xf7f6;" horiz-adv-x="552" 
d="M45 216q0 102 68.5 165.5t162.5 63.5q98 0 164.5 -66t66.5 -163q0 -102 -71 -166t-166 -64q-91 0 -158 63.5t-67 166.5zM129 227q0 -218 142 -218q68 0 111 50q41 48 41 152q0 211 -149 211q-46 0 -77 -21t-44.5 -55t-18.5 -62t-5 -57zM405 541q0 -17 -11.5 -28
t-27.5 -11t-27.5 11t-11.5 28q0 16 11.5 27.5t27.5 11.5t27.5 -11.5t11.5 -27.5zM227 541q0 -16 -11.5 -27.5t-27.5 -11.5t-27.5 11t-11.5 28q0 16 11.5 27.5t27.5 11.5t27.5 -11.5t11.5 -27.5z" />
    <glyph glyph-name="oslash.sc" unicode="&#xf7f8;" horiz-adv-x="552" 
d="M132 33l-51 -59l-17 12l52 61q-71 66 -71 173q0 94 67 159.5t164 65.5q80 0 142 -46l55 63l15 -14l-54 -63q31 -28 52 -72.5t21 -96.5q0 -102 -71 -166t-166 -64q-78 0 -138 47zM400 346l-239 -279q36 -58 110 -58q68 0 111 50q41 48 41 153q0 88 -23 134zM150 87
l239 278q-39 57 -115 57q-145 0 -145 -206q0 -84 21 -129z" />
    <glyph glyph-name="ugrave.sc" unicode="&#xf7f9;" horiz-adv-x="510" 
d="M336 433h169v-23q-18 0 -27.5 -2.5t-21 -10.5t-16.5 -26.5t-5 -48.5v-149q0 -24 -1 -38t-5.5 -39.5t-15.5 -41t-29.5 -32t-49.5 -24.5t-73 -8q-52 0 -88.5 15.5t-54 34.5t-27.5 49t-11 45.5t-1 38.5v139q-1 68 -10.5 83t-59.5 15v23h217v-23q-47 1 -60 -13t-13 -62v-174
q0 -55 14 -83q33 -65 113 -65q35 0 67 14.5t47 37.5q18 27 18 95v120q0 80 -13 104.5t-63 25.5v23zM311 501l-89 73q-19 16 -24.5 21t-11 13.5t-5.5 17.5q0 12 9.5 20.5t21.5 8.5q17 0 29.5 -12.5t32.5 -45.5l56 -96h-19z" />
    <glyph glyph-name="uacute.sc" unicode="&#xf7fa;" horiz-adv-x="510" 
d="M336 433h169v-23q-18 0 -27.5 -2.5t-21 -10.5t-16.5 -26.5t-5 -48.5v-149q0 -24 -1 -38t-5.5 -39.5t-15.5 -41t-29.5 -32t-49.5 -24.5t-73 -8q-52 0 -88.5 15.5t-54 34.5t-27.5 49t-11 45.5t-1 38.5v139q-1 68 -10.5 83t-59.5 15v23h217v-23q-47 1 -60 -13t-13 -62v-174
q0 -55 14 -83q33 -65 113 -65q35 0 67 14.5t47 37.5q18 27 18 95v120q0 80 -13 104.5t-63 25.5v23zM220 501h-19l57 96q18 31 31 44.5t30 13.5q13 0 22 -8.5t9 -20.5q0 -13 -8 -22t-33 -30z" />
    <glyph glyph-name="ucircumflex.sc" unicode="&#xf7fb;" horiz-adv-x="510" 
d="M336 433h169v-23q-18 0 -27.5 -2.5t-21 -10.5t-16.5 -26.5t-5 -48.5v-149q0 -24 -1 -38t-5.5 -39.5t-15.5 -41t-29.5 -32t-49.5 -24.5t-73 -8q-52 0 -88.5 15.5t-54 34.5t-27.5 49t-11 45.5t-1 38.5v139q-1 68 -10.5 83t-59.5 15v23h217v-23q-47 1 -60 -13t-13 -62v-174
q0 -55 14 -83q33 -65 113 -65q35 0 67 14.5t47 37.5q18 27 18 95v120q0 80 -13 104.5t-63 25.5v23zM218 645h76l102 -145h-21l-120 96l-120 -96h-21z" />
    <glyph glyph-name="udieresis.sc" unicode="&#xf7fc;" horiz-adv-x="510" 
d="M336 433h169v-23q-18 0 -27.5 -2.5t-21 -10.5t-16.5 -26.5t-5 -48.5v-149q0 -24 -1 -38t-5.5 -39.5t-15.5 -41t-29.5 -32t-49.5 -24.5t-73 -8q-52 0 -88.5 15.5t-54 34.5t-27.5 49t-11 45.5t-1 38.5v139q-1 68 -10.5 83t-59.5 15v23h217v-23q-47 1 -60 -13t-13 -62v-174
q0 -55 14 -83q33 -65 113 -65q35 0 67 14.5t47 37.5q18 27 18 95v120q0 80 -13 104.5t-63 25.5v23zM384 541q0 -17 -11 -28t-28 -11t-28 11t-11 28q0 16 11.5 27.5t27.5 11.5t27.5 -11.5t11.5 -27.5zM206 541q0 -16 -11.5 -27.5t-27.5 -11.5q-17 0 -28 11t-11 28
q0 16 11.5 27.5t27.5 11.5t27.5 -11.5t11.5 -27.5z" />
    <glyph glyph-name="yacute.sc" unicode="&#xf7fd;" horiz-adv-x="510" 
d="M-1 433h209v-23q-16 0 -24.5 -0.5t-19 -6.5t-10.5 -18q0 -16 25 -49l105 -143l86 126q24 36 24 54q0 37 -60 37v23h177v-23q-19 -2 -29 -5t-29.5 -20t-42.5 -50l-116 -167v-70q0 -20 1 -29t5 -22t15 -18.5t29 -5.5h21v-23h-214v23q26 1 35.5 2.5t19.5 9t12 23t2 44.5v62
l-141 193q-18 24 -32.5 36t-23 14t-24.5 3v23zM200 501h-19l57 96q18 31 31 44.5t30 13.5q13 0 22 -8.5t9 -20.5q0 -13 -8 -22t-33 -30z" />
    <glyph glyph-name="thorn.sc" unicode="&#xf7fe;" horiz-adv-x="438" 
d="M219 99h-60q-1 -44 8.5 -60t45.5 -16h21v-23h-220v23h17q36 0 45 17t9 58v240q0 27 -3 42t-13.5 22t-20 8.5t-33.5 1.5v23h208v-23q-41 0 -52.5 -13t-11.5 -55q70 2 117.5 -5t64 -14.5t32.5 -20.5q44 -36 44 -87q0 -24 -13.5 -52t-48.5 -46q-40 -20 -136 -20zM159 321
v-199h53q65 0 94 21t29 83q0 65 -51 86q-37 14 -125 9z" />
    <glyph glyph-name="ydieresis.sc" unicode="&#xf7ff;" horiz-adv-x="510" 
d="M-1 433h209v-23q-16 0 -24.5 -0.5t-19 -6.5t-10.5 -18q0 -16 25 -49l105 -143l86 126q24 36 24 54q0 37 -60 37v23h177v-23q-19 -2 -29 -5t-29.5 -20t-42.5 -50l-116 -167v-70q0 -20 1 -29t5 -22t15 -18.5t29 -5.5h21v-23h-214v23q26 1 35.5 2.5t19.5 9t12 23t2 44.5v62
l-141 193q-18 24 -32.5 36t-23 14t-24.5 3v23zM384 541q0 -17 -11 -28t-28 -11t-28 11t-11 28q0 16 11.5 27.5t27.5 11.5t27.5 -11.5t11.5 -27.5zM206 541q0 -16 -11.5 -27.5t-27.5 -11.5q-17 0 -28 11t-11 28q0 16 11.5 27.5t27.5 11.5t27.5 -11.5t11.5 -27.5z" />
    </font>
</defs>
</svg>
